<?xml version="1.0" encoding="utf-8"?>
<!-- Generator: Adobe Illustrator 21.1.0, SVG Export Plug-In . SVG Version: 6.00 Build 0)  -->
<svg version="1.1" xmlns="http://www.w3.org/2000/svg" xmlns:xlink="http://www.w3.org/1999/xlink" x="0px" y="0px"
	 viewBox="0 0 350 350" enable-background="new 0 0 350 350" xml:space="preserve">
<g id="Blue_15_">
	
		<polyline fill="none" stroke="#0037FF" stroke-width="10" stroke-linecap="round" stroke-linejoin="round" stroke-miterlimit="10" points="
		242.8,96 276,96 276,286.7 74,286.7 74,96 107.5,96 		"/>
	
		<line fill="none" stroke="#0037FF" stroke-width="10" stroke-linecap="round" stroke-linejoin="round" stroke-miterlimit="10" x1="135" y1="96" x2="215" y2="96"/>
	
		<line fill="none" stroke="#0037FF" stroke-width="10" stroke-linecap="round" stroke-linejoin="round" stroke-miterlimit="10" x1="74" y1="149.3" x2="276" y2="149.3"/>
	<g>
		
			<path fill="none" stroke="#0037FF" stroke-width="10" stroke-linecap="round" stroke-linejoin="round" stroke-miterlimit="10" d="
			M131,128.8h-19.5c-1.4,0-2.5-1.1-2.5-2.5V65.7c0-1.4,1.1-2.5,2.5-2.5H131c1.4,0,2.5,1.1,2.5,2.5v60.6
			C133.4,127.7,132.3,128.8,131,128.8z"/>
		
			<path fill="none" stroke="#0037FF" stroke-width="10" stroke-linecap="round" stroke-linejoin="round" stroke-miterlimit="10" d="
			M238.5,128.8H219c-1.4,0-2.5-1.1-2.5-2.5V65.7c0-1.4,1.1-2.5,2.5-2.5h19.5c1.4,0,2.5,1.1,2.5,2.5v60.6
			C241,127.7,239.9,128.8,238.5,128.8z"/>
	</g>
	
		<polyline fill="none" stroke="#0037FF" stroke-width="10" stroke-linecap="round" stroke-linejoin="round" stroke-miterlimit="10" points="
		161,206.2 180.7,191.4 180.8,251.3 		"/>
</g>
</svg>
