<?xml version="1.0" encoding="utf-8"?>
<!-- Generator: Adobe Illustrator 21.1.0, SVG Export Plug-In . SVG Version: 6.00 Build 0)  -->
<svg version="1.1" xmlns="http://www.w3.org/2000/svg" xmlns:xlink="http://www.w3.org/1999/xlink" x="0px" y="0px"
	 viewBox="0 0 350 350" enable-background="new 0 0 350 350" xml:space="preserve">
<g id="Yellow_18_">
	<path fill="none" stroke="#FFDE00" stroke-width="10" stroke-linecap="round" stroke-linejoin="round" stroke-miterlimit="10" d="
		M158.1,167h33.9c2.6,0,4.7,2.1,4.7,4.7V217c0,2.6-2.1,4.7-4.7,4.7h-33.9c-2.6,0-4.7-2.1-4.7-4.7v-45.4
		C153.4,169.1,155.5,167,158.1,167z"/>
	<path fill="none" stroke="#FFDE00" stroke-width="10" stroke-linecap="round" stroke-linejoin="round" stroke-miterlimit="10" d="
		M284.9,273.2H65.1c-5.3,0-9.6-4.3-9.6-9.6V125.2c0-5.3,4.3-9.6,9.6-9.6h219.7c5.3,0,9.6,4.3,9.6,9.6v138.4
		C294.5,268.9,290.2,273.2,284.9,273.2z"/>
	<path fill="none" stroke="#FFDE00" stroke-width="10" stroke-linecap="round" stroke-linejoin="round" stroke-miterlimit="10" d="
		M143.1,76.8h63.8c5.9,0,10.6,4.8,10.6,10.6v28h-85.1v-28C132.5,81.6,137.2,76.8,143.1,76.8z"/>
	
		<line fill="none" stroke="#FFDE00" stroke-width="10" stroke-linecap="round" stroke-linejoin="round" stroke-miterlimit="10" x1="153.4" y1="194.4" x2="55.5" y2="194.4"/>
	
		<line fill="none" stroke="#FFDE00" stroke-width="10" stroke-linecap="round" stroke-linejoin="round" stroke-miterlimit="10" x1="294.5" y1="194.4" x2="196.6" y2="194.4"/>
</g>
</svg>
