<?xml version="1.0" encoding="utf-8"?>
<!-- Generator: Adobe Illustrator 21.1.0, SVG Export Plug-In . SVG Version: 6.00 Build 0)  -->
<svg version="1.1" xmlns="http://www.w3.org/2000/svg" xmlns:xlink="http://www.w3.org/1999/xlink" x="0px" y="0px"
	 viewBox="0 0 350 350" enable-background="new 0 0 350 350" xml:space="preserve">

<g id="Blue_7_">
	<path fill="none" stroke="#0037FF" stroke-width="10" stroke-linecap="round" stroke-linejoin="round" stroke-miterlimit="10" d="
		M212.9,212.4c18.1-17.7,42.8-28.6,70.1-28.6c2.2,0,4.3,0.1,6.4,0.2c0.2-3,0.4-6,0.4-9c0-31.9-13-60.8-34-81.6l-81,81L212.9,212.4z
		"/>
	<path fill="none" stroke="#0037FF" stroke-width="10" stroke-linecap="round" stroke-linejoin="round" stroke-miterlimit="10" d="
		M138.9,138.3l36.1,36.1l81-81c-20.8-20.6-49.4-33.3-80.9-33.3c-2.7,0-5.3,0.1-7.9,0.3c0.2,2.6,0.3,5.1,0.3,7.7
		C167.4,95.4,156.5,120.2,138.9,138.3z"/>
	<path fill="none" stroke="#0037FF" stroke-width="10" stroke-linecap="round" stroke-linejoin="round" stroke-miterlimit="10" d="
		M212.9,212.4l-38-38l-81.5,81.5l81.5-81.5l-36.1-36.1C120.6,157,95.1,168.6,67,168.6c-2.2,0-4.5-0.1-6.7-0.2
		c-0.1,2.2-0.2,4.4-0.2,6.7c0,63.5,51.5,114.9,114.9,114.9c2.6,0,5.2-0.1,7.8-0.3c-0.1-1.8-0.1-3.6-0.1-5.4
		C182.6,256.1,194.2,230.6,212.9,212.4z"/>
	<path fill="none" stroke="#0037FF" stroke-width="10" stroke-linecap="round" stroke-linejoin="round" stroke-miterlimit="10" d="
		M138.9,138.3c17.7-18.1,28.6-42.8,28.6-70.1c0-2.6-0.1-5.2-0.3-7.7c-28.4,1.9-54,14.2-73.1,33.1L138.9,138.3z"/>
	<path fill="none" stroke="#0037FF" stroke-width="10" stroke-linecap="round" stroke-linejoin="round" stroke-miterlimit="10" d="
		M138.9,138.3L94,93.5c-19.5,19.4-32.1,45.7-33.8,74.9c2.2,0.1,4.4,0.2,6.7,0.2C95.1,168.6,120.6,157,138.9,138.3z"/>
	<path fill="none" stroke="#0037FF" stroke-width="10" stroke-linecap="round" stroke-linejoin="round" stroke-miterlimit="10" d="
		M289.5,184c-2.1-0.1-4.3-0.2-6.4-0.2c-27.3,0-52,10.9-70.1,28.6l43.6,43.6l-43.6-43.6c-18.7,18.2-30.3,43.7-30.3,71.9
		c0,1.8,0.1,3.6,0.1,5.4C239.6,285.8,285.1,240.7,289.5,184z"/>
</g>
</svg>
