<?xml version="1.0" encoding="utf-8"?>
<!-- Generator: Adobe Illustrator 21.1.0, SVG Export Plug-In . SVG Version: 6.00 Build 0)  -->
<svg version="1.1" xmlns="http://www.w3.org/2000/svg" xmlns:xlink="http://www.w3.org/1999/xlink" x="0px" y="0px"
	 viewBox="0 0 350 350" enable-background="new 0 0 350 350" xml:space="preserve">
<g id="Blue_5_">
	
		<circle fill="none" stroke="#0037FF" stroke-width="10" stroke-linecap="round" stroke-linejoin="round" stroke-miterlimit="10" cx="136.6" cy="112.1" r="48.8"/>
	
		<circle fill="none" stroke="#0037FF" stroke-width="10" stroke-linecap="round" stroke-linejoin="round" stroke-miterlimit="10" cx="236.2" cy="149.3" r="32.5"/>
	<g>
		
			<path fill="none" stroke="#0037FF" stroke-width="10" stroke-linecap="round" stroke-linejoin="round" stroke-miterlimit="10" d="
			M199,201.2c-5-11.1-12.9-20.8-23.2-28c-23.6-16.5-54.9-16.5-78.5,0C79,186,68.1,207,68.1,229.3v57.4h68.5H205v-32.5"/>
		
			<path fill="none" stroke="#0037FF" stroke-width="10" stroke-linecap="round" stroke-linejoin="round" stroke-miterlimit="10" d="
			M262.4,190.1c-15.7-11-36.6-11-52.3,0c-4.4,3.1-8.1,6.8-11.1,11.1c3.9,8.7,6,18.3,6,28.1v24.9h31.2h45.7v-26.7
			C281.9,212.6,274.6,198.7,262.4,190.1z"/>
	</g>
</g>
</svg>
