<?xml version="1.0" encoding="utf-8"?>
<!-- Generator: Adobe Illustrator 21.1.0, SVG Export Plug-In . SVG Version: 6.00 Build 0)  -->
<svg version="1.1" id="ZigZag" xmlns="http://www.w3.org/2000/svg" xmlns:xlink="http://www.w3.org/1999/xlink" x="0px" y="0px"
	 viewBox="0 0 350 350" enable-background="new 0 0 350 350" xml:space="preserve">
<path id="Green" fill="none" stroke="#0037FF" stroke-width="10" stroke-linecap="round" stroke-linejoin="round" stroke-miterlimit="10" d="
	M324.3,88.4c-0.6,13.1-11.7,23.3-24.9,22.7c-3.5-0.2-7-1.1-10.1-2.8l-4.4-2.4c-15.5-8.3-34.5,2.7-34.9,20.1l-0.1,6.2l-0.4-0.7
	c-0.4,12.9-11.3,23.1-24.2,22.7c-3.7-0.1-7.3-1.1-10.6-2.9l-4.4-2.4c-15.5-8.3-34.5,2.7-34.9,20.1l-0.1,6.2l-0.4-0.7
	c-0.6,13.1-11.7,23.3-24.9,22.7c-3.5-0.2-7-1.1-10.1-2.8l-4.4-2.4c-15.5-8.3-34.5,2.7-34.9,20.1l-0.1,6.2l-0.4-0.7
	c-0.6,13.1-11.7,23.3-24.9,22.7c-3.5-0.2-7-1.1-10.1-2.8l-4.4-2.4c-15.5-8.3-34.5,2.7-34.8,20.1l-0.1,6.2"/>
</svg>
