<?xml version="1.0" encoding="utf-8"?>
<!-- Generator: Adobe Illustrator 21.1.0, SVG Export Plug-In . SVG Version: 6.00 Build 0)  -->
<svg version="1.1" id="Calque_1" xmlns="http://www.w3.org/2000/svg" xmlns:xlink="http://www.w3.org/1999/xlink" x="0px" y="0px"
	 viewBox="0 0 115.2 129.6" style="enable-background:new 0 0 115.2 129.6;" xml:space="preserve">
<style type="text/css">
	.st0{fill:#4F79AC;}
	.st1{fill:#8097C0;}
	.st2{fill:#FFFFFF;}
	.st3{fill:none;}
	.st4{clip-path:url(#SVGID_2_);fill:#0C509F;}
	.st5{clip-path:url(#SVGID_4_);fill:#FFFFFF;}
	.st6{clip-path:url(#SVGID_6_);fill:#FFFFFF;}
	.st7{clip-path:url(#SVGID_8_);fill:#FFFFFF;}
	.st8{clip-path:url(#SVGID_10_);fill:#FFFFFF;}
	.st9{clip-path:url(#SVGID_12_);fill:#0C509F;}
	.st10{clip-path:url(#SVGID_14_);fill:#EB212E;}
	.st11{clip-path:url(#SVGID_16_);fill:#808080;}
</style>
<g>
	<g>
		<g>
			<path class="st0" d="M64.3,37.1c0,13.9,11.3,25.2,25.2,25.2c13.9,0,25.2-11.3,25.2-25.2c0-13.9-11.3-25.2-25.2-25.2
				C75.6,11.9,64.3,23.2,64.3,37.1z M69.7,37.1c0-10.9,8.9-19.8,19.8-19.8s19.8,8.9,19.8,19.8s-8.9,19.8-19.8,19.8
				C78.6,56.9,69.7,48,69.7,37.1z"/>
			<path class="st1" d="M89.5,62.8c-14.2,0-25.7-11.5-25.7-25.7s11.5-25.7,25.7-25.7s25.7,11.5,25.7,25.7S103.7,62.8,89.5,62.8z
				 M89.5,12.4c-13.6,0-24.7,11.1-24.7,24.7s11.1,24.7,24.7,24.7s24.7-11.1,24.7-24.7S103.1,12.4,89.5,12.4z M89.5,57.4
				c-11.2,0-20.3-9.1-20.3-20.3c0-11.2,9.1-20.3,20.3-20.3s20.3,9.1,20.3,20.3C109.8,48.3,100.7,57.4,89.5,57.4z M89.5,17.8
				c-10.6,0-19.3,8.7-19.3,19.3s8.7,19.3,19.3,19.3s19.3-8.7,19.3-19.3S100.1,17.8,89.5,17.8z"/>
		</g>
		<g>
			<path class="st0" d="M90.8,0.5h10.1l-7.3,7.7h-5.7L90.8,0.5z"/>
			<path class="st1" d="M93.8,8.7h-6.6L90.5,0h11.6L93.8,8.7z M88.6,7.7h4.8L99.7,1h-8.6L88.6,7.7z"/>
		</g>
		<g>
			<path class="st0" d="M80.4,23.4h18.4v6.1H87.4v4H98v6.1H87.4v4h11.4v6.1H80.4V23.4z"/>
			<path class="st1" d="M99.3,50.2H79.9V22.9h19.4V30H87.9v3h10.6v7.1H87.9v3h11.4V50.2z M80.9,49.2h17.4v-5.1H86.9v-5h10.6V34H86.9
				v-5h11.4v-5.1H80.9V49.2z"/>
		</g>
	</g>
	<g>
		<path d="M32.6,33.4H30c-0.7,0-1.3-0.6-1.3-1.2v-4.6c0-0.7,0.6-1.2,1.3-1.2h1.3v-1.3H29v-1.2h2.3c0.7,0,1.3,0.6,1.3,1.2L32.6,33.4
			L32.6,33.4z M30,32.2h1.3v-4.6H30V32.2z"/>
		<path d="M38.7,31.7c0,1-0.9,1.9-1.9,1.9c-1.1,0-1.9-0.8-1.9-1.9v-6c0-1,0.9-1.9,1.9-1.9c1.1,0,1.9,0.8,1.9,1.9v0.7h-1.3v-1.2h-1.3
			v7.1h1.3v-1.2h1.3V31.7z"/>
		<path d="M44.9,33.4h-2.6c-0.7,0-1.3-0.6-1.3-1.2v-4.6c0-0.7,0.6-1.2,1.3-1.2h1.3v-1.3h-2.3v-1.2h2.3c0.7,0,1.3,0.6,1.3,1.2
			L44.9,33.4L44.9,33.4z M42.3,32.2h1.3v-4.6h-1.3V32.2z"/>
		<path d="M51,33.4h-2.6c-0.7,0-1.3-0.6-1.3-1.2v-7.1c0-0.7,0.6-1.2,1.3-1.2h1.3v-2.4H51L51,33.4L51,33.4z M48.4,32.2h1.3v-7.1h-1.3
			V32.2z"/>
		<path d="M53.3,25.7c0-1,0.9-1.9,1.9-1.9c1.1,0,1.9,0.8,1.9,1.9v3.6h-2.6v2.9h1.3V31h1.3v0.7c0,1-0.9,1.9-1.9,1.9
			c-1.1,0-1.9-0.8-1.9-1.9L53.3,25.7L53.3,25.7z M57,22l-3.6,1.3v-1.2l3.6-1.3V22z M54.6,28.1h1.3v-2.9h-1.3V28.1z"/>
		<path d="M59.4,23.9h5.2c0.7,0,1.3,0.6,1.3,1.2v8.3h-1.3v-8.3h-1.3v8.3H62v-8.3h-1.3v8.3h-1.3L59.4,23.9L59.4,23.9z"/>
		<path d="M69.5,22.8h-1.3v-1.2h1.3V22.8z M69.5,33.5c-0.4,0-0.7-0.1-0.9-0.4c-0.2-0.2-0.4-0.5-0.4-0.9v-8.4h1.3V33.5z"/>
		<path d="M71.7,25.7c0-1,0.9-1.9,1.9-1.9c1.1,0,1.9,0.8,1.9,1.9v3.6H73v2.9h1.3V31h1.3v0.7c0,1-0.9,1.9-1.9,1.9
			c-1.1,0-1.9-0.8-1.9-1.9L71.7,25.7L71.7,25.7z M73,28.1h1.3v-2.9H73V28.1z"/>
		<path d="M53.6,39c0-1,0.9-1.9,1.9-1.9c1.1,0,1.9,0.8,1.9,1.9v1.4h-1.3v-1.9h-1.3v9.4h1.3V46h1.3v1.4c0,1-0.9,1.9-1.9,1.9
			c-1.1,0-1.9-0.8-1.9-1.9V39z"/>
		<path d="M63.3,49.2h-2.6c-0.7,0-1.3-0.6-1.3-1.2v-4.6c0-0.7,0.6-1.2,1.3-1.2H62v-1.3h-2.3v-1.2H62c0.7,0,1.3,0.6,1.3,1.2
			L63.3,49.2L63.3,49.2z M60.7,47.9H62v-4.6h-1.3V47.9z"/>
		<path d="M65.6,41.4c0-1,0.9-1.9,1.9-1.9c1.1,0,1.9,0.8,1.9,1.9V45h-2.6v2.9h1.3v-1.2h1.3v0.7c0,1-0.9,1.9-1.9,1.9
			c-1.1,0-1.9-0.8-1.9-1.9L65.6,41.4L65.6,41.4z M66.9,43.8h1.3v-2.9h-1.3V43.8z"/>
		<path d="M71.7,39.6h2.6c0.7,0,1.3,0.6,1.3,1.2v8.3h-1.3v-8.3H73v8.3h-1.3V39.6z"/>
	</g>
	<g>
		<g>
			<path d="M13,59.7V68h-0.9v-0.7c-0.1,0.3-0.3,0.5-0.4,0.6s-0.3,0.2-0.5,0.2c-0.4,0-0.7-0.2-0.9-0.6c-0.2-0.4-0.3-1.1-0.3-2
				c0-0.4,0-0.8,0.1-1.2c0-0.3,0.1-0.6,0.2-0.8c0.1-0.2,0.2-0.4,0.4-0.5c0.2-0.1,0.3-0.1,0.6-0.1c0.2,0,0.4,0,0.5,0.1
				c0.1,0,0.1,0.1,0.2,0.2s0.1,0.2,0.2,0.3v-3.8H13z M10.9,65.5c0,0.7,0,1.1,0.1,1.4s0.3,0.4,0.5,0.4s0.4-0.1,0.5-0.4
				s0.1-0.7,0.1-1.4c0-0.6,0-1.1-0.1-1.4s-0.2-0.4-0.5-0.4c-0.2,0-0.4,0.1-0.5,0.4C11,64.3,10.9,64.8,10.9,65.5z"/>
			<path d="M14.6,60.8c0.2,0,0.3,0.1,0.4,0.2s0.2,0.3,0.2,0.4c0,0.2-0.1,0.3-0.2,0.5c-0.1,0.1-0.3,0.2-0.5,0.2S14.2,62,14,61.9
				c-0.1-0.1-0.2-0.3-0.2-0.5s0.1-0.3,0.2-0.4C14.2,60.9,14.4,60.8,14.6,60.8z M14.1,63H15v5.1h-0.9V63z"/>
			<path d="M16.1,63H17v0.6c0.2-0.3,0.3-0.5,0.5-0.6s0.4-0.2,0.6-0.2v1c-0.1,0-0.1,0-0.2,0c-0.3,0-0.6,0.1-0.7,0.3
				C17.1,64.3,17,64.6,17,65v3.1h-0.9L16.1,63L16.1,63z"/>
			<path d="M20.8,66.3h0.9c-0.1,1.2-0.6,1.8-1.5,1.8c-0.3,0-0.5-0.1-0.7-0.2s-0.4-0.3-0.5-0.5s-0.2-0.5-0.3-0.8
				c-0.1-0.3-0.1-0.7-0.1-1.2c0-0.9,0.1-1.6,0.4-2c0.2-0.4,0.6-0.6,1.2-0.6c1,0,1.5,0.9,1.5,2.7v0.1h-2.1c0,1.1,0.2,1.6,0.6,1.6
				C20.6,67.3,20.8,67,20.8,66.3z M20.7,65c0-0.5-0.1-0.9-0.2-1c-0.1-0.2-0.2-0.3-0.4-0.3c-0.2,0-0.3,0.1-0.4,0.3
				c-0.1,0.2-0.1,0.5-0.2,1H20.7z"/>
			<path d="M24.6,63v1c-0.1-0.2-0.3-0.2-0.5-0.2c-0.5,0-0.8,0.6-0.8,1.7c0,1.2,0.3,1.8,0.8,1.8c0.1,0,0.3-0.1,0.5-0.2V68
				c-0.2,0.1-0.5,0.2-0.8,0.2c-1,0-1.5-0.9-1.5-2.6c0-0.9,0.1-1.6,0.4-2c0.2-0.4,0.6-0.6,1.2-0.6C24.1,62.9,24.3,62.9,24.6,63z"/>
			<path d="M25.5,61.5h0.9v1.4h0.5v0.7h-0.5v4.3h-0.9v-4.3H25v-0.7h0.5V61.5z"/>
			<path d="M28.1,60.8c0.2,0,0.3,0.1,0.4,0.2s0.2,0.3,0.2,0.4c0,0.2-0.1,0.3-0.2,0.5c-0.1,0.1-0.3,0.2-0.5,0.2s-0.3-0.1-0.5-0.2
				c-0.1-0.1-0.2-0.3-0.2-0.5s0.1-0.3,0.2-0.4C27.7,60.9,27.9,60.8,28.1,60.8z M27.6,63h0.9v5.1h-0.9V63z"/>
			<path d="M32.6,65.5c0,1.7-0.5,2.6-1.6,2.6s-1.6-0.9-1.6-2.6s0.5-2.6,1.6-2.6c0.3,0,0.5,0.1,0.7,0.2s0.4,0.3,0.5,0.5
				s0.2,0.5,0.3,0.8C32.6,64.7,32.6,65.1,32.6,65.5z M31.6,65.5c0-0.7,0-1.1-0.1-1.4s-0.2-0.4-0.5-0.4c-0.2,0-0.4,0.1-0.5,0.4
				s-0.1,0.7-0.1,1.4c0,0.7,0,1.1,0.1,1.4s0.3,0.4,0.5,0.4s0.4-0.1,0.5-0.4S31.6,66.2,31.6,65.5z"/>
			<path d="M33.5,63h0.9v0.6c0.3-0.4,0.6-0.7,1-0.7s0.7,0.2,0.9,0.5c0.1,0.2,0.1,0.5,0.1,1.1v3.6h-0.9v-3.4c0-0.3,0-0.6-0.1-0.7
				s-0.2-0.2-0.4-0.2c-0.1,0-0.2,0-0.3,0.1c-0.1,0-0.1,0.1-0.2,0.2c0,0.1-0.1,0.2-0.1,0.3c0,0.1,0,0.3,0,0.5v3.3h-0.9V63z"/>
			<path d="M42.5,59.7V68h-0.9v-0.7c-0.1,0.3-0.3,0.5-0.4,0.6s-0.3,0.2-0.5,0.2c-0.4,0-0.7-0.2-0.9-0.6c-0.2-0.4-0.3-1.1-0.3-2
				c0-0.4,0-0.8,0.1-1.2c0-0.3,0.1-0.6,0.2-0.8c0.1-0.2,0.2-0.4,0.4-0.5c0.2-0.1,0.3-0.1,0.6-0.1c0.2,0,0.4,0,0.5,0.1
				c0.1,0,0.1,0.1,0.2,0.2s0.1,0.2,0.2,0.3v-3.8H42.5z M40.4,65.5c0,0.7,0,1.1,0.1,1.4s0.3,0.4,0.5,0.4s0.4-0.1,0.5-0.4
				s0.1-0.7,0.1-1.4c0-0.6,0-1.1-0.1-1.4s-0.2-0.4-0.5-0.4c-0.2,0-0.4,0.1-0.5,0.4C40.4,64.3,40.4,64.8,40.4,65.5z"/>
			<path d="M45.5,66.3h0.9c-0.1,1.2-0.6,1.8-1.5,1.8c-0.3,0-0.5-0.1-0.7-0.2s-0.4-0.3-0.5-0.5s-0.2-0.5-0.3-0.8
				c-0.1-0.3-0.1-0.7-0.1-1.2c0-0.9,0.1-1.6,0.4-2c0.2-0.4,0.6-0.6,1.2-0.6c1,0,1.5,0.9,1.5,2.7v0.1h-2.1c0,1.1,0.2,1.6,0.6,1.6
				C45.3,67.3,45.5,67,45.5,66.3z M45.5,65c0-0.5-0.1-0.9-0.2-1c-0.1-0.2-0.2-0.3-0.4-0.3c-0.2,0-0.3,0.1-0.4,0.3
				c-0.1,0.2-0.1,0.5-0.2,1H45.5z"/>
			<path d="M49.2,63.1V64c-0.2-0.2-0.5-0.3-0.7-0.3c-0.1,0-0.2,0-0.2,0c-0.1,0-0.1,0.1-0.2,0.1C48,63.9,48,63.9,48,64s0,0.1,0,0.2
				c0,0.2,0.2,0.5,0.7,0.9c0.2,0.1,0.3,0.3,0.4,0.4s0.2,0.2,0.3,0.3c0.1,0.2,0.2,0.5,0.2,0.8c0,0.5-0.1,0.8-0.4,1.1
				c-0.3,0.3-0.6,0.4-1.1,0.4c-0.3,0-0.5-0.1-0.8-0.2V67c0.3,0.2,0.5,0.3,0.8,0.3c0.4,0,0.6-0.2,0.6-0.6c0-0.2,0-0.3-0.1-0.4
				c0-0.1-0.1-0.1-0.2-0.2s-0.2-0.2-0.3-0.2c-0.4-0.3-0.7-0.6-0.8-0.8c-0.1-0.2-0.2-0.5-0.2-0.8c0-0.4,0.1-0.7,0.4-1s0.6-0.4,1-0.4
				C48.7,62.8,49,62.9,49.2,63.1z"/>
			<path d="M54.3,63.1V64c-0.2-0.2-0.5-0.3-0.7-0.3c-0.1,0-0.2,0-0.2,0c-0.1,0-0.1,0.1-0.2,0.1c-0.1,0.1-0.1,0.1-0.1,0.2
				s0,0.1,0,0.2c0,0.2,0.2,0.5,0.7,0.9c0.2,0.1,0.3,0.3,0.4,0.4s0.2,0.2,0.3,0.3c0.1,0.2,0.2,0.5,0.2,0.8c0,0.5-0.1,0.8-0.4,1.1
				c-0.3,0.3-0.6,0.4-1.1,0.4c-0.3,0-0.5-0.1-0.8-0.2V67c0.3,0.2,0.5,0.3,0.8,0.3c0.4,0,0.6-0.2,0.6-0.6c0-0.2,0-0.3-0.1-0.4
				c0-0.1-0.1-0.1-0.2-0.2s-0.2-0.2-0.3-0.2c-0.4-0.3-0.7-0.6-0.8-0.8c-0.1-0.2-0.2-0.5-0.2-0.8c0-0.4,0.1-0.7,0.4-1s0.6-0.4,1-0.4
				C53.7,62.8,54,62.9,54.3,63.1z"/>
			<path d="M57.2,66.3h0.9c-0.1,1.2-0.6,1.8-1.5,1.8c-0.3,0-0.5-0.1-0.7-0.2s-0.4-0.3-0.5-0.5s-0.2-0.5-0.3-0.8
				C55,66.3,55,65.9,55,65.4c0-0.9,0.1-1.6,0.4-2c0.2-0.4,0.6-0.6,1.2-0.6c1,0,1.5,0.9,1.5,2.7v0.1H56c0,1.1,0.2,1.6,0.6,1.6
				C57,67.3,57.2,67,57.2,66.3z M57.2,65c0-0.5-0.1-0.9-0.2-1c-0.1-0.2-0.2-0.3-0.4-0.3c-0.2,0-0.3,0.1-0.4,0.3
				c-0.1,0.2-0.1,0.5-0.2,1H57.2z"/>
			<path d="M58.9,63h0.9v0.6c0.2-0.3,0.3-0.5,0.5-0.6s0.4-0.2,0.6-0.2v1c-0.1,0-0.1,0-0.2,0c-0.3,0-0.6,0.1-0.7,0.3
				c-0.1,0.2-0.2,0.5-0.2,0.9v3.1h-0.9L58.9,63L58.9,63z"/>
			<path d="M61.4,63h1l0.4,1.6c0.1,0.3,0.1,0.7,0.2,1c0.1,0.4,0.1,0.8,0.1,1.2c0-0.1,0-0.2,0-0.2l0.1-0.8c0-0.3,0.1-0.7,0.2-1.3
				l0.3-1.6h0.9L63.3,68h-0.6L61.4,63z"/>
			<path d="M65.7,60.8c0.2,0,0.3,0.1,0.4,0.2s0.2,0.3,0.2,0.4c0,0.2-0.1,0.3-0.2,0.5c-0.1,0.1-0.3,0.2-0.5,0.2s-0.3-0.1-0.5-0.2
				c-0.1-0.1-0.2-0.3-0.2-0.5s0.1-0.3,0.2-0.4C65.4,60.9,65.6,60.8,65.7,60.8z M65.3,63h0.9v5.1h-0.9V63z"/>
			<path d="M69.4,63v1c-0.1-0.2-0.3-0.2-0.5-0.2c-0.5,0-0.8,0.6-0.8,1.7c0,1.2,0.3,1.8,0.8,1.8c0.1,0,0.3-0.1,0.5-0.2V68
				c-0.2,0.1-0.5,0.2-0.8,0.2c-1,0-1.5-0.9-1.5-2.6c0-0.9,0.1-1.6,0.4-2c0.2-0.4,0.6-0.6,1.2-0.6C68.9,62.9,69.1,62.9,69.4,63z"/>
			<path d="M72.1,66.3H73c-0.1,1.2-0.6,1.8-1.5,1.8c-0.3,0-0.5-0.1-0.7-0.2s-0.4-0.3-0.5-0.5s-0.2-0.5-0.3-0.8
				c-0.1-0.3-0.1-0.7-0.1-1.2c0-0.9,0.1-1.6,0.4-2c0.2-0.4,0.6-0.6,1.2-0.6c1,0,1.5,0.9,1.5,2.7v0.1h-2.1c0,1.1,0.2,1.6,0.6,1.6
				C71.9,67.3,72.1,67,72.1,66.3z M72.1,65c0-0.5-0.1-0.9-0.2-1c-0.1-0.2-0.2-0.3-0.4-0.3c-0.2,0-0.3,0.1-0.4,0.3
				c-0.1,0.2-0.1,0.5-0.2,1H72.1z"/>
			<path d="M75.8,63.1V64c-0.2-0.2-0.5-0.3-0.7-0.3c-0.1,0-0.2,0-0.2,0c-0.1,0-0.1,0.1-0.2,0.1c-0.1,0.1-0.1,0.1-0.1,0.2
				s0,0.1,0,0.2c0,0.2,0.2,0.5,0.7,0.9c0.2,0.1,0.3,0.3,0.4,0.4s0.2,0.2,0.3,0.3c0.1,0.2,0.2,0.5,0.2,0.8c0,0.5-0.1,0.8-0.4,1.1
				c-0.3,0.3-0.6,0.4-1.1,0.4c-0.3,0-0.5-0.1-0.8-0.2V67c0.3,0.2,0.5,0.3,0.8,0.3c0.4,0,0.6-0.2,0.6-0.6c0-0.2,0-0.3-0.1-0.4
				c0-0.1-0.1-0.1-0.2-0.2s-0.2-0.2-0.3-0.2c-0.4-0.3-0.7-0.6-0.8-0.8c-0.1-0.2-0.2-0.5-0.2-0.8c0-0.4,0.1-0.7,0.4-1s0.6-0.4,1-0.4
				C75.3,62.8,75.5,62.9,75.8,63.1z"/>
			<path d="M27.4,69.7V78h-0.9v-0.7c-0.1,0.3-0.3,0.5-0.4,0.6s-0.3,0.2-0.5,0.2c-0.4,0-0.7-0.2-0.9-0.6c-0.2-0.4-0.3-1.1-0.3-2
				c0-0.4,0-0.8,0.1-1.2c0-0.3,0.1-0.6,0.2-0.8c0.1-0.2,0.2-0.4,0.4-0.5c0.2-0.1,0.3-0.1,0.6-0.1c0.2,0,0.4,0,0.5,0.1
				c0.1,0,0.1,0.1,0.2,0.2s0.1,0.2,0.2,0.3v-3.8H27.4z M25.3,75.5c0,0.7,0,1.1,0.1,1.4s0.3,0.4,0.5,0.4s0.4-0.1,0.5-0.4
				s0.1-0.7,0.1-1.4c0-0.6,0-1.1-0.1-1.4s-0.2-0.4-0.5-0.4c-0.2,0-0.4,0.1-0.5,0.4C25.3,74.4,25.3,74.8,25.3,75.5z"/>
			<path d="M30.4,76.3h0.9c-0.1,1.2-0.6,1.8-1.5,1.8c-0.3,0-0.5-0.1-0.7-0.2s-0.4-0.3-0.5-0.5s-0.2-0.5-0.3-0.8
				c-0.1-0.3-0.1-0.7-0.1-1.2c0-0.9,0.1-1.6,0.4-2c0.2-0.4,0.6-0.6,1.2-0.6c1,0,1.5,0.9,1.5,2.7v0.1h-2.1c0,1.1,0.2,1.6,0.6,1.6
				C30.2,77.3,30.4,77,30.4,76.3z M30.3,75c0-0.5-0.1-0.9-0.2-1c-0.1-0.2-0.2-0.3-0.4-0.3c-0.2,0-0.3,0.1-0.4,0.3
				c-0.1,0.2-0.1,0.5-0.2,1H30.3z M30.8,70.9l-1,1.4L29.3,72l0.8-1.5L30.8,70.9z"/>
			<path d="M32.1,80.1V73H33v0.7c0.1-0.3,0.3-0.5,0.4-0.6s0.3-0.2,0.5-0.2c0.4,0,0.7,0.2,0.9,0.6c0.2,0.4,0.3,1.1,0.3,2
				S35,77,34.8,77.4c-0.2,0.4-0.5,0.6-0.9,0.6c-0.2,0-0.4,0-0.5-0.1c-0.1,0-0.1-0.1-0.2-0.2s-0.1-0.2-0.2-0.3V80h-0.9V80.1z
				 M34.2,75.5c0-0.7,0-1.2-0.1-1.4c-0.1-0.3-0.2-0.4-0.5-0.4c-0.2,0-0.4,0.1-0.5,0.4S33,74.8,33,75.5c0,0.7,0,1.1,0.1,1.4
				s0.2,0.4,0.5,0.4c0.2,0,0.4-0.1,0.5-0.4S34.2,76.2,34.2,75.5z"/>
			<path d="M39,73v5.1h-0.9v-0.7c-0.1,0.3-0.3,0.5-0.4,0.6s-0.3,0.2-0.5,0.2c-0.4,0-0.7-0.2-0.9-0.6c-0.2-0.4-0.3-1.1-0.3-2
				s0.1-1.5,0.3-1.9c0.2-0.4,0.5-0.6,0.9-0.6s0.7,0.2,0.9,0.7v-0.6H39V73z M36.9,75.5c0,0.7,0,1.1,0.1,1.4s0.3,0.4,0.5,0.4
				s0.4-0.1,0.5-0.4s0.1-0.7,0.1-1.4c0-0.6,0-1.1-0.1-1.4s-0.2-0.4-0.5-0.4c-0.2,0-0.4,0.1-0.5,0.4C36.9,74.4,36.9,74.8,36.9,75.5z"
				/>
			<path d="M40,73h0.9v0.6c0.2-0.3,0.3-0.5,0.5-0.6s0.4-0.2,0.6-0.2v1c-0.1,0-0.1,0-0.2,0c-0.3,0-0.6,0.1-0.7,0.3
				c-0.1,0.2-0.2,0.5-0.2,0.9v3.1H40V73z"/>
			<path d="M43.1,71.5H44v1.4h0.5v0.7H44v4.3h-0.9v-4.3h-0.5v-0.7h0.5V71.5z"/>
			<path d="M47.1,76.3H48c-0.1,1.2-0.6,1.8-1.5,1.8c-0.3,0-0.5-0.1-0.7-0.2s-0.4-0.3-0.5-0.5s-0.2-0.5-0.3-0.8
				c-0.1-0.3-0.1-0.7-0.1-1.2c0-0.9,0.1-1.6,0.4-2c0.2-0.4,0.6-0.6,1.2-0.6c1,0,1.5,0.9,1.5,2.7v0.1h-2.1c0,1.1,0.2,1.6,0.6,1.6
				C46.9,77.3,47.1,77,47.1,76.3z M47.1,75c0-0.5-0.1-0.9-0.2-1c-0.1-0.2-0.2-0.3-0.4-0.3c-0.2,0-0.3,0.1-0.4,0.3
				c-0.1,0.2-0.1,0.5-0.2,1H47.1z"/>
			<path d="M48.9,73h0.9v0.6c0.3-0.5,0.6-0.7,1-0.7c0.5,0,0.8,0.2,1,0.7c0.2-0.5,0.6-0.7,1.1-0.7c0.4,0,0.6,0.1,0.8,0.3
				c0.2,0.2,0.3,0.5,0.3,0.8v4h-1v-3.3c0-0.4,0-0.6-0.1-0.8c-0.1-0.1-0.2-0.2-0.4-0.2c-0.2,0-0.4,0.1-0.5,0.2s-0.1,0.4-0.1,0.8V78
				h-1v-3.3c0-0.2,0-0.3,0-0.5c0-0.1,0-0.2-0.1-0.3c0-0.1-0.1-0.1-0.2-0.2c-0.1,0-0.2-0.1-0.3-0.1c-0.2,0-0.4,0.1-0.5,0.2
				s-0.1,0.4-0.1,0.8v3.3h-0.9V73H48.9z"/>
			<path d="M56.9,76.3h0.9c-0.1,1.2-0.6,1.8-1.5,1.8c-0.3,0-0.5-0.1-0.7-0.2s-0.4-0.3-0.5-0.5s-0.2-0.5-0.3-0.8
				c-0.1-0.3-0.1-0.7-0.1-1.2c0-0.9,0.1-1.6,0.4-2c0.2-0.4,0.6-0.6,1.2-0.6c1,0,1.5,0.9,1.5,2.7v0.1h-2.1c0,1.1,0.2,1.6,0.6,1.6
				C56.8,77.3,56.9,77,56.9,76.3z M56.9,75c0-0.5-0.1-0.9-0.2-1c-0.1-0.2-0.2-0.3-0.4-0.3c-0.2,0-0.3,0.1-0.4,0.3
				c-0.1,0.2-0.1,0.5-0.2,1H56.9z"/>
			<path d="M58.7,73h0.9v0.6c0.3-0.4,0.6-0.7,1-0.7s0.7,0.2,0.9,0.5c0.1,0.2,0.1,0.5,0.1,1.1v3.6h-0.9v-3.4c0-0.3,0-0.6-0.1-0.7
				s-0.2-0.2-0.4-0.2c-0.1,0-0.2,0-0.3,0.1c-0.1,0-0.1,0.1-0.2,0.2c0,0.1-0.1,0.2-0.1,0.3c0,0.1,0,0.3,0,0.5v3.3h-0.9V73z"/>
			<path d="M62.9,71.5h0.9v1.4h0.5v0.7h-0.5v4.3h-0.9v-4.3h-0.5v-0.7h0.5V71.5z"/>
			<path d="M67.9,73v5.1H67v-0.7c-0.1,0.3-0.3,0.5-0.4,0.6s-0.3,0.2-0.5,0.2c-0.4,0-0.7-0.2-0.9-0.6c-0.2-0.4-0.3-1.1-0.3-2
				s0.1-1.5,0.3-1.9c0.2-0.4,0.5-0.6,0.9-0.6s0.7,0.2,0.9,0.7v-0.6h0.9V73z M65.8,75.5c0,0.7,0,1.1,0.1,1.4s0.2,0.4,0.5,0.4
				c0.2,0,0.4-0.1,0.5-0.4s0.1-0.7,0.1-1.4c0-0.6,0-1.1-0.1-1.4s-0.2-0.4-0.5-0.4c-0.2,0-0.4,0.1-0.5,0.4
				C65.8,74.4,65.8,74.8,65.8,75.5z"/>
			<path d="M68.9,73h0.9v3.4c0,0.3,0.1,0.5,0.1,0.7c0.1,0.1,0.2,0.2,0.4,0.2c0.2,0,0.4-0.1,0.4-0.2c0.1-0.1,0.1-0.3,0.1-0.6v-0.4v-3
				h0.9v3c0,0.7-0.1,1.2-0.2,1.4c-0.2,0.5-0.7,0.7-1.4,0.7c-0.5,0-0.9-0.1-1.2-0.4c-0.2-0.3-0.3-0.7-0.3-1.4V73H68.9z"/>
			<path d="M72.5,73h1.1l0.4,1c0.1,0.1,0.1,0.2,0.1,0.4c0,0.1,0.1,0.3,0.1,0.4c0-0.1,0.1-0.2,0.1-0.4c0-0.1,0.1-0.2,0.1-0.3l0.1-0.1
				l0.4-0.9h1l-1.1,2.4l1.4,2.7h-1.1l-0.4-1c-0.2-0.5-0.3-0.8-0.4-1.1c0,0.3-0.1,0.6-0.3,1l-0.5,1.1h-1l1.3-2.7L72.5,73z"/>
			<path d="M3,79.7V88H2.1v-0.7c-0.1,0.3-0.3,0.5-0.4,0.6c-0.1,0.1-0.3,0.2-0.5,0.2c-0.4,0-0.7-0.2-0.9-0.6S0,86.4,0,85.5
				c0-0.4,0-0.8,0.1-1.2c0-0.3,0.1-0.6,0.2-0.8c0.1-0.2,0.2-0.4,0.4-0.5s0.3-0.1,0.6-0.1c0.2,0,0.4,0,0.5,0.1c0.1,0,0.1,0.1,0.2,0.2
				c0.1,0.1,0.1,0.2,0.2,0.3v-3.8H3z M0.9,85.5c0,0.7,0,1.1,0.1,1.4s0.3,0.4,0.5,0.4s0.4-0.1,0.5-0.4s0.1-0.7,0.1-1.4
				c0-0.6,0-1.1-0.1-1.4s-0.2-0.4-0.5-0.4c-0.2,0-0.4,0.1-0.5,0.4C1,84.4,0.9,84.8,0.9,85.5z"/>
			<path d="M6,86.3h0.9c-0.1,1.2-0.6,1.8-1.5,1.8c-0.3,0-0.5-0.1-0.7-0.2s-0.4-0.3-0.5-0.5S4,86.9,3.9,86.6s-0.1-0.7-0.1-1.2
				c0-0.9,0.1-1.6,0.4-2c0.2-0.4,0.6-0.6,1.2-0.6c1,0,1.5,0.9,1.5,2.7v0.1H4.8c0,1.1,0.2,1.6,0.6,1.6C5.9,87.3,6,87,6,86.3z M6,85
				c0-0.5-0.1-0.9-0.2-1c-0.1-0.2-0.2-0.3-0.4-0.3S5.1,83.8,5,84c-0.1,0.2-0.1,0.5-0.2,1H6z"/>
			<path d="M9.9,79.7h0.9V88H9.9V79.7z"/>
			<path d="M12.5,80.3l0.8,0.2l-1,2.7l-0.5-0.1L12.5,80.3z"/>
			<path d="M16.1,86.3H17c-0.1,1.2-0.6,1.8-1.5,1.8c-0.3,0-0.5-0.1-0.7-0.2s-0.4-0.3-0.5-0.5s-0.2-0.5-0.3-0.8
				c-0.1-0.3-0.1-0.7-0.1-1.2c0-0.9,0.1-1.6,0.4-2c0.2-0.4,0.6-0.6,1.2-0.6c1,0,1.5,0.9,1.5,2.7v0.1h-2.1c0,1.1,0.2,1.6,0.6,1.6
				C15.9,87.3,16.1,87,16.1,86.3z M16.1,85c0-0.5-0.1-0.9-0.2-1c-0.1-0.2-0.2-0.3-0.4-0.3c-0.2,0-0.3,0.1-0.4,0.3
				c-0.1,0.2-0.1,0.5-0.2,1H16.1z M16.6,80.9l-1,1.4L15.1,82l0.8-1.5L16.6,80.9z"/>
			<path d="M20.8,79.7V88h-0.9v-0.7c-0.1,0.3-0.3,0.5-0.4,0.6s-0.3,0.2-0.5,0.2c-0.4,0-0.7-0.2-0.9-0.6c-0.2-0.4-0.3-1.1-0.3-2
				c0-0.4,0-0.8,0.1-1.2c0-0.3,0.1-0.6,0.2-0.8c0.1-0.2,0.2-0.4,0.4-0.5c0.2-0.1,0.3-0.1,0.6-0.1c0.2,0,0.4,0,0.5,0.1
				c0.1,0,0.1,0.1,0.2,0.2s0.1,0.2,0.2,0.3v-3.8H20.8z M18.7,85.5c0,0.7,0,1.1,0.1,1.4s0.3,0.4,0.5,0.4s0.4-0.1,0.5-0.4
				s0.1-0.7,0.1-1.4c0-0.6,0-1.1-0.1-1.4s-0.2-0.4-0.5-0.4c-0.2,0-0.4,0.1-0.5,0.4C18.7,84.4,18.7,84.8,18.7,85.5z"/>
			<path d="M21.8,83h0.9v3.4c0,0.3,0.1,0.5,0.1,0.7c0.1,0.1,0.2,0.2,0.4,0.2c0.2,0,0.4-0.1,0.4-0.2c0.1-0.1,0.1-0.3,0.1-0.6v-0.4v-3
				h0.9v3c0,0.7-0.1,1.2-0.2,1.4c-0.2,0.5-0.7,0.7-1.4,0.7c-0.5,0-0.9-0.1-1.2-0.4c-0.2-0.3-0.3-0.7-0.3-1.4V83H21.8z"/>
			<path d="M28,83.1v1c-0.1-0.2-0.3-0.2-0.5-0.2c-0.5,0-0.8,0.6-0.8,1.7c0,1.2,0.3,1.8,0.8,1.8c0.1,0,0.3-0.1,0.5-0.2v0.9
				c-0.2,0.1-0.5,0.2-0.8,0.2c-1,0-1.5-0.9-1.5-2.6c0-0.9,0.1-1.6,0.4-2c0.2-0.4,0.6-0.6,1.2-0.6C27.5,82.9,27.7,83,28,83.1z"/>
			<path d="M31.7,83v5.1h-0.9v-0.7c-0.1,0.3-0.3,0.5-0.4,0.6s-0.3,0.2-0.5,0.2c-0.4,0-0.7-0.2-0.9-0.6c-0.2-0.4-0.3-1.1-0.3-2
				s0.1-1.5,0.3-1.9c0.2-0.4,0.5-0.6,0.9-0.6s0.7,0.2,0.9,0.7v-0.6h0.9V83z M29.6,85.5c0,0.7,0,1.1,0.1,1.4s0.3,0.4,0.5,0.4
				s0.4-0.1,0.5-0.4s0.1-0.7,0.1-1.4c0-0.6,0-1.1-0.1-1.4s-0.2-0.4-0.5-0.4c-0.2,0-0.4,0.1-0.5,0.4C29.6,84.4,29.6,84.8,29.6,85.5z"
				/>
			<path d="M32.9,81.6h0.9V83h0.5v0.7h-0.5V88h-0.9v-4.3h-0.5V83h0.5V81.6z"/>
			<path d="M35.4,80.8c0.2,0,0.3,0.1,0.4,0.2s0.2,0.3,0.2,0.4c0,0.2-0.1,0.3-0.2,0.5c-0.1,0.1-0.3,0.2-0.5,0.2S35,82,34.8,81.9
				c-0.1-0.1-0.2-0.3-0.2-0.5s0.1-0.3,0.2-0.4C35.1,80.9,35.2,80.8,35.4,80.8z M35,83h0.9v5.1H35V83z"/>
			<path d="M40,85.6c0,1.7-0.5,2.6-1.6,2.6s-1.6-0.9-1.6-2.6s0.5-2.6,1.6-2.6c0.3,0,0.5,0.1,0.7,0.2s0.4,0.3,0.5,0.5
				s0.2,0.5,0.3,0.8C39.9,84.7,40,85.1,40,85.6z M39,85.5c0-0.7,0-1.1-0.1-1.4s-0.2-0.4-0.5-0.4c-0.2,0-0.4,0.1-0.5,0.4
				s-0.1,0.7-0.1,1.4c0,0.7,0,1.1,0.1,1.4s0.3,0.4,0.5,0.4s0.4-0.1,0.5-0.4C38.9,86.6,39,86.2,39,85.5z"/>
			<path d="M40.8,83h0.9v0.6c0.3-0.4,0.6-0.7,1-0.7s0.7,0.2,0.9,0.5c0.1,0.2,0.1,0.5,0.1,1.1v3.6h-0.9v-3.4c0-0.3,0-0.6-0.1-0.7
				s-0.2-0.2-0.4-0.2c-0.1,0-0.2,0-0.3,0.1c-0.1,0-0.1,0.1-0.2,0.2c0,0.1-0.1,0.2-0.1,0.3c0,0.1,0,0.3,0,0.5v3.3h-0.9V83z"/>
			<path d="M47,83h0.9v0.6c0.3-0.4,0.6-0.7,1-0.7s0.7,0.2,0.9,0.5c0.1,0.2,0.1,0.5,0.1,1.1v3.6H49v-3.4c0-0.3,0-0.6-0.1-0.7
				s-0.2-0.2-0.4-0.2c-0.1,0-0.2,0-0.3,0.1c-0.1,0-0.1,0.1-0.2,0.2c0,0.1-0.1,0.2-0.1,0.3c0,0.1,0,0.3,0,0.5v3.3H47V83z"/>
			<path d="M53.9,83v5.1H53v-0.7c-0.1,0.3-0.3,0.5-0.4,0.6s-0.3,0.2-0.5,0.2c-0.4,0-0.7-0.2-0.9-0.6c-0.2-0.4-0.3-1.1-0.3-2
				s0.1-1.5,0.3-1.9c0.2-0.4,0.5-0.6,0.9-0.6s0.7,0.2,0.9,0.7v-0.6h0.9V83z M51.8,85.5c0,0.7,0,1.1,0.1,1.4s0.3,0.4,0.5,0.4
				s0.4-0.1,0.5-0.4s0.1-0.7,0.1-1.4c0-0.6,0-1.1-0.1-1.4s-0.2-0.4-0.5-0.4c-0.2,0-0.4,0.1-0.5,0.4C51.9,84.4,51.8,84.8,51.8,85.5z"
				/>
			<path d="M55.1,81.6H56V83h0.5v0.7H56V88h-0.9v-4.3h-0.5V83h0.5V81.6z"/>
			<path d="M57.7,80.8c0.2,0,0.3,0.1,0.4,0.2s0.2,0.3,0.2,0.4c0,0.2-0.1,0.3-0.2,0.5c-0.1,0.1-0.3,0.2-0.5,0.2s-0.3-0.1-0.5-0.2
				c-0.1-0.1-0.2-0.3-0.2-0.5s0.1-0.3,0.2-0.4C57.3,80.9,57.5,80.8,57.7,80.8z M57.2,83h0.9v5.1h-0.9V83z"/>
			<path d="M62.2,85.6c0,1.7-0.5,2.6-1.6,2.6S59,87.3,59,85.6s0.5-2.6,1.6-2.6c0.3,0,0.5,0.1,0.7,0.2s0.4,0.3,0.5,0.5
				s0.2,0.5,0.3,0.8C62.2,84.7,62.2,85.1,62.2,85.6z M61.2,85.5c0-0.7,0-1.1-0.1-1.4s-0.2-0.4-0.5-0.4c-0.2,0-0.4,0.1-0.5,0.4
				S60,84.8,60,85.5c0,0.7,0,1.1,0.1,1.4s0.3,0.4,0.5,0.4s0.4-0.1,0.5-0.4S61.2,86.2,61.2,85.5z"/>
			<path d="M63.1,83H64v0.6c0.3-0.4,0.6-0.7,1-0.7s0.7,0.2,0.9,0.5c0.1,0.2,0.1,0.5,0.1,1.1v3.6h-0.9v-3.4c0-0.3,0-0.6-0.1-0.7
				s-0.2-0.2-0.4-0.2c-0.1,0-0.2,0-0.3,0.1c-0.1,0-0.1,0.1-0.2,0.2c0,0.1-0.1,0.2-0.1,0.3c0,0.1,0,0.3,0,0.5v3.3h-0.9V83z"/>
			<path d="M70,83v5.1h-0.9v-0.7c-0.1,0.3-0.3,0.5-0.4,0.6s-0.3,0.2-0.5,0.2c-0.4,0-0.7-0.2-0.9-0.6c-0.2-0.4-0.3-1.1-0.3-2
				s0.1-1.5,0.3-1.9c0.2-0.4,0.5-0.6,0.9-0.6s0.7,0.2,0.9,0.7v-0.6H70V83z M67.9,85.5c0,0.7,0,1.1,0.1,1.4s0.2,0.4,0.5,0.4
				c0.2,0,0.4-0.1,0.5-0.4s0.1-0.7,0.1-1.4c0-0.6,0-1.1-0.1-1.4s-0.2-0.4-0.5-0.4c-0.2,0-0.4,0.1-0.5,0.4
				C68,84.4,67.9,84.8,67.9,85.5z"/>
			<path d="M71.1,79.7H72V88h-0.9V79.7z"/>
			<path d="M75.1,86.3H76c-0.1,1.2-0.6,1.8-1.5,1.8c-0.3,0-0.5-0.1-0.7-0.2s-0.4-0.3-0.5-0.5s-0.2-0.5-0.3-0.8
				c-0.1-0.3-0.1-0.7-0.1-1.2c0-0.9,0.1-1.6,0.4-2c0.2-0.4,0.6-0.6,1.2-0.6c1,0,1.5,0.9,1.5,2.7v0.1h-2.1c0,1.1,0.2,1.6,0.6,1.6
				C74.9,87.3,75.1,87,75.1,86.3z M75,85c0-0.5-0.1-0.9-0.2-1c-0.1-0.2-0.2-0.3-0.4-0.3c-0.2,0-0.3,0.1-0.4,0.3
				c-0.1,0.2-0.1,0.5-0.2,1H75z"/>
			<path d="M52.9,90.5h0.9l0.7,3.1c0.1,0.4,0.2,0.8,0.2,1.2c0.1,0.4,0.1,0.8,0.2,1.2c0-0.1,0-0.1,0-0.1v-0.1l0.1-0.9l0.1-0.8
				l0.1-0.5l0.6-3h0.9l0.7,7.6h-1l-0.2-2.6c0-0.1,0-0.2,0-0.3c0-0.1,0-0.2,0-0.2v-1v-0.9l0,0c0,0,0,0,0-0.1v0.2
				c0,0.2-0.1,0.3-0.1,0.5c0,0.1,0,0.2-0.1,0.3l-0.1,0.7v0.3l-0.6,3.3h-0.7L54,95.5c-0.1-0.4-0.2-0.8-0.2-1.1
				c-0.1-0.4-0.1-0.8-0.2-1.2l-0.3,5.2h-1L52.9,90.5z"/>
			<path d="M61.1,93v5.1h-0.9v-0.7c-0.1,0.3-0.3,0.5-0.4,0.6s-0.3,0.2-0.5,0.2c-0.4,0-0.7-0.2-0.9-0.6c-0.2-0.4-0.3-1.1-0.3-2
				s0.1-1.5,0.3-1.9c0.2-0.4,0.5-0.6,0.9-0.6s0.7,0.2,0.9,0.7v-0.6h0.9V93z M59,95.5c0,0.7,0,1.1,0.1,1.4s0.3,0.4,0.5,0.4
				s0.4-0.1,0.5-0.4s0.1-0.7,0.1-1.4c0-0.6,0-1.1-0.1-1.4s-0.2-0.4-0.5-0.4c-0.2,0-0.4,0.1-0.5,0.4C59,94.4,59,94.9,59,95.5z"/>
			<path d="M62.2,93h0.9v0.6c0.3-0.4,0.6-0.7,1-0.7s0.7,0.2,0.9,0.5c0.1,0.2,0.1,0.5,0.1,1.1v3.6h-0.9v-3.4c0-0.3,0-0.6-0.1-0.7
				s-0.2-0.2-0.4-0.2c-0.1,0-0.2,0-0.3,0.1c-0.1,0-0.1,0.1-0.2,0.2c0,0.1-0.1,0.2-0.1,0.3c0,0.1,0,0.3,0,0.5v3.3h-0.9V93z"/>
			<path d="M68.3,93.1v1c-0.1-0.2-0.3-0.2-0.5-0.2c-0.5,0-0.8,0.6-0.8,1.7c0,1.2,0.3,1.8,0.8,1.8c0.1,0,0.3-0.1,0.5-0.2v0.9
				c-0.2,0.1-0.5,0.2-0.8,0.2c-1,0-1.5-0.9-1.5-2.6c0-0.9,0.1-1.6,0.4-2c0.2-0.4,0.6-0.6,1.2-0.6C67.8,92.9,68.1,93,68.3,93.1z"/>
			<path d="M69,89.8h0.9v3.8c0.3-0.4,0.6-0.7,1-0.7s0.7,0.2,0.9,0.5c0.1,0.2,0.1,0.5,0.1,1.1v3.6H71v-3.4c0-0.3,0-0.6-0.1-0.7
				s-0.2-0.2-0.4-0.2c-0.1,0-0.2,0-0.3,0.1c-0.1,0-0.1,0.1-0.2,0.2c0,0.1-0.1,0.2-0.1,0.3c0,0.1,0,0.3,0,0.5v3.3H69V89.8z"/>
			<path d="M75.1,96.4H76c-0.1,1.2-0.6,1.8-1.5,1.8c-0.3,0-0.5-0.1-0.7-0.2s-0.4-0.3-0.5-0.5S73.1,97,73,96.7
				c-0.1-0.3-0.1-0.7-0.1-1.2c0-0.9,0.1-1.6,0.4-2c0.2-0.4,0.6-0.6,1.2-0.6c1,0,1.5,0.9,1.5,2.7v0.1h-2.1c0,1.1,0.2,1.6,0.6,1.6
				S75.1,97,75.1,96.4z M75,95c0-0.5-0.1-0.9-0.2-1c-0.1-0.2-0.2-0.3-0.4-0.3c-0.2,0-0.3,0.1-0.4,0.3c-0.1,0.2-0.1,0.5-0.2,1H75z"/>
		</g>
	</g>
	<g>
		<rect x="39" y="108.1" class="st2" width="36.5" height="12.3"/>
		<g>
			<g>
				<g>
					<path d="M40.9,129.1c-0.1,0-0.2,0-0.3-0.1c-0.1-0.1-0.2-0.3-0.3-0.4c-0.1-0.2-0.3-0.4-0.4-0.6c0,0,0,0,0,0c0,0-0.1,0-0.1,0v0.2
						c0,0.1,0,0.2,0,0.3c0,0.2,0,0.3,0,0.4c0,0.1,0.1,0.1,0.2,0.2v0.1h-0.1c-0.1,0-0.2,0-0.4,0c-0.2,0-0.3,0-0.4,0H39V129
						c0.1,0,0.1,0,0.2-0.1c0,0,0.1-0.1,0.1-0.2c0-0.1,0-0.2,0-0.5v-0.6c0-0.4,0-0.5,0-0.7c0-0.1-0.1-0.1-0.2-0.2v-0.1
						c0.1,0,0.2,0,0.2,0c0.2,0,0.2,0,0.5,0c0.2,0,0.3,0,0.4,0c0.2,0,0.4,0,0.5,0.1s0.2,0.3,0.2,0.5c0,0.3-0.2,0.5-0.5,0.7
						c0.1,0.2,0.2,0.4,0.4,0.5c0.1,0.2,0.2,0.4,0.3,0.4c0,0,0.1,0.1,0.2,0.1v0.1C41.1,129.1,41,129.1,40.9,129.1L40.9,129.1z
						 M40,126.8c-0.1,0-0.1,0-0.2,0c0,0.2,0,0.6,0,0.9c0,0,0.1,0,0.2,0c0.3,0,0.5-0.2,0.5-0.5C40.4,127,40.2,126.8,40,126.8
						L40,126.8z"/>
					<path d="M42.1,126.9l-0.1-0.1l0.3-0.4l0.4,0.1L42.1,126.9L42.1,126.9z M42.8,129c0,0-0.1,0-0.2,0c-0.1,0-0.2,0-0.3,0
						c-0.2,0-0.3,0-0.4,0s-0.3,0-0.4,0V129c0.1,0,0.2-0.1,0.2-0.2c0-0.1,0-0.2,0-0.4v-0.9c0-0.2,0-0.2,0-0.3c0-0.1-0.1-0.1-0.2-0.1
						v-0.1h1.4c0,0.1,0,0.2,0,0.3c0,0.1,0,0.1,0,0.2h-0.1c0-0.2-0.1-0.3-0.5-0.3c-0.1,0-0.2,0-0.2,0c0,0.1,0,0.2,0,0.3v0.4
						c0,0,0.1,0,0.1,0c0.3,0,0.4,0,0.4-0.2h0.1c0,0,0,0.2,0,0.3c0,0.2,0,0.2,0,0.3h-0.1c0-0.2-0.1-0.2-0.4-0.2c0,0-0.1,0-0.2,0
						c0,0.2,0,0.4,0,0.6c0,0.1,0,0.2,0.1,0.2c0,0,0.1,0,0.2,0c0.3,0,0.4-0.1,0.5-0.3l0.1,0C42.9,128.8,42.8,129,42.8,129L42.8,129z"
						/>
					<path d="M44,128.2C44,128.2,44,128.2,44,128.2l-0.2-0.2c0.3,0,0.4-0.2,0.4-0.4s-0.2-0.4-0.4-0.4c0,0-0.1,0-0.1,0
						c0,0.2,0,0.4,0,0.5v0.5c0,0.4,0,0.5,0,0.5c0,0.1,0.1,0.1,0.2,0.1v0.1H44c-0.1,0-0.2,0-0.3,0c-0.1,0-0.3,0-0.3,0h-0.1V129
						c0.1,0,0.2-0.1,0.2-0.2c0-0.1,0-0.2,0-0.4v-0.7c0-0.2,0-0.2,0-0.3c0-0.1-0.1-0.1-0.2-0.1v-0.1c0,0,0,0,0.1,0c0,0,0.1,0,0.2,0
						c0.2,0,0.3,0,0.5,0c0.4,0,0.7,0.2,0.7,0.5C44.7,128,44.4,128.2,44,128.2L44,128.2z"/>
					<path d="M46.8,127.2c0,0,0,0.1,0,0.2c0,0.1,0,0.2,0,0.4c0,0.1,0,0.3,0,0.5c0,0.2,0,0.3-0.1,0.5c-0.1,0.2-0.4,0.3-0.7,0.3
						c-0.2,0-0.3,0-0.5-0.1c-0.2-0.1-0.3-0.3-0.3-0.6s0-0.5,0-0.6c0-0.2,0-0.3,0-0.5c0-0.1-0.1-0.2-0.2-0.2v-0.1H45
						c0.1,0,0.2,0,0.3,0c0.2,0,0.3,0,0.3,0h0.1v0.1c-0.1,0-0.1,0-0.2,0.1c0,0,0,0.1,0,0.2c0,0.2,0,0.4,0,0.6c0,0.5,0,0.6,0.1,0.7
						c0.1,0.1,0.2,0.1,0.3,0.1c0.2,0,0.4-0.1,0.5-0.3c0-0.1,0-0.2,0-0.6v-0.3c0-0.4,0-0.4,0-0.5c0,0-0.1-0.1-0.2-0.1V127
						c0.1,0,0.2,0,0.3,0s0.2,0,0.3,0v0.1C46.8,127.2,46.8,127.2,46.8,127.2L46.8,127.2z"/>
					<path d="M48.6,129c-0.1,0.1-0.3,0.2-0.6,0.2c-0.2,0-0.3,0-0.5,0c-0.1,0-0.2,0-0.3,0h0V129c0.1,0,0.2-0.1,0.2-0.2
						c0-0.1,0-0.2,0-0.4v-0.6c0-0.3,0-0.4,0-0.5c0-0.1-0.1-0.1-0.2-0.1v-0.1c0.1,0,0.2,0,0.4,0c0.2,0,0.4,0,0.6,0
						c0.3,0,0.5,0.1,0.5,0.4c0,0.2-0.2,0.4-0.4,0.5c0.3,0.1,0.5,0.2,0.5,0.5C48.8,128.7,48.7,128.8,48.6,129L48.6,129z M47.9,127.2
						c0,0-0.1,0-0.2,0c0,0.2,0,0.5,0,0.7c0,0,0.1,0,0.1,0c0.3,0,0.5-0.1,0.5-0.3C48.4,127.4,48.2,127.2,47.9,127.2L47.9,127.2z
						 M48,128.1c0,0-0.1,0-0.2,0c0,0.1,0,0.1,0,0.2v0.2c0,0.2,0,0.3,0,0.3c0,0.1,0.1,0.1,0.2,0.1c0.3,0,0.4-0.1,0.4-0.4
						C48.4,128.3,48.3,128.1,48,128.1L48,128.1z"/>
					<path d="M50.5,129c0,0-0.1,0-0.2,0c-0.1,0-0.2,0-0.2,0c-0.2,0-0.4,0-0.5,0c-0.2,0-0.3,0-0.4,0v0c0.1,0,0.1,0,0.2-0.1
						c0-0.1,0.1-0.1,0.1-0.4c0-0.2,0-0.3,0-0.4v-0.3c0-0.4,0-0.5,0-0.5c0-0.1-0.1-0.1-0.2-0.1v-0.1h0.1c0.1,0,0.2,0,0.4,0
						c0.2,0,0.3,0,0.3,0H50v0.1c-0.2,0-0.2,0.1-0.2,0.2c0,0,0,0.1,0,0.4v0.5c0,0.4,0,0.5,0,0.5c0,0,0.1,0,0.2,0c0.2,0,0.3,0,0.3-0.1
						c0.1,0,0.2-0.1,0.2-0.3l0.1,0C50.6,128.8,50.5,129,50.5,129L50.5,129z"/>
					<path d="M51.5,129.1c-0.1,0-0.2,0-0.3,0c-0.2,0-0.3,0-0.3,0h-0.1V129c0.1,0,0.2-0.1,0.2-0.2c0-0.1,0-0.2,0-0.4v-0.5
						c0-0.1,0-0.2,0-0.2c0-0.2,0-0.2,0-0.3c0-0.1-0.1-0.1-0.2-0.1v-0.1h0.1c0.1,0,0.2,0,0.3,0c0.1,0,0.3,0,0.3,0h0.1v0.1
						c-0.1,0-0.2,0.1-0.2,0.2c0,0.1,0,0.2,0,0.4v0.5c0,0.4,0,0.5,0,0.5c0,0.1,0.1,0.1,0.2,0.1v0.1L51.5,129.1L51.5,129.1z"/>
					<path d="M54.3,129.6c-0.2,0-0.5-0.1-0.7-0.2c-0.1-0.1-0.3-0.2-0.5-0.3c-0.1,0-0.1,0-0.2,0c-0.6,0-1-0.4-1-1
						c0-0.6,0.4-1.1,1.1-1.1c0.6,0,1,0.4,1,1c0,0.4-0.2,0.8-0.5,1c0.1,0,0.2,0.1,0.3,0.2c0.3,0.2,0.5,0.3,0.7,0.3
						c0.1,0,0.2,0,0.4-0.1l0,0.1C54.7,129.6,54.6,129.6,54.3,129.6L54.3,129.6z M52.9,127.3c-0.4,0-0.6,0.3-0.6,0.7
						c0,0.5,0.3,0.9,0.7,0.9c0.4,0,0.6-0.3,0.6-0.7C53.6,127.7,53.3,127.3,52.9,127.3L52.9,127.3z"/>
					<path d="M56.1,127.2c0,0,0,0.1,0,0.2c0,0.1,0,0.2,0,0.4c0,0.1,0,0.3,0,0.5c0,0.2,0,0.3-0.1,0.5c-0.1,0.2-0.4,0.3-0.7,0.3
						c-0.2,0-0.3,0-0.5-0.1c-0.2-0.1-0.3-0.3-0.3-0.6s0-0.5,0-0.6c0-0.2,0-0.3,0-0.5c0-0.1-0.1-0.2-0.2-0.2v-0.1h0.1
						c0.1,0,0.2,0,0.3,0c0.2,0,0.3,0,0.3,0h0.1v0.1c-0.1,0-0.1,0-0.2,0.1c0,0,0,0.1,0,0.2c0,0.2,0,0.4,0,0.6c0,0.5,0,0.6,0.1,0.7
						c0.1,0.1,0.2,0.1,0.3,0.1c0.2,0,0.4-0.1,0.5-0.3c0-0.1,0-0.2,0-0.6v-0.3c0-0.4,0-0.4,0-0.5c0,0-0.1-0.1-0.2-0.1V127
						c0.1,0,0.2,0,0.3,0c0.2,0,0.2,0,0.3,0v0.1C56.2,127.2,56.1,127.2,56.1,127.2L56.1,127.2z"/>
					<path d="M57.9,129c0,0-0.1,0-0.2,0c-0.1,0-0.2,0-0.3,0c-0.2,0-0.3,0-0.4,0c-0.2,0-0.3,0-0.4,0V129c0.1,0,0.2-0.1,0.2-0.2
						c0-0.1,0-0.2,0-0.4v-0.9c0-0.2,0-0.2,0-0.3c0-0.1-0.1-0.1-0.2-0.1v-0.1h1.4c0,0.1,0,0.2,0,0.3c0,0.1,0,0.1,0,0.2h-0.1
						c0-0.2-0.1-0.3-0.5-0.3c-0.1,0-0.2,0-0.2,0c0,0.1,0,0.2,0,0.3v0.4c0,0,0.1,0,0.1,0c0.3,0,0.4,0,0.4-0.2h0.1c0,0,0,0.2,0,0.3
						c0,0.2,0,0.2,0,0.3h-0.1c0-0.2-0.1-0.2-0.4-0.2c0,0-0.1,0-0.2,0c0,0.2,0,0.4,0,0.6c0,0.1,0,0.2,0.1,0.2c0,0,0.1,0,0.2,0
						c0.3,0,0.4-0.1,0.5-0.3l0.1,0C58,128.8,58,129,57.9,129L57.9,129z"/>
					<path d="M60.7,127.2c0-0.3-0.2-0.4-0.6-0.4c-0.1,0-0.2,0-0.3,0c0,0.2,0,0.4,0,0.8c0.1,0,0.1,0,0.2,0c0.3,0,0.4-0.1,0.5-0.3h0.1
						c0,0.1,0,0.2,0,0.3c0,0.1,0,0.3,0,0.4h-0.1c0-0.2-0.1-0.3-0.5-0.3c-0.1,0-0.1,0-0.2,0v0.4c0,0.1,0,0.2,0,0.3
						c0,0.2,0,0.4,0.3,0.4v0.1h-0.1c-0.1,0-0.2,0-0.4,0c-0.2,0-0.3,0-0.4,0h-0.1V129c0.2,0,0.2-0.1,0.2-0.3c0-0.1,0-0.2,0-0.5v-0.9
						c0-0.2,0-0.3,0-0.4c0-0.1-0.1-0.1-0.2-0.2v-0.1h1.7c0,0.1,0,0.2,0,0.3s0,0.2,0,0.2L60.7,127.2L60.7,127.2z"/>
					<path d="M62.7,129.1c-0.1,0-0.2,0-0.2-0.1c-0.1-0.1-0.2-0.2-0.3-0.4c-0.1-0.2-0.2-0.4-0.3-0.5c0,0,0,0,0,0c0,0,0,0-0.1,0v0.2
						c0,0.1,0,0.2,0,0.2c0,0.2,0,0.2,0,0.3c0,0.1,0.1,0.1,0.2,0.1v0.1h-0.1c-0.1,0-0.2,0-0.3,0c-0.1,0-0.2,0-0.3,0h-0.1v0
						c0.1,0,0.1,0,0.2-0.1c0,0,0-0.1,0.1-0.2c0-0.1,0-0.2,0-0.4v-0.5c0-0.4,0-0.5,0-0.5c0-0.1-0.1-0.1-0.2-0.1v-0.1
						c0.1,0,0.1,0,0.2,0c0.2,0,0.2,0,0.4,0c0.2,0,0.3,0,0.3,0c0.2,0,0.3,0,0.4,0.1c0.1,0.1,0.2,0.2,0.2,0.4c0,0.2-0.2,0.4-0.4,0.5
						c0.1,0.2,0.2,0.3,0.3,0.5c0.1,0.2,0.2,0.3,0.3,0.4c0,0,0.1,0.1,0.1,0.1v0.1C62.9,129.1,62.8,129.1,62.7,129.1L62.7,129.1z
						 M62,127.2c-0.1,0-0.1,0-0.2,0c0,0.2,0,0.5,0,0.7c0,0,0.1,0,0.1,0c0.2,0,0.4-0.2,0.4-0.4C62.3,127.4,62.2,127.2,62,127.2
						L62,127.2z"/>
					<path d="M64.9,129.1c-0.1,0-0.2,0-0.3,0c-0.1,0-0.2,0-0.3,0h-0.1V129c0.1,0,0.2-0.1,0.2-0.1c0,0,0-0.1,0-0.2
						c0-0.1-0.1-0.2-0.1-0.3h-0.6l-0.1,0.2c0,0.1-0.1,0.2-0.1,0.3c0,0.1,0,0.1,0.1,0.1v0.1c-0.1,0-0.2,0-0.3,0c-0.1,0-0.2,0-0.3,0
						V129c0,0,0.1,0,0.1,0c0.1,0,0.1-0.2,0.2-0.4l0.3-0.7c0.1-0.2,0.2-0.5,0.3-0.8h0.2c0,0.1,0.1,0.2,0.1,0.4l0.4,1.1
						c0.1,0.2,0.1,0.3,0.2,0.4C64.8,128.9,64.9,129,64.9,129.1L64.9,129.1L64.9,129.1L64.9,129.1z M63.9,127.6
						c-0.1,0.2-0.2,0.5-0.2,0.6h0.4L63.9,127.6L63.9,127.6z"/>
					<path d="M67,127.3c0,0,0,0.1,0,0.3c0,0.3,0,0.7,0,0.9v0.5c0,0.1,0,0.2,0,0.2h-0.2c-0.2-0.3-0.6-0.7-0.6-0.7
						c0-0.1-0.4-0.5-0.6-0.7c0,0.1,0,0,0,0.2v0.2c0,0.2,0,0.4,0,0.7c0,0.1,0,0.2,0,0.2c0,0.1,0.1,0.1,0.2,0.1v0.1
						c-0.1,0-0.2,0-0.3,0c-0.1,0-0.2,0-0.3,0V129c0.2,0,0.2-0.2,0.2-0.3c0-0.1,0-0.2,0-0.4v-0.6c0-0.2,0-0.3-0.1-0.4
						c0,0-0.1-0.1-0.2-0.1v-0.1c0.1,0,0.1,0,0.3,0c0.1,0,0.2,0,0.3,0c0,0.1,0.1,0.1,0.3,0.4c0.3,0.4,0.5,0.7,0.8,1v-0.7
						c0-0.3,0-0.4,0-0.5c0-0.1-0.1-0.2-0.2-0.2v-0.1c0.1,0,0.2,0,0.3,0s0.2,0,0.3,0v0.1C67.1,127.2,67.1,127.2,67,127.3L67,127.3z"
						/>
					<path d="M69.1,129c-0.2,0.1-0.4,0.1-0.6,0.1l0,0.1c0,0,0,0,0.1,0c0.1,0,0.2,0.1,0.2,0.2c0,0.2-0.1,0.3-0.3,0.3
						c-0.1,0-0.1,0-0.2,0l0-0.1c0,0,0.1,0,0.1,0c0.1,0,0.1,0,0.1-0.1c0-0.1,0-0.1-0.1-0.1c0,0,0,0-0.1,0l-0.1,0l0.1-0.2
						c-0.3,0-0.5-0.1-0.6-0.3c-0.2-0.2-0.3-0.4-0.3-0.7c0-0.7,0.4-1,1.1-1c0.2,0,0.4,0,0.6,0.1c0,0.1,0,0.1,0,0.2c0,0,0,0.2,0,0.2
						h-0.1c0-0.2-0.2-0.3-0.5-0.3c-0.4,0-0.7,0.3-0.7,0.7c0,0.5,0.3,0.9,0.7,0.9c0.3,0,0.4-0.1,0.5-0.4l0.1,0
						C69.2,128.7,69.1,128.9,69.1,129L69.1,129z"/>
					<path d="M71.2,129.1c-0.1,0-0.2,0-0.3,0c-0.1,0-0.2,0-0.3,0h-0.1V129c0.1,0,0.2-0.1,0.2-0.1c0,0,0-0.1,0-0.2
						c0-0.1-0.1-0.2-0.1-0.3h-0.6l-0.1,0.2c0,0.1-0.1,0.2-0.1,0.3c0,0.1,0,0.1,0.1,0.1v0.1c-0.1,0-0.2,0-0.3,0c-0.1,0-0.2,0-0.3,0
						V129c0,0,0.1,0,0.1,0c0.1,0,0.1-0.2,0.2-0.4l0.3-0.7c0.1-0.2,0.2-0.5,0.3-0.8h0.2c0,0.1,0.1,0.2,0.1,0.4l0.4,1.1
						c0.1,0.2,0.1,0.3,0.2,0.4C71.1,128.9,71.2,129,71.2,129.1L71.2,129.1L71.2,129.1L71.2,129.1z M70.2,127.6
						c-0.1,0.2-0.2,0.5-0.2,0.6h0.4L70.2,127.6L70.2,127.6z"/>
					<path d="M72.2,129.1c-0.1,0-0.2,0-0.3,0s-0.3,0-0.3,0h-0.1V129c0.1,0,0.2-0.1,0.2-0.2c0-0.1,0-0.2,0-0.4v-0.5
						c0-0.1,0-0.2,0-0.2c0-0.2,0-0.2,0-0.3c0-0.1-0.1-0.1-0.2-0.1v-0.1h0.1c0.1,0,0.2,0,0.3,0c0.1,0,0.2,0,0.3,0h0.1v0.1
						c-0.1,0-0.2,0.1-0.2,0.2c0,0.1,0,0.2,0,0.4v0.5c0,0.4,0,0.5,0,0.5c0,0.1,0.1,0.1,0.2,0.1v0.1L72.2,129.1L72.2,129.1z"/>
					<path d="M73.1,129.1c-0.2,0-0.3,0-0.5-0.1c0-0.1,0-0.3,0-0.4l0.1,0c0.1,0.2,0.2,0.4,0.5,0.4s0.4-0.1,0.4-0.3
						c0-0.1-0.1-0.2-0.2-0.3l-0.3-0.2c-0.2-0.1-0.4-0.3-0.4-0.5c0-0.3,0.3-0.5,0.7-0.5c0.2,0,0.4,0,0.5,0.1c0,0.1,0,0.1,0,0.2
						c0,0.1,0,0.1,0,0.2h-0.1c0-0.2-0.2-0.3-0.4-0.3c-0.2,0-0.3,0.1-0.3,0.3c0,0.2,0.1,0.2,0.3,0.4l0.3,0.2c0.2,0.2,0.4,0.3,0.4,0.5
						C73.8,128.9,73.5,129.1,73.1,129.1L73.1,129.1z"/>
					<path d="M75.5,129c0,0-0.1,0-0.2,0c-0.1,0-0.2,0-0.3,0c-0.2,0-0.3,0-0.4,0c-0.2,0-0.3,0-0.4,0V129c0.1,0,0.2-0.1,0.2-0.2
						c0-0.1,0-0.2,0-0.4v-0.9c0-0.2,0-0.2,0-0.3c0-0.1-0.1-0.1-0.2-0.1v-0.1h1.4c0,0.1,0,0.2,0,0.3c0,0.1,0,0.1,0,0.2h-0.1
						c0-0.2-0.1-0.3-0.5-0.3c-0.1,0-0.2,0-0.2,0c0,0.1,0,0.2,0,0.3v0.4c0,0,0.1,0,0.1,0c0.3,0,0.4,0,0.4-0.2h0.1c0,0,0,0.2,0,0.3
						c0,0.2,0,0.2,0,0.3h-0.1c0-0.2-0.1-0.2-0.4-0.2c0,0-0.1,0-0.2,0c0,0.2,0,0.4,0,0.6c0,0.1,0,0.2,0.1,0.2c0,0,0.1,0,0.2,0
						c0.3,0,0.4-0.1,0.5-0.3l0.1,0C75.6,128.8,75.6,129,75.5,129L75.5,129z"/>
					<path d="M40.1,124c0,0-0.1,0-0.2,0c-0.2,0-0.3,0-0.4,0c-0.1,0-0.2,0-0.3,0c-0.1,0-0.3,0-0.4,0h0l0-0.1c0.1,0,0.1,0,0.2-0.1
						c0-0.1,0.1-0.1,0.1-0.3c0-0.2,0.1-0.3,0.1-0.5l0-0.2c0-0.2,0.1-0.4,0.1-0.4c0-0.1,0-0.2-0.2-0.2l0-0.1c0,0,0,0,0,0
						c0.1,0,0.2,0,0.3,0c0.2,0,0.3,0,0.3,0c0,0,0,0,0,0l0,0.1c-0.1,0-0.1,0-0.2,0.1c-0.1,0.1-0.1,0.2-0.2,0.8l0,0.2
						c0,0.2-0.1,0.3-0.1,0.4c0,0,0,0.1,0,0.1c0,0.1,0.1,0.2,0.2,0.2c0.3,0,0.5-0.1,0.6-0.3l0.1,0C40.2,123.8,40.1,123.9,40.1,124
						L40.1,124z"/>
					<path d="M40.9,122.5c-0.1,0-0.2-0.1-0.2-0.1c0-0.1,0.1-0.2,0.2-0.2c0.1,0,0.2,0,0.2,0.1C41.1,122.5,41.1,122.5,40.9,122.5
						L40.9,122.5z M40.6,124C40.6,124,40.6,124,40.6,124c-0.1-0.1-0.1-0.2-0.1-0.2c0-0.2,0.1-0.4,0.1-0.5c0-0.2,0.1-0.3,0.1-0.3
						c0,0,0-0.1,0-0.1c0,0,0,0-0.1,0h0v-0.1c0.2-0.1,0.3-0.1,0.4-0.1c0,0,0.1,0,0.1,0c0,0,0,0.1-0.1,0.3l0,0.2
						c-0.1,0.3-0.1,0.4-0.1,0.4c0,0,0,0.1,0.1,0.1c0,0,0.1,0,0.2,0v0.1C40.9,124,40.7,124,40.6,124L40.6,124z"/>
					<path d="M42.2,123.9c-0.1,0.1-0.2,0.1-0.5,0.1c-0.2,0-0.4,0-0.4-0.1c0,0,0,0,0-0.2l0.2-0.7c0-0.2,0.1-0.4,0.1-0.6
						c0-0.1,0-0.2,0-0.3c0,0,0-0.1,0-0.1c0,0-0.1,0-0.1,0v-0.1l0,0c0.2,0,0.3-0.1,0.4-0.1c0,0,0.1,0,0.1,0c0,0,0,0.1-0.1,0.3
						l-0.1,0.4c0,0.1,0,0.2,0,0.2c0.2-0.1,0.4-0.2,0.5-0.2c0.2,0,0.3,0.1,0.3,0.3C42.6,123.4,42.5,123.7,42.2,123.9L42.2,123.9z
						 M42.2,122.9c0,0-0.1,0-0.2,0.1c-0.1,0-0.2,0.1-0.2,0.1c0,0-0.1,0.2-0.1,0.3c0,0.2-0.1,0.3-0.1,0.3c0,0.1,0.1,0.1,0.2,0.1
						c0.1,0,0.2-0.1,0.3-0.2c0.1-0.2,0.2-0.4,0.2-0.6C42.4,123,42.3,122.9,42.2,122.9L42.2,122.9z"/>
					<path d="M43.3,123.5C43.2,123.5,43.2,123.5,43.3,123.5c-0.1,0-0.1,0.1-0.1,0.1c0,0.2,0,0.2,0.2,0.2c0.1,0,0.2,0,0.4-0.2l0,0.1
						c-0.2,0.1-0.4,0.2-0.5,0.2c-0.2,0-0.3-0.1-0.3-0.3c0-0.5,0.3-0.9,0.7-0.9c0.2,0,0.3,0.1,0.3,0.2
						C43.9,123.3,43.6,123.5,43.3,123.5L43.3,123.5z M43.6,122.9c-0.1,0-0.3,0.2-0.4,0.5h0c0.3,0,0.5-0.2,0.5-0.3
						C43.7,123,43.6,122.9,43.6,122.9L43.6,122.9z"/>
					<path d="M45.1,123.2L45.1,123.2c-0.1,0-0.1-0.1-0.1-0.1c0,0,0-0.1-0.1-0.1c0,0-0.1,0-0.1,0.1c-0.1,0.1-0.2,0.3-0.2,0.7
						l-0.1,0.3c-0.1,0-0.1,0-0.3,0c0-0.1,0-0.2,0.1-0.3l0.1-0.3c0-0.2,0.1-0.3,0.1-0.4c0-0.1,0-0.1,0-0.1s0,0-0.1,0l-0.1,0V123
						c0.2-0.1,0.3-0.1,0.4-0.1c0,0,0,0,0,0c0,0,0,0.1,0,0.1c0.1-0.1,0.2-0.2,0.3-0.2c0.1,0,0.1,0,0.2,0.1
						C45.1,123,45.1,123.1,45.1,123.2L45.1,123.2z"/>
					<path d="M46.1,123h-0.2l-0.1,0.6c0,0.2,0,0.2,0,0.2c0,0,0,0.1,0.1,0.1c0,0,0.1,0,0.1,0h0v0.1c-0.2,0.1-0.3,0.1-0.4,0.1
						c-0.1,0-0.1,0-0.1-0.1c0,0,0-0.1,0-0.2c0-0.1,0-0.2,0.1-0.3l0.1-0.4h-0.2l0-0.1c0.2,0,0.3-0.2,0.3-0.4l0.1,0l-0.1,0.4h0.2V123
						L46.1,123z"/>
					<path d="M47,122.6L47,122.6l0.3-0.5l0.3,0.1L47,122.6L47,122.6z M46.7,123.5C46.6,123.5,46.6,123.5,46.7,123.5
						c-0.1,0-0.1,0.1-0.1,0.1c0,0.2,0,0.2,0.2,0.2c0.1,0,0.2,0,0.4-0.2l0,0.1c-0.2,0.1-0.4,0.2-0.5,0.2c-0.2,0-0.3-0.1-0.3-0.3
						c0-0.5,0.3-0.9,0.7-0.9c0.2,0,0.3,0.1,0.3,0.2C47.3,123.3,47,123.5,46.7,123.5L46.7,123.5z M47,122.9c-0.1,0-0.3,0.2-0.4,0.5h0
						c0.3,0,0.5-0.2,0.5-0.3C47.1,123,47,122.9,47,122.9L47,122.9z"/>
					<path d="M52,121.8L52,121.8l0.3-0.5l0.3,0.1L52,121.8L52,121.8z M52.5,122.5L52.5,122.5C52.5,122.4,52.5,122.4,52.5,122.5
						c-0.1-0.2-0.2-0.3-0.5-0.3c-0.1,0-0.2,0-0.3,0c-0.1,0.2-0.1,0.5-0.2,0.7c0,0,0.1,0,0.1,0c0.2,0,0.3,0,0.3,0
						c0.1,0,0.2-0.1,0.2-0.2h0.1c0,0.2-0.1,0.4-0.1,0.6h-0.1c0,0,0,0,0,0c0-0.1-0.1-0.2-0.3-0.2c-0.2,0-0.2,0-0.2,0
						c0,0.1,0,0-0.1,0.4c0,0.2,0,0.3,0,0.3c0,0.1,0,0.1,0.2,0.1c0.4,0,0.5-0.1,0.6-0.3l0.1,0c-0.1,0.2-0.1,0.4-0.2,0.4
						c0,0-0.1,0-0.2,0c-0.1,0-0.2,0-0.3,0c-0.1,0-0.3,0-0.4,0c-0.1,0-0.3,0-0.4,0l0-0.1c0.1,0,0.1,0,0.2-0.1c0-0.1,0.1-0.1,0.1-0.3
						c0-0.2,0-0.2,0.1-0.5l0-0.2c0-0.2,0.1-0.4,0.1-0.4c0-0.1,0-0.2-0.2-0.2l0-0.1h1.3C52.6,122.2,52.6,122.3,52.5,122.5L52.5,122.5
						z"/>
					<path d="M54,123h-0.2c0,0.1,0,0.1,0,0.2c0,0.3-0.2,0.5-0.5,0.5c-0.1,0-0.1,0-0.2,0c-0.1,0-0.1,0.1-0.1,0.1s0,0,0.2,0.1l0.2,0.1
						c0.2,0.1,0.4,0.2,0.4,0.3c0,0.3-0.3,0.5-0.7,0.5c-0.3,0-0.5-0.2-0.5-0.4c0-0.2,0.2-0.3,0.4-0.4c-0.2,0-0.2-0.1-0.2-0.1
						s0.1-0.2,0.3-0.2c-0.1-0.1-0.1-0.2-0.1-0.3c0-0.3,0.2-0.5,0.5-0.5c0.1,0,0.1,0,0.2,0H54L54,123L54,123z M53.4,122.9
						c-0.2,0-0.3,0.2-0.3,0.4c0,0.1,0.1,0.2,0.2,0.2c0.2,0,0.3-0.2,0.3-0.4C53.6,123,53.6,122.9,53.4,122.9L53.4,122.9z M53.5,124.1
						c-0.1,0-0.2-0.1-0.4-0.1c-0.2,0-0.4,0.2-0.4,0.4c0,0.2,0.1,0.3,0.4,0.3c0.3,0,0.5-0.2,0.5-0.4
						C53.6,124.2,53.6,124.2,53.5,124.1L53.5,124.1z"/>
					<path d="M55.1,124c0,0-0.1,0-0.1-0.2c-0.2,0.1-0.4,0.2-0.5,0.2c-0.2,0-0.3-0.1-0.3-0.2s0.1-0.4,0.2-0.5
						c0.2-0.2,0.4-0.4,0.7-0.4c0.1,0,0.2,0,0.4,0.1l0,0c-0.1,0.3-0.2,0.7-0.2,0.8c0,0.1,0,0.1,0,0.1c0,0,0.1,0,0.2,0v0.1
						C55.3,124,55.1,124,55.1,124L55.1,124z M55,122.9c-0.1,0-0.2,0.1-0.3,0.2c-0.1,0.2-0.2,0.4-0.2,0.6c0,0.1,0,0.1,0.1,0.1
						c0.1,0,0.3-0.1,0.4-0.2c0,0,0.1-0.1,0.1-0.2c0-0.2,0.1-0.4,0.1-0.5C55.1,123,55,122.9,55,122.9L55,122.9z"/>
					<path d="M56.4,122.3c-0.1,0.4-0.2,0.8-0.3,1.2c0,0.1,0,0.2,0,0.3c0,0,0,0.1,0.1,0.1c0,0,0.1,0,0.2,0v0.1
						c-0.2,0.1-0.3,0.1-0.4,0.1c-0.1,0-0.1,0-0.1-0.1c0,0,0-0.1,0-0.3c0.1-0.4,0.2-0.8,0.3-1.2c0-0.2,0-0.3,0-0.3c0,0,0,0,0,0
						c0,0-0.1,0-0.1,0v-0.1c0.2,0,0.3-0.1,0.4-0.1c0,0,0.1,0,0.1,0C56.4,122.1,56.4,122.2,56.4,122.3L56.4,122.3z"/>
					<path d="M57.1,122.5c-0.1,0-0.2-0.1-0.2-0.1c0-0.1,0.1-0.2,0.2-0.2c0.1,0,0.2,0,0.2,0.1C57.3,122.5,57.2,122.5,57.1,122.5
						L57.1,122.5z M56.8,124C56.7,124,56.7,124,56.8,124c-0.1-0.1-0.1-0.2-0.1-0.2c0-0.2,0.1-0.4,0.1-0.5c0-0.2,0.1-0.3,0.1-0.3
						c0,0,0-0.1,0-0.1c0,0,0,0-0.1,0h0v-0.1c0.2-0.1,0.3-0.1,0.4-0.1c0,0,0.1,0,0.1,0c0,0,0,0.1-0.1,0.3l0,0.2
						c-0.1,0.3-0.1,0.4-0.1,0.4c0,0,0,0.1,0.1,0.1c0,0,0.1,0,0.2,0v0.1C57,124,56.9,124,56.8,124L56.8,124z"/>
					<path d="M58.3,123H58l-0.1,0.6c0,0.2,0,0.2,0,0.2c0,0,0,0.1,0.1,0.1c0,0,0.1,0,0.1,0h0v0.1c-0.2,0.1-0.3,0.1-0.4,0.1
						c-0.1,0-0.1,0-0.1-0.1c0,0,0-0.1,0-0.2c0-0.1,0-0.2,0.1-0.3l0.1-0.4h-0.2l0-0.1c0.2,0,0.3-0.2,0.3-0.4l0.1,0l-0.1,0.4h0.2V123
						L58.3,123z"/>
					<path d="M59.2,122.6L59.2,122.6l0.3-0.5l0.3,0.1L59.2,122.6L59.2,122.6z M58.8,123.5C58.8,123.5,58.8,123.5,58.8,123.5
						c-0.1,0-0.1,0.1-0.1,0.1c0,0.2,0,0.2,0.2,0.2c0.1,0,0.2,0,0.4-0.2l0,0.1c-0.2,0.1-0.4,0.2-0.5,0.2c-0.2,0-0.3-0.1-0.3-0.3
						c0-0.5,0.3-0.9,0.7-0.9c0.2,0,0.3,0.1,0.3,0.2C59.5,123.3,59.2,123.5,58.8,123.5L58.8,123.5z M59.2,122.9
						c-0.1,0-0.3,0.2-0.4,0.5h0c0.3,0,0.5-0.2,0.5-0.3C59.3,123,59.2,122.9,59.2,122.9L59.2,122.9z"/>
					<path d="M64.7,122.5L64.7,122.5C64.6,122.4,64.6,122.4,64.7,122.5c-0.1-0.1-0.1-0.2-0.2-0.2c-0.1,0-0.2-0.1-0.4-0.1
						c-0.1,0-0.2,0-0.2,0c0,0.2-0.1,0.5-0.2,0.7c0.1,0,0.1,0,0.2,0c0.3,0,0.4,0,0.5-0.2h0.1c0,0.2-0.1,0.4-0.1,0.6h-0.1c0,0,0,0,0,0
						c0,0,0-0.1-0.1-0.1c0,0-0.1,0-0.3,0c-0.1,0-0.1,0-0.2,0l0,0.2c-0.1,0.3-0.1,0.4-0.1,0.5c0,0.1,0,0.2,0.2,0.2l0,0.1h0
						c0,0-0.2,0-0.3,0c-0.1,0-0.3,0-0.4,0h0l0-0.1c0.1,0,0.1,0,0.2-0.1c0-0.1,0.1-0.1,0.1-0.3c0-0.2,0.1-0.3,0.1-0.5l0-0.2
						c0-0.2,0.1-0.4,0.1-0.4c0-0.1,0-0.2-0.2-0.2l0-0.1h1.3C64.8,122.2,64.7,122.3,64.7,122.5L64.7,122.5z"/>
					<path d="M65.7,123.2L65.7,123.2c-0.1,0-0.1-0.1-0.1-0.1c0,0,0-0.1-0.1-0.1c0,0-0.1,0-0.1,0.1c-0.1,0.1-0.2,0.3-0.2,0.7
						l-0.1,0.3c-0.1,0-0.1,0-0.3,0c0-0.1,0-0.2,0.1-0.3l0.1-0.3c0-0.2,0.1-0.3,0.1-0.4c0-0.1,0-0.1,0-0.1c0,0,0,0-0.1,0l-0.1,0V123
						c0.2-0.1,0.3-0.1,0.4-0.1c0,0,0,0,0,0c0,0,0,0.1,0,0.1c0.1-0.1,0.2-0.2,0.3-0.2c0.1,0,0.1,0,0.2,0.1
						C65.8,123,65.7,123.1,65.7,123.2L65.7,123.2z"/>
					<path d="M66.8,124c0,0-0.1,0-0.1-0.2c-0.2,0.1-0.4,0.2-0.5,0.2c-0.2,0-0.3-0.1-0.3-0.2s0.1-0.4,0.2-0.5
						c0.2-0.2,0.4-0.4,0.7-0.4c0.1,0,0.2,0,0.4,0.1l0,0c-0.1,0.3-0.2,0.7-0.2,0.8c0,0.1,0,0.1,0,0.1s0.1,0,0.2,0v0.1
						C67,124,66.9,124,66.8,124L66.8,124z M66.7,122.9c-0.1,0-0.2,0.1-0.3,0.2c-0.1,0.2-0.2,0.4-0.2,0.6c0,0.1,0,0.1,0.1,0.1
						c0.1,0,0.3-0.1,0.4-0.2c0,0,0.1-0.1,0.1-0.2c0-0.2,0.1-0.4,0.1-0.5C66.8,123,66.8,122.9,66.7,122.9L66.7,122.9z"/>
					<path d="M68.3,123H68l-0.1,0.6c0,0.2,0,0.2,0,0.2c0,0,0,0.1,0.1,0.1c0,0,0.1,0,0.1,0h0v0.1c-0.2,0.1-0.3,0.1-0.4,0.1
						c-0.1,0-0.1,0-0.1-0.1c0,0,0-0.1,0-0.2c0-0.1,0-0.2,0.1-0.3l0.1-0.4h-0.2l0-0.1c0.2,0,0.3-0.2,0.3-0.4l0.1,0l-0.1,0.4h0.2V123
						L68.3,123z"/>
					<path d="M68.8,123.5C68.8,123.5,68.8,123.5,68.8,123.5c-0.1,0-0.1,0.1-0.1,0.1c0,0.2,0,0.2,0.2,0.2c0.1,0,0.2,0,0.4-0.2l0,0.1
						c-0.2,0.1-0.4,0.2-0.5,0.2c-0.2,0-0.3-0.1-0.3-0.3c0-0.5,0.3-0.9,0.7-0.9c0.2,0,0.3,0.1,0.3,0.2
						C69.5,123.3,69.2,123.5,68.8,123.5L68.8,123.5z M69.1,122.9c-0.1,0-0.3,0.2-0.4,0.5h0c0.3,0,0.5-0.2,0.5-0.3
						C69.3,123,69.2,122.9,69.1,122.9L69.1,122.9z"/>
					<path d="M70.7,123.2L70.7,123.2c-0.1,0-0.1-0.1-0.1-0.1c0,0,0-0.1-0.1-0.1c0,0-0.1,0-0.1,0.1c-0.1,0.1-0.2,0.3-0.2,0.7L70,124
						c-0.1,0-0.1,0-0.3,0c0-0.1,0-0.2,0.1-0.3l0.1-0.3c0-0.2,0.1-0.3,0.1-0.4c0-0.1,0-0.1,0-0.1s0,0-0.1,0l-0.1,0V123
						c0.2-0.1,0.3-0.1,0.4-0.1c0,0,0,0,0,0c0,0,0,0.1,0,0.1c0.1-0.1,0.2-0.2,0.3-0.2c0.1,0,0.1,0,0.2,0.1
						C70.7,123,70.7,123.1,70.7,123.2L70.7,123.2z"/>
					<path d="M71.8,124C71.8,124,71.7,124,71.8,124c-0.1-0.1-0.1-0.2,0-0.3l0-0.1c0.1-0.4,0.1-0.5,0.1-0.5c0,0,0-0.1-0.1-0.1
						c0,0-0.1,0-0.2,0.1c-0.1,0-0.2,0.1-0.2,0.2c0,0,0,0.1-0.1,0.3c0,0.2-0.1,0.4-0.1,0.5c-0.1,0-0.2,0-0.3,0
						c0.1-0.2,0.1-0.4,0.2-0.6c0-0.2,0.1-0.3,0.1-0.4c0-0.1,0-0.1-0.1-0.1c0,0-0.1,0-0.2,0v-0.1c0.1-0.1,0.3-0.1,0.4-0.1
						c0.1,0,0.1,0,0.1,0.2v0c0.2-0.1,0.5-0.2,0.6-0.2c0.1,0,0.1,0,0.1,0.1s0,0.2-0.1,0.4c0,0.1-0.1,0.3-0.1,0.4c0,0.1,0,0.1,0,0.2
						c0,0,0,0.1,0.1,0.1c0,0,0.1,0,0.2,0v0.1C72.1,124,71.9,124,71.8,124L71.8,124z"/>
					<path d="M73.1,122.5c-0.1,0-0.2-0.1-0.2-0.1c0-0.1,0.1-0.2,0.2-0.2c0.1,0,0.2,0,0.2,0.1C73.2,122.5,73.2,122.5,73.1,122.5
						L73.1,122.5z M72.7,124C72.7,124,72.6,124,72.7,124c-0.1-0.1-0.1-0.2-0.1-0.2c0-0.2,0.1-0.4,0.1-0.5c0-0.2,0.1-0.3,0.1-0.3
						c0,0,0-0.1,0-0.1s0,0-0.1,0h0v-0.1c0.2-0.1,0.3-0.1,0.4-0.1c0,0,0.1,0,0.1,0c0,0,0,0.1-0.1,0.3l0,0.2c-0.1,0.3-0.1,0.4-0.1,0.4
						c0,0,0,0.1,0.1,0.1c0,0,0.1,0,0.2,0v0.1C73,124,72.8,124,72.7,124L72.7,124z"/>
					<path d="M74.2,123H74l-0.1,0.6c0,0.2,0,0.2,0,0.2c0,0,0,0.1,0.1,0.1c0,0,0.1,0,0.1,0h0v0.1c-0.2,0.1-0.3,0.1-0.4,0.1
						c-0.1,0-0.1,0-0.1-0.1c0,0,0-0.1,0-0.2c0-0.1,0-0.2,0.1-0.3l0.1-0.4h-0.2l0-0.1c0.2,0,0.3-0.2,0.3-0.4l0.1,0l-0.1,0.4h0.2
						L74.2,123L74.2,123z"/>
					<path d="M75.1,122.6L75.1,122.6l0.3-0.5l0.3,0.1L75.1,122.6L75.1,122.6z M74.8,123.5C74.7,123.5,74.7,123.5,74.8,123.5
						c-0.1,0-0.1,0.1-0.1,0.1c0,0.2,0,0.2,0.2,0.2c0.1,0,0.2,0,0.4-0.2l0,0.1c-0.2,0.1-0.4,0.2-0.5,0.2c-0.2,0-0.3-0.1-0.3-0.3
						c0-0.5,0.3-0.9,0.7-0.9c0.2,0,0.3,0.1,0.3,0.2C75.4,123.3,75.2,123.5,74.8,123.5L74.8,123.5z M75.1,122.9
						c-0.1,0-0.3,0.2-0.4,0.5h0c0.3,0,0.5-0.2,0.5-0.3C75.2,123,75.2,122.9,75.1,122.9L75.1,122.9z"/>
					<path d="M61.4,123.5c0.2,0,0.4-0.2,0.4-0.4s-0.2-0.4-0.4-0.4s-0.4,0.2-0.4,0.4S61.2,123.5,61.4,123.5L61.4,123.5z"/>
					<path d="M49.2,123.5c0.2,0,0.4-0.2,0.4-0.4s-0.2-0.4-0.4-0.4c-0.2,0-0.4,0.2-0.4,0.4C48.8,123.3,49,123.5,49.2,123.5
						L49.2,123.5z"/>
					<line class="st3" x1="39" y1="125.3" x2="75.4" y2="125.3"/>
					<rect x="39" y="125.2" width="36.5" height="0.1"/>
					<g>
						<g>
							<g>
								<defs>
									<rect id="SVGID_1_" x="38.8" y="108.1" width="36.8" height="12.4"/>
								</defs>
								<clipPath id="SVGID_2_">
									<use xlink:href="#SVGID_1_"  style="overflow:visible;"/>
								</clipPath>
								<path class="st4" d="M38.7,120.5c0.1-3.1,0-6.1,0.1-9.2c0-1.1,0-2.2,0-3.3c0.7-0.1,1.5-0.1,2.3,0c4.9,0,9.7,0,14.6,0
									c-0.3,0.2-0.7,0.3-1,0.6c-0.2,0.3-0.4,0.5-0.5,0.9c-0.4,0.2-0.6,0.5-0.8,0.9c-0.2,0.5-0.6,0.9-0.5,1.4
									c0.1,0.4,0.2,0.9,0.2,1.4c0,0.2,0.1,0.3,0.1,0.5c0.1,0.2,0,0.4,0.1,0.5c0.1,0.1,0,0.2,0.1,0.2c0,0,0,0.1,0,0.1
									c0,0,0,0.1,0.1,0.1c0,0,0,0.1,0,0.1c0.2,0.3,0.5,0.5,0.6,0.8c0.1,0.2-0.3,0.1-0.4,0c-0.3-0.1-0.4-0.4-0.7-0.5c0,0,0,0,0,0.1
									c0.1,0.2,0.5,0.4,0.3,0.6c-0.1,0.1-0.2-0.1-0.4,0c0,0.1,0,0.1,0,0.2c-0.2-0.1-0.3-0.1-0.5-0.1c-0.1,0-0.1-0.2-0.3-0.2
									c-0.4-0.1-0.7-0.2-1.1-0.2c-0.5-0.1-1-0.1-1.5-0.1c-0.4,0-0.8,0.4-1.1,0.7c0,0,0,0.1,0,0.1c0.2,0,0.3-0.1,0.4-0.2
									c0.3-0.1,0.5-0.2,0.8-0.2c0.4-0.1,0.8-0.2,1.2-0.2c0.1,0,0.2,0,0.3,0c-0.5,0-0.9,0.1-1.4,0.3l0,0c-0.3,0.1-0.7,0.1-1,0.3
									c0.7,0,1.5,0.1,2.2,0.3c0.2,0.1,0.5,0.2,0.7,0.3c0.1,0.1,0.2,0.2,0.3,0.2c0.1,0.1,0.3,0.1,0.5,0c0,0,0.1,0,0.1,0
									c0.4-0.1,0.9-0.2,1.2-0.5c0,0,0,0,0.1,0c-0.1,0.2-0.1,0.5-0.2,0.7c0,0,0,0.1,0,0.1c0,0,0,0,0.1,0c0,0-0.1,0-0.1,0
									c0,0.1,0.1,0,0.1,0.1c-0.1,0-0.3,0.1-0.4,0.2c0,0,0.1,0,0.1,0c-0.1,0.1-0.1,0-0.2,0.1c0,0,0,0,0.1,0c0,0-0.1,0-0.1,0
									c0,0,0,0.1,0,0.1c-0.1,0-0.1,0.1-0.2,0.1c0.1,0.1,0.2,0,0.3,0c-0.3,0.1-0.5,0.3-0.9,0.4c-0.1,0,0,0.1-0.1,0.1
									c0.1,0.1,0.1,0,0.2,0c-0.4,0.2-0.8,0.4-1.2,0.7c0,0-0.1,0.1-0.1,0.1c0,0-0.1,0-0.1,0c-0.1,0,0,0.1-0.1,0.2
									c0.1,0.1,0.3-0.1,0.4,0c0,0-0.1,0-0.1,0c0,0,0,0.1-0.1,0.1c0,0-0.1,0-0.1,0c-0.1,0.1-0.1,0.1-0.1,0.2c-0.1,0-0.1,0-0.1,0.1
									c0.6-0.1,1.3,0,1.9-0.3c0.4-0.2,0.9-0.5,1.2-0.9c0,0,0,0,0,0.1c-0.1,0.3-0.2,0.5-0.5,0.6c-0.2,0.1-0.3,0.2-0.4,0.3
									c-0.1,0.1-0.2,0.1-0.2,0.2c-1,0.4-2.3,0.2-3.2,0.9c0,0,0,0-0.1,0c-0.1,0.1-0.1,0.1-0.2,0.1c0,0.1,0.1,0,0.1,0
									c0.2-0.1,0.3-0.2,0.5-0.2c-0.2,0.1-0.4,0.3-0.7,0.3c-0.5,0.1-0.9,0.1-1.4,0c0.3-0.2,0.5-0.4,0.9-0.5
									c-0.1-0.1-0.2-0.1-0.2-0.1c-0.1,0-0.3-0.1-0.4,0c-0.4,0.2-1,0.1-1.2,0.6"/>
							</g>
						</g>
						<g>
							<g>
								<defs>
									<rect id="SVGID_3_" x="38.8" y="108.1" width="36.8" height="12.4"/>
								</defs>
								<clipPath id="SVGID_4_">
									<use xlink:href="#SVGID_3_"  style="overflow:visible;"/>
								</clipPath>
								<path class="st5" d="M48.2,117.1c-0.1,0-0.2,0.1-0.1,0.1c0.1,0.1,0.2,0,0.4,0c-0.2,0.1-0.4,0-0.5,0.2c0.1,0.1,0.2,0,0.3,0
									c0,0.1,0.1,0.1,0.1,0.1c-0.1,0.1-0.2,0.2-0.3,0.2c-0.1,0.1-0.2,0.2-0.3,0.3c0,0,0,0.1,0,0.1c-0.3,0.2-0.6,0.4-0.8,0.7
									c0,0,0,0,0,0.1c-0.1,0.1-0.2,0.1-0.2,0.2c0,0,0,0.1,0,0.1c0.3-0.1,0.6-0.4,0.9-0.5c0.2-0.1,0.4-0.2,0.6-0.2
									c0.1,0,0.3-0.1,0.4-0.1c0,0,0,0.1,0,0.1c0.1,0,0.1,0,0.2,0c0,0.1-0.1,0-0.1,0.1c0.1,0.1,0.2,0.1,0.4,0
									c0.1-0.1,0.2-0.1,0.3-0.1c0,0,0-0.1,0-0.1c0.1,0,0.1,0,0.2,0c0.7-0.1,1.3-0.3,2-0.6c-0.7-0.5-1.7-0.7-2.5-1
									c0.1,0,0.2,0.1,0.2,0c-0.1-0.1-0.3-0.1-0.4-0.1c0,0,0.1,0,0.1,0c-0.2-0.1-0.4-0.1-0.7-0.2c0.1,0,0.2-0.1,0.2-0.3
									c0,0-0.1,0-0.1,0c-0.3,0.2-0.5,0.5-0.7,0.8c0.2,0.1,0.4,0,0.6,0.1C48.5,117.1,48.3,117.1,48.2,117.1L48.2,117.1z"/>
							</g>
						</g>
						<g>
							<g>
								<defs>
									<rect id="SVGID_5_" x="38.8" y="108.1" width="36.8" height="12.4"/>
								</defs>
								<clipPath id="SVGID_6_">
									<use xlink:href="#SVGID_5_"  style="overflow:visible;"/>
								</clipPath>
								<path class="st6" d="M47.1,116c-0.3,0.3-0.6,0.6-0.9,0.8c-0.2,0.5-0.5,0.9-0.9,1.4c0,0,0,0.1,0,0.1c0.7-0.7,1.3-1.4,2.2-2
									c0.1,0-0.1,0.1,0,0.1c0.4-0.1,0.5-0.4,0.6-0.7c0.2-0.4,0.6-0.5,0.9-0.8c0,0,0,0.1,0,0.1c0,0,0.1,0,0.1,0
									c0.1-0.1,0.2-0.1,0.3-0.2c-0.2-0.1-0.5-0.1-0.7,0C48.1,115.1,47.5,115.5,47.1,116L47.1,116z"/>
							</g>
						</g>
						<g>
							<g>
								<defs>
									<rect id="SVGID_7_" x="38.8" y="108.1" width="36.8" height="12.4"/>
								</defs>
								<clipPath id="SVGID_8_">
									<use xlink:href="#SVGID_7_"  style="overflow:visible;"/>
								</clipPath>
								<path class="st7" d="M47.5,116.6c0,0,0.1-0.1,0.1-0.1c0,0,0-0.1,0-0.1c-0.1,0-0.2,0.1-0.2,0.2
									C47.3,116.7,47.4,116.7,47.5,116.6C47.4,116.7,47.5,116.6,47.5,116.6L47.5,116.6z"/>
							</g>
						</g>
						<g>
							<g>
								<defs>
									<rect id="SVGID_9_" x="38.8" y="108.1" width="36.8" height="12.4"/>
								</defs>
								<clipPath id="SVGID_10_">
									<use xlink:href="#SVGID_9_"  style="overflow:visible;"/>
								</clipPath>
								<path class="st8" d="M49.7,118.7c-0.1,0.1-0.3,0.1-0.3,0.2c0,0.1,0.1,0,0.1,0c0.2-0.1,0.4,0,0.6-0.2c-0.1-0.1-0.1,0-0.2-0.1
									C49.9,118.6,49.8,118.7,49.7,118.7L49.7,118.7z"/>
							</g>
						</g>
						<g>
							<g>
								<defs>
									<rect id="SVGID_11_" x="38.8" y="108.1" width="36.8" height="12.4"/>
								</defs>
								<clipPath id="SVGID_12_">
									<use xlink:href="#SVGID_11_"  style="overflow:visible;"/>
								</clipPath>
								<path class="st9" d="M52.8,120.2c0.2,0,0.3-0.1,0.5-0.2c0,0,0,0,0,0.1c0.4-0.2,0.7-0.5,1.2-0.7c0,0,0.1,0.1,0.1,0
									c0.2-0.2,0.5-0.5,0.9-0.4c0,0,0,0.1,0,0.1c0,0,0.1,0,0.1,0c-0.1,0.1-0.2,0.2-0.3,0.2c0,0,0,0.1,0,0.1
									c0.1-0.1,0.2-0.2,0.4-0.2c0,0,0,0.1-0.1,0.1c-0.5,0.4-0.9,0.8-1.4,1.3c-0.3,0-0.6,0-0.9,0c0,0,0-0.1,0-0.1
									c-1,0.1-2,0.1-2.9,0.1c0.5-0.1,1.1-0.2,1.7-0.3C52.3,120.2,52.5,120.3,52.8,120.2L52.8,120.2z"/>
							</g>
						</g>
						<g>
							<g>
								<defs>
									<rect id="SVGID_13_" x="38.8" y="108.1" width="36.8" height="12.4"/>
								</defs>
								<clipPath id="SVGID_14_">
									<use xlink:href="#SVGID_13_"  style="overflow:visible;"/>
								</clipPath>
								<path class="st10" d="M63.9,118.8c0.1-0.2,0.1-0.4,0-0.6c-0.2-0.2,0.2-0.3,0.3-0.5c0.1-0.1-0.1-0.2-0.1-0.4
									c0-0.1-0.1,0-0.2-0.1c0.2-0.1,0.5-0.2,0.4-0.5c-0.1-0.1-0.2-0.4-0.1-0.5c0.2-0.1,0.5-0.1,0.6-0.3c0.1-0.3-0.2-0.6-0.3-0.9
									c-0.1-0.2-0.2-0.3-0.3-0.4c-0.1-0.2-0.2-0.4-0.3-0.6c-0.1-0.2,0-0.4,0-0.6c0-0.4-0.1-0.8-0.2-1.3c-0.1-0.2-0.1-0.4-0.2-0.6
									c0-0.1-0.1-0.2-0.1-0.3c0-0.1,0-0.1,0-0.2c0.1-0.1,0.2-0.2,0.3-0.3c0.1-0.1,0-0.3-0.1-0.4c-0.2-0.1-0.2,0.2-0.3,0.2
									c0,0-0.1,0-0.1,0c0-0.1,0-0.1,0.1-0.2c0,0,0-0.1,0-0.1c-0.1,0-0.2,0-0.2-0.1c-0.3-0.4-0.7-0.6-1.1-0.7
									c0.1,0,0.2,0.1,0.3,0.1c0.2,0,0.4,0,0.6-0.1c0.1-0.1,0.2-0.3,0.2-0.4c0.1-0.1,0-0.3-0.1-0.4c-0.1-0.2-0.4-0.4-0.6-0.5
									c4.5,0,8.9,0,13.4,0c0,4.2,0,8.3-0.1,12.5c-5.3,0.1-10.5,0-15.8,0c0.2-0.5,0.5-1.1,1-1.5c0.1-0.1,0.2-0.1,0.4-0.1
									c0.5,0,0.9,0.1,1.4,0.2c0.1,0,0.1,0,0.2,0.1c0.2,0,0.4,0,0.5,0C63.6,119.2,63.8,119.1,63.9,118.8L63.9,118.8z"/>
							</g>
						</g>
						<g>
							<g>
								<defs>
									<rect id="SVGID_15_" x="38.8" y="108.1" width="36.8" height="12.4"/>
								</defs>
								<clipPath id="SVGID_16_">
									<use xlink:href="#SVGID_15_"  style="overflow:visible;"/>
								</clipPath>
								<path class="st11" d="M62.8,113.3c-0.2,0-0.3,0-0.5,0c-0.2,0.1-0.4,0.1-0.6,0.2c0.2-0.1,0.3-0.2,0.5-0.3
									c0.1,0,0.3-0.1,0.4-0.1c0.2,0,0.3-0.1,0.5,0c0.1,0.1,0.4,0.1,0.4,0.1c0.1,0.2-0.1,0.3-0.2,0.4c0,0.1,0.1,0.1,0.1,0.1
									c0,0.1-0.1,0.1-0.2,0.1c-0.1,0-0.1,0.1-0.2,0.2c0.1,0,0,0.1,0.1,0.1c-0.1,0.1,0.1,0.4-0.1,0.5c-0.2,0.1-0.4,0.1-0.6,0
									c0.1,0,0.2,0,0.3-0.1c0,0,0-0.1,0-0.1s0,0-0.1,0c0,0-0.1,0-0.1,0c0-0.1-0.1-0.1-0.1-0.1c-0.2,0-0.3-0.1-0.4-0.2
									c0.1,0,0.2-0.1,0.2,0c0.1,0,0.1-0.1,0.1-0.2c0,0,0.1,0,0.1,0c0.2-0.2,0.5-0.3,0.5-0.5C63.1,113.3,62.9,113.3,62.8,113.3
									L62.8,113.3z"/>
							</g>
						</g>
					</g>
				</g>
			</g>
		</g>
	</g>
</g>
</svg>
