<?xml version="1.0" encoding="utf-8"?>
<!-- Generator: Adobe Illustrator 21.1.0, SVG Export Plug-In . SVG Version: 6.00 Build 0)  -->
<svg version="1.1" id="Calque_1" xmlns="http://www.w3.org/2000/svg" xmlns:xlink="http://www.w3.org/1999/xlink" x="0px" y="0px"
	 viewBox="0 0 595.3 841.9" style="enable-background:new 0 0 595.3 841.9;" xml:space="preserve">
<style type="text/css">
	.st0{fill:#4F79AC;stroke:#8097C0;}
	.st1{fill:#FFFFFF;}
	.st2{fill:#0C509F;}
	.st3{fill:#EB212E;}
	.st4{fill:#939598;}
</style>
<g>
	<g>
		<path class="st0" d="M311.3,392.9c0,13.9,11.3,25.2,25.2,25.2c13.9,0,25.2-11.3,25.2-25.2c0-13.9-11.3-25.2-25.2-25.2
			C322.6,367.7,311.3,379,311.3,392.9z M316.7,392.9c0-10.9,8.9-19.8,19.8-19.8c10.9,0,19.8,8.9,19.8,19.8
			c0,10.9-8.9,19.8-19.8,19.8C325.6,412.7,316.7,403.8,316.7,392.9z"/>
		<path class="st0" d="M337.8,356.3h10.1l-7.3,7.7h-5.7L337.8,356.3z"/>
		<path class="st0" d="M327.4,379.2h18.4v6.1l-11.4,0v4H345v6.1h-10.6v4h11.4v6.1h-18.4V379.2z"/>
	</g>
	<g>
		<path d="M279.6,389.2H277c-0.7,0-1.3-0.6-1.3-1.2v-4.6c0-0.7,0.6-1.2,1.3-1.2h1.3v-1.3H276v-1.2h2.3c0.7,0,1.3,0.6,1.3,1.2V389.2z
			 M277,388h1.3v-4.6H277V388z"/>
		<path d="M285.7,387.5c0,1-0.9,1.9-1.9,1.9c-1.1,0-1.9-0.8-1.9-1.9v-6c0-1,0.9-1.9,1.9-1.9c1.1,0,1.9,0.8,1.9,1.9v0.7h-1.3v-1.2
			h-1.3v7.1h1.3v-1.2h1.3V387.5z"/>
		<path d="M291.9,389.2h-2.6c-0.7,0-1.3-0.6-1.3-1.2v-4.6c0-0.7,0.6-1.2,1.3-1.2h1.3v-1.3h-2.3v-1.2h2.3c0.7,0,1.3,0.6,1.3,1.2
			V389.2z M289.3,388h1.3v-4.6h-1.3V388z"/>
		<path d="M298,389.2h-2.6c-0.7,0-1.3-0.6-1.3-1.2v-7.1c0-0.7,0.6-1.2,1.3-1.2h1.3v-2.4h1.3V389.2z M295.4,388h1.3v-7.1h-1.3V388z"
			/>
		<path d="M300.3,381.5c0-1,0.9-1.9,1.9-1.9c1.1,0,1.9,0.8,1.9,1.9v3.6h-2.6v2.9h1.3v-1.2h1.3v0.7c0,1-0.9,1.9-1.9,1.9
			c-1.1,0-1.9-0.8-1.9-1.9V381.5z M304,377.8l-3.6,1.3v-1.2l3.6-1.3V377.8z M301.6,383.9h1.3v-2.9h-1.3V383.9z"/>
		<path d="M306.4,379.7h5.2c0.7,0,1.3,0.6,1.3,1.2v8.3h-1.3v-8.3h-1.3v8.3H309v-8.3h-1.3v8.3h-1.3V379.7z"/>
		<path d="M316.5,378.6h-1.3v-1.2h1.3V378.6z M316.5,389.3c-0.4,0-0.7-0.1-0.9-0.4c-0.2-0.2-0.4-0.5-0.4-0.9v-8.4h1.3V389.3z"/>
		<path d="M318.7,381.5c0-1,0.9-1.9,1.9-1.9c1.1,0,1.9,0.8,1.9,1.9v3.6H320v2.9h1.3v-1.2h1.3v0.7c0,1-0.9,1.9-1.9,1.9
			c-1.1,0-1.9-0.8-1.9-1.9V381.5z M320,383.9h1.3v-2.9H320V383.9z"/>
		<path d="M300.6,394.8c0-1,0.9-1.9,1.9-1.9c1.1,0,1.9,0.8,1.9,1.9v1.4h-1.3v-1.9h-1.3v9.4h1.3v-1.9h1.3v1.4c0,1-0.9,1.9-1.9,1.9
			c-1.1,0-1.9-0.8-1.9-1.9V394.8z"/>
		<path d="M310.3,405h-2.6c-0.7,0-1.3-0.6-1.3-1.2v-4.6c0-0.7,0.6-1.2,1.3-1.2h1.3v-1.3h-2.3v-1.2h2.3c0.7,0,1.3,0.6,1.3,1.2V405z
			 M307.7,403.7h1.3v-4.6h-1.3V403.7z"/>
		<path d="M312.6,397.2c0-1,0.9-1.9,1.9-1.9c1.1,0,1.9,0.8,1.9,1.9v3.6h-2.6v2.9h1.3v-1.2h1.3v0.7c0,1-0.9,1.9-1.9,1.9
			c-1.1,0-1.9-0.8-1.9-1.9V397.2z M313.9,399.6h1.3v-2.9h-1.3V399.6z"/>
		<path d="M318.7,395.4h2.6c0.7,0,1.3,0.6,1.3,1.2v8.3h-1.3v-8.3H320v8.3h-1.3V395.4z"/>
	</g>
	<g>
		<g>
			<path d="M260,415.5v8.3h-0.9v-0.7c-0.1,0.3-0.3,0.5-0.4,0.6c-0.1,0.1-0.3,0.2-0.5,0.2c-0.4,0-0.7-0.2-0.9-0.6
				c-0.2-0.4-0.3-1.1-0.3-2c0-0.4,0-0.8,0.1-1.2c0-0.3,0.1-0.6,0.2-0.8c0.1-0.2,0.2-0.4,0.4-0.5c0.2-0.1,0.3-0.1,0.6-0.1
				c0.2,0,0.4,0,0.5,0.1c0.1,0,0.1,0.1,0.2,0.2c0.1,0.1,0.1,0.2,0.2,0.3v-3.8H260z M257.9,421.3c0,0.7,0,1.1,0.1,1.4
				c0.1,0.3,0.3,0.4,0.5,0.4c0.2,0,0.4-0.1,0.5-0.4c0.1-0.3,0.1-0.7,0.1-1.4c0-0.6,0-1.1-0.1-1.4c-0.1-0.3-0.2-0.4-0.5-0.4
				c-0.2,0-0.4,0.1-0.5,0.4C258,420.1,257.9,420.6,257.9,421.3z"/>
			<path d="M261.6,416.6c0.2,0,0.3,0.1,0.4,0.2c0.1,0.1,0.2,0.3,0.2,0.4c0,0.2-0.1,0.3-0.2,0.5c-0.1,0.1-0.3,0.2-0.5,0.2
				c-0.2,0-0.3-0.1-0.5-0.2c-0.1-0.1-0.2-0.3-0.2-0.5c0-0.2,0.1-0.3,0.2-0.4C261.2,416.7,261.4,416.6,261.6,416.6z M261.1,418.8h0.9
				v5.1h-0.9V418.8z"/>
			<path d="M263.1,418.8h0.9v0.6c0.2-0.3,0.3-0.5,0.5-0.6c0.2-0.1,0.4-0.2,0.6-0.2v1c-0.1,0-0.1,0-0.2,0c-0.3,0-0.6,0.1-0.7,0.3
				c-0.1,0.2-0.2,0.5-0.2,0.9v3.1h-0.9V418.8z"/>
			<path d="M267.8,422.1h0.9c-0.1,1.2-0.6,1.8-1.5,1.8c-0.3,0-0.5-0.1-0.7-0.2c-0.2-0.1-0.4-0.3-0.5-0.5c-0.1-0.2-0.2-0.5-0.3-0.8
				c-0.1-0.3-0.1-0.7-0.1-1.2c0-0.9,0.1-1.6,0.4-2c0.2-0.4,0.6-0.6,1.2-0.6c1,0,1.5,0.9,1.5,2.7v0.1h-2.1c0,1.1,0.2,1.6,0.6,1.6
				C267.6,423.1,267.8,422.8,267.8,422.1z M267.7,420.8c0-0.5-0.1-0.9-0.2-1c-0.1-0.2-0.2-0.3-0.4-0.3c-0.2,0-0.3,0.1-0.4,0.3
				c-0.1,0.2-0.1,0.5-0.2,1H267.7z"/>
			<path d="M271.6,418.8v1c-0.1-0.2-0.3-0.2-0.5-0.2c-0.5,0-0.8,0.6-0.8,1.7c0,1.2,0.3,1.8,0.8,1.8c0.1,0,0.3-0.1,0.5-0.2v0.9
				c-0.2,0.1-0.5,0.2-0.8,0.2c-1,0-1.5-0.9-1.5-2.6c0-0.9,0.1-1.6,0.4-2c0.2-0.4,0.6-0.6,1.2-0.6
				C271.1,418.7,271.3,418.7,271.6,418.8z"/>
			<path d="M272.5,417.3h0.9v1.4h0.5v0.7h-0.5v4.3h-0.9v-4.3H272v-0.7h0.5V417.3z"/>
			<path d="M275.1,416.6c0.2,0,0.3,0.1,0.4,0.2c0.1,0.1,0.2,0.3,0.2,0.4c0,0.2-0.1,0.3-0.2,0.5c-0.1,0.1-0.3,0.2-0.5,0.2
				c-0.2,0-0.3-0.1-0.5-0.2c-0.1-0.1-0.2-0.3-0.2-0.5c0-0.2,0.1-0.3,0.2-0.4C274.7,416.7,274.9,416.6,275.1,416.6z M274.6,418.8h0.9
				v5.1h-0.9V418.8z"/>
			<path d="M279.6,421.3c0,1.7-0.5,2.6-1.6,2.6c-1.1,0-1.6-0.9-1.6-2.6c0-1.7,0.5-2.6,1.6-2.6c0.3,0,0.5,0.1,0.7,0.2
				c0.2,0.1,0.4,0.3,0.5,0.5c0.1,0.2,0.2,0.5,0.3,0.8C279.6,420.5,279.6,420.9,279.6,421.3z M278.6,421.3c0-0.7,0-1.1-0.1-1.4
				c-0.1-0.3-0.2-0.4-0.5-0.4c-0.2,0-0.4,0.1-0.5,0.4c-0.1,0.3-0.1,0.7-0.1,1.4c0,0.7,0,1.1,0.1,1.4c0.1,0.3,0.3,0.4,0.5,0.4
				c0.2,0,0.4-0.1,0.5-0.4C278.6,422.4,278.6,422,278.6,421.3z"/>
			<path d="M280.5,418.8h0.9v0.6c0.3-0.4,0.6-0.7,1-0.7c0.4,0,0.7,0.2,0.9,0.5c0.1,0.2,0.1,0.5,0.1,1.1v3.6h-0.9l0-3.4
				c0-0.3,0-0.6-0.1-0.7c-0.1-0.1-0.2-0.2-0.4-0.2c-0.1,0-0.2,0-0.3,0.1c-0.1,0-0.1,0.1-0.2,0.2c0,0.1-0.1,0.2-0.1,0.3
				c0,0.1,0,0.3,0,0.5v3.3h-0.9V418.8z"/>
			<path d="M289.5,415.5v8.3h-0.9v-0.7c-0.1,0.3-0.3,0.5-0.4,0.6s-0.3,0.2-0.5,0.2c-0.4,0-0.7-0.2-0.9-0.6c-0.2-0.4-0.3-1.1-0.3-2
				c0-0.4,0-0.8,0.1-1.2c0-0.3,0.1-0.6,0.2-0.8c0.1-0.2,0.2-0.4,0.4-0.5c0.2-0.1,0.3-0.1,0.6-0.1c0.2,0,0.4,0,0.5,0.1
				c0.1,0,0.1,0.1,0.2,0.2c0.1,0.1,0.1,0.2,0.2,0.3v-3.8H289.5z M287.4,421.3c0,0.7,0,1.1,0.1,1.4c0.1,0.3,0.3,0.4,0.5,0.4
				c0.2,0,0.4-0.1,0.5-0.4c0.1-0.3,0.1-0.7,0.1-1.4c0-0.6,0-1.1-0.1-1.4c-0.1-0.3-0.2-0.4-0.5-0.4c-0.2,0-0.4,0.1-0.5,0.4
				C287.4,420.1,287.4,420.6,287.4,421.3z"/>
			<path d="M292.5,422.1h0.9c-0.1,1.2-0.6,1.8-1.5,1.8c-0.3,0-0.5-0.1-0.7-0.2c-0.2-0.1-0.4-0.3-0.5-0.5c-0.1-0.2-0.2-0.5-0.3-0.8
				c-0.1-0.3-0.1-0.7-0.1-1.2c0-0.9,0.1-1.6,0.4-2c0.2-0.4,0.6-0.6,1.2-0.6c1,0,1.5,0.9,1.5,2.7v0.1h-2.1c0,1.1,0.2,1.6,0.6,1.6
				C292.3,423.1,292.5,422.8,292.5,422.1z M292.5,420.8c0-0.5-0.1-0.9-0.2-1c-0.1-0.2-0.2-0.3-0.4-0.3c-0.2,0-0.3,0.1-0.4,0.3
				c-0.1,0.2-0.1,0.5-0.2,1H292.5z"/>
			<path d="M296.2,418.9v0.9c-0.2-0.2-0.5-0.3-0.7-0.3c-0.1,0-0.2,0-0.2,0c-0.1,0-0.1,0.1-0.2,0.1c-0.1,0.1-0.1,0.1-0.1,0.2
				c0,0.1,0,0.1,0,0.2c0,0.2,0.2,0.5,0.7,0.9c0.2,0.1,0.3,0.3,0.4,0.4c0.1,0.1,0.2,0.2,0.3,0.3c0.1,0.2,0.2,0.5,0.2,0.8
				c0,0.5-0.1,0.8-0.4,1.1c-0.3,0.3-0.6,0.4-1.1,0.4c-0.3,0-0.5-0.1-0.8-0.2v-0.9c0.3,0.2,0.5,0.3,0.8,0.3c0.4,0,0.6-0.2,0.6-0.6
				c0-0.2,0-0.3-0.1-0.4c0-0.1-0.1-0.1-0.2-0.2c-0.1-0.1-0.2-0.2-0.3-0.2c-0.4-0.3-0.7-0.6-0.8-0.8c-0.1-0.2-0.2-0.5-0.2-0.8
				c0-0.4,0.1-0.7,0.4-1c0.3-0.3,0.6-0.4,1-0.4C295.7,418.6,296,418.7,296.2,418.9z"/>
			<path d="M301.3,418.9v0.9c-0.2-0.2-0.5-0.3-0.7-0.3c-0.1,0-0.2,0-0.2,0c-0.1,0-0.1,0.1-0.2,0.1c-0.1,0.1-0.1,0.1-0.1,0.2
				c0,0.1,0,0.1,0,0.2c0,0.2,0.2,0.5,0.7,0.9c0.2,0.1,0.3,0.3,0.4,0.4c0.1,0.1,0.2,0.2,0.3,0.3c0.1,0.2,0.2,0.5,0.2,0.8
				c0,0.5-0.1,0.8-0.4,1.1c-0.3,0.3-0.6,0.4-1.1,0.4c-0.3,0-0.5-0.1-0.8-0.2v-0.9c0.3,0.2,0.5,0.3,0.8,0.3c0.4,0,0.6-0.2,0.6-0.6
				c0-0.2,0-0.3-0.1-0.4c0-0.1-0.1-0.1-0.2-0.2c-0.1-0.1-0.2-0.2-0.3-0.2c-0.4-0.3-0.7-0.6-0.8-0.8c-0.1-0.2-0.2-0.5-0.2-0.8
				c0-0.4,0.1-0.7,0.4-1c0.3-0.3,0.6-0.4,1-0.4C300.7,418.6,301,418.7,301.3,418.9z"/>
			<path d="M304.2,422.1h0.9c-0.1,1.2-0.6,1.8-1.5,1.8c-0.3,0-0.5-0.1-0.7-0.2c-0.2-0.1-0.4-0.3-0.5-0.5c-0.1-0.2-0.2-0.5-0.3-0.8
				c-0.1-0.3-0.1-0.7-0.1-1.2c0-0.9,0.1-1.6,0.4-2c0.2-0.4,0.6-0.6,1.2-0.6c1,0,1.5,0.9,1.5,2.7v0.1H303c0,1.1,0.2,1.6,0.6,1.6
				C304,423.1,304.2,422.8,304.2,422.1z M304.2,420.8c0-0.5-0.1-0.9-0.2-1c-0.1-0.2-0.2-0.3-0.4-0.3c-0.2,0-0.3,0.1-0.4,0.3
				c-0.1,0.2-0.1,0.5-0.2,1H304.2z"/>
			<path d="M305.9,418.8h0.9v0.6c0.2-0.3,0.3-0.5,0.5-0.6c0.2-0.1,0.4-0.2,0.6-0.2v1c-0.1,0-0.1,0-0.2,0c-0.3,0-0.6,0.1-0.7,0.3
				c-0.1,0.2-0.2,0.5-0.2,0.9v3.1h-0.9V418.8z"/>
			<path d="M308.4,418.8h1l0.4,1.6c0.1,0.3,0.1,0.7,0.2,1c0.1,0.4,0.1,0.8,0.1,1.2c0-0.1,0-0.2,0-0.2l0.1-0.8c0-0.3,0.1-0.7,0.2-1.3
				l0.3-1.6h0.9l-1.3,5.1h-0.6L308.4,418.8z"/>
			<path d="M312.7,416.6c0.2,0,0.3,0.1,0.4,0.2c0.1,0.1,0.2,0.3,0.2,0.4c0,0.2-0.1,0.3-0.2,0.5c-0.1,0.1-0.3,0.2-0.5,0.2
				s-0.3-0.1-0.5-0.2c-0.1-0.1-0.2-0.3-0.2-0.5c0-0.2,0.1-0.3,0.2-0.4C312.4,416.7,312.6,416.6,312.7,416.6z M312.3,418.8h0.9v5.1
				h-0.9V418.8z"/>
			<path d="M316.4,418.8v1c-0.1-0.2-0.3-0.2-0.5-0.2c-0.5,0-0.8,0.6-0.8,1.7c0,1.2,0.3,1.8,0.8,1.8c0.1,0,0.3-0.1,0.5-0.2v0.9
				c-0.2,0.1-0.5,0.2-0.8,0.2c-1,0-1.5-0.9-1.5-2.6c0-0.9,0.1-1.6,0.4-2c0.2-0.4,0.6-0.6,1.2-0.6
				C315.9,418.7,316.1,418.7,316.4,418.8z"/>
			<path d="M319.1,422.1h0.9c-0.1,1.2-0.6,1.8-1.5,1.8c-0.3,0-0.5-0.1-0.7-0.2c-0.2-0.1-0.4-0.3-0.5-0.5c-0.1-0.2-0.2-0.5-0.3-0.8
				c-0.1-0.3-0.1-0.7-0.1-1.2c0-0.9,0.1-1.6,0.4-2c0.2-0.4,0.6-0.6,1.2-0.6c1,0,1.5,0.9,1.5,2.7v0.1h-2.1c0,1.1,0.2,1.6,0.6,1.6
				C318.9,423.1,319.1,422.8,319.1,422.1z M319.1,420.8c0-0.5-0.1-0.9-0.2-1c-0.1-0.2-0.2-0.3-0.4-0.3c-0.2,0-0.3,0.1-0.4,0.3
				c-0.1,0.2-0.1,0.5-0.2,1H319.1z"/>
			<path d="M322.8,418.9v0.9c-0.2-0.2-0.5-0.3-0.7-0.3c-0.1,0-0.2,0-0.2,0c-0.1,0-0.1,0.1-0.2,0.1c-0.1,0.1-0.1,0.1-0.1,0.2
				c0,0.1,0,0.1,0,0.2c0,0.2,0.2,0.5,0.7,0.9c0.2,0.1,0.3,0.3,0.4,0.4c0.1,0.1,0.2,0.2,0.3,0.3c0.1,0.2,0.2,0.5,0.2,0.8
				c0,0.5-0.1,0.8-0.4,1.1c-0.3,0.3-0.6,0.4-1.1,0.4c-0.3,0-0.5-0.1-0.8-0.2v-0.9c0.3,0.2,0.5,0.3,0.8,0.3c0.4,0,0.6-0.2,0.6-0.6
				c0-0.2,0-0.3-0.1-0.4c0-0.1-0.1-0.1-0.2-0.2c-0.1-0.1-0.2-0.2-0.3-0.2c-0.4-0.3-0.7-0.6-0.8-0.8c-0.1-0.2-0.2-0.5-0.2-0.8
				c0-0.4,0.1-0.7,0.4-1c0.3-0.3,0.6-0.4,1-0.4C322.3,418.6,322.5,418.7,322.8,418.9z"/>
			<path d="M274.4,425.5v8.3h-0.9v-0.7c-0.1,0.3-0.3,0.5-0.4,0.6c-0.1,0.1-0.3,0.2-0.5,0.2c-0.4,0-0.7-0.2-0.9-0.6
				c-0.2-0.4-0.3-1.1-0.3-2c0-0.4,0-0.8,0.1-1.2c0-0.3,0.1-0.6,0.2-0.8c0.1-0.2,0.2-0.4,0.4-0.5c0.2-0.1,0.3-0.1,0.6-0.1
				c0.2,0,0.4,0,0.5,0.1c0.1,0,0.1,0.1,0.2,0.2c0.1,0.1,0.1,0.2,0.2,0.3v-3.8H274.4z M272.3,431.3c0,0.7,0,1.1,0.1,1.4
				c0.1,0.3,0.3,0.4,0.5,0.4c0.2,0,0.4-0.1,0.5-0.4c0.1-0.3,0.1-0.7,0.1-1.4c0-0.6,0-1.1-0.1-1.4c-0.1-0.3-0.2-0.4-0.5-0.4
				c-0.2,0-0.4,0.1-0.5,0.4C272.3,430.2,272.3,430.6,272.3,431.3z"/>
			<path d="M277.4,432.1h0.9c-0.1,1.2-0.6,1.8-1.5,1.8c-0.3,0-0.5-0.1-0.7-0.2c-0.2-0.1-0.4-0.3-0.5-0.5c-0.1-0.2-0.2-0.5-0.3-0.8
				c-0.1-0.3-0.1-0.7-0.1-1.2c0-0.9,0.1-1.6,0.4-2c0.2-0.4,0.6-0.6,1.2-0.6c1,0,1.5,0.9,1.5,2.7v0.1h-2.1c0,1.1,0.2,1.6,0.6,1.6
				C277.2,433.1,277.4,432.8,277.4,432.1z M277.3,430.8c0-0.5-0.1-0.9-0.2-1c-0.1-0.2-0.2-0.3-0.4-0.3c-0.2,0-0.3,0.1-0.4,0.3
				c-0.1,0.2-0.1,0.5-0.2,1H277.3z M277.8,426.7l-1,1.4l-0.5-0.3l0.8-1.5L277.8,426.7z"/>
			<path d="M279.1,435.9v-7.1h0.9v0.7c0.1-0.3,0.3-0.5,0.4-0.6c0.1-0.1,0.3-0.2,0.5-0.2c0.4,0,0.7,0.2,0.9,0.6
				c0.2,0.4,0.3,1.1,0.3,2c0,0.9-0.1,1.5-0.3,1.9c-0.2,0.4-0.5,0.6-0.9,0.6c-0.2,0-0.4,0-0.5-0.1c-0.1,0-0.1-0.1-0.2-0.2
				c-0.1-0.1-0.1-0.2-0.2-0.3v2.6H279.1z M281.2,431.3c0-0.7,0-1.2-0.1-1.4c-0.1-0.3-0.2-0.4-0.5-0.4c-0.2,0-0.4,0.1-0.5,0.4
				c-0.1,0.3-0.1,0.7-0.1,1.4c0,0.7,0,1.1,0.1,1.4c0.1,0.3,0.2,0.4,0.5,0.4c0.2,0,0.4-0.1,0.5-0.4
				C281.2,432.4,281.2,432,281.2,431.3z"/>
			<path d="M286,428.8v5.1h-0.9v-0.7c-0.1,0.3-0.3,0.5-0.4,0.6c-0.1,0.1-0.3,0.2-0.5,0.2c-0.4,0-0.7-0.2-0.9-0.6
				c-0.2-0.4-0.3-1.1-0.3-2c0-0.9,0.1-1.5,0.3-1.9c0.2-0.4,0.5-0.6,0.9-0.6c0.4,0,0.7,0.2,0.9,0.7v-0.6H286z M283.9,431.3
				c0,0.7,0,1.1,0.1,1.4c0.1,0.3,0.3,0.4,0.5,0.4c0.2,0,0.4-0.1,0.5-0.4c0.1-0.3,0.1-0.7,0.1-1.4c0-0.6,0-1.1-0.1-1.4
				c-0.1-0.3-0.2-0.4-0.5-0.4c-0.2,0-0.4,0.1-0.5,0.4C283.9,430.2,283.9,430.6,283.9,431.3z"/>
			<path d="M287,428.8h0.9v0.6c0.2-0.3,0.3-0.5,0.5-0.6c0.2-0.1,0.4-0.2,0.6-0.2v1c-0.1,0-0.1,0-0.2,0c-0.3,0-0.6,0.1-0.7,0.3
				c-0.1,0.2-0.2,0.5-0.2,0.9v3.1H287V428.8z"/>
			<path d="M290.1,427.3h0.9v1.4h0.5v0.7H291v4.3h-0.9v-4.3h-0.5v-0.7h0.5V427.3z"/>
			<path d="M294.1,432.1h0.9c-0.1,1.2-0.6,1.8-1.5,1.8c-0.3,0-0.5-0.1-0.7-0.2c-0.2-0.1-0.4-0.3-0.5-0.5c-0.1-0.2-0.2-0.5-0.3-0.8
				c-0.1-0.3-0.1-0.7-0.1-1.2c0-0.9,0.1-1.6,0.4-2c0.2-0.4,0.6-0.6,1.2-0.6c1,0,1.5,0.9,1.5,2.7v0.1h-2.1c0,1.1,0.2,1.6,0.6,1.6
				C293.9,433.1,294.1,432.8,294.1,432.1z M294.1,430.8c0-0.5-0.1-0.9-0.2-1c-0.1-0.2-0.2-0.3-0.4-0.3c-0.2,0-0.3,0.1-0.4,0.3
				c-0.1,0.2-0.1,0.5-0.2,1H294.1z"/>
			<path d="M295.9,428.8h0.9v0.6c0.3-0.5,0.6-0.7,1-0.7c0.5,0,0.8,0.2,1,0.7c0.2-0.5,0.6-0.7,1.1-0.7c0.4,0,0.6,0.1,0.8,0.3
				c0.2,0.2,0.3,0.5,0.3,0.8v4H300v-3.3c0-0.4,0-0.6-0.1-0.8c-0.1-0.1-0.2-0.2-0.4-0.2c-0.2,0-0.4,0.1-0.5,0.2
				c-0.1,0.1-0.1,0.4-0.1,0.8v3.3h-1v-3.3c0-0.2,0-0.3,0-0.5c0-0.1,0-0.2-0.1-0.3c0-0.1-0.1-0.1-0.2-0.2c-0.1,0-0.2-0.1-0.3-0.1
				c-0.2,0-0.4,0.1-0.5,0.2c-0.1,0.1-0.1,0.4-0.1,0.8v3.3h-0.9V428.8z"/>
			<path d="M303.9,432.1h0.9c-0.1,1.2-0.6,1.8-1.5,1.8c-0.3,0-0.5-0.1-0.7-0.2c-0.2-0.1-0.4-0.3-0.5-0.5c-0.1-0.2-0.2-0.5-0.3-0.8
				c-0.1-0.3-0.1-0.7-0.1-1.2c0-0.9,0.1-1.6,0.4-2c0.2-0.4,0.6-0.6,1.2-0.6c1,0,1.5,0.9,1.5,2.7v0.1h-2.1c0,1.1,0.2,1.6,0.6,1.6
				C303.8,433.1,303.9,432.8,303.9,432.1z M303.9,430.8c0-0.5-0.1-0.9-0.2-1c-0.1-0.2-0.2-0.3-0.4-0.3c-0.2,0-0.3,0.1-0.4,0.3
				c-0.1,0.2-0.1,0.5-0.2,1H303.9z"/>
			<path d="M305.7,428.8h0.9v0.6c0.3-0.4,0.6-0.7,1-0.7c0.4,0,0.7,0.2,0.9,0.5c0.1,0.2,0.1,0.5,0.1,1.1v3.6h-0.9l0-3.4
				c0-0.3,0-0.6-0.1-0.7c-0.1-0.1-0.2-0.2-0.4-0.2c-0.1,0-0.2,0-0.3,0.1c-0.1,0-0.1,0.1-0.2,0.2c0,0.1-0.1,0.2-0.1,0.3
				c0,0.1,0,0.3,0,0.5v3.3h-0.9V428.8z"/>
			<path d="M309.9,427.3h0.9v1.4h0.5v0.7h-0.5v4.3h-0.9v-4.3h-0.5v-0.7h0.5V427.3z"/>
			<path d="M314.9,428.8v5.1h-0.9v-0.7c-0.1,0.3-0.3,0.5-0.4,0.6c-0.1,0.1-0.3,0.2-0.5,0.2c-0.4,0-0.7-0.2-0.9-0.6
				c-0.2-0.4-0.3-1.1-0.3-2c0-0.9,0.1-1.5,0.3-1.9c0.2-0.4,0.5-0.6,0.9-0.6c0.4,0,0.7,0.2,0.9,0.7v-0.6H314.9z M312.8,431.3
				c0,0.7,0,1.1,0.1,1.4c0.1,0.3,0.2,0.4,0.5,0.4c0.2,0,0.4-0.1,0.5-0.4c0.1-0.3,0.1-0.7,0.1-1.4c0-0.6,0-1.1-0.1-1.4
				c-0.1-0.3-0.2-0.4-0.5-0.4c-0.2,0-0.4,0.1-0.5,0.4C312.8,430.2,312.8,430.6,312.8,431.3z"/>
			<path d="M315.9,428.8h0.9v3.4c0,0.3,0.1,0.5,0.1,0.7c0.1,0.1,0.2,0.2,0.4,0.2c0.2,0,0.4-0.1,0.4-0.2c0.1-0.1,0.1-0.3,0.1-0.6
				v-0.4v-3h0.9v3c0,0.7-0.1,1.2-0.2,1.4c-0.2,0.5-0.7,0.7-1.4,0.7c-0.5,0-0.9-0.1-1.2-0.4c-0.2-0.3-0.3-0.7-0.3-1.4V428.8z"/>
			<path d="M319.5,428.8h1.1l0.4,1c0.1,0.1,0.1,0.2,0.1,0.4c0,0.1,0.1,0.3,0.1,0.4c0-0.1,0.1-0.2,0.1-0.4c0-0.1,0.1-0.2,0.1-0.3
				l0.1-0.1l0.4-0.9h1l-1.1,2.4l1.4,2.7h-1.1l-0.4-1c-0.2-0.5-0.3-0.8-0.4-1.1c0,0.3-0.1,0.6-0.3,1l-0.5,1.1h-1l1.3-2.7L319.5,428.8
				z"/>
			<path d="M250,435.5v8.3h-0.9v-0.7c-0.1,0.3-0.3,0.5-0.4,0.6c-0.1,0.1-0.3,0.2-0.5,0.2c-0.4,0-0.7-0.2-0.9-0.6
				c-0.2-0.4-0.3-1.1-0.3-2c0-0.4,0-0.8,0.1-1.2c0-0.3,0.1-0.6,0.2-0.8c0.1-0.2,0.2-0.4,0.4-0.5c0.2-0.1,0.3-0.1,0.6-0.1
				c0.2,0,0.4,0,0.5,0.1c0.1,0,0.1,0.1,0.2,0.2c0.1,0.1,0.1,0.2,0.2,0.3v-3.8H250z M247.9,441.3c0,0.7,0,1.1,0.1,1.4
				c0.1,0.3,0.3,0.4,0.5,0.4c0.2,0,0.4-0.1,0.5-0.4c0.1-0.3,0.1-0.7,0.1-1.4c0-0.6,0-1.1-0.1-1.4c-0.1-0.3-0.2-0.4-0.5-0.4
				c-0.2,0-0.4,0.1-0.5,0.4C248,440.2,247.9,440.6,247.9,441.3z"/>
			<path d="M253,442.1h0.9c-0.1,1.2-0.6,1.8-1.5,1.8c-0.3,0-0.5-0.1-0.7-0.2c-0.2-0.1-0.4-0.3-0.5-0.5c-0.1-0.2-0.2-0.5-0.3-0.8
				c-0.1-0.3-0.1-0.7-0.1-1.2c0-0.9,0.1-1.6,0.4-2c0.2-0.4,0.6-0.6,1.2-0.6c1,0,1.5,0.9,1.5,2.7v0.1h-2.1c0,1.1,0.2,1.6,0.6,1.6
				C252.9,443.1,253,442.8,253,442.1z M253,440.8c0-0.5-0.1-0.9-0.2-1c-0.1-0.2-0.2-0.3-0.4-0.3c-0.2,0-0.3,0.1-0.4,0.3
				c-0.1,0.2-0.1,0.5-0.2,1H253z"/>
			<path d="M256.9,435.5h0.9v8.3h-0.9V435.5z"/>
			<path d="M259.5,436.1l0.8,0.2l-1,2.7l-0.5-0.1L259.5,436.1z"/>
			<path d="M263.1,442.1h0.9c-0.1,1.2-0.6,1.8-1.5,1.8c-0.3,0-0.5-0.1-0.7-0.2c-0.2-0.1-0.4-0.3-0.5-0.5c-0.1-0.2-0.2-0.5-0.3-0.8
				c-0.1-0.3-0.1-0.7-0.1-1.2c0-0.9,0.1-1.6,0.4-2c0.2-0.4,0.6-0.6,1.2-0.6c1,0,1.5,0.9,1.5,2.7v0.1h-2.1c0,1.1,0.2,1.6,0.6,1.6
				C262.9,443.1,263.1,442.8,263.1,442.1z M263.1,440.8c0-0.5-0.1-0.9-0.2-1c-0.1-0.2-0.2-0.3-0.4-0.3c-0.2,0-0.3,0.1-0.4,0.3
				c-0.1,0.2-0.1,0.5-0.2,1H263.1z M263.6,436.7l-1,1.4l-0.5-0.3l0.8-1.5L263.6,436.7z"/>
			<path d="M267.8,435.5v8.3h-0.9v-0.7c-0.1,0.3-0.3,0.5-0.4,0.6c-0.1,0.1-0.3,0.2-0.5,0.2c-0.4,0-0.7-0.2-0.9-0.6
				c-0.2-0.4-0.3-1.1-0.3-2c0-0.4,0-0.8,0.1-1.2c0-0.3,0.1-0.6,0.2-0.8c0.1-0.2,0.2-0.4,0.4-0.5c0.2-0.1,0.3-0.1,0.6-0.1
				c0.2,0,0.4,0,0.5,0.1c0.1,0,0.1,0.1,0.2,0.2c0.1,0.1,0.1,0.2,0.2,0.3v-3.8H267.8z M265.7,441.3c0,0.7,0,1.1,0.1,1.4
				c0.1,0.3,0.3,0.4,0.5,0.4c0.2,0,0.4-0.1,0.5-0.4c0.1-0.3,0.1-0.7,0.1-1.4c0-0.6,0-1.1-0.1-1.4c-0.1-0.3-0.2-0.4-0.5-0.4
				c-0.2,0-0.4,0.1-0.5,0.4C265.7,440.2,265.7,440.6,265.7,441.3z"/>
			<path d="M268.8,438.8h0.9v3.4c0,0.3,0.1,0.5,0.1,0.7c0.1,0.1,0.2,0.2,0.4,0.2c0.2,0,0.4-0.1,0.4-0.2c0.1-0.1,0.1-0.3,0.1-0.6
				v-0.4v-3h0.9v3c0,0.7-0.1,1.2-0.2,1.4c-0.2,0.5-0.7,0.7-1.4,0.7c-0.5,0-0.9-0.1-1.2-0.4c-0.2-0.3-0.3-0.7-0.3-1.4V438.8z"/>
			<path d="M275,438.9v1c-0.1-0.2-0.3-0.2-0.5-0.2c-0.5,0-0.8,0.6-0.8,1.7c0,1.2,0.3,1.8,0.8,1.8c0.1,0,0.3-0.1,0.5-0.2v0.9
				c-0.2,0.1-0.5,0.2-0.8,0.2c-1,0-1.5-0.9-1.5-2.6c0-0.9,0.1-1.6,0.4-2c0.2-0.4,0.6-0.6,1.2-0.6C274.5,438.7,274.7,438.8,275,438.9
				z"/>
			<path d="M278.7,438.8v5.1h-0.9v-0.7c-0.1,0.3-0.3,0.5-0.4,0.6c-0.1,0.1-0.3,0.2-0.5,0.2c-0.4,0-0.7-0.2-0.9-0.6
				c-0.2-0.4-0.3-1.1-0.3-2c0-0.9,0.1-1.5,0.3-1.9c0.2-0.4,0.5-0.6,0.9-0.6c0.4,0,0.7,0.2,0.9,0.7v-0.6H278.7z M276.6,441.3
				c0,0.7,0,1.1,0.1,1.4c0.1,0.3,0.3,0.4,0.5,0.4c0.2,0,0.4-0.1,0.5-0.4c0.1-0.3,0.1-0.7,0.1-1.4c0-0.6,0-1.1-0.1-1.4
				c-0.1-0.3-0.2-0.4-0.5-0.4c-0.2,0-0.4,0.1-0.5,0.4C276.6,440.2,276.6,440.6,276.6,441.3z"/>
			<path d="M279.9,437.4h0.9v1.4h0.5v0.7h-0.5v4.3h-0.9v-4.3h-0.5v-0.7h0.5V437.4z"/>
			<path d="M282.4,436.6c0.2,0,0.3,0.1,0.4,0.2c0.1,0.1,0.2,0.3,0.2,0.4c0,0.2-0.1,0.3-0.2,0.5c-0.1,0.1-0.3,0.2-0.5,0.2
				c-0.2,0-0.3-0.1-0.5-0.2c-0.1-0.1-0.2-0.3-0.2-0.5c0-0.2,0.1-0.3,0.2-0.4C282.1,436.7,282.2,436.6,282.4,436.6z M282,438.8h0.9
				v5.1H282V438.8z"/>
			<path d="M287,441.4c0,1.7-0.5,2.6-1.6,2.6s-1.6-0.9-1.6-2.6c0-1.7,0.5-2.6,1.6-2.6c0.3,0,0.5,0.1,0.7,0.2
				c0.2,0.1,0.4,0.3,0.5,0.5c0.1,0.2,0.2,0.5,0.3,0.8C286.9,440.5,287,440.9,287,441.4z M286,441.3c0-0.7,0-1.1-0.1-1.4
				c-0.1-0.3-0.2-0.4-0.5-0.4c-0.2,0-0.4,0.1-0.5,0.4c-0.1,0.3-0.1,0.7-0.1,1.4c0,0.7,0,1.1,0.1,1.4c0.1,0.3,0.3,0.4,0.5,0.4
				s0.4-0.1,0.5-0.4C285.9,442.4,286,442,286,441.3z"/>
			<path d="M287.8,438.8h0.9v0.6c0.3-0.4,0.6-0.7,1-0.7c0.4,0,0.7,0.2,0.9,0.5c0.1,0.2,0.1,0.5,0.1,1.1v3.6h-0.9l0-3.4
				c0-0.3,0-0.6-0.1-0.7c-0.1-0.1-0.2-0.2-0.4-0.2c-0.1,0-0.2,0-0.3,0.1c-0.1,0-0.1,0.1-0.2,0.2c0,0.1-0.1,0.2-0.1,0.3
				c0,0.1,0,0.3,0,0.5v3.3h-0.9V438.8z"/>
			<path d="M294,438.8h0.9v0.6c0.3-0.4,0.6-0.7,1-0.7c0.4,0,0.7,0.2,0.9,0.5c0.1,0.2,0.1,0.5,0.1,1.1v3.6H296l0-3.4
				c0-0.3,0-0.6-0.1-0.7c-0.1-0.1-0.2-0.2-0.4-0.2c-0.1,0-0.2,0-0.3,0.1c-0.1,0-0.1,0.1-0.2,0.2c0,0.1-0.1,0.2-0.1,0.3
				c0,0.1,0,0.3,0,0.5v3.3H294V438.8z"/>
			<path d="M300.9,438.8v5.1H300v-0.7c-0.1,0.3-0.3,0.5-0.4,0.6c-0.1,0.1-0.3,0.2-0.5,0.2c-0.4,0-0.7-0.2-0.9-0.6
				c-0.2-0.4-0.3-1.1-0.3-2c0-0.9,0.1-1.5,0.3-1.9c0.2-0.4,0.5-0.6,0.9-0.6c0.4,0,0.7,0.2,0.9,0.7v-0.6H300.9z M298.8,441.3
				c0,0.7,0,1.1,0.1,1.4c0.1,0.3,0.3,0.4,0.5,0.4c0.2,0,0.4-0.1,0.5-0.4c0.1-0.3,0.1-0.7,0.1-1.4c0-0.6,0-1.1-0.1-1.4
				c-0.1-0.3-0.2-0.4-0.5-0.4c-0.2,0-0.4,0.1-0.5,0.4C298.9,440.2,298.8,440.6,298.8,441.3z"/>
			<path d="M302.1,437.4h0.9v1.4h0.5v0.7H303v4.3h-0.9v-4.3h-0.5v-0.7h0.5V437.4z"/>
			<path d="M304.7,436.6c0.2,0,0.3,0.1,0.4,0.2c0.1,0.1,0.2,0.3,0.2,0.4c0,0.2-0.1,0.3-0.2,0.5c-0.1,0.1-0.3,0.2-0.5,0.2
				c-0.2,0-0.3-0.1-0.5-0.2c-0.1-0.1-0.2-0.3-0.2-0.5c0-0.2,0.1-0.3,0.2-0.4C304.3,436.7,304.5,436.6,304.7,436.6z M304.2,438.8h0.9
				v5.1h-0.9V438.8z"/>
			<path d="M309.2,441.4c0,1.7-0.5,2.6-1.6,2.6c-1.1,0-1.6-0.9-1.6-2.6c0-1.7,0.5-2.6,1.6-2.6c0.3,0,0.5,0.1,0.7,0.2
				c0.2,0.1,0.4,0.3,0.5,0.5c0.1,0.2,0.2,0.5,0.3,0.8C309.2,440.5,309.2,440.9,309.2,441.4z M308.2,441.3c0-0.7,0-1.1-0.1-1.4
				c-0.1-0.3-0.2-0.4-0.5-0.4c-0.2,0-0.4,0.1-0.5,0.4c-0.1,0.3-0.1,0.7-0.1,1.4c0,0.7,0,1.1,0.1,1.4c0.1,0.3,0.3,0.4,0.5,0.4
				c0.2,0,0.4-0.1,0.5-0.4C308.2,442.4,308.2,442,308.2,441.3z"/>
			<path d="M310.1,438.8h0.9v0.6c0.3-0.4,0.6-0.7,1-0.7c0.4,0,0.7,0.2,0.9,0.5c0.1,0.2,0.1,0.5,0.1,1.1v3.6h-0.9l0-3.4
				c0-0.3,0-0.6-0.1-0.7c-0.1-0.1-0.2-0.2-0.4-0.2c-0.1,0-0.2,0-0.3,0.1c-0.1,0-0.1,0.1-0.2,0.2c0,0.1-0.1,0.2-0.1,0.3
				c0,0.1,0,0.3,0,0.5v3.3h-0.9V438.8z"/>
			<path d="M317,438.8v5.1h-0.9v-0.7c-0.1,0.3-0.3,0.5-0.4,0.6c-0.1,0.1-0.3,0.2-0.5,0.2c-0.4,0-0.7-0.2-0.9-0.6
				c-0.2-0.4-0.3-1.1-0.3-2c0-0.9,0.1-1.5,0.3-1.9c0.2-0.4,0.5-0.6,0.9-0.6c0.4,0,0.7,0.2,0.9,0.7v-0.6H317z M314.9,441.3
				c0,0.7,0,1.1,0.1,1.4c0.1,0.3,0.2,0.4,0.5,0.4c0.2,0,0.4-0.1,0.5-0.4c0.1-0.3,0.1-0.7,0.1-1.4c0-0.6,0-1.1-0.1-1.4
				c-0.1-0.3-0.2-0.4-0.5-0.4c-0.2,0-0.4,0.1-0.5,0.4C315,440.2,314.9,440.6,314.9,441.3z"/>
			<path d="M318.1,435.5h0.9v8.3h-0.9V435.5z"/>
			<path d="M322.1,442.1h0.9c-0.1,1.2-0.6,1.8-1.5,1.8c-0.3,0-0.5-0.1-0.7-0.2c-0.2-0.1-0.4-0.3-0.5-0.5c-0.1-0.2-0.2-0.5-0.3-0.8
				c-0.1-0.3-0.1-0.7-0.1-1.2c0-0.9,0.1-1.6,0.4-2c0.2-0.4,0.6-0.6,1.2-0.6c1,0,1.5,0.9,1.5,2.7v0.1h-2.1c0,1.1,0.2,1.6,0.6,1.6
				C321.9,443.1,322.1,442.8,322.1,442.1z M322,440.8c0-0.5-0.1-0.9-0.2-1c-0.1-0.2-0.2-0.3-0.4-0.3c-0.2,0-0.3,0.1-0.4,0.3
				c-0.1,0.2-0.1,0.5-0.2,1H322z"/>
			<path d="M299.9,446.3h0.9l0.7,3.1c0.1,0.4,0.2,0.8,0.2,1.2c0.1,0.4,0.1,0.8,0.2,1.2c0-0.1,0-0.1,0-0.1c0,0,0-0.1,0-0.1l0.1-0.9
				l0.1-0.8l0.1-0.5l0.6-3h0.9l0.7,7.6h-1l-0.2-2.6c0-0.1,0-0.2,0-0.3c0-0.1,0-0.2,0-0.2l0-1l0-0.9c0,0,0,0,0,0c0,0,0,0,0-0.1l0,0.2
				c0,0.2-0.1,0.3-0.1,0.5c0,0.1,0,0.2-0.1,0.3l-0.1,0.7l0,0.3l-0.6,3.3h-0.7l-0.6-2.9c-0.1-0.4-0.2-0.8-0.2-1.1
				c-0.1-0.4-0.1-0.8-0.2-1.2l-0.3,5.2h-1L299.9,446.3z"/>
			<path d="M308.1,448.8v5.1h-0.9v-0.7c-0.1,0.3-0.3,0.5-0.4,0.6s-0.3,0.2-0.5,0.2c-0.4,0-0.7-0.2-0.9-0.6c-0.2-0.4-0.3-1.1-0.3-2
				c0-0.9,0.1-1.5,0.3-1.9c0.2-0.4,0.5-0.6,0.9-0.6c0.4,0,0.7,0.2,0.9,0.7v-0.6H308.1z M306,451.3c0,0.7,0,1.1,0.1,1.4
				c0.1,0.3,0.3,0.4,0.5,0.4c0.2,0,0.4-0.1,0.5-0.4c0.1-0.3,0.1-0.7,0.1-1.4c0-0.6,0-1.1-0.1-1.4c-0.1-0.3-0.2-0.4-0.5-0.4
				c-0.2,0-0.4,0.1-0.5,0.4C306,450.2,306,450.7,306,451.3z"/>
			<path d="M309.2,448.8h0.9v0.6c0.3-0.4,0.6-0.7,1-0.7c0.4,0,0.7,0.2,0.9,0.5c0.1,0.2,0.1,0.5,0.1,1.1v3.6h-0.9l0-3.4
				c0-0.3,0-0.6-0.1-0.7c-0.1-0.1-0.2-0.2-0.4-0.2c-0.1,0-0.2,0-0.3,0.1c-0.1,0-0.1,0.1-0.2,0.2c0,0.1-0.1,0.2-0.1,0.3
				c0,0.1,0,0.3,0,0.5v3.3h-0.9V448.8z"/>
			<path d="M315.3,448.9v1c-0.1-0.2-0.3-0.2-0.5-0.2c-0.5,0-0.8,0.6-0.8,1.7c0,1.2,0.3,1.8,0.8,1.8c0.1,0,0.3-0.1,0.5-0.2v0.9
				c-0.2,0.1-0.5,0.2-0.8,0.2c-1,0-1.5-0.9-1.5-2.6c0-0.9,0.1-1.6,0.4-2c0.2-0.4,0.6-0.6,1.2-0.6
				C314.8,448.7,315.1,448.8,315.3,448.9z"/>
			<path d="M316,445.6h0.9v3.8c0.3-0.4,0.6-0.7,1-0.7c0.4,0,0.7,0.2,0.9,0.5c0.1,0.2,0.1,0.5,0.1,1.1v3.6h-0.9l0-3.4
				c0-0.3,0-0.6-0.1-0.7c-0.1-0.1-0.2-0.2-0.4-0.2c-0.1,0-0.2,0-0.3,0.1c-0.1,0-0.1,0.1-0.2,0.2c0,0.1-0.1,0.2-0.1,0.3
				c0,0.1,0,0.3,0,0.5v3.3H316V445.6z"/>
			<path d="M322.1,452.2h0.9c-0.1,1.2-0.6,1.8-1.5,1.8c-0.3,0-0.5-0.1-0.7-0.2c-0.2-0.1-0.4-0.3-0.5-0.5c-0.1-0.2-0.2-0.5-0.3-0.8
				c-0.1-0.3-0.1-0.7-0.1-1.2c0-0.9,0.1-1.6,0.4-2c0.2-0.4,0.6-0.6,1.2-0.6c1,0,1.5,0.9,1.5,2.7v0.1h-2.1c0,1.1,0.2,1.6,0.6,1.6
				C321.9,453.1,322.1,452.8,322.1,452.2z M322,450.8c0-0.5-0.1-0.9-0.2-1c-0.1-0.2-0.2-0.3-0.4-0.3c-0.2,0-0.3,0.1-0.4,0.3
				c-0.1,0.2-0.1,0.5-0.2,1H322z"/>
		</g>
	</g>
	<g>
		<rect x="285.9" y="463.9" class="st1" width="36.7" height="12.4"/>
		<g>
			<path d="M287.9,485c-0.1,0-0.2,0-0.3-0.1c-0.1-0.1-0.2-0.3-0.3-0.4c-0.1-0.2-0.3-0.4-0.4-0.6c0,0,0,0-0.1,0c0,0-0.1,0-0.1,0v0.2
				c0,0.1,0,0.2,0,0.3c0,0.2,0,0.3,0,0.4c0,0.1,0.1,0.1,0.2,0.2v0.1l-0.1,0c-0.1,0-0.2,0-0.4,0c-0.2,0-0.3,0-0.4,0l-0.1,0v-0.1
				c0.1,0,0.1,0,0.2-0.1c0,0,0.1-0.1,0.1-0.2c0-0.1,0-0.2,0-0.5v-0.6c0-0.4,0-0.6,0-0.7c0-0.1-0.1-0.1-0.2-0.2v-0.1
				c0.1,0,0.1,0,0.2,0c0.2,0,0.2,0,0.5,0c0.2,0,0.3,0,0.4,0c0.2,0,0.4,0,0.5,0.1c0.1,0.1,0.2,0.3,0.2,0.5c0,0.3-0.2,0.5-0.5,0.7
				c0.1,0.2,0.2,0.3,0.4,0.6c0.1,0.2,0.2,0.3,0.3,0.4c0.1,0.1,0.1,0.1,0.2,0.1v0.1C288.1,485,288,485,287.9,485z M286.9,482.7
				c-0.1,0-0.1,0-0.2,0c0,0.2,0,0.6,0,0.9c0,0,0.1,0,0.2,0c0.3,0,0.5-0.2,0.5-0.5C287.4,482.9,287.2,482.7,286.9,482.7z"/>
			<path d="M289.1,482.8l-0.1-0.1l0.3-0.4l0.3,0.1L289.1,482.8z M289.7,484.9c0,0-0.1,0.1-0.2,0.1c-0.1,0-0.2,0-0.3,0
				c-0.1,0-0.3,0-0.4,0c-0.1,0-0.3,0-0.4,0v-0.1c0.1,0,0.2-0.1,0.2-0.2c0-0.1,0-0.2,0-0.3v-0.8c0-0.2,0-0.2,0-0.3
				c0-0.1-0.1-0.1-0.2-0.1V483h1.4c0,0.1,0,0.2,0,0.3c0,0.1,0,0.1,0,0.2h-0.1c0-0.2-0.1-0.3-0.5-0.3c-0.1,0-0.2,0-0.2,0
				c0,0.1,0,0.2,0,0.3v0.3c0,0,0.1,0,0.1,0c0.3,0,0.4,0,0.4-0.2h0.1c0,0,0,0.1,0,0.3c0,0.2,0,0.2,0,0.3h-0.1c0-0.2-0.1-0.2-0.4-0.2
				c-0.1,0-0.1,0-0.2,0c0,0.2,0,0.4,0,0.6c0,0.1,0,0.2,0.1,0.2c0,0,0.1,0,0.2,0c0.3,0,0.4-0.1,0.5-0.3l0.1,0
				C289.8,484.7,289.8,484.9,289.7,484.9z"/>
			<path d="M291,484.1C291,484.1,290.9,484.1,291,484.1l-0.2-0.2c0.3,0,0.4-0.2,0.4-0.4c0-0.2-0.2-0.4-0.4-0.4c0,0-0.1,0-0.1,0
				c0,0.2,0,0.4,0,0.6v0.5c0,0.4,0,0.5,0,0.5c0,0.1,0.1,0.1,0.2,0.1v0.1l-0.1,0c-0.1,0-0.2,0-0.3,0c-0.1,0-0.2,0-0.3,0l-0.1,0v-0.1
				c0.1,0,0.2-0.1,0.2-0.2c0-0.1,0-0.1,0-0.4v-0.7c0-0.2,0-0.2,0-0.3c0-0.1-0.1-0.1-0.2-0.1V483c0,0,0,0,0.1,0c0,0,0.1,0,0.2,0
				c0.2,0,0.3,0,0.5,0c0.4,0,0.7,0.2,0.7,0.6C291.7,483.8,291.4,484.1,291,484.1z"/>
			<path d="M293.7,483.1c0,0,0,0.1-0.1,0.2c0,0.1,0,0.2,0,0.4c0,0.1,0,0.3,0,0.5s0,0.3-0.1,0.5c-0.1,0.2-0.4,0.3-0.7,0.3
				c-0.2,0-0.3,0-0.5-0.1c-0.2-0.1-0.3-0.3-0.3-0.6c0-0.3,0-0.5,0-0.6c0-0.1,0-0.3,0-0.5c0-0.1-0.1-0.2-0.2-0.2V483h0.1
				c0.1,0,0.2,0,0.3,0c0.1,0,0.3,0,0.3,0h0.1v0.1c-0.1,0-0.1,0-0.2,0.1c0,0,0,0.1,0,0.2c0,0.2,0,0.4,0,0.6c0,0.5,0,0.6,0.1,0.7
				c0.1,0.1,0.2,0.1,0.3,0.1c0.2,0,0.4-0.1,0.5-0.3c0-0.1,0-0.2,0-0.6v-0.3c0-0.3,0-0.4,0-0.5c0-0.1-0.1-0.1-0.2-0.1V483
				c0.1,0,0.2,0,0.3,0c0.2,0,0.2,0,0.3,0v0.1C293.8,483.1,293.8,483.1,293.7,483.1z"/>
			<path d="M295.6,484.8c-0.1,0.1-0.3,0.1-0.6,0.1c-0.2,0-0.3,0-0.5,0c-0.1,0-0.2,0-0.3,0l0,0v-0.1c0.1,0,0.2-0.1,0.2-0.2
				c0-0.1,0-0.1,0-0.4v-0.6c0-0.3,0-0.4,0-0.5c0-0.1-0.1-0.1-0.2-0.1V483c0.1,0,0.2,0,0.4,0c0.2,0,0.4,0,0.6,0
				c0.3,0,0.5,0.1,0.5,0.4c0,0.2-0.1,0.4-0.4,0.5c0.3,0.1,0.5,0.2,0.5,0.5C295.8,484.6,295.7,484.7,295.6,484.8z M294.9,483.1
				c-0.1,0-0.1,0-0.2,0c0,0.2,0,0.5,0,0.7c0,0,0.1,0,0.1,0c0.3,0,0.5-0.1,0.5-0.3C295.3,483.3,295.2,483.1,294.9,483.1z M294.9,484
				c0,0-0.1,0-0.2,0c0,0.1,0,0.1,0,0.2v0.2c0,0.2,0,0.3,0,0.3c0,0.1,0.1,0.1,0.2,0.1c0.3,0,0.4-0.1,0.4-0.4
				C295.4,484.1,295.2,484,294.9,484z"/>
			<path d="M297.5,484.9c0,0-0.1,0.1-0.2,0.1c-0.1,0-0.2,0-0.2,0c-0.2,0-0.4,0-0.6,0c-0.2,0-0.3,0-0.4,0v-0.1c0.1,0,0.1,0,0.1-0.1
				c0.1-0.1,0.1-0.1,0.1-0.4c0-0.1,0-0.3,0-0.4v-0.3c0-0.4,0-0.5,0-0.5c0-0.1-0.1-0.1-0.2-0.1V483h0.1c0.1,0,0.2,0,0.3,0
				c0.1,0,0.3,0,0.3,0h0.1v0.1c-0.2,0-0.2,0.1-0.2,0.2c0,0,0,0.1,0,0.4v0.5c0,0.4,0,0.5,0,0.5c0,0,0.1,0,0.2,0c0.2,0,0.3,0,0.3-0.1
				c0.1,0,0.1-0.1,0.2-0.3l0.1,0C297.6,484.7,297.5,484.9,297.5,484.9z"/>
			<path d="M298.5,485c-0.1,0-0.2,0-0.3,0c-0.1,0-0.3,0-0.3,0l-0.1,0v-0.1c0.1,0,0.2-0.1,0.2-0.2c0-0.1,0-0.1,0-0.4v-0.5
				c0-0.1,0-0.2,0-0.2c0-0.2,0-0.2,0-0.3c0-0.1-0.1-0.1-0.2-0.1V483h0.1c0.1,0,0.2,0,0.3,0c0.1,0,0.3,0,0.3,0h0.1v0.1
				c-0.1,0-0.2,0.1-0.2,0.2c0,0.1,0,0.2,0,0.4v0.5c0,0.4,0,0.5,0,0.5C298.4,484.8,298.5,484.9,298.5,485L298.5,485L298.5,485z"/>
			<path d="M301.3,485.5c-0.2,0-0.5-0.1-0.7-0.2c-0.1-0.1-0.3-0.2-0.5-0.3c-0.1,0-0.1,0-0.2,0c-0.6,0-1-0.4-1-1
				c0-0.6,0.4-1.1,1.1-1.1c0.6,0,1,0.4,1,1c0,0.4-0.2,0.8-0.6,1c0.1,0.1,0.2,0.1,0.3,0.2c0.3,0.2,0.5,0.3,0.7,0.3
				c0.1,0,0.2,0,0.3-0.1l0,0.1C301.7,485.5,301.5,485.5,301.3,485.5z M299.9,483.1c-0.4,0-0.6,0.3-0.6,0.7c0,0.5,0.3,0.9,0.7,0.9
				c0.4,0,0.6-0.3,0.6-0.8C300.6,483.5,300.3,483.1,299.9,483.1z"/>
			<path d="M303.1,483.1c0,0,0,0.1-0.1,0.2c0,0.1,0,0.2,0,0.4c0,0.1,0,0.3,0,0.5s0,0.3-0.1,0.5c-0.1,0.2-0.4,0.3-0.7,0.3
				c-0.2,0-0.3,0-0.5-0.1c-0.2-0.1-0.3-0.3-0.3-0.6c0-0.3,0-0.5,0-0.6c0-0.1,0-0.3,0-0.5c0-0.1-0.1-0.2-0.2-0.2V483h0.1
				c0.1,0,0.2,0,0.3,0c0.1,0,0.3,0,0.3,0h0.1v0.1c-0.1,0-0.1,0-0.2,0.1c0,0,0,0.1,0,0.2c0,0.2,0,0.4,0,0.6c0,0.5,0,0.6,0.1,0.7
				c0.1,0.1,0.2,0.1,0.3,0.1c0.2,0,0.4-0.1,0.5-0.3c0-0.1,0-0.2,0-0.6v-0.3c0-0.3,0-0.4,0-0.5c0-0.1-0.1-0.1-0.2-0.1V483
				c0.1,0,0.2,0,0.3,0c0.2,0,0.2,0,0.3,0v0.1C303.2,483.1,303.1,483.1,303.1,483.1z"/>
			<path d="M304.9,484.9c0,0-0.1,0.1-0.2,0.1c-0.1,0-0.2,0-0.3,0c-0.1,0-0.3,0-0.4,0c-0.1,0-0.3,0-0.4,0v-0.1c0.1,0,0.2-0.1,0.2-0.2
				c0-0.1,0-0.2,0-0.3v-0.8c0-0.2,0-0.2,0-0.3c0-0.1-0.1-0.1-0.2-0.1V483h1.4c0,0.1,0,0.2,0,0.3c0,0.1,0,0.1,0,0.2h-0.1
				c0-0.2-0.1-0.3-0.5-0.3c-0.1,0-0.2,0-0.2,0c0,0.1,0,0.2,0,0.3v0.3c0,0,0.1,0,0.1,0c0.3,0,0.4,0,0.4-0.2h0.1c0,0,0,0.1,0,0.3
				c0,0.2,0,0.2,0,0.3h-0.1c0-0.2-0.1-0.2-0.4-0.2c-0.1,0-0.1,0-0.2,0c0,0.2,0,0.4,0,0.6c0,0.1,0,0.2,0.1,0.2c0,0,0.1,0,0.2,0
				c0.3,0,0.4-0.1,0.5-0.3l0.1,0C305,484.7,305,484.9,304.9,484.9z"/>
			<path d="M307.7,483.1c0-0.3-0.2-0.4-0.6-0.4c-0.1,0-0.2,0-0.3,0c0,0.3,0,0.4,0,0.8c0.1,0,0.1,0,0.2,0c0.3,0,0.4-0.1,0.5-0.3h0.1
				c0,0.1,0,0.2,0,0.3c0,0.1,0,0.3,0,0.4h-0.1c0-0.2-0.1-0.3-0.5-0.3c-0.1,0-0.1,0-0.2,0v0.4c0,0.1,0,0.2,0,0.3c0,0.2,0,0.4,0.3,0.4
				v0.1l-0.1,0c-0.1,0-0.2,0-0.4,0c-0.2,0-0.3,0-0.4,0l-0.1,0v-0.1c0.2,0,0.2-0.1,0.3-0.3c0-0.1,0-0.2,0-0.5v-0.9c0-0.2,0-0.3,0-0.4
				c0-0.1-0.1-0.1-0.2-0.2v-0.1h1.7c0,0.1,0,0.2,0,0.3c0,0.1,0,0.2,0,0.2H307.7z"/>
			<path d="M309.7,485c-0.1,0-0.2,0-0.2-0.1c-0.1-0.1-0.2-0.2-0.3-0.4c-0.1-0.2-0.2-0.4-0.3-0.5c0,0,0,0,0,0c0,0-0.1,0-0.1,0v0.2
				c0,0.1,0,0.2,0,0.2c0,0.2,0,0.2,0,0.3c0,0.1,0.1,0.1,0.2,0.1v0.1l-0.1,0c-0.1,0-0.2,0-0.3,0c-0.1,0-0.3,0-0.3,0l-0.1,0v-0.1
				c0.1,0,0.1,0,0.1-0.1c0,0,0.1-0.1,0.1-0.2c0-0.1,0-0.1,0-0.4v-0.5c0-0.4,0-0.5,0-0.5c0-0.1-0.1-0.1-0.2-0.1V483
				c0.1,0,0.1,0,0.2,0c0.2,0,0.2,0,0.4,0c0.2,0,0.3,0,0.3,0c0.2,0,0.3,0,0.4,0.1c0.1,0.1,0.2,0.2,0.2,0.4c0,0.2-0.2,0.4-0.4,0.5
				c0.1,0.1,0.2,0.3,0.3,0.5c0.1,0.2,0.2,0.3,0.3,0.4c0,0,0.1,0.1,0.1,0.1v0.1C309.9,485,309.8,485,309.7,485z M308.9,483.1
				c-0.1,0-0.1,0-0.2,0c0,0.2,0,0.5,0,0.7c0,0,0.1,0,0.1,0c0.2,0,0.4-0.2,0.4-0.4C309.3,483.3,309.2,483.1,308.9,483.1z"/>
			<path d="M311.9,485c-0.1,0-0.2,0-0.3,0c-0.1,0-0.2,0-0.3,0l-0.1,0v-0.1c0.1,0,0.2-0.1,0.2-0.1c0,0,0-0.1,0-0.2
				c0-0.1-0.1-0.2-0.1-0.3h-0.6l-0.1,0.2c0,0.1-0.1,0.2-0.1,0.3c0,0.1,0,0.1,0.1,0.1v0.1c-0.1,0-0.2,0-0.3,0c-0.1,0-0.2,0-0.3,0
				v-0.1c0,0,0.1,0,0.1,0c0.1-0.1,0.1-0.2,0.2-0.4l0.3-0.7c0.1-0.2,0.2-0.5,0.3-0.8h0.2c0,0.1,0.1,0.2,0.1,0.3l0.4,1.1
				c0.1,0.2,0.1,0.3,0.2,0.4C311.8,484.8,311.9,484.9,311.9,485L311.9,485L311.9,485z M310.9,483.5c-0.1,0.2-0.2,0.5-0.2,0.6h0.4
				L310.9,483.5z"/>
			<path d="M314,483.1c0,0.1,0,0.1,0,0.3c0,0.3,0,0.7,0,0.9v0.5c0,0.1,0,0.2,0,0.2h-0.2c-0.2-0.3-0.6-0.8-0.6-0.8
				c-0.1-0.1-0.4-0.5-0.6-0.8c0,0.1,0,0,0,0.2v0.2c0,0.2,0,0.4,0,0.7c0,0.1,0,0.2,0,0.2c0,0.1,0.1,0.1,0.2,0.1v0.1
				c-0.1,0-0.2,0-0.3,0c-0.1,0-0.2,0-0.3,0v-0.1c0.2,0,0.2-0.2,0.2-0.3c0-0.1,0-0.2,0-0.4v-0.6c0-0.3,0-0.3-0.1-0.4
				c0,0-0.1-0.1-0.2-0.1V483c0.1,0,0.1,0,0.3,0c0.1,0,0.2,0,0.3,0c0,0.1,0.1,0.1,0.3,0.4c0.3,0.4,0.6,0.7,0.8,1v-0.7
				c0-0.3,0-0.4,0-0.4c0-0.1-0.1-0.1-0.2-0.2V483c0.1,0,0.2,0,0.3,0c0.2,0,0.2,0,0.3,0v0.1C314.1,483.1,314.1,483.1,314,483.1z"/>
			<path d="M316.1,484.9c-0.2,0.1-0.4,0.1-0.6,0.1l0,0.1c0,0,0,0,0.1,0c0.1,0,0.2,0.1,0.2,0.2c0,0.2-0.1,0.3-0.3,0.3
				c-0.1,0-0.1,0-0.2,0l0-0.1c0,0,0.1,0,0.1,0c0.1,0,0.1,0,0.1-0.1c0-0.1,0-0.1-0.1-0.1c0,0,0,0-0.1,0l-0.1,0l0.1-0.2
				c-0.3,0-0.5-0.1-0.6-0.3c-0.2-0.2-0.3-0.4-0.3-0.8c0-0.7,0.4-1,1.1-1c0.2,0,0.4,0,0.6,0.1c0,0.1,0,0.1,0,0.2c0,0.1,0,0.2,0,0.2
				H316c0-0.2-0.2-0.3-0.5-0.3c-0.4,0-0.7,0.3-0.7,0.8c0,0.5,0.3,0.9,0.7,0.9c0.3,0,0.4-0.1,0.5-0.4l0.1,0
				C316.2,484.6,316.1,484.7,316.1,484.9z"/>
			<path d="M318.2,485c-0.1,0-0.2,0-0.3,0c-0.1,0-0.2,0-0.3,0l-0.1,0v-0.1c0.1,0,0.2-0.1,0.2-0.1c0,0,0-0.1,0-0.2
				c0-0.1-0.1-0.2-0.1-0.3h-0.6l-0.1,0.2c0,0.1-0.1,0.2-0.1,0.3c0,0.1,0,0.1,0.1,0.1v0.1c-0.1,0-0.2,0-0.3,0c-0.1,0-0.2,0-0.3,0
				v-0.1c0,0,0.1,0,0.1,0c0.1-0.1,0.1-0.2,0.2-0.4l0.3-0.7c0.1-0.2,0.2-0.5,0.3-0.8h0.2c0,0.1,0.1,0.2,0.1,0.3l0.4,1.1
				c0.1,0.2,0.1,0.3,0.2,0.4C318.2,484.8,318.2,484.9,318.2,485L318.2,485L318.2,485z M317.2,483.5c-0.1,0.2-0.2,0.5-0.2,0.6h0.4
				L317.2,483.5z"/>
			<path d="M319.2,485c-0.1,0-0.2,0-0.3,0c-0.1,0-0.3,0-0.3,0l-0.1,0v-0.1c0.1,0,0.2-0.1,0.2-0.2c0-0.1,0-0.1,0-0.4v-0.5
				c0-0.1,0-0.2,0-0.2c0-0.2,0-0.2,0-0.3c0-0.1-0.1-0.1-0.2-0.1V483h0.1c0.1,0,0.2,0,0.3,0c0.1,0,0.3,0,0.3,0h0.1v0.1
				c-0.1,0-0.2,0.1-0.2,0.2c0,0.1,0,0.2,0,0.4v0.5c0,0.4,0,0.5,0,0.5C319.1,484.8,319.2,484.9,319.2,485L319.2,485L319.2,485z"/>
			<path d="M320.1,485c-0.2,0-0.3,0-0.5-0.1c0-0.1,0-0.3-0.1-0.4l0.1,0c0.1,0.2,0.2,0.4,0.5,0.4c0.2,0,0.4-0.1,0.4-0.3
				c0-0.1-0.1-0.2-0.2-0.3L320,484c-0.2-0.1-0.3-0.3-0.3-0.5c0-0.3,0.3-0.5,0.7-0.5c0.2,0,0.4,0,0.5,0.1c0,0.1,0,0.1,0,0.2
				c0,0.1,0,0.1,0,0.2h-0.1c0-0.2-0.2-0.3-0.4-0.3c-0.2,0-0.3,0.1-0.3,0.3c0,0.1,0.1,0.2,0.3,0.3l0.3,0.2c0.2,0.2,0.4,0.3,0.4,0.6
				C320.8,484.8,320.6,485,320.1,485z"/>
			<path d="M322.5,484.9c0,0-0.1,0.1-0.2,0.1c-0.1,0-0.2,0-0.3,0c-0.1,0-0.3,0-0.4,0c-0.1,0-0.3,0-0.4,0v-0.1c0.1,0,0.2-0.1,0.2-0.2
				c0-0.1,0-0.2,0-0.3v-0.8c0-0.2,0-0.2,0-0.3c0-0.1-0.1-0.1-0.2-0.1V483h1.4c0,0.1,0,0.2,0,0.3c0,0.1,0,0.1,0,0.2h-0.1
				c0-0.2-0.1-0.3-0.5-0.3c-0.1,0-0.2,0-0.2,0c0,0.1,0,0.2,0,0.3v0.3c0,0,0.1,0,0.1,0c0.3,0,0.4,0,0.4-0.2h0.1c0,0,0,0.1,0,0.3
				c0,0.2,0,0.2,0,0.3h-0.1c0-0.2-0.1-0.2-0.4-0.2c-0.1,0-0.1,0-0.2,0c0,0.2,0,0.4,0,0.6c0,0.1,0,0.2,0.1,0.2c0,0,0.1,0,0.2,0
				c0.3,0,0.4-0.1,0.5-0.3l0.1,0C322.6,484.7,322.6,484.9,322.5,484.9z"/>
			<path d="M287,479.8c0,0-0.1,0-0.2,0c-0.1,0-0.3,0-0.4,0c-0.1,0-0.2,0-0.3,0c-0.1,0-0.3,0-0.4,0l0,0l0-0.1c0.1,0,0.1,0,0.2-0.1
				c0-0.1,0.1-0.1,0.1-0.3c0-0.2,0.1-0.3,0.1-0.6l0-0.2c0-0.2,0.1-0.4,0.1-0.4c0-0.1,0-0.2-0.2-0.2l0-0.1c0,0,0,0,0,0
				c0.1,0,0.2,0,0.3,0c0.2,0,0.3,0,0.3,0c0,0,0,0,0.1,0l0,0.1c-0.1,0-0.1,0-0.2,0.1c-0.1,0.1-0.1,0.2-0.2,0.8l0,0.2
				c0,0.2-0.1,0.3-0.1,0.4c0,0,0,0.1,0,0.1c0,0.1,0.1,0.1,0.2,0.1c0.3,0,0.5-0.1,0.6-0.3l0.1,0C287.1,479.6,287.1,479.8,287,479.8z"
				/>
			<path d="M287.9,478.4c-0.1,0-0.1-0.1-0.1-0.1c0-0.1,0.1-0.2,0.2-0.2c0.1,0,0.1,0.1,0.1,0.1C288.1,478.3,288,478.4,287.9,478.4z
				 M287.6,479.9C287.5,479.9,287.5,479.9,287.6,479.9c-0.1-0.1-0.1-0.2-0.1-0.2c0-0.2,0.1-0.4,0.1-0.5c0-0.2,0.1-0.3,0.1-0.3
				c0,0,0-0.1,0-0.1c0,0-0.1,0-0.1,0l0,0l0-0.1c0.2-0.1,0.3-0.1,0.4-0.1c0,0,0.1,0,0.1,0.1c0,0,0,0.1-0.1,0.3l0,0.2
				c-0.1,0.3-0.1,0.4-0.1,0.4c0,0,0,0.1,0.1,0.1c0,0,0.1,0,0.2,0l0,0.1C287.8,479.9,287.7,479.9,287.6,479.9z"/>
			<path d="M289.2,479.8c-0.1,0.1-0.2,0.1-0.5,0.1c-0.2,0-0.4,0-0.4-0.1c0,0,0-0.1,0-0.2l0.1-0.7c0.1-0.2,0.1-0.4,0.1-0.6
				c0-0.1,0-0.2,0-0.3c0,0,0-0.1,0-0.1c0,0-0.1,0-0.1,0l0-0.1l0,0c0.2-0.1,0.3-0.1,0.4-0.1c0,0,0.1,0,0.1,0c0,0,0,0.1-0.1,0.3
				l-0.1,0.4c0,0.1,0,0.2,0,0.2c0.2-0.1,0.3-0.2,0.5-0.2c0.2,0,0.3,0.1,0.3,0.3C289.6,479.2,289.4,479.6,289.2,479.8z M289.2,478.8
				c-0.1,0-0.1,0-0.2,0.1c-0.1,0-0.1,0.1-0.2,0.1c0,0.1-0.1,0.1-0.1,0.3c0,0.2-0.1,0.3-0.1,0.3c0,0.1,0.1,0.1,0.2,0.1
				c0.1,0,0.2-0.1,0.3-0.2c0.1-0.2,0.2-0.4,0.2-0.6C289.3,478.9,289.3,478.8,289.2,478.8z"/>
			<path d="M290.2,479.4C290.2,479.4,290.2,479.4,290.2,479.4c-0.1,0.1-0.1,0.1-0.1,0.1c0,0.2,0.1,0.2,0.2,0.2
				c0.1,0,0.2-0.1,0.4-0.2l0,0.1c-0.2,0.1-0.4,0.2-0.5,0.2c-0.2,0-0.3-0.1-0.3-0.3c0-0.5,0.3-0.9,0.7-0.9c0.2,0,0.3,0.1,0.3,0.2
				C290.9,479.2,290.6,479.4,290.2,479.4z M290.5,478.8c-0.1,0-0.3,0.2-0.4,0.5h0c0.3,0,0.5-0.1,0.5-0.3
				C290.7,478.9,290.6,478.8,290.5,478.8z"/>
			<path d="M292.1,479.1L292.1,479.1c-0.1,0-0.1-0.1-0.1-0.1c0-0.1,0-0.1-0.1-0.1c0,0-0.1,0-0.1,0.1c-0.1,0.1-0.2,0.3-0.2,0.7
				l-0.1,0.3c-0.1,0-0.1,0-0.3,0c0-0.1,0-0.2,0.1-0.3l0.1-0.3c0-0.2,0.1-0.3,0.1-0.4c0-0.1,0-0.1-0.1-0.1c0,0,0,0-0.1,0l-0.1,0
				l0-0.1c0.1-0.1,0.3-0.1,0.4-0.1c0,0,0,0,0.1,0c0,0,0,0.1,0,0.1c0.1-0.1,0.2-0.2,0.3-0.2c0.1,0,0.1,0,0.2,0.1
				C292.1,478.9,292.1,479,292.1,479.1z"/>
			<path d="M293,478.9l-0.2,0l-0.1,0.6c0,0.2,0,0.2,0,0.2c0,0,0,0.1,0.1,0.1c0,0,0.1,0,0.1,0l0,0l0,0.1c-0.2,0.1-0.3,0.1-0.4,0.1
				c-0.1,0-0.1,0-0.1-0.1c0-0.1,0-0.1,0-0.2c0-0.1,0-0.2,0.1-0.3l0.1-0.4l-0.2,0l0-0.1c0.2,0,0.3-0.2,0.3-0.4l0.1,0l-0.1,0.3l0.2,0
				L293,478.9z"/>
			<path d="M293.9,478.5L293.9,478.5l0.3-0.5l0.3,0.1L293.9,478.5z M293.6,479.4C293.6,479.4,293.6,479.4,293.6,479.4
				c-0.1,0.1-0.1,0.1-0.1,0.1c0,0.2,0.1,0.2,0.2,0.2c0.1,0,0.2-0.1,0.4-0.2l0,0.1c-0.2,0.1-0.4,0.2-0.5,0.2c-0.2,0-0.3-0.1-0.3-0.3
				c0-0.5,0.3-0.9,0.7-0.9c0.2,0,0.3,0.1,0.3,0.2C294.3,479.2,294,479.4,293.6,479.4z M293.9,478.8c-0.1,0-0.3,0.2-0.4,0.5h0
				c0.3,0,0.5-0.1,0.5-0.3C294.1,478.9,294,478.8,293.9,478.8z"/>
			<path d="M299,477.7L299,477.7l0.3-0.5l0.3,0.1L299,477.7z M299.5,478.3L299.5,478.3C299.4,478.3,299.5,478.3,299.5,478.3
				c-0.1-0.2-0.2-0.3-0.5-0.3c-0.1,0-0.2,0-0.3,0c-0.1,0.2-0.1,0.5-0.2,0.7c0,0,0.1,0,0.1,0c0.2,0,0.3,0,0.3,0
				c0.1,0,0.2-0.1,0.2-0.2h0.1c0,0.2-0.1,0.4-0.1,0.6h-0.1c0,0,0,0,0-0.1c0-0.1-0.1-0.2-0.3-0.2c-0.1,0-0.2,0-0.2,0
				c0,0.1,0,0-0.1,0.3c0,0.2,0,0.3,0,0.3c0,0.1,0.1,0.1,0.2,0.1c0.4,0,0.5-0.1,0.6-0.3l0.1,0c-0.1,0.2-0.1,0.3-0.2,0.4
				c0,0-0.1,0-0.2,0c-0.1,0-0.2,0-0.3,0c-0.1,0-0.3,0-0.4,0c-0.1,0-0.3,0-0.4,0l0-0.1c0.1,0,0.1,0,0.2-0.1c0-0.1,0.1-0.1,0.1-0.3
				c0-0.2,0-0.2,0.1-0.6l0-0.2c0-0.2,0.1-0.4,0.1-0.4c0-0.1,0-0.2-0.2-0.2l0-0.1h1.3C299.6,478,299.5,478.2,299.5,478.3z"/>
			<path d="M301,478.9l-0.2,0c0,0.1,0,0.1,0,0.2c0,0.3-0.2,0.5-0.5,0.5c-0.1,0-0.1,0-0.2,0c-0.1,0-0.1,0.1-0.1,0.1c0,0,0,0,0.2,0.1
				l0.2,0.1c0.2,0.1,0.4,0.1,0.4,0.3c0,0.3-0.3,0.6-0.7,0.6c-0.3,0-0.5-0.2-0.5-0.4c0-0.2,0.1-0.3,0.4-0.4c-0.1-0.1-0.2-0.1-0.2-0.1
				c0-0.1,0.1-0.1,0.3-0.2c-0.1-0.1-0.1-0.1-0.1-0.3c0-0.3,0.2-0.5,0.5-0.5c0.1,0,0.1,0,0.2,0h0.4L301,478.9z M300.4,478.8
				c-0.2,0-0.3,0.2-0.3,0.4c0,0.1,0.1,0.2,0.2,0.2c0.2,0,0.3-0.2,0.3-0.4C300.6,478.9,300.5,478.8,300.4,478.8z M300.5,480
				c-0.1,0-0.2-0.1-0.3-0.1c-0.2,0-0.3,0.2-0.3,0.4c0,0.2,0.1,0.3,0.3,0.3c0.3,0,0.5-0.2,0.5-0.4C300.6,480.1,300.6,480,300.5,480z"
				/>
			<path d="M302.1,479.9c-0.1,0-0.1,0-0.1-0.2c-0.2,0.1-0.4,0.2-0.5,0.2c-0.2,0-0.3-0.1-0.3-0.3c0-0.2,0.1-0.4,0.2-0.6
				c0.2-0.2,0.4-0.4,0.7-0.4c0.1,0,0.2,0,0.4,0.1l0,0c-0.1,0.3-0.2,0.7-0.2,0.8c0,0.1,0,0.1,0.1,0.1c0,0,0.1,0,0.2,0l0,0.1
				C302.3,479.9,302.1,479.9,302.1,479.9z M301.9,478.8c-0.1,0-0.2,0.1-0.3,0.3c-0.1,0.2-0.2,0.4-0.2,0.6c0,0.1,0,0.1,0.1,0.1
				c0.1,0,0.3-0.1,0.4-0.2c0,0,0.1-0.1,0.1-0.2c0-0.2,0.1-0.3,0.1-0.5C302,478.8,302,478.8,301.9,478.8z"/>
			<path d="M303.4,478.2c-0.1,0.4-0.2,0.8-0.3,1.2c0,0.1,0,0.2,0,0.3c0,0,0,0.1,0.1,0.1c0,0,0.1,0,0.2,0l0,0.1
				c-0.2,0.1-0.3,0.1-0.4,0.1c-0.1,0-0.1,0-0.1-0.1c0,0,0-0.1,0.1-0.3c0.1-0.4,0.2-0.8,0.3-1.2c0-0.2,0.1-0.3,0.1-0.3
				c0,0,0-0.1,0-0.1c0,0-0.1,0-0.1,0l0-0.1c0.2-0.1,0.3-0.1,0.4-0.1c0,0,0.1,0,0.1,0C303.4,478,303.4,478,303.4,478.2z"/>
			<path d="M304.1,478.4c-0.1,0-0.2-0.1-0.2-0.1c0-0.1,0.1-0.2,0.2-0.2c0.1,0,0.1,0.1,0.1,0.1C304.3,478.3,304.2,478.4,304.1,478.4z
				 M303.8,479.9C303.7,479.9,303.7,479.9,303.8,479.9c-0.1-0.1-0.1-0.2-0.1-0.2c0-0.2,0.1-0.4,0.1-0.5c0-0.2,0.1-0.3,0.1-0.3
				c0,0,0-0.1-0.1-0.1c0,0-0.1,0-0.1,0l0,0l0-0.1c0.2-0.1,0.3-0.1,0.4-0.1c0,0,0.1,0,0.1,0.1c0,0,0,0.1-0.1,0.3l0,0.2
				c-0.1,0.3-0.1,0.4-0.1,0.4c0,0,0,0.1,0.1,0.1c0,0,0.1,0,0.2,0l0,0.1C304,479.9,303.9,479.9,303.8,479.9z"/>
			<path d="M305.3,478.9l-0.2,0l-0.1,0.6c0,0.2,0,0.2,0,0.2c0,0,0,0.1,0.1,0.1c0,0,0.1,0,0.1,0l0,0l0,0.1c-0.2,0.1-0.3,0.1-0.4,0.1
				c-0.1,0-0.1,0-0.1-0.1c0-0.1,0-0.1,0-0.2c0-0.1,0-0.2,0.1-0.3l0.1-0.4l-0.2,0l0-0.1c0.2,0,0.3-0.2,0.3-0.4l0.1,0l-0.1,0.3l0.2,0
				L305.3,478.9z"/>
			<path d="M306.1,478.5L306.1,478.5l0.3-0.5l0.3,0.1L306.1,478.5z M305.8,479.4C305.8,479.4,305.8,479.4,305.8,479.4
				c-0.1,0.1-0.1,0.1-0.1,0.1c0,0.2,0.1,0.2,0.2,0.2c0.1,0,0.2-0.1,0.4-0.2l0,0.1c-0.2,0.1-0.4,0.2-0.5,0.2c-0.2,0-0.3-0.1-0.3-0.3
				c0-0.5,0.3-0.9,0.7-0.9c0.2,0,0.3,0.1,0.3,0.2C306.5,479.2,306.2,479.4,305.8,479.4z M306.1,478.8c-0.1,0-0.3,0.2-0.4,0.5h0
				c0.3,0,0.5-0.1,0.5-0.3C306.3,478.9,306.2,478.8,306.1,478.8z"/>
			<path d="M311.7,478.3L311.7,478.3C311.6,478.3,311.6,478.3,311.7,478.3c-0.1-0.1-0.1-0.2-0.1-0.2c-0.1,0-0.2-0.1-0.4-0.1
				c-0.1,0-0.1,0-0.2,0c-0.1,0.2-0.1,0.5-0.2,0.7c0.1,0,0.1,0,0.2,0c0.3,0,0.4,0,0.5-0.2h0.1c0,0.2-0.1,0.4-0.1,0.6h-0.1
				c0,0,0,0,0,0c0,0,0-0.1-0.1-0.1c-0.1,0-0.1,0-0.3,0c-0.1,0-0.1,0-0.2,0l0,0.2c-0.1,0.3-0.1,0.4-0.1,0.5c0,0.1,0.1,0.2,0.2,0.2
				l0,0.1l-0.1,0c0,0-0.2,0-0.3,0c-0.1,0-0.3,0-0.4,0l0,0l0-0.1c0.1,0,0.1,0,0.2-0.1c0-0.1,0.1-0.1,0.1-0.3c0-0.2,0.1-0.3,0.1-0.6
				l0-0.2c0-0.2,0.1-0.4,0.1-0.4c0-0.1-0.1-0.2-0.2-0.2l0-0.1h1.3C311.7,478,311.7,478.2,311.7,478.3z"/>
			<path d="M312.7,479.1L312.7,479.1c-0.1,0-0.1-0.1-0.1-0.1c0-0.1,0-0.1-0.1-0.1c0,0-0.1,0-0.1,0.1c-0.1,0.1-0.2,0.3-0.2,0.7
				l-0.1,0.3c-0.1,0-0.1,0-0.2,0c0-0.1,0-0.2,0.1-0.3l0.1-0.3c0-0.2,0.1-0.3,0.1-0.4c0-0.1,0-0.1-0.1-0.1c0,0,0,0-0.1,0l-0.1,0
				l0-0.1c0.1-0.1,0.3-0.1,0.4-0.1c0,0,0,0,0.1,0c0,0,0,0.1,0,0.1c0.1-0.1,0.2-0.2,0.3-0.2c0.1,0,0.1,0,0.2,0.1
				C312.8,478.9,312.7,479,312.7,479.1z"/>
			<path d="M313.9,479.9c-0.1,0-0.1,0-0.1-0.2c-0.2,0.1-0.4,0.2-0.5,0.2c-0.2,0-0.3-0.1-0.3-0.3c0-0.2,0.1-0.4,0.2-0.6
				c0.2-0.2,0.4-0.4,0.7-0.4c0.1,0,0.3,0,0.4,0.1l0,0c-0.1,0.3-0.2,0.7-0.2,0.8c0,0.1,0,0.1,0.1,0.1c0,0,0.1,0,0.2,0l0,0.1
				C314,479.9,313.9,479.9,313.9,479.9z M313.7,478.8c-0.1,0-0.2,0.1-0.3,0.3c-0.1,0.2-0.2,0.4-0.2,0.6c0,0.1,0,0.1,0.1,0.1
				c0.1,0,0.3-0.1,0.4-0.2c0,0,0.1-0.1,0.1-0.2c0-0.2,0.1-0.3,0.1-0.5C313.8,478.8,313.8,478.8,313.7,478.8z"/>
			<path d="M315.2,478.9l-0.2,0l-0.1,0.6c0,0.2,0,0.2,0,0.2c0,0,0,0.1,0.1,0.1c0,0,0.1,0,0.1,0l0,0l0,0.1c-0.2,0.1-0.3,0.1-0.4,0.1
				c-0.1,0-0.1,0-0.1-0.1c0-0.1,0-0.1,0-0.2c0-0.1,0-0.2,0.1-0.3l0.1-0.4l-0.2,0l0-0.1c0.2,0,0.3-0.2,0.3-0.4l0.1,0l-0.1,0.3l0.2,0
				L315.2,478.9z"/>
			<path d="M315.8,479.4C315.8,479.4,315.8,479.4,315.8,479.4c-0.1,0.1-0.1,0.1-0.1,0.1c0,0.2,0.1,0.2,0.2,0.2
				c0.1,0,0.2-0.1,0.4-0.2l0,0.1c-0.2,0.1-0.4,0.2-0.5,0.2c-0.2,0-0.3-0.1-0.3-0.3c0-0.5,0.3-0.9,0.7-0.9c0.2,0,0.3,0.1,0.3,0.2
				C316.5,479.2,316.2,479.4,315.8,479.4z M316.1,478.8c-0.1,0-0.3,0.2-0.4,0.5h0c0.3,0,0.5-0.1,0.5-0.3
				C316.3,478.9,316.2,478.8,316.1,478.8z"/>
			<path d="M317.7,479.1L317.7,479.1c-0.1,0-0.1-0.1-0.1-0.1c0-0.1,0-0.1-0.1-0.1c0,0-0.1,0-0.1,0.1c-0.1,0.1-0.2,0.3-0.2,0.7
				l-0.1,0.3c-0.1,0-0.1,0-0.3,0c0-0.1,0-0.2,0.1-0.3l0.1-0.3c0-0.2,0.1-0.3,0.1-0.4c0-0.1,0-0.1-0.1-0.1c0,0,0,0-0.1,0l-0.1,0
				l0-0.1c0.1-0.1,0.3-0.1,0.4-0.1c0,0,0,0,0.1,0c0,0,0,0.1,0,0.1c0.1-0.1,0.2-0.2,0.3-0.2c0.1,0,0.1,0,0.2,0.1
				C317.7,478.9,317.7,479,317.7,479.1z"/>
			<path d="M318.8,479.9C318.8,479.9,318.7,479.9,318.8,479.9c-0.1-0.1-0.1-0.2,0-0.3l0-0.1c0.1-0.4,0.1-0.5,0.1-0.5
				c0,0,0-0.1-0.1-0.1c0,0-0.1,0-0.2,0.1c-0.1,0.1-0.2,0.1-0.2,0.2c0,0,0,0.1-0.1,0.3c0,0.2-0.1,0.4-0.1,0.5c-0.1,0-0.1,0-0.3,0
				c0.1-0.2,0.1-0.4,0.1-0.6c0-0.2,0.1-0.3,0.1-0.3c0-0.1,0-0.1-0.1-0.1c0,0-0.1,0-0.1,0l0-0.1c0.1-0.1,0.3-0.1,0.4-0.1
				c0.1,0,0.1,0,0.1,0.2v0c0.2-0.1,0.4-0.2,0.6-0.2c0.1,0,0.1,0,0.1,0.1c0,0.1,0,0.2-0.1,0.4c0,0.1-0.1,0.3-0.1,0.3
				c0,0.1,0,0.1,0,0.2c0,0,0,0.1,0.1,0.1c0,0,0.1,0,0.2,0l0,0.1C319.1,479.9,318.9,479.9,318.8,479.9z"/>
			<path d="M320.1,478.4c-0.1,0-0.2-0.1-0.2-0.1c0-0.1,0.1-0.2,0.2-0.2c0.1,0,0.1,0.1,0.1,0.1C320.2,478.3,320.2,478.4,320.1,478.4z
				 M319.7,479.9C319.7,479.9,319.6,479.9,319.7,479.9c-0.1-0.1-0.1-0.2-0.1-0.2c0-0.2,0.1-0.4,0.1-0.5c0-0.2,0.1-0.3,0.1-0.3
				c0,0,0-0.1,0-0.1c0,0-0.1,0-0.1,0l0,0l0-0.1c0.2-0.1,0.3-0.1,0.4-0.1c0,0,0.1,0,0.1,0.1c0,0,0,0.1-0.1,0.3l0,0.2
				c-0.1,0.3-0.1,0.4-0.1,0.4c0,0,0,0.1,0.1,0.1c0,0,0.1,0,0.2,0l0,0.1C320,479.9,319.8,479.9,319.7,479.9z"/>
			<path d="M321.2,478.9l-0.2,0l-0.1,0.6c0,0.2,0,0.2,0,0.2c0,0,0,0.1,0.1,0.1c0,0,0.1,0,0.1,0l0,0l0,0.1c-0.2,0.1-0.3,0.1-0.4,0.1
				c-0.1,0-0.1,0-0.1-0.1c0-0.1,0-0.1,0-0.2c0-0.1,0-0.2,0.1-0.3l0.1-0.4l-0.2,0l0-0.1c0.2,0,0.3-0.2,0.3-0.4l0.1,0l-0.1,0.3l0.2,0
				L321.2,478.9z"/>
			<path d="M322.1,478.5L322.1,478.5l0.3-0.5l0.3,0.1L322.1,478.5z M321.8,479.4C321.8,479.4,321.7,479.4,321.8,479.4
				c-0.1,0.1-0.1,0.1-0.1,0.1c0,0.2,0.1,0.2,0.2,0.2c0.1,0,0.2-0.1,0.4-0.2l0,0.1c-0.2,0.1-0.4,0.2-0.5,0.2c-0.2,0-0.3-0.1-0.3-0.3
				c0-0.5,0.3-0.9,0.7-0.9c0.2,0,0.3,0.1,0.3,0.2C322.4,479.2,322.2,479.4,321.8,479.4z M322.1,478.8c-0.1,0-0.3,0.2-0.4,0.5h0
				c0.3,0,0.5-0.1,0.5-0.3C322.2,478.9,322.2,478.8,322.1,478.8z"/>
			<circle cx="308.4" cy="479" r="0.4"/>
			<circle cx="296.2" cy="479" r="0.4"/>
			<rect x="285.9" y="481.1" width="36.5" height="0.2"/>
		</g>
		<g>
			<g>
				<path class="st2" d="M285.9,463.9l0,12.4h8.4c0,0,0.8-0.4,1.2-0.6c0.1-0.1,0.3,0,0.4,0c0.1,0,0.2,0,0.3,0.1
					c-0.3,0.2-0.9,0.5-0.9,0.5h1.4c0,0,0.4-0.2,0.7-0.3c-0.2,0.1-0.4,0.1-0.5,0.2c0,0-0.1,0-0.1,0c0-0.1,0.1-0.1,0.2-0.1
					c0,0,0.1,0,0.1,0c0.9-0.7,2.1-0.5,3.2-0.9c0.1-0.1,0.2-0.1,0.3-0.2c0.1-0.1,0.2-0.2,0.4-0.3c0.2-0.2,0.4-0.4,0.5-0.6
					c0,0,0-0.1,0-0.1c-0.4,0.4-0.8,0.7-1.2,0.9c-0.6,0.3-1.2,0.3-1.8,0.3c0-0.1,0.1-0.1,0.1-0.1c0-0.1,0.1-0.1,0.1-0.2
					c0,0,0.1,0,0.1,0c0,0,0-0.1,0.1-0.1c0.1,0,0.1,0,0.1,0c-0.1-0.1-0.3,0.1-0.4,0c0.1-0.1,0-0.1,0.1-0.2c0,0,0.1,0,0.1,0
					c0-0.1,0.1-0.1,0.1-0.1c0.4-0.3,0.8-0.4,1.2-0.7c-0.1,0-0.1,0.1-0.2,0c0.1,0,0-0.1,0.1-0.1c0.3-0.1,0.6-0.2,0.9-0.4
					c-0.1,0-0.2,0.1-0.3,0c0.1,0,0.1-0.1,0.2-0.1c0,0,0-0.1,0-0.1c0,0,0,0,0.1,0c0,0-0.1,0-0.1,0c0-0.1,0.1,0,0.2-0.1
					c0,0-0.1,0-0.1,0c0.1-0.1,0.2-0.1,0.4-0.2c0-0.1-0.1,0-0.1-0.1c0,0,0,0,0.1,0c0,0,0,0-0.1,0c-0.1,0,0-0.1,0-0.1
					c0.2-0.2,0.2-0.4,0.2-0.7c0,0-0.1,0-0.1,0c-0.3,0.3-0.7,0.4-1.1,0.5c0,0-0.1,0-0.1,0c-0.1,0.1-0.3,0.1-0.5,0
					c-0.1-0.1-0.2-0.1-0.3-0.2c-0.2-0.1-0.4-0.2-0.7-0.3c-0.7-0.2-1.4-0.3-2.1-0.3c0.3-0.2,0.6-0.2,1-0.3c0.5-0.1,0.9-0.3,1.4-0.3
					c-0.1,0-0.2,0-0.3,0c-0.4,0-0.8,0.1-1.2,0.2c-0.3,0.1-0.5,0.2-0.8,0.2c-0.2,0.1-0.3,0.2-0.4,0.2c0,0,0-0.1,0-0.1
					c0.3-0.3,0.6-0.7,1.1-0.7c0.5-0.1,1,0,1.5,0.1c0.4,0,0.7,0.1,1.1,0.2c0.1,0,0.2,0.2,0.3,0.3c0.2,0.1,0.3,0,0.5,0.1
					c0-0.1,0-0.1,0-0.2c0.1-0.1,0.2,0,0.4,0c0.2-0.1-0.2-0.4-0.3-0.6c0,0,0-0.1,0-0.1c0.2,0.2,0.4,0.4,0.7,0.6
					c0.1,0.1,0.5,0.1,0.4,0c-0.1-0.3-0.4-0.6-0.6-0.8c0,0,0-0.1,0-0.1c-0.1,0-0.1,0-0.1-0.1c0,0,0-0.1,0-0.1
					c-0.1-0.1-0.1-0.2-0.1-0.3c-0.1-0.1,0-0.3-0.1-0.5c-0.1-0.2-0.1-0.3-0.1-0.5c-0.1-0.5-0.2-0.9-0.3-1.3c-0.1-0.5,0.3-1,0.6-1.4
					c0.2-0.3,0.4-0.7,0.8-0.9c0.1-0.3,0.3-0.6,0.5-0.9c0.3-0.3,1-0.6,1-0.6L285.9,463.9z M296.7,474.7c-0.1,0-0.2,0-0.1,0
					c0-0.1,0.2-0.1,0.3-0.2c0.1,0,0.1-0.1,0.2-0.1c0.1,0.1,0.1,0.1,0.2,0.1C297.1,474.7,296.9,474.6,296.7,474.7z M295.8,471.9
					C295.8,471.9,295.8,471.9,295.8,471.9c0.1,0.2,0,0.3-0.1,0.3c0.2,0.1,0.4,0.1,0.7,0.2c0,0.1-0.1,0-0.1,0c0.1,0.1,0.3,0,0.4,0.1
					c-0.1,0.1-0.2,0-0.3,0c0.9,0.2,1.8,0.4,2.5,1c-0.6,0.3-1.3,0.5-1.9,0.6c-0.1,0-0.1,0-0.2,0c0,0,0,0.1,0,0.1
					c-0.1,0-0.2,0-0.3,0.1c-0.1,0.1-0.3,0.1-0.4,0c0,0,0.1,0,0.1-0.1c-0.1,0-0.1,0-0.2,0c0,0,0,0,0-0.1c-0.1,0-0.3,0.1-0.4,0.1
					c-0.2,0.1-0.4,0.2-0.6,0.3c-0.3,0.1-0.6,0.4-0.9,0.5c0,0,0,0,0-0.1c0-0.1,0.1-0.1,0.2-0.2c0,0,0-0.1,0-0.1
					c0.2-0.3,0.5-0.5,0.8-0.7c0,0,0-0.1,0-0.1c0.1-0.1,0.2-0.2,0.3-0.3c0-0.1,0.1-0.2,0.3-0.2c0,0-0.1,0-0.1-0.1
					c-0.1,0-0.2,0.1-0.3,0c0.1-0.1,0.1-0.1,0.2-0.1c0,0-0.1,0-0.1,0c0-0.1,0.1-0.1,0.1-0.1c0.1,0,0.2,0,0.3-0.1
					c-0.2,0-0.4,0.1-0.6-0.1C295.2,472.4,295.4,472.1,295.8,471.9z M294.4,472.4c0-0.1,0.1-0.2,0.2-0.3c0,0,0,0,0,0.1
					c0,0.1-0.1,0.1-0.1,0.1C294.6,472.4,294.6,472.4,294.4,472.4C294.5,472.5,294.4,472.5,294.4,472.4z M296.1,470.8
					C296.1,470.8,296.1,470.8,296.1,470.8c-0.1-0.1-0.1-0.1-0.1-0.1c-0.3,0.3-0.7,0.4-0.9,0.8c-0.2,0.3-0.3,0.6-0.6,0.7
					c-0.1,0,0-0.1,0-0.1c-0.9,0.5-1.5,1.2-2.1,1.9c0,0,0,0,0-0.1c0.4-0.5,0.6-0.9,0.9-1.4c0.4-0.2,0.7-0.5,0.9-0.8
					c0.5-0.5,1-0.9,1.6-1.2c0.2-0.1,0.5-0.1,0.7,0C296.4,470.7,296.3,470.7,296.1,470.8z"/>
			</g>
			<path class="st2" d="M299.9,476c0.2,0,0.3-0.1,0.5-0.2c0,0,0,0,0,0.1c0.4-0.2,0.7-0.5,1.1-0.7c0,0,0.1,0.1,0.1,0
				c0.3-0.2,0.5-0.5,0.9-0.4c0,0,0,0.1,0,0.1c0,0,0.1,0,0.1,0c-0.1,0.1-0.2,0.2-0.3,0.2c0,0,0,0.1,0,0.1c0.1-0.1,0.2-0.2,0.4-0.2
				c0,0,0,0.1-0.1,0.1c-0.5,0.4-1.3,1.3-1.3,1.3h-3.8c0,0,1.1-0.2,1.6-0.3C299.4,476,299.6,476,299.9,476z"/>
		</g>
		<path class="st3" d="M310.9,474.6c0.1-0.2,0.1-0.4,0-0.6c-0.2-0.3,0.2-0.3,0.3-0.5c0.1-0.1-0.1-0.2-0.1-0.4c0-0.1-0.1,0-0.2-0.1
			c0.2-0.1,0.5-0.3,0.4-0.5c-0.1-0.1-0.2-0.4-0.1-0.5c0.2-0.1,0.5-0.1,0.6-0.3c0.1-0.3-0.2-0.6-0.3-0.9c-0.1-0.2-0.2-0.3-0.3-0.4
			c-0.1-0.2-0.3-0.4-0.3-0.6c-0.1-0.2,0-0.4,0-0.6c0-0.4-0.1-0.8-0.2-1.3c-0.1-0.2-0.1-0.4-0.2-0.6c0-0.1-0.1-0.2-0.1-0.3
			c0-0.1,0-0.1,0-0.2c0.1-0.1,0.2-0.2,0.3-0.3c0.1-0.1,0-0.3-0.1-0.4c-0.2-0.1-0.2,0.2-0.3,0.3c0,0-0.1,0-0.1,0c0-0.1,0-0.1,0.1-0.2
			c0,0,0-0.1,0-0.1c-0.1,0-0.2,0-0.2-0.1c-0.3-0.4-0.7-0.6-1.1-0.8c0.1,0,0.2,0.1,0.3,0.1c0.2,0,0.4,0,0.6-0.1
			c0.1-0.1,0.2-0.3,0.2-0.4c0.1-0.1,0-0.3-0.1-0.4c-0.1-0.2-0.7-0.5-0.7-0.5l13.3,0v12.4h-15.7c0,0,0.4-1.1,0.9-1.4
			c0.1,0,0.3-0.1,0.4-0.1c0.5,0,0.9,0.1,1.4,0.2c0.1,0,0.1,0,0.2,0.1c0.2,0,0.4,0,0.5,0C310.6,474.9,310.8,474.8,310.9,474.6z"/>
		<path class="st4" d="M309.8,469.1c-0.2,0-0.3,0-0.5,0c-0.2,0.1-0.4,0.1-0.6,0.2c0.2-0.1,0.3-0.2,0.5-0.3c0.1,0,0.3-0.1,0.4-0.1
			c0.2,0,0.3-0.1,0.5,0c0.1,0.1,0.4,0.1,0.4,0.1c0.1,0.2-0.1,0.3-0.3,0.4c0,0.1,0.1,0.1,0.1,0.1c0,0.1-0.1,0.1-0.2,0.1
			c-0.1,0-0.1,0.1-0.2,0.2c0.1,0,0,0.1,0.1,0.1c-0.1,0.1,0.1,0.4-0.1,0.5c-0.2,0.1-0.4,0.1-0.6,0c0.1,0,0.2,0,0.3-0.1
			c0,0,0-0.1,0-0.1c0,0,0,0-0.1,0c0,0-0.1,0-0.1,0c0-0.1-0.1-0.1-0.1-0.1c-0.2,0-0.3-0.1-0.4-0.2c0.1,0,0.2-0.1,0.2,0
			c0.1,0,0.1-0.1,0.1-0.2c0,0,0.1,0,0.1,0c0.2-0.2,0.5-0.3,0.6-0.5C310.1,469.1,309.9,469.1,309.8,469.1z"/>
	</g>
</g>
</svg>
