<?xml version="1.0" encoding="utf-8"?>
<!-- Generator: Adobe Illustrator 21.1.0, SVG Export Plug-In . SVG Version: 6.00 Build 0)  -->
<svg version="1.1" id="Calque_1" xmlns="http://www.w3.org/2000/svg" xmlns:xlink="http://www.w3.org/1999/xlink" x="0px" y="0px"
	 viewBox="0 0 595.3 841.9" style="enable-background:new 0 0 595.3 841.9;" xml:space="preserve">
<style type="text/css">
	.st0{fill:#149A87;}
	.st1{fill:#005BA0;}
	.st2{fill:#AEC2E1;}
	.st3{fill:#FFFFFF;}
</style>
<g>
	<path class="st0" d="M240.6,499.2v-47.1h102.5v47.1H240.6z"/>
	<path class="st1" d="M240.6,450.1V346.9h102.5v103.2H240.6z"/>
	<g>
		<path class="st2" d="M266.8,398c-1-0.7-3.8-2.3-4.4-2.9c-0.8-0.8-1.3-2.1-0.9-3.8h-14.6v6.8H266.8z"/>
		<g>
			<path class="st2" d="M285.8,395.2c-1,0.6-5.4,2.8-5.4,2.8h7c0-0.4,0.7-1.2,0.7-1.2C286.2,396.9,285.8,395.2,285.8,395.2z"/>
		</g>
		<g>
			<path class="st2" d="M299.1,395.2c0.6,0.5,4.5,2.8,4.5,2.8h-6.9c0-0.4-0.4-1.2-0.4-1.2C298.4,397,299.1,395.2,299.1,395.2z"/>
		</g>
		<path class="st2" d="M317.4,398c0,0,4.4-2.2,5.3-3c0.8-0.7,2-2.3,1.6-3.8h12.6v6.8H317.4z"/>
	</g>
	<g>
		<g>
			<g>
				<path class="st3" d="M277.5,370.2c1.8,0,3.5-1.5,3.7-3.2c0.3-1.8-1-3.2-2.8-3.2c-1.8,0-3.5,1.5-3.7,3.2
					C274.4,368.7,275.7,370.2,277.5,370.2z"/>
				<path class="st3" d="M277.9,366.9"/>
			</g>
			<path class="st3" d="M269.1,370.4"/>
			<path class="st3" d="M277.2,371.8l7.1-4c0.7-0.4,1.3-0.5,1.9-0.5c1.7,0,2.9,1.4,2.6,3c-0.1,1-0.8,1.9-1.7,2.5l-5.4,3
				c0,0-0.7,5.1-1.1,7.7c-0.1,0.8-1.2,1.2-1.8,0.9c-1.1-0.6-3.2-2-3.2-2s-2.5,1.4-3.7,2c-0.7,0.4-1.7-0.1-1.6-0.9
				c0.4-2.6,1.1-7.7,1.1-7.7l-4.5-3c-0.7-0.5-1.1-1.5-1-2.5c0.2-1.7,1.8-3,3.5-3c0.6,0,1.1,0.2,1.6,0.5L277.2,371.8z"/>
		</g>
		<g>
			<g>
				<path class="st3" d="M297.4,359.5c1.8,0,3.5-1.5,3.7-3.2c0.3-1.8-1-3.2-2.8-3.2c-1.8,0-3.5,1.5-3.7,3.2
					C294.4,358.1,295.6,359.5,297.4,359.5z"/>
				<path class="st3" d="M297.9,356.3"/>
			</g>
			<path class="st3" d="M289,359.7"/>
			<path class="st3" d="M297.2,361.2l7.1-4c0.7-0.4,1.3-0.5,1.9-0.5c1.7,0,2.9,1.4,2.6,3c-0.1,1-0.8,1.9-1.7,2.5l-5.4,3
				c0,0-0.7,5.1-1.1,7.7c-0.1,0.8-1.2,1.2-1.8,0.9c-1.1-0.6-3.2-2-3.2-2s-2.5,1.4-3.7,2c-0.7,0.4-1.7-0.1-1.6-0.9
				c0.4-2.6,1.1-7.7,1.1-7.7l-4.5-3c-0.7-0.6-1.1-1.5-1-2.5c0.2-1.7,1.8-3,3.5-3c0.6,0,1.1,0.2,1.6,0.5L297.2,361.2z"/>
		</g>
		<g>
			<g>
				<path class="st3" d="M314.3,370.2c1.8,0,3.5-1.5,3.7-3.2c0.3-1.8-1-3.2-2.8-3.2c-1.8,0-3.5,1.5-3.7,3.2
					C311.3,368.7,312.5,370.2,314.3,370.2z"/>
				<path class="st3" d="M314.8,366.9"/>
			</g>
			<path class="st3" d="M305.9,370.4"/>
			<path class="st3" d="M314.1,371.8l7.1-4c0.7-0.4,1.3-0.5,1.9-0.5c1.7,0,2.9,1.4,2.6,3c-0.1,1-0.8,1.9-1.7,2.5l-5.4,3
				c0,0-0.7,5.1-1.1,7.7c-0.1,0.8-1.2,1.2-1.8,0.9c-1.1-0.6-3.2-2-3.2-2s-2.5,1.4-3.7,2c-0.7,0.4-1.7-0.1-1.6-0.9
				c0.4-2.6,1.1-7.7,1.1-7.7l-4.5-3c-0.7-0.5-1.1-1.5-1-2.5c0.2-1.7,1.8-3,3.5-3c0.6,0,1.1,0.2,1.6,0.5L314.1,371.8z"/>
		</g>
		<g>
			<g>
				<path class="st3" d="M311.2,391.7c1.8,0,3.5-1.5,3.7-3.2c0.3-1.8-1-3.2-2.8-3.2c-1.8,0-3.5,1.5-3.7,3.2
					C308.2,390.3,309.4,391.7,311.2,391.7z"/>
				<path class="st3" d="M311.7,388.5"/>
			</g>
			<path class="st3" d="M302.8,391.9"/>
			<path class="st3" d="M311,393.3l7.1-4c0.7-0.4,1.3-0.5,1.9-0.5c1.7,0,2.9,1.4,2.6,3c-0.1,1-0.8,1.9-1.7,2.5l-5.4,3
				c0,0-0.7,5.1-1.1,7.7c-0.1,0.8-1.2,1.2-1.8,0.9c-1.1-0.6-3.2-2-3.2-2s-2.5,1.4-3.7,2c-0.7,0.4-1.7-0.1-1.6-0.9
				c0.4-2.6,1.1-7.7,1.1-7.7l-4.5-3c-0.7-0.6-1.1-1.5-1-2.5c0.2-1.7,1.8-3,3.5-3c0.6,0,1.1,0.2,1.6,0.5L311,393.3z"/>
		</g>
		<g>
			<g>
				<path class="st3" d="M294.4,381c1.8,0,3.5-1.5,3.7-3.2c0.3-1.8-1-3.2-2.8-3.2c-1.8,0-3.5,1.5-3.7,3.2
					C291.4,379.5,292.6,381,294.4,381z"/>
				<path class="st3" d="M294.9,377.7"/>
			</g>
			<path class="st3" d="M286,381.1"/>
			<path class="st3" d="M294.2,382.6l7.1-4c0.7-0.4,1.3-0.5,1.9-0.5c1.7,0,2.9,1.4,2.6,3c-0.1,1-0.8,1.9-1.7,2.5l-5.4,3
				c0,0-0.7,5.1-1.1,7.7c-0.1,0.8-1.2,1.2-1.8,0.9c-1.1-0.6-3.2-2-3.2-2s-2.5,1.4-3.7,2c-0.7,0.4-1.7-0.1-1.6-0.9
				c0.4-2.6,1.1-7.7,1.1-7.7l-4.5-3c-0.7-0.6-1.1-1.5-1-2.5c0.2-1.7,1.8-3,3.5-3c0.6,0,1.1,0.2,1.6,0.5L294.2,382.6z"/>
		</g>
		<g>
			<g>
				<path class="st3" d="M291.4,402.4c1.8,0,3.5-1.5,3.7-3.2c0.3-1.8-1-3.2-2.8-3.2c-1.8,0-3.5,1.5-3.7,3.2
					C288.4,400.9,289.6,402.4,291.4,402.4z"/>
				<path class="st3" d="M291.9,399.1"/>
			</g>
			<path class="st3" d="M283,402.5"/>
			<path class="st3" d="M291.2,404l7.1-4c0.7-0.4,1.3-0.5,1.9-0.5c1.7,0,2.9,1.4,2.6,3c-0.1,1-0.8,1.9-1.7,2.5l-5.4,3
				c0,0-0.7,5.1-1.1,7.7c-0.1,0.8-1.2,1.2-1.8,0.9c-1.1-0.6-3.2-2-3.2-2s-2.5,1.4-3.7,2c-0.7,0.4-1.7-0.1-1.6-0.9
				c0.4-2.6,1.1-7.7,1.1-7.7l-4.5-3c-0.7-0.6-1.1-1.5-1-2.5c0.2-1.7,1.8-3,3.5-3c0.6,0,1.1,0.2,1.6,0.5L291.2,404z"/>
		</g>
		<g>
			<g>
				<path class="st3" d="M274.5,391.6c1.8,0,3.5-1.5,3.7-3.2c0.3-1.8-1-3.2-2.8-3.2c-1.8,0-3.5,1.5-3.7,3.2
					C271.4,390.1,272.7,391.6,274.5,391.6z"/>
				<path class="st3" d="M274.9,388.4"/>
			</g>
			<path class="st3" d="M266.1,391.8"/>
			<path class="st3" d="M274.2,393.2l7.1-4c0.7-0.4,1.3-0.5,1.9-0.5c1.7,0,2.9,1.4,2.6,3c-0.1,1-0.8,1.9-1.7,2.5l-5.4,3
				c0,0-0.7,5.1-1.1,7.7c-0.1,0.8-1.2,1.2-1.8,0.9c-1.1-0.6-3.2-2-3.2-2s-2.5,1.4-3.7,2c-0.7,0.4-1.7-0.1-1.6-0.9
				c0.4-2.6,1.1-7.7,1.1-7.7l-4.5-3c-0.7-0.6-1.1-1.5-1-2.5c0.2-1.7,1.8-3,3.5-3c0.6,0,1.1,0.2,1.6,0.5L274.2,393.2z"/>
		</g>
	</g>
	<path class="st3" d="M251.9,427.9l1.7-2.8l0.5,2.8H251.9z M254.3,428.7c0.2,0.8,0.3,1.6,0.4,2.5c0.4,0,0.7-0.1,1-0.1
		c0.4,0,0.7,0,1,0.1l-1.7-8.4c-0.2,0-0.3,0-0.5,0c-0.2,0-0.3,0-0.4,0l-5.1,8.4c0.2,0,0.4,0,0.6,0c0.2,0,0.4,0,0.6,0
		c0.4-0.8,0.8-1.6,1.3-2.5H254.3z"/>
	<path class="st3" d="M259.8,430.3c1.1,0,2-0.1,2.8-0.2c-0.1,0.2-0.1,0.3-0.2,0.5c0,0.2,0,0.3,0,0.5h-4.6l1.6-8.2
		c0.3,0,0.6,0.1,0.9,0.1c0.3,0,0.6,0,0.9-0.1L259.8,430.3z"/>
	<path class="st3" d="M265.9,430.3c1.1,0,2-0.1,2.8-0.2c-0.1,0.2-0.1,0.3-0.2,0.5c0,0.2,0,0.3,0,0.5h-4.6l1.6-8.2
		c0.3,0,0.6,0.1,0.9,0.1c0.3,0,0.6,0,0.9-0.1L265.9,430.3z"/>
	<path class="st3" d="M275.5,423.4c1.8,0,2.2,1.8,1.9,3.3c-0.4,2-1.6,3.9-3.4,3.9c-1.8,0-2.2-1.7-1.9-3.2
		C272.6,424.7,273.9,423.4,275.5,423.4z M279.4,427c0.4-1.9-0.2-4.3-3.6-4.3c-3,0-5.1,1.9-5.6,4.3c-0.5,2.7,1,4.3,3.6,4.3
		C276.7,431.3,278.9,429.3,279.4,427z"/>
	<path class="st3" d="M286.8,429.8l-0.5,1c-0.8,0.4-1.7,0.5-2.5,0.5c-2.6,0-4.2-1.6-3.7-4.1c0.6-3.1,3.1-4.6,5.7-4.6
		c0.8,0,1.7,0.2,2.3,0.6c-0.2,0.4-0.3,0.8-0.5,1.2h-0.2c-0.3-0.7-1-1.1-1.8-1.1c-2,0-3.2,1.9-3.5,3.7c-0.4,2.1,0.3,3.5,2.2,3.5
		c0.7,0,1.7-0.4,2.3-0.9L286.8,429.8z"/>
	<path class="st3" d="M290.2,427.9l1.7-2.8l0.5,2.8H290.2z M292.5,428.7c0.2,0.8,0.3,1.6,0.4,2.5c0.4,0,0.7-0.1,1.1-0.1
		c0.3,0,0.7,0,1,0.1l-1.7-8.4c-0.2,0-0.3,0-0.5,0c-0.2,0-0.3,0-0.4,0l-5.1,8.4c0.2,0,0.4,0,0.6,0c0.2,0,0.4,0,0.6,0
		c0.4-0.8,0.8-1.6,1.3-2.5H292.5z"/>
	<path class="st3" d="M299.4,431.2c-0.3,0-0.6-0.1-0.9-0.1c-0.3,0-0.6,0-0.9,0.1l1.4-7.4c-0.9,0-1.6,0.1-2.3,0.2
		c0.1-0.2,0.1-0.3,0.2-0.5c0-0.2,0-0.3,0-0.5h6.2c-0.1,0.2-0.1,0.3-0.2,0.5c0,0.2,0,0.4,0,0.5c-0.7-0.1-1.4-0.2-2.1-0.2L299.4,431.2
		z"/>
	<path class="st3" d="M304.5,422.9c0.3,0,0.6,0.1,0.9,0.1c0.3,0,0.6,0,0.9-0.1l-1.6,8.3c-0.3,0-0.6-0.1-0.9-0.1
		c-0.3,0-0.6,0-0.9,0.1L304.5,422.9z"/>
	<path class="st3" d="M312.4,423.4c1.8,0,2.2,1.8,1.9,3.3c-0.4,2-1.6,3.9-3.4,3.9c-1.8,0-2.2-1.7-1.9-3.2
		C309.5,424.7,310.8,423.4,312.4,423.4z M316.3,427c0.4-1.9-0.2-4.3-3.6-4.3c-3,0-5.1,1.9-5.6,4.3c-0.5,2.7,1,4.3,3.6,4.3
		C313.6,431.3,315.8,429.3,316.3,427z"/>
	<path class="st3" d="M318.5,422.9h1.2c1.4,1.9,2.8,3.7,4.1,5.6l1.1-5.6c0.2,0,0.3,0,0.5,0c0.2,0,0.3,0,0.5,0l-1.6,8.3l-1,0
		c-1.1-1.6-2.1-3-3.2-4.5l-1-1.4l-1.1,5.8c-0.2,0-0.3,0-0.5,0c-0.2,0-0.3,0-0.5,0L318.5,422.9z"/>
	<path class="st3" d="M331.3,424.5c-0.1-0.6-0.5-1-1.2-1c-1,0-1.4,0.5-1.6,1.2c-0.3,1.6,3.4,1.3,2.9,4.1c-0.3,1.5-1.8,2.7-3.7,2.7
		c-0.7,0-1.3-0.2-1.8-0.5c0.2-0.5,0.5-1,0.6-1.5h0.2c0,0.8,0.6,1.3,1.4,1.3c0.8,0,1.5-0.4,1.7-1.3c0.4-1.9-3.4-1.2-2.8-4.1
		c0.3-1.4,1.4-2.5,3.3-2.5c0.9,0,1.6,0.3,1.8,0.6c-0.2,0.4-0.4,0.8-0.6,1.2H331.3z"/>
	<path class="st3" d="M259.1,443.4c-0.3,0-0.6-0.1-0.9-0.1c-0.3,0-0.6,0-0.9,0.1l1.6-8.3h4.6c-0.1,0.2-0.1,0.3-0.2,0.5
		c0,0.2,0,0.4,0,0.5c-0.7-0.1-1.5-0.2-2.8-0.2l-0.5,2.6h1.3c0.5,0,1,0,1.5-0.1c-0.1,0.2-0.1,0.3-0.2,0.5c0,0.2,0,0.4,0,0.5
		c-0.5,0-1-0.1-1.5-0.1h-1.3L259.1,443.4z"/>
	<path class="st3" d="M265.5,440.1l1.7-2.8l0.5,2.8H265.5z M267.9,440.9c0.2,0.8,0.3,1.6,0.4,2.5c0.4,0,0.7-0.1,1-0.1
		c0.4,0,0.7,0,1,0.1l-1.7-8.4c-0.2,0-0.3,0-0.5,0c-0.2,0-0.3,0-0.4,0l-5.1,8.4c0.2,0,0.4,0,0.6,0c0.2,0,0.4,0,0.6,0
		c0.4-0.8,0.8-1.6,1.3-2.5H267.9z"/>
	<path class="st3" d="M280.3,435.1c0.2,0,0.3,0.1,0.5,0.1c0.2,0,0.4,0,0.5-0.1c-0.3,3.2-0.5,5.9-0.5,8.3c-0.3,0-0.7-0.1-1-0.1
		c-0.3,0-0.6,0-1,0.1c0.3-1.9,0.4-3.8,0.6-5.6c-1.3,1.8-2.5,3.7-3.8,5.6c-0.2,0-0.3,0-0.5,0c-0.4-1.7-1-3.5-1.6-5.4
		c-0.7,2.1-1.2,3.8-1.6,5.5c-0.2,0-0.4-0.1-0.6-0.1c-0.2,0-0.4,0-0.6,0.1c0.9-2.4,1.8-5.2,2.8-8.3c0.2,0,0.3,0.1,0.5,0.1
		c0.2,0,0.3,0,0.5-0.1c0.5,1.9,1.1,3.8,1.7,5.7C277.6,439.1,279,437.2,280.3,435.1z"/>
	<path class="st3" d="M283.9,435.1c0.3,0,0.6,0.1,0.9,0.1c0.3,0,0.6,0,0.9-0.1l-1.6,8.3c-0.3,0-0.6-0.1-0.9-0.1
		c-0.3,0-0.6,0-0.9,0.1L283.9,435.1z"/>
	<path class="st3" d="M288.2,442.5c1.1,0,2-0.1,2.8-0.2c-0.1,0.2-0.1,0.3-0.2,0.5c0,0.2,0,0.3,0,0.5h-4.6l1.6-8.2
		c0.3,0,0.6,0.1,0.9,0.1c0.3,0,0.6,0,0.9-0.1L288.2,442.5z"/>
	<path class="st3" d="M294,435.1c0.3,0,0.6,0.1,0.9,0.1c0.3,0,0.6,0,0.9-0.1l-1.6,8.3c-0.3,0-0.6-0.1-0.9-0.1c-0.3,0-0.6,0-0.9,0.1
		L294,435.1z"/>
	<path class="st3" d="M298.4,440.1l1.7-2.8l0.5,2.8H298.4z M300.7,440.9c0.2,0.8,0.3,1.6,0.4,2.5c0.4,0,0.7-0.1,1.1-0.1
		c0.4,0,0.7,0,1,0.1l-1.7-8.4c-0.2,0-0.3,0-0.5,0c-0.2,0-0.3,0-0.4,0l-5.1,8.4c0.2,0,0.4,0,0.6,0c0.2,0,0.4,0,0.6,0
		c0.4-0.8,0.8-1.6,1.3-2.5H300.7z"/>
	<path class="st3" d="M306.3,442.5c1.1,0,2-0.1,2.8-0.2c-0.1,0.2-0.1,0.3-0.2,0.5c0,0.2,0,0.3,0,0.5h-4.6l1.6-8.2
		c0.3,0,0.6,0.1,0.9,0.1c0.3,0,0.6,0,0.9-0.1L306.3,442.5z"/>
	<path class="st3" d="M316.5,435.1c-0.1,0.2-0.1,0.3-0.2,0.5c0,0.2,0,0.4,0,0.5c-0.7-0.1-1.5-0.2-2.8-0.2l-0.5,2.6h1.3
		c0.5,0,1,0,1.5-0.1c-0.1,0.2-0.1,0.3-0.2,0.5c0,0.2,0,0.4,0,0.5c-0.4-0.1-0.9-0.1-1.5-0.1h-1.3l-0.6,3.1c1.2,0,2.1-0.1,2.8-0.2
		c-0.1,0.2-0.1,0.3-0.2,0.5c0,0.2,0,0.3,0,0.5h-4.6l1.6-8.2H316.5z"/>
	<path class="st3" d="M321.4,436.7c-0.1-0.6-0.5-1.1-1.2-1.1c-1,0-1.4,0.5-1.6,1.2c-0.3,1.6,3.4,1.3,2.9,4.1
		c-0.3,1.5-1.8,2.7-3.7,2.7c-0.7,0-1.3-0.2-1.8-0.5c0.2-0.5,0.5-1,0.6-1.5h0.2c0,0.8,0.6,1.3,1.4,1.3c0.7,0,1.5-0.4,1.7-1.3
		c0.4-1.9-3.4-1.2-2.8-4.1c0.3-1.4,1.4-2.5,3.3-2.5c0.9,0,1.6,0.3,1.8,0.6c-0.2,0.4-0.4,0.8-0.6,1.2H321.4z"/>
	<path class="st3" d="M289.4,470l-0.4,1.7c-1.2,0.6-2.6,0.9-4,0.9c-4.3,0-7.6-2.7-7.6-6.8c0-5.3,3.6-7.6,8-7.6c1.3,0,2.9,0.3,4.1,1
		c-0.2,0.7-0.3,1.4-0.5,2.1h-0.3c-0.7-1.1-2-1.9-3.3-1.9c-3.3,0-4.7,3.2-4.7,6.2c0,3.4,1.7,5.9,4.8,5.9c1.2,0,2.7-0.6,3.6-1.5
		L289.4,470z"/>
	<path class="st3" d="M299.1,470.5c0,0.7,0.2,1,1,0.9v0.5c-0.5,0.2-1.2,0.5-1.8,0.5c-0.9,0-1.7-0.6-2-1.5c-0.5,0.9-1.5,1.5-2.6,1.5
		c-1.6,0-2.9-0.9-2.9-2.7c0-1.9,1.2-2.5,3.7-3.1c0.5-0.1,1-0.2,1.5-0.5c0.2-0.2,0.3-0.5,0.3-0.8c0-1-1-1.8-1.9-1.8
		c-1.3,0-2.3,0.9-2.5,1.2h-0.1l-0.3-1.2c0.9-0.9,2.5-1.3,3.7-1.3c1.7,0,3.8,0.7,3.8,2.7V470.5z M296.3,467c-0.5,0.2-1.4,0.4-2,0.9
		c-0.5,0.4-0.6,1-0.6,1.7c0,0.7,0.2,1.6,1.1,1.6c1.2,0,1.5-1.2,1.5-2.2V467z"/>
	<path class="st3" d="M300.6,463.8c0.1-0.4,0.1-0.8,0-1.3h1.5c0.2-1.1,0.4-2.3,1-3.3c1-1.8,2.1-2.4,4.2-2.1
		c-0.1,0.8-0.1,1.8-0.1,2.6l-0.3,0.1c-0.5-0.3-1.2-0.6-1.8-0.6c-0.3,0-0.8,0-1.1,0.3c-0.1,0.1-0.2,0.2-0.2,0.4
		c0,0.5,0.6,2.1,0.9,2.7h2c-0.1,0.5-0.1,0.8,0,1.3h-1.9v8.5c-0.5,0-0.9-0.1-1.4-0.1c-0.5,0-0.9,0.1-1.4,0.1v-8.5H300.6z"/>
	<path class="st3" d="M257.4,487.4c-0.3,0-0.6-0.1-0.9-0.1c-0.3,0-0.6,0-0.9,0.1v-1.2c-0.3,0.8-0.9,1.3-1.8,1.3
		c-1.9,0-2.6-1.6-2.6-3.3c0-1.7,0.8-3.3,2.5-3.3c0.8,0,1.4,0.3,1.8,0.9v-4.4c0.3,0,0.6,0.1,0.9,0.1c0.3,0,0.6,0,0.9-0.1V487.4z
		 M253.3,484.3c0,0.8,0.1,2.4,1.2,2.4c1.1,0,1.3-1.7,1.3-2.5c0-0.8-0.1-2.3-1.2-2.3C253.4,481.8,253.3,483.4,253.3,484.3z"/>
	<path class="st3" d="M260.6,484.2c0,1.3,0.4,2.4,1.8,2.4c0.5,0,1.1-0.2,1.5-0.6l0.2,0.1l-0.3,0.7c-0.5,0.4-1.2,0.6-1.9,0.6
		c-2.2,0-3.3-1.3-3.3-3.4c0-1.8,1.1-3.1,3-3.1c2.1,0,2.8,1.4,2.7,3.3H260.6z M262.5,483.6c0-0.7-0.1-2.1-0.9-2.1c-1,0-1,1.4-1.1,2.1
		H262.5z"/>
	<path class="st3" d="M271.1,487.5c-0.3,0-0.6-0.1-0.9-0.1c-0.3,0-0.6,0-0.9,0.1v-9.9c0.3,0,0.6,0.1,0.9,0.1c0.3,0,0.6,0,0.9-0.1
		V487.5z"/>
	<path class="st3" d="M277.7,486.2c0,0.5,0.1,0.6,0.7,0.6v0.3c-0.3,0.1-0.8,0.4-1.2,0.4c-0.6,0-1.1-0.4-1.3-1c-0.3,0.6-1,1-1.7,1
		c-1.1,0-1.9-0.6-1.9-1.7c0-1.2,0.8-1.6,2.4-2c0.3-0.1,0.7-0.2,1-0.3c0.2-0.1,0.2-0.3,0.2-0.5c0-0.6-0.6-1.2-1.2-1.2
		c-0.8,0-1.5,0.6-1.6,0.8h-0.1l-0.2-0.8c0.6-0.6,1.6-0.9,2.4-0.9c1.1,0,2.5,0.4,2.5,1.8V486.2z M275.9,484c-0.3,0.1-0.9,0.3-1.3,0.6
		c-0.3,0.3-0.4,0.7-0.4,1.1c0,0.5,0.2,1,0.7,1c0.8,0,1-0.8,1-1.4V484z"/>
	<g>
		<path class="st3" d="M284.3,484.1c-0.1,1.1-0.2,2.2-0.2,3.2c-0.1,0-0.2,0-0.3,0c-0.1,0-0.2,0-0.3,0c-0.1,0-0.2,0-0.3,0
			c-0.1,0-0.2,0-0.3,0c0.3-1.7,0.6-3.3,0.8-5c0.2-1.6,0.5-3.3,0.7-5c0.1,0,0.2,0,0.3,0.1c0.1,0,0.2,0,0.3,0c0.1,0,0.2,0,0.3,0
			c0.1,0,0.2,0,0.3-0.1c0.3,0.6,0.5,1.2,0.8,1.8c0.3,0.6,0.6,1.2,0.9,1.8c0.3,0.6,0.6,1.2,0.9,1.7c0.3,0.6,0.6,1.1,0.8,1.6
			c0.6-1.1,1.2-2.2,1.7-3.4c0.6-1.2,1.1-2.4,1.6-3.5c0.2,0,0.4,0.1,0.6,0.1c0.2,0,0.4,0,0.6-0.1c0.1,0.8,0.2,1.7,0.3,2.7
			c0.1,1,0.2,1.9,0.3,2.8c0.1,0.9,0.2,1.8,0.3,2.6c0.1,0.8,0.2,1.4,0.3,1.9c-0.2,0-0.4,0-0.6,0c-0.2,0-0.4,0-0.6,0
			c-0.2,0-0.4,0-0.6,0c-0.2,0-0.4,0-0.6,0c0-1-0.1-2.1-0.2-3.2c-0.1-1.2-0.2-2.3-0.3-3.5h0c-0.6,1.1-1.1,2.3-1.6,3.4
			c-0.5,1.1-1.1,2.2-1.6,3.3c0,0-0.1,0-0.1,0c0,0-0.1,0-0.1,0c0,0-0.1,0-0.1,0c0,0-0.1,0-0.1,0c-0.5-1.1-1-2.2-1.6-3.2
			c-0.5-1.1-1.1-2.2-1.6-3.3h0C284.5,481.9,284.4,483,284.3,484.1z"/>
		<path class="st3" d="M296,481.2c0.4-0.3,0.8-0.6,1.3-0.8c0.5-0.2,0.9-0.3,1.4-0.3c0.4,0,0.7,0,1.1,0.1c0.3,0.1,0.6,0.2,0.8,0.4
			c0.2,0.2,0.4,0.4,0.6,0.7c0.1,0.3,0.2,0.7,0.2,1.1c0,0.6,0,1.2,0,1.7c0,0.5,0,1.1,0,1.6c0,0.2,0,0.4,0.1,0.5
			c0,0.1,0.1,0.2,0.2,0.3c0.1,0.1,0.2,0.1,0.3,0.1c0.1,0,0.2,0,0.4,0v0.3c-0.3,0.1-0.5,0.2-0.7,0.3c-0.2,0.1-0.4,0.1-0.6,0.1
			c-0.4,0-0.6-0.1-0.9-0.3c-0.2-0.2-0.4-0.4-0.5-0.8c-0.2,0.3-0.5,0.6-0.8,0.7c-0.3,0.2-0.7,0.3-1.1,0.3c-0.4,0-0.7,0-0.9-0.1
			c-0.3-0.1-0.5-0.2-0.6-0.4c-0.2-0.2-0.3-0.4-0.4-0.6c-0.1-0.2-0.1-0.5-0.1-0.7c0-0.3,0.1-0.6,0.2-0.8c0.1-0.2,0.2-0.4,0.4-0.6
			c0.2-0.2,0.4-0.3,0.7-0.4c0.3-0.1,0.6-0.2,0.9-0.3c0.4-0.1,0.7-0.2,1-0.3c0.2-0.1,0.4-0.1,0.5-0.2c0.1-0.1,0.2-0.2,0.2-0.2
			c0-0.1,0.1-0.2,0.1-0.3c0-0.3-0.1-0.6-0.4-0.9c-0.2-0.2-0.6-0.4-1-0.4c-0.2,0-0.3,0-0.5,0.1c-0.2,0-0.3,0.1-0.5,0.2
			c-0.2,0.1-0.3,0.2-0.4,0.3c-0.1,0.1-0.2,0.2-0.3,0.3h-0.1L296,481.2z M299.4,485.1c0-0.4,0-0.7,0-1c0-0.2,0-0.4,0-0.6
			c-0.2,0.1-0.4,0.2-0.6,0.3c-0.2,0.1-0.4,0.2-0.6,0.3c-0.2,0.1-0.3,0.3-0.5,0.5c-0.1,0.2-0.2,0.5-0.2,0.8c0,0.4,0.1,0.6,0.2,0.8
			c0.2,0.2,0.4,0.3,0.6,0.3c0.3,0,0.6-0.1,0.8-0.4C299.3,485.9,299.4,485.6,299.4,485.1z"/>
		<path class="st3" d="M305.2,481.4c0.3-0.4,0.6-0.7,1-0.9c0.4-0.2,0.8-0.3,1.2-0.3c0.7,0,1.3,0.2,1.7,0.6c0.4,0.4,0.6,1.1,0.6,2
			c0,0.5,0,0.9,0,1.3c0,0.4,0,0.8,0,1.1c0,0.3,0,0.6,0,1c0,0.4,0,0.7,0.1,1.1c-0.1,0-0.3,0-0.5,0c-0.2,0-0.4,0-0.6,0
			c-0.2,0-0.4,0-0.6,0c-0.2,0-0.4,0-0.5,0c0.1-0.5,0.1-1.1,0.1-1.8c0-0.7,0-1.5,0-2.3c0-0.6-0.1-1.1-0.3-1.3
			c-0.2-0.3-0.5-0.4-0.9-0.4c-0.4,0-0.8,0.2-1,0.6c-0.2,0.4-0.3,0.9-0.3,1.6v0.6c0,0.6,0,1.1,0,1.7c0,0.5,0,1,0.1,1.5
			c-0.1,0-0.3,0-0.5,0c-0.2,0-0.4,0-0.6,0c-0.2,0-0.4,0-0.6,0c-0.2,0-0.3,0-0.5,0c0-0.5,0.1-1,0.1-1.5c0-0.5,0-1.1,0-1.7v-0.6
			c0-0.6,0-1.1,0-1.7c0-0.5,0-1-0.1-1.6c0.2,0,0.3,0,0.5,0.1c0.2,0,0.3,0,0.5,0c0.2,0,0.3,0,0.5,0c0.2,0,0.4,0,0.5-0.1L305.2,481.4
			L305.2,481.4z"/>
		<path class="st3" d="M316,481.3c-0.2-0.3-0.6-0.4-1-0.4c-0.6,0-1,0.3-1.3,0.8c-0.3,0.5-0.4,1.3-0.4,2.2c0,0.9,0.2,1.6,0.6,2
			c0.4,0.5,0.9,0.7,1.6,0.7c0.3,0,0.6-0.1,0.9-0.2c0.3-0.1,0.5-0.3,0.6-0.5l0.2,0.1c-0.1,0.1-0.1,0.3-0.2,0.4c0,0.1-0.1,0.3-0.1,0.4
			c-0.2,0.2-0.5,0.3-0.8,0.4c-0.3,0.1-0.7,0.2-1.2,0.2c-0.7,0-1.3-0.1-1.8-0.3c-0.5-0.2-0.9-0.5-1.2-0.8c-0.3-0.3-0.5-0.7-0.6-1.2
			c-0.1-0.4-0.2-0.9-0.2-1.3c0-0.5,0.1-1,0.3-1.5c0.2-0.5,0.4-0.8,0.8-1.2c0.3-0.3,0.7-0.6,1.2-0.8c0.5-0.2,1-0.3,1.6-0.3
			c0.6,0,1,0.1,1.4,0.2c0.4,0.1,0.7,0.3,1.1,0.5c-0.1,0.2-0.2,0.4-0.3,0.7c-0.1,0.3-0.2,0.5-0.2,0.8h-0.3
			C316.4,481.9,316.2,481.5,316,481.3z"/>
		<path class="st3" d="M318.3,478.8c0-0.8,0-1.6-0.1-2.4c0.1,0,0.3,0,0.5,0.1c0.2,0,0.4,0,0.6,0c0.2,0,0.4,0,0.6,0
			c0.2,0,0.4,0,0.5-0.1c0,0.8-0.1,1.6-0.1,2.4c0,0.8,0,1.7,0,2.6l0,0c0.3-0.4,0.6-0.7,0.9-0.9c0.4-0.2,0.8-0.3,1.2-0.3
			c0.7,0,1.3,0.2,1.7,0.6s0.6,1.1,0.6,2c0,0.5,0,0.9,0,1.3c0,0.4,0,0.8,0,1.1c0,0.3,0,0.6,0,1c0,0.4,0,0.7,0.1,1.1
			c-0.1,0-0.3,0-0.5,0c-0.2,0-0.4,0-0.6,0c-0.2,0-0.4,0-0.6,0c-0.2,0-0.4,0-0.5,0c0.1-0.5,0.1-1.1,0.1-1.8c0-0.7,0-1.5,0-2.3
			c0-0.6-0.1-1.1-0.3-1.3c-0.2-0.3-0.5-0.4-0.9-0.4c-0.4,0-0.8,0.2-1,0.6c-0.2,0.4-0.3,0.9-0.3,1.6v0.6c0,0.1,0,0.3,0,0.6
			c0,0.3,0,0.5,0,0.8c0,0.3,0,0.6,0,0.9c0,0.3,0,0.6,0.1,0.8c-0.1,0-0.3,0-0.5,0c-0.2,0-0.4,0-0.6,0c-0.2,0-0.4,0-0.6,0
			c-0.2,0-0.4,0-0.5,0c0-0.8,0.1-1.6,0.1-2.4c0-0.8,0-1.7,0-2.6v-0.9C318.3,480.4,318.3,479.6,318.3,478.8z"/>
		<path class="st3" d="M328.1,483.8c0,0.4,0,0.7,0.1,1.1c0.1,0.3,0.2,0.6,0.4,0.9c0.2,0.2,0.4,0.4,0.6,0.6c0.2,0.1,0.5,0.2,0.9,0.2
			c0.7,0,1.3-0.2,1.8-0.7l0.2,0.1l-0.3,0.8c-0.2,0.2-0.5,0.3-0.9,0.4c-0.3,0.1-0.8,0.2-1.3,0.2c-0.5,0-0.9-0.1-1.3-0.2
			c-0.4-0.1-0.8-0.3-1.1-0.6c-0.3-0.3-0.6-0.7-0.8-1.1c-0.2-0.5-0.3-1-0.3-1.6c0-0.6,0.1-1.2,0.3-1.6c0.2-0.5,0.4-0.9,0.7-1.2
			c0.3-0.3,0.7-0.5,1.1-0.7c0.4-0.2,0.9-0.2,1.3-0.2c1,0,1.7,0.3,2.2,0.8c0.5,0.6,0.8,1.4,0.8,2.4v0.3c0,0.1,0,0.1,0,0.2H328.1z
			 M330.3,483.2c0-0.7-0.1-1.3-0.3-1.7c-0.2-0.4-0.4-0.7-0.8-0.7c-0.2,0-0.4,0.1-0.5,0.2c-0.1,0.1-0.3,0.3-0.3,0.6
			c-0.1,0.2-0.2,0.5-0.2,0.8c0,0.3-0.1,0.6-0.1,0.8H330.3z"/>
	</g>
</g>
</svg>
