<?xml version="1.0" encoding="utf-8"?>
<!-- Generator: Adobe Illustrator 21.1.0, SVG Export Plug-In . SVG Version: 6.00 Build 0)  -->
<svg version="1.1" id="Calque_1" xmlns="http://www.w3.org/2000/svg" xmlns:xlink="http://www.w3.org/1999/xlink" x="0px" y="0px"
	 viewBox="0 0 102.5 152.3" style="enable-background:new 0 0 102.5 152.3;" xml:space="preserve">
<style type="text/css">
	.st0{fill:#149A87;}
	.st1{fill:#005BA0;}
	.st2{fill:#AEC2E1;}
	.st3{fill:#FFFFFF;}
</style>
<g>
	<path class="st0" d="M0,152.3v-47.1h102.5v47.1H0z"/>
	<path class="st1" d="M0,103.2V0h102.5v103.2L0,103.2L0,103.2z"/>
	<g>
		<path class="st2" d="M26.2,51.1c-1-0.7-3.8-2.3-4.4-2.9c-0.8-0.8-1.3-2.1-0.9-3.8H6.3v6.8h19.9V51.1z"/>
		<g>
			<path class="st2" d="M45.2,48.3c-1,0.6-5.4,2.8-5.4,2.8h7c0-0.4,0.7-1.2,0.7-1.2C45.6,50,45.2,48.3,45.2,48.3z"/>
		</g>
		<g>
			<path class="st2" d="M58.5,48.3c0.6,0.5,4.5,2.8,4.5,2.8h-6.9c0-0.4-0.4-1.2-0.4-1.2C57.8,50.1,58.5,48.3,58.5,48.3z"/>
		</g>
		<path class="st2" d="M76.8,51.1c0,0,4.4-2.2,5.3-3c0.8-0.7,2-2.3,1.6-3.8h12.6v6.8H76.8z"/>
	</g>
	<g>
		<g>
			<g>
				<path class="st3" d="M36.9,23.3c1.8,0,3.5-1.5,3.7-3.2c0.3-1.8-1-3.2-2.8-3.2s-3.5,1.5-3.7,3.2C33.8,21.8,35.1,23.3,36.9,23.3z"
					/>
				<path class="st3" d="M37.3,20"/>
			</g>
			<path class="st3" d="M28.5,23.5"/>
			<path class="st3" d="M36.6,24.9l7.1-4c0.7-0.4,1.3-0.5,1.9-0.5c1.7,0,2.9,1.4,2.6,3c-0.1,1-0.8,1.9-1.7,2.5l-5.4,3
				c0,0-0.7,5.1-1.1,7.7c-0.1,0.8-1.2,1.2-1.8,0.9c-1.1-0.6-3.2-2-3.2-2s-2.5,1.4-3.7,2c-0.7,0.4-1.7-0.1-1.6-0.9
				c0.4-2.6,1.1-7.7,1.1-7.7l-4.5-3c-0.7-0.5-1.1-1.5-1-2.5c0.2-1.7,1.8-3,3.5-3c0.6,0,1.1,0.2,1.6,0.5L36.6,24.9z"/>
		</g>
		<g>
			<g>
				<path class="st3" d="M56.8,12.6c1.8,0,3.5-1.5,3.7-3.2c0.3-1.8-1-3.2-2.8-3.2S54.2,7.7,54,9.4C53.8,11.2,55,12.6,56.8,12.6z"/>
				<path class="st3" d="M57.3,9.4"/>
			</g>
			<path class="st3" d="M48.4,12.8"/>
			<path class="st3" d="M56.6,14.3l7.1-4c0.7-0.4,1.3-0.5,1.9-0.5c1.7,0,2.9,1.4,2.6,3c-0.1,1-0.8,1.9-1.7,2.5l-5.4,3
				c0,0-0.7,5.1-1.1,7.7c-0.1,0.8-1.2,1.2-1.8,0.9c-1.1-0.6-3.2-2-3.2-2s-2.5,1.4-3.7,2c-0.7,0.4-1.7-0.1-1.6-0.9
				c0.4-2.6,1.1-7.7,1.1-7.7l-4.5-3c-0.7-0.6-1.1-1.5-1-2.5c0.2-1.7,1.8-3,3.5-3c0.6,0,1.1,0.2,1.6,0.5L56.6,14.3z"/>
		</g>
		<g>
			<g>
				<path class="st3" d="M73.7,23.3c1.8,0,3.5-1.5,3.7-3.2c0.3-1.8-1-3.2-2.8-3.2s-3.5,1.5-3.7,3.2S71.9,23.3,73.7,23.3z"/>
				<path class="st3" d="M74.2,20"/>
			</g>
			<path class="st3" d="M65.3,23.5"/>
			<path class="st3" d="M73.5,24.9l7.1-4c0.7-0.4,1.3-0.5,1.9-0.5c1.7,0,2.9,1.4,2.6,3c-0.1,1-0.8,1.9-1.7,2.5l-5.4,3
				c0,0-0.7,5.1-1.1,7.7c-0.1,0.8-1.2,1.2-1.8,0.9c-1.1-0.6-3.2-2-3.2-2s-2.5,1.4-3.7,2c-0.7,0.4-1.7-0.1-1.6-0.9
				c0.4-2.6,1.1-7.7,1.1-7.7l-4.5-3c-0.7-0.5-1.1-1.5-1-2.5c0.2-1.7,1.8-3,3.5-3c0.6,0,1.1,0.2,1.6,0.5L73.5,24.9z"/>
		</g>
		<g>
			<g>
				<path class="st3" d="M70.6,44.8c1.8,0,3.5-1.5,3.7-3.2c0.3-1.8-1-3.2-2.8-3.2s-3.5,1.5-3.7,3.2C67.6,43.4,68.8,44.8,70.6,44.8z"
					/>
				<path class="st3" d="M71.1,41.6"/>
			</g>
			<path class="st3" d="M62.2,45"/>
			<path class="st3" d="M70.4,46.4l7.1-4c0.7-0.4,1.3-0.5,1.9-0.5c1.7,0,2.9,1.4,2.6,3c-0.1,1-0.8,1.9-1.7,2.5l-5.4,3
				c0,0-0.7,5.1-1.1,7.7c-0.1,0.8-1.2,1.2-1.8,0.9c-1.1-0.6-3.2-2-3.2-2s-2.5,1.4-3.7,2c-0.7,0.4-1.7-0.1-1.6-0.9
				c0.4-2.6,1.1-7.7,1.1-7.7l-4.5-3c-0.7-0.6-1.1-1.5-1-2.5c0.2-1.7,1.8-3,3.5-3c0.6,0,1.1,0.2,1.6,0.5L70.4,46.4z"/>
		</g>
		<g>
			<g>
				<path class="st3" d="M53.8,34.1c1.8,0,3.5-1.5,3.7-3.2c0.3-1.8-1-3.2-2.8-3.2s-3.5,1.5-3.7,3.2S52,34.1,53.8,34.1z"/>
				<path class="st3" d="M54.3,30.8"/>
			</g>
			<path class="st3" d="M45.4,34.2"/>
			<path class="st3" d="M53.6,35.7l7.1-4c0.7-0.4,1.3-0.5,1.9-0.5c1.7,0,2.9,1.4,2.6,3c-0.1,1-0.8,1.9-1.7,2.5l-5.4,3
				c0,0-0.7,5.1-1.1,7.7c-0.1,0.8-1.2,1.2-1.8,0.9c-1.1-0.6-3.2-2-3.2-2s-2.5,1.4-3.7,2c-0.7,0.4-1.7-0.1-1.6-0.9
				c0.4-2.6,1.1-7.7,1.1-7.7l-4.5-3c-0.7-0.6-1.1-1.5-1-2.5c0.2-1.7,1.8-3,3.5-3c0.6,0,1.1,0.2,1.6,0.5L53.6,35.7z"/>
		</g>
		<g>
			<g>
				<path class="st3" d="M50.8,55.5c1.8,0,3.5-1.5,3.7-3.2c0.3-1.8-1-3.2-2.8-3.2s-3.5,1.5-3.7,3.2S49,55.5,50.8,55.5z"/>
				<path class="st3" d="M51.3,52.2"/>
			</g>
			<path class="st3" d="M42.4,55.6"/>
			<path class="st3" d="M50.6,57.1l7.1-4c0.7-0.4,1.3-0.5,1.9-0.5c1.7,0,2.9,1.4,2.6,3c-0.1,1-0.8,1.9-1.7,2.5l-5.4,3
				c0,0-0.7,5.1-1.1,7.7c-0.1,0.8-1.2,1.2-1.8,0.9c-1.1-0.6-3.2-2-3.2-2s-2.5,1.4-3.7,2c-0.7,0.4-1.7-0.1-1.6-0.9
				c0.4-2.6,1.1-7.7,1.1-7.7l-4.5-3c-0.7-0.6-1.1-1.5-1-2.5c0.2-1.7,1.8-3,3.5-3c0.6,0,1.1,0.2,1.6,0.5L50.6,57.1z"/>
		</g>
		<g>
			<g>
				<path class="st3" d="M33.9,44.7c1.8,0,3.5-1.5,3.7-3.2c0.3-1.8-1-3.2-2.8-3.2s-3.5,1.5-3.7,3.2C30.8,43.2,32.1,44.7,33.9,44.7z"
					/>
				<path class="st3" d="M34.3,41.5"/>
			</g>
			<path class="st3" d="M25.5,44.9"/>
			<path class="st3" d="M33.6,46.3l7.1-4c0.7-0.4,1.3-0.5,1.9-0.5c1.7,0,2.9,1.4,2.6,3c-0.1,1-0.8,1.9-1.7,2.5l-5.4,3
				c0,0-0.7,5.1-1.1,7.7c-0.1,0.8-1.2,1.2-1.8,0.9c-1.1-0.6-3.2-2-3.2-2s-2.5,1.4-3.7,2c-0.7,0.4-1.7-0.1-1.6-0.9
				c0.4-2.6,1.1-7.7,1.1-7.7l-4.5-3c-0.7-0.6-1.1-1.5-1-2.5c0.2-1.7,1.8-3,3.5-3c0.6,0,1.1,0.2,1.6,0.5L33.6,46.3z"/>
		</g>
	</g>
	<path class="st3" d="M11.3,81l1.7-2.8l0.5,2.8H11.3z M13.7,81.8c0.2,0.8,0.3,1.6,0.4,2.5c0.4,0,0.7-0.1,1-0.1c0.4,0,0.7,0,1,0.1
		l-1.7-8.4c-0.2,0-0.3,0-0.5,0s-0.3,0-0.4,0l-5.1,8.4c0.2,0,0.4,0,0.6,0c0.2,0,0.4,0,0.6,0c0.4-0.8,0.8-1.6,1.3-2.5H13.7z"/>
	<path class="st3" d="M19.2,83.4c1.1,0,2-0.1,2.8-0.2c-0.1,0.2-0.1,0.3-0.2,0.5c0,0.2,0,0.3,0,0.5h-4.6l1.6-8.2
		c0.3,0,0.6,0.1,0.9,0.1s0.6,0,0.9-0.1L19.2,83.4z"/>
	<path class="st3" d="M25.3,83.4c1.1,0,2-0.1,2.8-0.2c-0.1,0.2-0.1,0.3-0.2,0.5c0,0.2,0,0.3,0,0.5h-4.6l1.6-8.2
		c0.3,0,0.6,0.1,0.9,0.1s0.6,0,0.9-0.1L25.3,83.4z"/>
	<path class="st3" d="M34.9,76.5c1.8,0,2.2,1.8,1.9,3.3c-0.4,2-1.6,3.9-3.4,3.9s-2.2-1.7-1.9-3.2C32,77.8,33.3,76.5,34.9,76.5z
		 M38.8,80.1c0.4-1.9-0.2-4.3-3.6-4.3c-3,0-5.1,1.9-5.6,4.3c-0.5,2.7,1,4.3,3.6,4.3C36.1,84.4,38.3,82.4,38.8,80.1z"/>
	<path class="st3" d="M46.2,82.9l-0.5,1c-0.8,0.4-1.7,0.5-2.5,0.5c-2.6,0-4.2-1.6-3.7-4.1c0.6-3.1,3.1-4.6,5.7-4.6
		c0.8,0,1.7,0.2,2.3,0.6c-0.2,0.4-0.3,0.8-0.5,1.2h-0.2c-0.3-0.7-1-1.1-1.8-1.1c-2,0-3.2,1.9-3.5,3.7c-0.4,2.1,0.3,3.5,2.2,3.5
		c0.7,0,1.7-0.4,2.3-0.9L46.2,82.9z"/>
	<path class="st3" d="M49.6,81l1.7-2.8l0.5,2.8H49.6z M51.9,81.8c0.2,0.8,0.3,1.6,0.4,2.5c0.4,0,0.7-0.1,1.1-0.1c0.3,0,0.7,0,1,0.1
		l-1.7-8.4c-0.2,0-0.3,0-0.5,0s-0.3,0-0.4,0l-5.1,8.4c0.2,0,0.4,0,0.6,0s0.4,0,0.6,0c0.4-0.8,0.8-1.6,1.3-2.5H51.9z"/>
	<path class="st3" d="M58.8,84.3c-0.3,0-0.6-0.1-0.9-0.1s-0.6,0-0.9,0.1l1.4-7.4c-0.9,0-1.6,0.1-2.3,0.2c0.1-0.2,0.1-0.3,0.2-0.5
		c0-0.2,0-0.3,0-0.5h6.2c-0.1,0.2-0.1,0.3-0.2,0.5c0,0.2,0,0.4,0,0.5c-0.7-0.1-1.4-0.2-2.1-0.2L58.8,84.3z"/>
	<path class="st3" d="M63.9,76c0.3,0,0.6,0.1,0.9,0.1s0.6,0,0.9-0.1l-1.6,8.3c-0.3,0-0.6-0.1-0.9-0.1s-0.6,0-0.9,0.1L63.9,76z"/>
	<path class="st3" d="M71.8,76.5c1.8,0,2.2,1.8,1.9,3.3c-0.4,2-1.6,3.9-3.4,3.9s-2.2-1.7-1.9-3.2C68.9,77.8,70.2,76.5,71.8,76.5z
		 M75.7,80.1c0.4-1.9-0.2-4.3-3.6-4.3c-3,0-5.1,1.9-5.6,4.3c-0.5,2.7,1,4.3,3.6,4.3C73,84.4,75.2,82.4,75.7,80.1z"/>
	<path class="st3" d="M77.9,76h1.2c1.4,1.9,2.8,3.7,4.1,5.6l1.1-5.6c0.2,0,0.3,0,0.5,0s0.3,0,0.5,0l-1.6,8.3h-1
		c-1.1-1.6-2.1-3-3.2-4.5l-1-1.4l-1.1,5.8c-0.2,0-0.3,0-0.5,0s-0.3,0-0.5,0L77.9,76z"/>
	<path class="st3" d="M90.7,77.6c-0.1-0.6-0.5-1-1.2-1c-1,0-1.4,0.5-1.6,1.2c-0.3,1.6,3.4,1.3,2.9,4.1c-0.3,1.5-1.8,2.7-3.7,2.7
		c-0.7,0-1.3-0.2-1.8-0.5c0.2-0.5,0.5-1,0.6-1.5h0.2c0,0.8,0.6,1.3,1.4,1.3s1.5-0.4,1.7-1.3c0.4-1.9-3.4-1.2-2.8-4.1
		c0.3-1.4,1.4-2.5,3.3-2.5c0.9,0,1.6,0.3,1.8,0.6c-0.2,0.4-0.4,0.8-0.6,1.2h-0.2V77.6z"/>
	<path class="st3" d="M18.5,96.5c-0.3,0-0.6-0.1-0.9-0.1s-0.6,0-0.9,0.1l1.6-8.3h4.6c-0.1,0.2-0.1,0.3-0.2,0.5c0,0.2,0,0.4,0,0.5
		C22,89.1,21.2,89,19.9,89l-0.5,2.6h1.3c0.5,0,1,0,1.5-0.1c-0.1,0.2-0.1,0.3-0.2,0.5c0,0.2,0,0.4,0,0.5c-0.5,0-1-0.1-1.5-0.1h-1.3
		L18.5,96.5z"/>
	<path class="st3" d="M24.9,93.2l1.7-2.8l0.5,2.8H24.9z M27.3,94c0.2,0.8,0.3,1.6,0.4,2.5c0.4,0,0.7-0.1,1-0.1c0.4,0,0.7,0,1,0.1
		L28,88.1c-0.2,0-0.3,0-0.5,0s-0.3,0-0.4,0L22,96.5c0.2,0,0.4,0,0.6,0s0.4,0,0.6,0c0.4-0.8,0.8-1.6,1.3-2.5H27.3z"/>
	<path class="st3" d="M39.7,88.2c0.2,0,0.3,0.1,0.5,0.1s0.4,0,0.5-0.1c-0.3,3.2-0.5,5.9-0.5,8.3c-0.3,0-0.7-0.1-1-0.1s-0.6,0-1,0.1
		c0.3-1.9,0.4-3.8,0.6-5.6c-1.3,1.8-2.5,3.7-3.8,5.6c-0.2,0-0.3,0-0.5,0c-0.4-1.7-1-3.5-1.6-5.4c-0.7,2.1-1.2,3.8-1.6,5.5
		c-0.2,0-0.4-0.1-0.6-0.1s-0.4,0-0.6,0.1c0.9-2.4,1.8-5.2,2.8-8.3c0.2,0,0.3,0.1,0.5,0.1s0.3,0,0.5-0.1c0.5,1.9,1.1,3.8,1.7,5.7
		C37,92.2,38.4,90.3,39.7,88.2z"/>
	<path class="st3" d="M43.3,88.2c0.3,0,0.6,0.1,0.9,0.1s0.6,0,0.9-0.1l-1.6,8.3c-0.3,0-0.6-0.1-0.9-0.1s-0.6,0-0.9,0.1L43.3,88.2z"
		/>
	<path class="st3" d="M47.6,95.6c1.1,0,2-0.1,2.8-0.2c-0.1,0.2-0.1,0.3-0.2,0.5c0,0.2,0,0.3,0,0.5h-4.6l1.6-8.2
		c0.3,0,0.6,0.1,0.9,0.1s0.6,0,0.9-0.1L47.6,95.6z"/>
	<path class="st3" d="M53.4,88.2c0.3,0,0.6,0.1,0.9,0.1s0.6,0,0.9-0.1l-1.6,8.3c-0.3,0-0.6-0.1-0.9-0.1s-0.6,0-0.9,0.1L53.4,88.2z"
		/>
	<path class="st3" d="M57.8,93.2l1.7-2.8l0.5,2.8H57.8z M60.1,94c0.2,0.8,0.3,1.6,0.4,2.5c0.4,0,0.7-0.1,1.1-0.1s0.7,0,1,0.1
		l-1.7-8.4c-0.2,0-0.3,0-0.5,0s-0.3,0-0.4,0l-5.1,8.4c0.2,0,0.4,0,0.6,0s0.4,0,0.6,0c0.4-0.8,0.8-1.6,1.3-2.5H60.1z"/>
	<path class="st3" d="M65.7,95.6c1.1,0,2-0.1,2.8-0.2c-0.1,0.2-0.1,0.3-0.2,0.5c0,0.2,0,0.3,0,0.5h-4.6l1.6-8.2
		c0.3,0,0.6,0.1,0.9,0.1s0.6,0,0.9-0.1L65.7,95.6z"/>
	<path class="st3" d="M75.9,88.2c-0.1,0.2-0.1,0.3-0.2,0.5c0,0.2,0,0.4,0,0.5C75,89.1,74.2,89,72.9,89l-0.5,2.6h1.3
		c0.5,0,1,0,1.5-0.1c-0.1,0.2-0.1,0.3-0.2,0.5c0,0.2,0,0.4,0,0.5c-0.4-0.1-0.9-0.1-1.5-0.1h-1.3l-0.6,3.1c1.2,0,2.1-0.1,2.8-0.2
		c-0.1,0.2-0.1,0.3-0.2,0.5c0,0.2,0,0.3,0,0.5h-4.6l1.6-8.2h4.7V88.2z"/>
	<path class="st3" d="M80.8,89.8c-0.1-0.6-0.5-1.1-1.2-1.1c-1,0-1.4,0.5-1.6,1.2c-0.3,1.6,3.4,1.3,2.9,4.1c-0.3,1.5-1.8,2.7-3.7,2.7
		c-0.7,0-1.3-0.2-1.8-0.5c0.2-0.5,0.5-1,0.6-1.5h0.2c0,0.8,0.6,1.3,1.4,1.3c0.7,0,1.5-0.4,1.7-1.3c0.4-1.9-3.4-1.2-2.8-4.1
		c0.3-1.4,1.4-2.5,3.3-2.5c0.9,0,1.6,0.3,1.8,0.6c-0.2,0.4-0.4,0.8-0.6,1.2h-0.2V89.8z"/>
	<path class="st3" d="M48.8,123.1l-0.4,1.7c-1.2,0.6-2.6,0.9-4,0.9c-4.3,0-7.6-2.7-7.6-6.8c0-5.3,3.6-7.6,8-7.6c1.3,0,2.9,0.3,4.1,1
		c-0.2,0.7-0.3,1.4-0.5,2.1h-0.3c-0.7-1.1-2-1.9-3.3-1.9c-3.3,0-4.7,3.2-4.7,6.2c0,3.4,1.7,5.9,4.8,5.9c1.2,0,2.7-0.6,3.6-1.5
		L48.8,123.1z"/>
	<path class="st3" d="M58.5,123.6c0,0.7,0.2,1,1,0.9v0.5c-0.5,0.2-1.2,0.5-1.8,0.5c-0.9,0-1.7-0.6-2-1.5c-0.5,0.9-1.5,1.5-2.6,1.5
		c-1.6,0-2.9-0.9-2.9-2.7c0-1.9,1.2-2.5,3.7-3.1c0.5-0.1,1-0.2,1.5-0.5c0.2-0.2,0.3-0.5,0.3-0.8c0-1-1-1.8-1.9-1.8
		c-1.3,0-2.3,0.9-2.5,1.2h-0.1l-0.3-1.2c0.9-0.9,2.5-1.3,3.7-1.3c1.7,0,3.8,0.7,3.8,2.7L58.5,123.6L58.5,123.6z M55.7,120.1
		c-0.5,0.2-1.4,0.4-2,0.9c-0.5,0.4-0.6,1-0.6,1.7s0.2,1.6,1.1,1.6c1.2,0,1.5-1.2,1.5-2.2V120.1z"/>
	<path class="st3" d="M60,116.9c0.1-0.4,0.1-0.8,0-1.3h1.5c0.2-1.1,0.4-2.3,1-3.3c1-1.8,2.1-2.4,4.2-2.1c-0.1,0.8-0.1,1.8-0.1,2.6
		l-0.3,0.1c-0.5-0.3-1.2-0.6-1.8-0.6c-0.3,0-0.8,0-1.1,0.3c-0.1,0.1-0.2,0.2-0.2,0.4c0,0.5,0.6,2.1,0.9,2.7h2
		c-0.1,0.5-0.1,0.8,0,1.3h-1.9v8.5c-0.5,0-0.9-0.1-1.4-0.1s-0.9,0.1-1.4,0.1V117H60V116.9z"/>
	<path class="st3" d="M16.8,140.5c-0.3,0-0.6-0.1-0.9-0.1s-0.6,0-0.9,0.1v-1.2c-0.3,0.8-0.9,1.3-1.8,1.3c-1.9,0-2.6-1.6-2.6-3.3
		c0-1.7,0.8-3.3,2.5-3.3c0.8,0,1.4,0.3,1.8,0.9v-4.4c0.3,0,0.6,0.1,0.9,0.1s0.6,0,0.9-0.1v10H16.8z M12.7,137.4
		c0,0.8,0.1,2.4,1.2,2.4c1.1,0,1.3-1.7,1.3-2.5S15.1,135,14,135C12.8,134.9,12.7,136.5,12.7,137.4z"/>
	<path class="st3" d="M20,137.3c0,1.3,0.4,2.4,1.8,2.4c0.5,0,1.1-0.2,1.5-0.6l0.2,0.1l-0.3,0.7c-0.5,0.4-1.2,0.6-1.9,0.6
		c-2.2,0-3.3-1.3-3.3-3.4c0-1.8,1.1-3.1,3-3.1c2.1,0,2.8,1.4,2.7,3.3H20z M21.9,136.7c0-0.7-0.1-2.1-0.9-2.1c-1,0-1,1.4-1.1,2.1
		H21.9z"/>
	<path class="st3" d="M30.5,140.6c-0.3,0-0.6-0.1-0.9-0.1s-0.6,0-0.9,0.1v-9.9c0.3,0,0.6,0.1,0.9,0.1s0.6,0,0.9-0.1V140.6z"/>
	<path class="st3" d="M37.1,139.3c0,0.5,0.1,0.6,0.7,0.6v0.3c-0.3,0.1-0.8,0.4-1.2,0.4c-0.6,0-1.1-0.4-1.3-1c-0.3,0.6-1,1-1.7,1
		c-1.1,0-1.9-0.6-1.9-1.7c0-1.2,0.8-1.6,2.4-2c0.3-0.1,0.7-0.2,1-0.3c0.2-0.1,0.2-0.3,0.2-0.5c0-0.6-0.6-1.2-1.2-1.2
		c-0.8,0-1.5,0.6-1.6,0.8h-0.1l-0.2-0.8c0.6-0.6,1.6-0.9,2.4-0.9c1.1,0,2.5,0.4,2.5,1.8L37.1,139.3L37.1,139.3z M35.3,137.1
		c-0.3,0.1-0.9,0.3-1.3,0.6c-0.3,0.3-0.4,0.7-0.4,1.1c0,0.5,0.2,1,0.7,1c0.8,0,1-0.8,1-1.4L35.3,137.1L35.3,137.1z"/>
	<g>
		<path class="st3" d="M43.7,137.2c-0.1,1.1-0.2,2.2-0.2,3.2c-0.1,0-0.2,0-0.3,0c-0.1,0-0.2,0-0.3,0c-0.1,0-0.2,0-0.3,0
			c-0.1,0-0.2,0-0.3,0c0.3-1.7,0.6-3.3,0.8-5c0.2-1.6,0.5-3.3,0.7-5c0.1,0,0.2,0,0.3,0.1c0.1,0,0.2,0,0.3,0c0.1,0,0.2,0,0.3,0
			c0.1,0,0.2,0,0.3-0.1c0.3,0.6,0.5,1.2,0.8,1.8c0.3,0.6,0.6,1.2,0.9,1.8c0.3,0.6,0.6,1.2,0.9,1.7c0.3,0.6,0.6,1.1,0.8,1.6
			c0.6-1.1,1.2-2.2,1.7-3.4c0.6-1.2,1.1-2.4,1.6-3.5c0.2,0,0.4,0.1,0.6,0.1s0.4,0,0.6-0.1c0.1,0.8,0.2,1.7,0.3,2.7
			c0.1,1,0.2,1.9,0.3,2.8c0.1,0.9,0.2,1.8,0.3,2.6c0.1,0.8,0.2,1.4,0.3,1.9c-0.2,0-0.4,0-0.6,0s-0.4,0-0.6,0s-0.4,0-0.6,0
			s-0.4,0-0.6,0c0-1-0.1-2.1-0.2-3.2c-0.1-1.2-0.2-2.3-0.3-3.5l0,0c-0.6,1.1-1.1,2.3-1.6,3.4s-1.1,2.2-1.6,3.3h-0.1h-0.1h-0.1h-0.1
			c-0.5-1.1-1-2.2-1.6-3.2c-0.5-1.1-1.1-2.2-1.6-3.3l0,0C43.9,135,43.8,136.1,43.7,137.2z"/>
		<path class="st3" d="M55.4,134.3c0.4-0.3,0.8-0.6,1.3-0.8c0.5-0.2,0.9-0.3,1.4-0.3c0.4,0,0.7,0,1.1,0.1c0.3,0.1,0.6,0.2,0.8,0.4
			c0.2,0.2,0.4,0.4,0.6,0.7c0.1,0.3,0.2,0.7,0.2,1.1c0,0.6,0,1.2,0,1.7s0,1.1,0,1.6c0,0.2,0,0.4,0.1,0.5c0,0.1,0.1,0.2,0.2,0.3
			c0.1,0.1,0.2,0.1,0.3,0.1c0.1,0,0.2,0,0.4,0v0.3c-0.3,0.1-0.5,0.2-0.7,0.3c-0.2,0.1-0.4,0.1-0.6,0.1c-0.4,0-0.6-0.1-0.9-0.3
			c-0.2-0.2-0.4-0.4-0.5-0.8c-0.2,0.3-0.5,0.6-0.8,0.7c-0.3,0.2-0.7,0.3-1.1,0.3s-0.7,0-0.9-0.1c-0.3-0.1-0.5-0.2-0.6-0.4
			c-0.2-0.2-0.3-0.4-0.4-0.6s-0.1-0.5-0.1-0.7c0-0.3,0.1-0.6,0.2-0.8c0.1-0.2,0.2-0.4,0.4-0.6c0.2-0.2,0.4-0.3,0.7-0.4
			c0.3-0.1,0.6-0.2,0.9-0.3c0.4-0.1,0.7-0.2,1-0.3c0.2-0.1,0.4-0.1,0.5-0.2s0.2-0.2,0.2-0.2c0-0.1,0.1-0.2,0.1-0.3
			c0-0.3-0.1-0.6-0.4-0.9c-0.2-0.2-0.6-0.4-1-0.4c-0.2,0-0.3,0-0.5,0.1c-0.2,0-0.3,0.1-0.5,0.2s-0.3,0.2-0.4,0.3
			c-0.1,0.1-0.2,0.2-0.3,0.3H56L55.4,134.3z M58.8,138.2c0-0.4,0-0.7,0-1c0-0.2,0-0.4,0-0.6c-0.2,0.1-0.4,0.2-0.6,0.3
			c-0.2,0.1-0.4,0.2-0.6,0.3c-0.2,0.1-0.3,0.3-0.5,0.5c-0.1,0.2-0.2,0.5-0.2,0.8c0,0.4,0.1,0.6,0.2,0.8c0.2,0.2,0.4,0.3,0.6,0.3
			c0.3,0,0.6-0.1,0.8-0.4C58.7,139,58.8,138.7,58.8,138.2z"/>
		<path class="st3" d="M64.6,134.5c0.3-0.4,0.6-0.7,1-0.9c0.4-0.2,0.8-0.3,1.2-0.3c0.7,0,1.3,0.2,1.7,0.6c0.4,0.4,0.6,1.1,0.6,2
			c0,0.5,0,0.9,0,1.3s0,0.8,0,1.1c0,0.3,0,0.6,0,1s0,0.7,0.1,1.1c-0.1,0-0.3,0-0.5,0s-0.4,0-0.6,0s-0.4,0-0.6,0s-0.4,0-0.5,0
			c0.1-0.5,0.1-1.1,0.1-1.8c0-0.7,0-1.5,0-2.3c0-0.6-0.1-1.1-0.3-1.3c-0.2-0.3-0.5-0.4-0.9-0.4s-0.8,0.2-1,0.6s-0.3,0.9-0.3,1.6v0.6
			c0,0.6,0,1.1,0,1.7c0,0.5,0,1,0.1,1.5c-0.1,0-0.3,0-0.5,0s-0.4,0-0.6,0s-0.4,0-0.6,0s-0.3,0-0.5,0c0-0.5,0.1-1,0.1-1.5
			s0-1.1,0-1.7v-0.6c0-0.6,0-1.1,0-1.7c0-0.5,0-1-0.1-1.6c0.2,0,0.3,0,0.5,0.1c0.2,0,0.3,0,0.5,0s0.3,0,0.5,0s0.4,0,0.5-0.1
			L64.6,134.5L64.6,134.5z"/>
		<path class="st3" d="M75.4,134.4c-0.2-0.3-0.6-0.4-1-0.4c-0.6,0-1,0.3-1.3,0.8s-0.4,1.3-0.4,2.2c0,0.9,0.2,1.6,0.6,2
			c0.4,0.5,0.9,0.7,1.6,0.7c0.3,0,0.6-0.1,0.9-0.2s0.5-0.3,0.6-0.5l0.2,0.1c-0.1,0.1-0.1,0.3-0.2,0.4c0,0.1-0.1,0.3-0.1,0.4
			c-0.2,0.2-0.5,0.3-0.8,0.4s-0.7,0.2-1.2,0.2c-0.7,0-1.3-0.1-1.8-0.3c-0.5-0.2-0.9-0.5-1.2-0.8c-0.3-0.3-0.5-0.7-0.6-1.2
			c-0.1-0.4-0.2-0.9-0.2-1.3c0-0.5,0.1-1,0.3-1.5c0.2-0.5,0.4-0.8,0.8-1.2c0.3-0.3,0.7-0.6,1.2-0.8c0.5-0.2,1-0.3,1.6-0.3
			s1,0.1,1.4,0.2s0.7,0.3,1.1,0.5c-0.1,0.2-0.2,0.4-0.3,0.7c-0.1,0.3-0.2,0.5-0.2,0.8h-0.3C75.8,135,75.6,134.6,75.4,134.4z"/>
		<path class="st3" d="M77.7,131.9c0-0.8,0-1.6-0.1-2.4c0.1,0,0.3,0,0.5,0.1c0.2,0,0.4,0,0.6,0s0.4,0,0.6,0s0.4,0,0.5-0.1
			c0,0.8-0.1,1.6-0.1,2.4s0,1.7,0,2.6l0,0c0.3-0.4,0.6-0.7,0.9-0.9c0.4-0.2,0.8-0.3,1.2-0.3c0.7,0,1.3,0.2,1.7,0.6s0.6,1.1,0.6,2
			c0,0.5,0,0.9,0,1.3s0,0.8,0,1.1c0,0.3,0,0.6,0,1s0,0.7,0.1,1.1c-0.1,0-0.3,0-0.5,0s-0.4,0-0.6,0s-0.4,0-0.6,0s-0.4,0-0.5,0
			c0.1-0.5,0.1-1.1,0.1-1.8c0-0.7,0-1.5,0-2.3c0-0.6-0.1-1.1-0.3-1.3c-0.2-0.3-0.5-0.4-0.9-0.4s-0.8,0.2-1,0.6s-0.3,0.9-0.3,1.6v0.6
			c0,0.1,0,0.3,0,0.6c0,0.3,0,0.5,0,0.8s0,0.6,0,0.9s0,0.6,0.1,0.8c-0.1,0-0.3,0-0.5,0s-0.4,0-0.6,0s-0.4,0-0.6,0s-0.4,0-0.5,0
			c0-0.8,0.1-1.6,0.1-2.4s0-1.7,0-2.6v-0.9C77.7,133.5,77.7,132.7,77.7,131.9z"/>
		<path class="st3" d="M87.5,136.9c0,0.4,0,0.7,0.1,1.1c0.1,0.3,0.2,0.6,0.4,0.9c0.2,0.2,0.4,0.4,0.6,0.6c0.2,0.1,0.5,0.2,0.9,0.2
			c0.7,0,1.3-0.2,1.8-0.7l0.2,0.1l-0.3,0.8c-0.2,0.2-0.5,0.3-0.9,0.4c-0.3,0.1-0.8,0.2-1.3,0.2s-0.9-0.1-1.3-0.2s-0.8-0.3-1.1-0.6
			c-0.3-0.3-0.6-0.7-0.8-1.1c-0.2-0.5-0.3-1-0.3-1.6s0.1-1.2,0.3-1.6c0.2-0.5,0.4-0.9,0.7-1.2c0.3-0.3,0.7-0.5,1.1-0.7
			s0.9-0.2,1.3-0.2c1,0,1.7,0.3,2.2,0.8c0.5,0.6,0.8,1.4,0.8,2.4v0.3c0,0.1,0,0.1,0,0.2L87.5,136.9L87.5,136.9z M89.7,136.3
			c0-0.7-0.1-1.3-0.3-1.7c-0.2-0.4-0.4-0.7-0.8-0.7c-0.2,0-0.4,0.1-0.5,0.2s-0.3,0.3-0.3,0.6c-0.1,0.2-0.2,0.5-0.2,0.8
			s-0.1,0.6-0.1,0.8L89.7,136.3L89.7,136.3z"/>
	</g>
</g>
</svg>
