<?xml version="1.0" encoding="utf-8"?>
<!-- Generator: Adobe Illustrator 21.1.0, SVG Export Plug-In . SVG Version: 6.00 Build 0)  -->
<svg version="1.1" id="Calque_1" xmlns="http://www.w3.org/2000/svg" xmlns:xlink="http://www.w3.org/1999/xlink" x="0px" y="0px"
	 viewBox="0 0 171.5 69.9" style="enable-background:new 0 0 171.5 69.9;" xml:space="preserve">
<style type="text/css">
	.st0{fill:#010101;}
	.st1{fill:#E72830;}
	.st2{fill:#3C59A4;}
</style>
<rect x="22.8" y="62.9" class="st0" width="107.3" height="6.4"/>
<path class="st1" d="M19.3,69.8c1.1-2.3,2.1-4.5,3.2-6.7c0.1-0.2,0.2-0.3,0.4-0.2c0.2,0,0.5,0,0.7,0c36.3,0,72.6,0,108.8,0
	c0.7,0,0.7,0,0.4,0.7c-0.9,1.9-1.8,3.8-2.7,5.7c-0.2,0.4-0.4,0.6-0.9,0.6c-36.3,0-72.6,0-108.9,0C20,69.8,19.7,69.8,19.3,69.8z
	 M89.2,65.9L89.2,65.9c-0.1,0.8-0.2,1.5-0.3,2.2c0,0.1-0.2,0.4,0.1,0.4c0.2,0.1,0.5,0.1,0.6-0.1c0.1-0.1,0.2-0.3,0.3-0.4
	c0.5-0.7,1-1.3,1.5-2c0,0,0.1,0,0.1,0.1c-0.4,0.8-0.7,1.6-1.1,2.4c0.5,0.1,0.8,0,1-0.5c0.5-1.2,1.1-2.4,1.6-3.6
	c-0.8-0.2-1.4-0.1-1.8,0.7c-0.3,0.6-0.8,1.2-1.3,1.7l-0.1-0.1c0.1-0.6,0.3-1.2,0.4-1.9c0-0.2,0.1-0.4,0-0.5c-0.2-0.2-1.2,0-1.3,0.3
	c-0.5,1.1-1,2.3-1.6,3.4c-0.2,0.5,0,0.5,0.4,0.5c0.3,0,0.3-0.2,0.4-0.4C88.5,67.4,88.7,66.6,89.2,65.9z M124.3,68.4
	c0.6,0.2,0.8,0,1-0.5c0.3-0.8,0.7-1.6,1.1-2.4c0.1,0.8,0,1.6,0,2.4c0,0.2-0.2,0.6,0.2,0.6c0.4,0,0.8,0.2,1-0.3
	c0.5-1.1,1-2.2,1.5-3.4c0.1-0.1,0.3-0.3,0.1-0.4c-0.2-0.1-0.5-0.1-0.7,0.1c-0.1,0.1-0.1,0.2-0.1,0.3c-0.4,0.8-0.7,1.6-1.1,2.4
	c-0.1-0.8,0-1.5,0-2.3c0-0.2,0.2-0.6-0.2-0.6c-0.3,0-0.8-0.3-1,0.2C125.4,65.8,124.9,67.1,124.3,68.4z M56.3,65.7c0,0.9,0,1.6,0,2.3
	c0,0.8-0.1,0.8,0.7,0.8c0.3,0,0.5-0.1,0.6-0.4c0.2-0.5,0.4-1,0.7-1.5c0.3-0.7,0.7-1.5,1-2.2c-0.6-0.2-0.8,0-1,0.5
	c-0.3,0.7-0.6,1.4-1,2.2c0-0.8,0-1.5,0-2.3c0-0.2,0.1-0.4-0.1-0.5c-0.3-0.2-1.1,0-1.3,0.4c-0.5,1.1-1,2.2-1.5,3.3
	c-0.1,0.1-0.3,0.4,0,0.5c0.2,0.1,0.5,0.1,0.7-0.2c0.1-0.1,0.1-0.3,0.2-0.4C55.6,67.3,55.9,66.5,56.3,65.7z M79.7,68.5
	c0.6,0.2,0.9,0,1.1-0.5c0.1-0.3,0.3-0.5,0.3-0.7c0.2-0.5,0.6-0.4,0.9-0.3s0,0.4,0,0.6s-0.1,0.4-0.2,0.5c0,0.1-0.3,0.4,0,0.4
	c0.2,0,0.7,0.2,0.7-0.1c0.1-0.6,0.5-1.1,0.4-1.7c0-0.3,0-0.3,0.2-0.4c0.4-0.3,0.7-0.7,0.8-1.2c0-0.3,0-0.6-0.3-0.6
	c-0.6-0.2-1.3-0.1-1.9-0.1c-0.1,0-0.2,0.1-0.2,0.2C80.9,66,80.3,67.2,79.7,68.5z M118,68.6c0.1,0,0.2,0,0.4-0.1
	c1.2-0.4,2.5-2.1,2.5-3.3c0-0.6-0.3-0.9-1-0.9c-0.6,0-1.1,0.1-1.6,0.5c-0.8,0.7-1.3,1.5-1.5,2.6C116.7,68.1,117.1,68.6,118,68.6z
	 M75.3,64.4c-1.3,0-2.7,1.4-2.9,3c-0.2,1.1,0.4,1.6,1.5,1.3c1.2-0.3,2.5-1.9,2.5-3.2C76.3,64.7,76,64.4,75.3,64.4z M33.7,68.7
	c0.3,0,0.7,0,1,0c0.4,0,0.4-0.4,0.5-0.6c0-0.3-0.3-0.1-0.4-0.2c-0.1,0-0.2,0-0.3,0c-0.2,0-0.5,0.1-0.7-0.1c-0.1-0.2,0.1-0.5,0.2-0.7
	c0.1-0.2,0.2-0.3,0.5-0.3s0.6,0,0.9,0c0.4,0,0.4-0.4,0.4-0.6c0-0.3-0.3-0.1-0.4-0.2c-0.2,0-0.4,0-0.6,0c-0.3,0-0.3-0.1-0.2-0.3
	c0.1-0.4,0.3-0.6,0.8-0.5c0.3,0,0.5,0,0.8,0c0.4,0,0.5-0.4,0.5-0.6c0-0.3-0.3-0.2-0.5-0.2c-0.5,0-0.9,0-1.4,0
	c-0.3,0-0.5,0.1-0.6,0.4c-0.4,0.9-0.8,1.7-1.2,2.6C32.4,68.7,32.4,68.7,33.7,68.7z M46.2,68.6c0.5,0.1,0.8,0.1,1-0.3
	c0.3-0.6,0.8-0.6,1.3-0.6c0.3,0,0.5,0.1,0.3,0.4c-0.2,0.4,0,0.5,0.4,0.5c0.5,0,0.4-0.4,0.4-0.6c0.2-1,0.3-2,0.5-3
	c0-0.2,0.2-0.5-0.1-0.6c-0.3-0.1-0.7-0.2-0.9,0.1C48.2,66,47.3,67.3,46.2,68.6z M97.7,67.7c0.4-0.1,0.8,0,0.6,0.5
	c-0.1,0.2,0,0.4,0.3,0.4c0.2,0,0.5,0.1,0.5-0.3c0.2-1.2,0.4-2.4,0.6-3.6c0-0.2,0-0.3-0.3-0.4c-0.4,0-0.7,0.1-0.9,0.4
	c-0.8,1.1-1.6,2.2-2.4,3.3c-0.1,0.1-0.4,0.3-0.2,0.5c0.2,0.1,0.5,0.1,0.7-0.1c0.1-0.1,0.2-0.2,0.2-0.3C97,67.8,97.3,67.6,97.7,67.7z
	 M66.9,66.1c0.3-0.9,0.3-0.9,1.1-0.9c0.2,0,0.3,0,0.5,0c0.4,0,0.4-0.4,0.4-0.6c0-0.3-0.3-0.2-0.4-0.2c-0.4,0-0.9,0-1.3,0
	c-0.3,0-0.5,0.1-0.6,0.4c-0.5,1.1-1,2.2-1.5,3.3c-0.1,0.1-0.3,0.4,0,0.5c0.2,0.1,0.5,0.2,0.7-0.2c0.1-0.3,0.3-0.5,0.4-0.8
	c0.2-0.6,0.5-0.9,1.1-0.7c0.6,0.1,0.8-0.2,0.9-0.8C67.8,66.1,67.4,66.1,66.9,66.1z M104.4,68.4c0.6,0.2,0.9,0.1,1-0.5
	c0.2-0.6,0.5-1.2,0.8-1.8c0.3-0.6,0.4-1.3,1.3-1.1c0.3,0.1,0.4-0.3,0.4-0.5s-0.3-0.1-0.4-0.1c-0.6,0-1.2,0-1.8,0
	c-0.5,0-0.8,0.2-0.8,0.7c0.3,0,0.6,0,0.9,0.1C105.4,66.3,104.9,67.4,104.4,68.4z M40.8,67.9c0.5-1,0.9-2,1.3-2.9
	c0.1-0.1,0.3-0.4,0-0.5c-0.2-0.1-0.6-0.2-0.7,0.1c-0.6,1.2-1.1,2.5-1.7,3.8c-0.1,0.2,0,0.3,0.2,0.3c0.6,0,1.2,0,1.8,0
	c0.4,0,0.4-0.3,0.4-0.6c0.1-0.3-0.3-0.2-0.4-0.2C41.5,67.9,41.2,67.9,40.8,67.9z M23,68.7c0.6,0,1.2,0,1.7,0
	c0.5,0.1,0.8-0.2,0.8-0.7c-0.5,0-0.9,0-1.4,0c0.5-1,0.9-2,1.3-3c0.1-0.1,0.3-0.4,0.1-0.5s-0.6-0.2-0.8,0.2
	C24.2,66,23.6,67.3,23,68.7z M113,64.3c-0.3,0-0.4,0-0.6,0.3c-0.5,1.2-1,2.3-1.6,3.5c-0.1,0.1-0.2,0.3,0.1,0.3
	c0.3,0,0.6,0.1,0.7-0.3c0.5-1.2,1.1-2.4,1.6-3.6C113.4,64.4,113.4,64.3,113,64.3z M28.7,66.1c0.2,0.1,0.3-0.1,0.4-0.3
	c0.1-0.3,0.3-0.5,0.3-0.8c0.1-0.2,0.3-0.4,0-0.5c-0.2-0.1-0.5-0.1-0.7,0.2c-0.1,0.3-0.3,0.6-0.4,0.9C28.2,66.1,28.3,66.1,28.7,66.1z
	"/>
<path class="st0" d="M122.6,27.6c-0.1,0.1-0.1,0.2-0.2,0.3c-0.2,0.3-0.2,0.6,0.3,0.6c1.6,0.2,3.2,0.2,4.8,0.1
	c2.7-0.1,5.5-0.3,8.2-0.1c0.5,0,0.7,0.2,0.6,0.7c-0.1,0.8-0.6,1.3-1.1,1.8c-0.6,0.5-1.2,0.9-1.8,1.4c-0.1,0.1-0.3,0.1-0.4,0.1
	c-4-0.6-8.1-0.7-12.1-0.6c-0.3,0-0.6,0.1-0.8,0.4c-0.2,0.3-0.5,0.5-0.8,0.9c0-0.2,0-0.3,0-0.4c-0.1-0.5-0.4-0.7-0.8-0.8
	c-0.4-0.1-0.6,0.3-0.8,0.6c-2.3,4.8-4.2,9.8-6.1,14.7c-0.2,0.6-0.5,1.3-0.7,1.9c1.1,0.1,2.2,0.2,3.3,0.4c2.2,0.2,4.3,0.6,6.5,0.5
	c0.9,0,1.8,0,2.7-0.2c0.1,0,0.2,0,0.3,0c1.6,0.5,3.1,0.1,4.6-0.1h0.1c1.3,0.2,1.9-0.6,2.6-1.6c1.4-2.1,2.9-4.2,4.4-6.2
	c0.2-0.2,0.2-0.4,0-0.6c-0.4-0.6-0.4-1.1,0.1-1.8c0.5-0.6,1.3-1.1,1.4-2c0-0.2,0.2-0.2,0.3-0.2c1.7-0.2,2.8-1.1,3.8-2.4
	c4.3-5.3,8.9-10.4,13.6-15.2c0.6-0.6,1.3-1.2,2-1.9c0.2,0.1,0,0.5,0.2,0.7c0.1,0.1-0.1,0.4,0.2,0.4c0.3,0,0.4-0.2,0.4-0.5
	c0-0.2,0-0.4,0-0.6c-0.1-0.5,0.2-0.8,0.7-0.8c1,0,2,0.1,2.9,0.6c0.8,0.4,1,1,0.7,1.9c-1,3-1.6,6.1-2,9.3c-0.3,2.6-0.6,5.2-0.9,7.8
	c0,0.4,0.1,0.4,0.4,0.4c3,0.3,6,0.2,9,0.2c1,0,2,0.1,3,0.2c0.3,0,0.4,0.2,0.3,0.4c-0.3,0.7-0.9,0.9-1.5,1c-0.2,0-0.5,0-0.8,0
	c-1.1,0.1-1.8,0.2-1.8,1.9c-1-0.4-2-0.6-3-0.7c-1.8-0.1-3.6,0.2-5.3,0.4c-0.4,0-0.2,0.3-0.2,0.5c0.1,1.7,0.2,3.4,0.4,5.1
	c0.1,1.3,0.2,2.7,0.3,4c0,0.3,0.1,0.5,0.5,0.6c0.6,0.2,1,0.7,1.1,1.4c0,0.5-0.1,0.9-0.5,1.1s-0.7,0.5-1.1,0.8
	c-0.3,0.2-0.6,0.4-1,0.3c-0.5,0-0.8-0.2-1-0.7c-0.3-1.1-0.4-2.1-0.5-3.2c0-0.2-0.1-0.4-0.1-0.7c0.3,0.2,0.3,0.5,0.3,0.7
	c0.1,0.5,0.3,1,0.6,1.5c0.2,0.3,0.4,0.5,0.7,0c0.2-0.3,0.3-0.6,0.2-0.9c-0.2-1.5-0.1-3-0.1-4.5c0-2,0-4.1-0.9-6.1
	c-0.5,0.5-0.9,0.3-1.4,0c-0.4-0.2-0.7-0.2-1.2-0.2c-1.4,0.1-2.8,0.2-4.1,0.2c-3.3,0.1-6.6,0.3-9.9,0.4c-0.3,0-0.5,0.1-0.7,0.3
	c-2.3,2.4-4.3,4.9-5.8,7.8c-0.2,0.4-0.2,0.6,0.3,0.7c1.2,0.4,2.4,0.4,3.6,0.3c1.6-0.1,3.1-0.5,4.7-0.4c0.4,0,0.8,0.1,1.2,0.1
	c0.6,0.1,0.7,0.5,0.3,1c-0.7,1-1.6,1-2.7,0.8c-1.9-0.3-3.8-0.6-5.7-0.6c-1.1,0-2.1,0.2-3.1,0.6c-0.4,0.2-0.6,0.4-0.4,0.8
	c0.6-0.3,1.1,0,1.6,0.2c0.4,0.1,0.7,0.3,1.1,0.4c0.5,0.2,0.9,0.1,1.2-0.4c0.1-0.3,0.3-0.3,0.5-0.3c2.8,0.3,5.6,0.5,8.4,0.8
	c0.3,0,0.3,0.2,0.3,0.4c-0.1,0.5-0.2,0.9-0.2,1.4c0,0.3-0.2,0.3-0.4,0.2c-1.8-0.6-3.7-1-5.7-1.2c-2.4-0.3-4.7-0.2-7.1-0.2
	c-0.2,0-0.3,0.1-0.4,0.3c-0.3,0.8-0.6,0.9-1.5,0.6c-0.4-0.1-0.7-0.3-1.2-0.4c-0.2,0-0.5,0-0.7,0.1c-0.6,0.4-0.8,0-1-0.4
	c-0.1-0.2-0.3-0.5-0.4-0.7s-0.3-0.3-0.5-0.3c-0.3,0-0.1,0.3-0.2,0.4c-0.2-0.1-0.4-0.3-0.5-0.4s-0.4-0.2-0.3-0.5
	c0.2-0.3,0.4-0.4,0.8-0.4c0.3,0.1,0.5,0.2,0.8,0.2c0.6,0.1,0.7,0,1.1-0.6c-1.5-0.3-3.1-0.4-4.6-0.5c-2.5-0.1-5,0.1-7.5,0.2
	c-0.1,0-0.4-0.1-0.3,0.2c0,0.2,0.2,0.1,0.3,0c1.4-0.1,2.7,0.2,4.1,0.5c0.8,0.2,1.7,0.3,2.5-0.1c0.1-0.1,0.2,0,0.3,0
	c0.8,0.3,1.7,0.7,2.6,1c-0.9,0.2-1.6,0.1-2.4,0.1c-4.3-0.1-8.6-0.1-12.9,0.1c-2.9,0.1-5.7,0.3-8.6,0.7c-0.2,0-0.4,0.1-0.5-0.1
	c-0.8-0.9-1.9-1.2-3-1.5c-0.4-0.1-1,0-1.2-0.5c-0.3-0.7-0.3-1.4,0-2.2c0.3-0.7,1-1.3,1.6-1.8c0.9-0.7,1.8-1.3,2.6-2.3
	c0.1,1.1,0.2,2.1,0.3,3.2c0,0.3,0.1,0.4,0.4,0.4c1.3,0.1,2.5,0.2,3.8,0.3c0.3,0,0.5-0.1,0.6-0.3c3-5.5,6.1-11,9.2-16.5
	c0.2-0.4,0.1-0.5-0.2-0.6c-1-0.4-1.3-1-0.9-1.8c0.1-0.1,0.1-0.3,0.3-0.2c0.5,0.1,0.7-0.2,0.8-0.6c0-0.1,0.1-0.2,0.1-0.3
	c0.2-0.8,0.3-0.8,1.1-0.7C118.9,28.8,120.8,28.7,122.6,27.6C122.5,27.6,122.5,27.6,122.6,27.6z M152.7,24c-0.1,0-0.1,0-0.1,0.1
	l-0.1,0.1c-2.6,2.6-5.2,5.1-7.5,8c-1,1.3-2.1,2.6-2.9,4.1c-0.1,0-0.1,0.1-0.1,0.2c0.1,0,0.1-0.1,0.2-0.1c0.1-0.1,0.2-0.2,0.3-0.3
	c3.7-3.7,6.9-7.9,10.2-11.9C152.7,24.2,152.7,24.1,152.7,24C152.8,24.1,152.9,24,152.7,24C152.8,23.9,152.7,24,152.7,24z
	 M144.7,36.9c0.1,0.1,0.1,0.1,0.1,0.1c3.6,0,7.3,0,10.9,0c0.3,0,0.4-0.1,0.5-0.3c0.2-0.4,0.4-0.9,0.7-1.4c0.2,0.6,0.3,1.1,0.5,1.7
	c1-1.5,0.5-2.9,0.3-4.4c-0.2,0.9-0.3,1.8-0.5,2.7c-0.2-0.1-0.2-0.2-0.2-0.3c-0.1-1.2-0.2-2.4-0.2-3.6c0-1.9,0.1-3.9,0.1-5.8
	c0-1.1-0.1-2.2-0.3-3.3C152.7,27.2,147.9,31.5,144.7,36.9z M133.1,30.4c-0.4,0-0.7-0.1-1.1-0.1c-1.3-0.1-2.6,0-3.9-0.1
	c-0.1,0-0.2,0-0.2,0.1s0.1,0.2,0.1,0.2c0.1,0,0.2,0,0.3,0c1.3,0,2.6,0,4,0C132.6,30.6,132.8,30.6,133.1,30.4z M149.7,38.9
	c1.2,0.1,2.3-0.1,3.5-0.1C152,38.7,150.9,38.6,149.7,38.9z M159.2,38.8c0.3,0.2,0.7,0.3,1.1-0.1C159.9,38.9,159.6,38.8,159.2,38.8z"
	/>
<path class="st0" d="M76.9,50.1c1.7-2.3,3.4-4.5,5-6.8c5.6-7.5,10.9-15.2,16.6-22.7c0.5-0.6,0.9-1.2,1.7-1.5c0.7-0.3,1.1-1,1.6-1.6
	c0.6-0.7,1.2-1.5,2-2c0.3-0.2,0.5-0.2,0.5,0.2c0.1,0.7,0.2,1.4,0,2c-0.2,0.7-0.7,1.2-1.5,1.3c-0.4,0-0.3,0.2-0.3,0.4
	c0.2,0.7,0.2,1.4-0.4,1.9c-0.3,0.3-0.2,0.7-0.2,1.1c-0.1,3.6-0.1,7.3-0.2,10.9c0,3.2-0.1,6.4-0.2,9.6c0,0.2,0,0.4-0.2,0.6
	c-1.1,0.9-2.2,1.9-3.4,2.9c0.3-7.2,0.1-14.4,0.2-21.7c-0.8,1-1.5,1.8-2.2,2.7c-5.1,6.5-9.3,13.6-13.5,20.7c-1.1,1.8-2.2,3.7-3.2,5.6
	c-1.1,2-0.9,1.6-2.5,0.7c-0.4-0.2-0.7-0.4-1.1-0.6c-0.8-0.3-1.2-0.1-1.6,0.6c-0.3,0.6-0.6,0.7-1.4,0.5c-0.6-0.1-0.8-0.5-0.9-1.1
	c-0.1-1.1,0-2.2,0-3.3c0.1-2.9,0.2-5.8,0.3-8.7c0.1-2.5,0.1-4.9,0-7.4c-0.1-1.7-0.3-3.3-0.5-5.1c-0.6,1-1.2,1.9-1.7,2.8
	c-3.3,5.3-6.7,10.7-10,16c-0.2,0.3-1.3,0.6-1.6,0.4c-0.2-0.1,0-0.2,0-0.4c0.2-0.7,0.3-1.3,0.5-2.1c-0.4,0.3-0.6,0.7-0.8,1
	c-0.2,0.4-0.4,0.9-0.8,1.2c-0.2,0.2-0.4,0.3-0.7,0.3c-0.2,0-0.5,0.1-0.6-0.1s0.1-0.3,0.2-0.5c4-6.9,8.5-13.5,12.8-20.1
	c2.5-3.8,5-7.7,7.2-11.6c0.1-0.1,0.2-0.3,0.3-0.4c0.8,0.6,0.9,1.1,0.4,1.9c-0.3,0.5-0.7,0.9-1,1.4c-0.8,1-0.7,1.8,0.3,2.5
	c0.3,0.2,0.2,0.5,0.2,0.7c-0.1,0.6-0.4,1-0.8,1.5c-0.5,0.6-0.6,1.3-0.4,2c0.3,1,0.2,2.1,0.2,3.2c0.1,3.4,0.1,6.8,0.1,10.2
	c0.1,3.5,0.3,7,1.1,10.5C76.8,49.9,76.8,49.9,76.9,50.1z M74,29.2c0,2.8,0,6,0,9.1C74.1,35.2,74.5,32.1,74,29.2z"/>
<path class="st0" d="M2,47.3C2,47.3,1.9,47.3,2,47.3C1.9,47.3,2,47.3,2,47.3L2,47.3z"/>
<path class="st0" d="M62.3,53.3c-0.8-0.9-1.7-1-2.7-0.7c-0.7,0.2-1.3,0.4-2,0.4c-0.6,0-1.1-0.1-1.6-0.5c-0.3-0.3-0.6-0.3-0.9-0.2
	c-2.6,0.4-5.3,0.5-8,0.6C43,53,38.9,53,34.8,53.3c-2.1,0.2-4.2,0.4-6.3,0.9c-0.8,0.2-1.2-0.4-1.6-0.9c-0.3-0.4-0.2-0.8,0.1-1.3
	c0.5-0.8,1.1-0.8,1.9-0.7c0.5,0.1,0.7,0,0.9-0.5c2.7-6.3,5.5-12.6,8.3-18.8c0.2-0.4,0.2-0.6,0-1c-0.4-0.6,0-1.1,0.4-1.5
	c0.8-0.8,1.3-1.7,1.6-2.8c0.1-0.5,0.3-1.1,0.5-1.6c0.2-0.8,0.5-1.6,0.9-2.3c0.9-1.4,2.1-1.1,3.2-0.5c0.2,0.1,0.1,0.3,0.1,0.5
	c-0.1,0.6-0.4,1.1-0.8,1.6c-0.4,0.6-0.9,1.2-1.2,1.9c-0.2,0.4-0.1,0.5,0.3,0.6c2,0.6,4.1,0.7,6.2,0.7c2.7-0.1,5.4-0.4,8.1,0.2
	c0.5,0.1,1,0.3,1.6,0.4c0.3,0.1,0.3,0.2,0.2,0.5c-0.3,0.6-0.8,0.8-1.4,0.8c-0.4,0-0.8,0-1.2,0c-0.4,0-0.9-0.1-1.3,0.2
	c0.3,0.3,0.6,0.2,1,0.3c0.3,0.1,0.6,0.2,0.7,0.5c0.1,0.4-0.3,0.4-0.5,0.5c-1.8,1-3.7,1.2-5.6,0.2c-0.2-0.1-0.3-0.1-0.5-0.1
	c-2.8,0-5.7,0-8.5,0c-0.3,0-0.4,0-0.6,0.3c-1.8,4.6-3.9,9-5.6,13.7c-0.6,1.7-1.2,3.5-1.7,5.2c-0.1,0.5,0.2,0.9,0.7,1
	c3.8,0.5,7.6,0.4,11.4,0.2c2.8-0.2,5.6-0.3,8.3-0.4c2.6-0.1,5.2,0,7.8,0.3c0.2,0,0.5,0.1,0.7,0.1c0.7,0.1,0.8,0.2,0.4,0.8
	C63,52.6,62.7,52.9,62.3,53.3z M46.2,29.2c2.5,0,4.9,0,7.3,0C51.1,28.7,48.6,29,46.2,29.2z"/>
<path class="st0" d="M56.2,19.2c-3.1-0.1-6,0.1-9,0.2c-2.2,0.1-4.5,0.1-6.7-0.1c-0.7-0.1-0.7-0.1-0.5-0.8c0.2-0.8,0.4-1.5,0.6-2.3
	c0.1-0.4,0.2-0.4,0.5-0.4c3,0.5,6.1,0.4,9.1,0.3C52.5,16,54.7,16,57,16c1.4,0,2.8,0.2,4.2,0.4c0.3,0,0.4,0.2,0.3,0.5
	c-0.1,0.8-0.6,1.2-1.5,1.3c-0.6,0-1.1-0.1-1.7,0.1c-0.2,0.1-0.5,0.1-0.6,0.3C57.2,19.3,56.7,19.3,56.2,19.2z"/>
<path class="st0" d="M130,17.5c-2.5,2.2-4.9,4.4-7.3,6.6c-0.2-0.3-0.2-0.6-0.2-0.9c-0.4,0.3-0.6,0.8-0.9,1.1
	c-0.4,0.6-0.7,1.2-1.1,1.7c-0.5,0.7-1.1,1.1-1.9,1.4c0-0.3,0.1-0.4,0.2-0.6c0.8-1.5,1.6-2.9,2.2-4.5c0.3-0.7,0-1.1-0.8-1.1
	c-0.4,0-0.7,0.1-1.1,0.2c-0.2,0-0.5,0.1-0.7,0.1c-0.3,0-0.6-0.1-0.7-0.3c-0.1-0.2,0.1-0.4,0.3-0.6c0.6-0.7,0.9-1.6,1.2-2.4
	c0.1-0.3,0.2-0.4,0.6-0.4c2.5,0.2,5-0.2,7.6-0.3C128.2,17.5,129,17.5,130,17.5z"/>
<path class="st0" d="M133,18.9c0.7-1.1,1.6-1.5,2.8-1.6c1.3-0.1,2.6,0.2,3.9,0.4c0.6,0.1,1.2,0.1,1.9,0.1c0.4,0,0.4,0.1,0.3,0.4
	s-0.4,0.5-0.6,0.8c-0.3,0.3-0.3,0.6,0,0.9c0.2,0.2,0.1,0.3,0,0.5c-1,1.4-2.4,1.6-3.9,1.4c-1.4-0.2-2.8-0.7-4.3-0.8
	c-0.9-0.1-1.8,0-2.6,0.3c0.2-0.9,0.9-1.4,1.8-1.5c0.8,0,1.6,0.1,2.4,0.2c0.7,0.1,1.4,0,2-0.3c0.3-0.1,0.3-0.3,0.1-0.5
	c-0.4-0.3-0.8-0.4-1.2-0.4C134.6,18.8,133.8,19,133,18.9z"/>
<path class="st1" d="M153.5,0.1c-3,2.7-5.9,5.3-8.8,7.9c-0.1,0.1-0.3,0.2-0.5,0.2c-1,0-2,0-3.2,0c0.4-0.3,0.6-0.6,0.9-0.8
	c2.6-2.3,5.2-4.7,7.8-7c0.3-0.2,0.5-0.4,0.9-0.4C151.6,0.1,152.5,0.1,153.5,0.1z"/>
<path class="st0" d="M24.9,55.2c2.6-0.1,5.1-0.3,7.6-0.5c1.8-0.1,3.5-0.3,5.3-0.3c0.1,0,0.3-0.1,0.3,0.1s-0.1,0.2-0.3,0.3
	c-1.4,0.4-2.8,0.6-4.3,0.8c-3,0.4-6,0.7-8.8,1.9c-0.3,0.1-0.6,0.2-0.9,0.4c-0.6,0.3-0.9,0.2-1.3-0.4C22,56.9,22,56.4,22.4,56
	s0.9-0.6,1.5-0.7C24.3,55.2,24.7,55.2,24.9,55.2z"/>
<path class="st0" d="M25.1,50.3c0,0.3,0.1,0.6-0.2,0.7c-0.3,0.2-0.6,0-0.9-0.2c-0.7-0.5-1-1.4-0.8-2c0.2-0.4,0.5-0.7,1-0.7
	s0.6,0.4,0.7,0.8C24.9,49.4,25.2,49.8,25.1,50.3z"/>
<path class="st0" d="M157.1,45.6c0,0.7,0,1.5,0,2.2H157c0-0.7,0-1.5,0-2.2C157,45.6,157,45.6,157.1,45.6z"/>
<path class="st2" d="M38.9,54.2c0.6,0,1.2,0,1.8,0v0.1c-0.6,0-1.2,0-1.8,0C38.9,54.2,38.9,54.2,38.9,54.2z"/>
<path class="st0" d="M122.5,27.6C122.5,27.5,122.5,27.4,122.5,27.6C122.6,27.5,122.6,27.6,122.5,27.6L122.5,27.6z"/>
<path class="st0" d="M2,47.3H1.9C1.9,47.3,1.9,47.3,2,47.3C1.9,47.3,1.9,47.3,2,47.3L2,47.3z"/>
<path class="st1" d="M89.2,65.9c0-0.1,0.1-0.1,0.1-0.2C89.3,65.8,89.3,65.9,89.2,65.9L89.2,65.9z"/>
<path class="st1" d="M89.9,66.9c0,0.1-0.1,0.1-0.1,0.2c-0.1-0.1,0-0.2,0-0.3C89.9,66.8,89.9,66.9,89.9,66.9z"/>
<path class="st1" d="M82.6,65.2c0.1,0,0.3-0.1,0.4,0.2c0,0.3-0.5,0.7-0.9,0.7c-0.1,0-0.5,0.1-0.3-0.2C81.9,65.6,81.9,65.1,82.6,65.2
	z"/>
<path class="st1" d="M117.7,67.2c0.2-0.7,0.5-1.6,1.3-2.1c0.2-0.2,0.6-0.3,0.8-0.1c0.2,0.2,0.2,0.5,0.1,0.7c-0.3,0.8-0.6,1.6-1.4,2
	C118.1,68.1,117.7,67.8,117.7,67.2z"/>
<path class="st1" d="M75.4,65.7c-0.2,0.8-0.5,1.7-1.4,2.2c-0.2,0.1-0.5,0.2-0.7,0s-0.2-0.4-0.1-0.7c0.2-0.6,0.5-1.2,0.9-1.7
	c0.2-0.2,0.4-0.4,0.7-0.4C75.3,65.1,75.4,65.2,75.4,65.7z"/>
<path class="st1" d="M48.2,67.1c0.4-0.5,0.7-0.9,1.1-1.4C49.3,67,49.2,67.1,48.2,67.1z"/>
<path class="st1" d="M97.7,66.9c0.4-0.5,0.7-0.9,1-1.4C98.8,66.7,98.6,67,97.7,66.9z"/>
<path class="st0" d="M34.3,23.4c-0.2-0.1-0.4,0.1-0.6,0.2c-0.3,0.2-0.6,0.5-0.7,0.8c-0.1,0.3-0.2,0.7-0.4,1c-0.1,0.4-0.3,0.7-0.6,1
	c-0.1,0.1-0.2,0.2-0.3,0.1s-0.1-0.2-0.1-0.3c-0.1-0.4,0.1-0.8,0.3-1.2c0.3-0.8,0.2-1.4-0.3-2c-0.7-0.8-1.5-1.6-2.4-2.1
	c-4.4-2.5-9.1-2.7-13.6-0.6c-5.3,2.4-9.5,6.2-12.4,11.2C1,35.1-0.2,39,0,43.3c0,0.8,0,1.6,0,2.4c0,0.5,0.1,1,0.2,1.4
	c0.7,2.4,2.2,4.3,4,5.9c1,0.8,2,1.7,3.3,2c2.1,0.6,4.3,0.8,6.5,0.6c3.1-0.3,6-1.2,8.5-3.1c0.5-0.3,0.5-0.7,0.3-1.1
	c-0.3-0.6-0.6-1.2-0.8-1.8c-0.3-0.8-0.1-1.3,0.7-1.7c0.6-0.3,0.9-1.1,0.5-1.7C23.1,46,23,46,22.8,46c-0.6,0-1.1,0.3-1.5,0.8
	c-0.6,0.7-1.2,1.3-2,1.8c-1.5,1-2.8,2.1-4.4,2.9c-1.3,0.7-2.7,1.1-4.1,0.7c-2.6-0.7-4.7-2.1-6.1-4.4c-0.9-1.5-1.5-3.1-1.3-4.9
	c0.5-3.9,2.1-7.4,5.1-10c0.3-0.3,0.2-0.5,0-0.7c-0.3-0.3-0.7-0.2-1,0S7,32.7,6.7,33c-0.2,0.2-0.4,0.3-0.7,0.2
	c0.1-0.3,0.3-0.5,0.4-0.8c2.2-3.5,5.3-6,8.9-7.8c2.9-1.4,6-2.2,9.3-1.4c2,0.5,3.9,1.2,5.5,2.7c0.2,0.2,0.4,0.3,0.4,0.7
	c-0.1,0.4,0.1,0.8,0.4,1c0.5,0.4,0.7,0.8,0.3,1.5c1.9-1.2,2.9-3,3.2-5.1C34.4,23.8,34.5,23.5,34.3,23.4z M19.8,50.5
	c0.1,1.1-1.1,1.9-2.7,1.8C17.8,51.4,18.9,51.1,19.8,50.5z M7.4,52.8c0.4,0.3,0.8,0.5,1.4,0.9c-0.9,0-1.6-0.3-2.3-0.6
	c-2.4-1.2-3.8-3.2-4.6-5.6l0,0H1.8l0,0c0,0,0.1,0,0.1,0.1l0,0l0,0l0,0C3.5,49.4,5.2,51.3,7.4,52.8z M25.1,21.1
	c0.7,0.3,1.5,0.6,2.2,0.8C26.4,22,25.5,22.2,25.1,21.1z"/>
</svg>
