<?xml version="1.0" encoding="utf-8"?>
<!-- Generator: Adobe Illustrator 21.1.0, SVG Export Plug-In . SVG Version: 6.00 Build 0)  -->
<svg version="1.1" id="Calque_1" xmlns="http://www.w3.org/2000/svg" xmlns:xlink="http://www.w3.org/1999/xlink" x="0px" y="0px"
	 viewBox="0 0 595.3 841.9" style="enable-background:new 0 0 595.3 841.9;" xml:space="preserve">
<style type="text/css">
	.st0{fill:#010101;}
	.st1{fill:#E72830;}
	.st2{fill:#3C59A4;}
</style>
<rect x="237.1" y="459.3" class="st0" width="107.3" height="6.4"/>
<path class="st1" d="M233.6,466.2c1.1-2.3,2.1-4.5,3.2-6.7c0.1-0.2,0.2-0.3,0.4-0.2c0.2,0,0.5,0,0.7,0c36.3,0,72.6,0,108.8,0
	c0.7,0,0.7,0,0.4,0.7c-0.9,1.9-1.8,3.8-2.7,5.7c-0.2,0.4-0.4,0.6-0.9,0.6c-36.3,0-72.6,0-108.9,0C234.3,466.2,234,466.2,233.6,466.2
	z M303.5,462.3C303.5,462.3,303.5,462.3,303.5,462.3c-0.1,0.8-0.2,1.5-0.3,2.2c0,0.1-0.2,0.4,0.1,0.4c0.2,0.1,0.5,0.1,0.6-0.1
	c0.1-0.1,0.2-0.3,0.3-0.4c0.5-0.7,1-1.3,1.5-2c0,0,0.1,0,0.1,0.1c-0.4,0.8-0.7,1.6-1.1,2.4c0.5,0.1,0.8,0,1-0.5
	c0.5-1.2,1.1-2.4,1.6-3.6c-0.8-0.2-1.4-0.1-1.8,0.7c-0.3,0.6-0.8,1.2-1.3,1.7c0,0-0.1-0.1-0.1-0.1c0.1-0.6,0.3-1.2,0.4-1.9
	c0-0.2,0.1-0.4,0-0.5c-0.2-0.2-1.2,0-1.3,0.3c-0.5,1.1-1,2.3-1.6,3.4c-0.2,0.5,0,0.5,0.4,0.5c0.3,0,0.3-0.2,0.4-0.4
	C302.8,463.8,303,463,303.5,462.3z M338.6,464.8c0.6,0.2,0.8,0,1-0.5c0.3-0.8,0.7-1.6,1.1-2.4c0.1,0.8,0,1.6,0,2.4
	c0,0.2-0.2,0.6,0.2,0.6c0.4,0,0.8,0.2,1-0.3c0.5-1.1,1-2.2,1.5-3.4c0.1-0.1,0.3-0.3,0.1-0.4c-0.2-0.1-0.5-0.1-0.7,0.1
	c-0.1,0.1-0.1,0.2-0.1,0.3c-0.4,0.8-0.7,1.6-1.1,2.4c-0.1-0.8,0-1.5,0-2.3c0-0.2,0.2-0.6-0.2-0.6c-0.3,0-0.8-0.3-1,0.2
	C339.7,462.2,339.2,463.5,338.6,464.8z M270.6,462.1c0,0.9,0,1.6,0,2.3c0,0.8-0.1,0.8,0.7,0.8c0.3,0,0.5-0.1,0.6-0.4
	c0.2-0.5,0.4-1,0.7-1.5c0.3-0.7,0.7-1.5,1-2.2c-0.6-0.2-0.8,0-1,0.5c-0.3,0.7-0.6,1.4-1,2.2c0-0.8,0-1.5,0-2.3
	c0-0.2,0.1-0.4-0.1-0.5c-0.3-0.2-1.1,0-1.3,0.4c-0.5,1.1-1,2.2-1.5,3.3c-0.1,0.1-0.3,0.4,0,0.5c0.2,0.1,0.5,0.1,0.7-0.2
	c0.1-0.1,0.1-0.3,0.2-0.4C269.9,463.7,270.2,462.9,270.6,462.1z M294,464.9c0.6,0.2,0.9,0,1.1-0.5c0.1-0.3,0.3-0.5,0.3-0.7
	c0.2-0.5,0.6-0.4,0.9-0.3c0.3,0.1,0,0.4,0,0.6c0,0.2-0.1,0.4-0.2,0.5c0,0.1-0.3,0.4,0,0.4c0.2,0,0.7,0.2,0.7-0.1
	c0.1-0.6,0.5-1.1,0.4-1.7c0-0.3,0-0.3,0.2-0.4c0.4-0.3,0.7-0.7,0.8-1.2c0-0.3,0-0.6-0.3-0.6c-0.6-0.2-1.3-0.1-1.9-0.1
	c-0.1,0-0.2,0.1-0.2,0.2C295.2,462.4,294.6,463.6,294,464.9z M332.3,465c0.1,0,0.2,0,0.4-0.1c1.2-0.4,2.5-2.1,2.5-3.3
	c0-0.6-0.3-0.9-1-0.9c-0.6,0-1.1,0.1-1.6,0.5c-0.8,0.7-1.3,1.5-1.5,2.6C331,464.5,331.4,465,332.3,465z M289.6,460.8
	c-1.3,0-2.7,1.4-2.9,3c-0.2,1.1,0.4,1.6,1.5,1.3c1.2-0.3,2.5-1.9,2.5-3.2C290.6,461.1,290.3,460.8,289.6,460.8z M248,465.1
	c0.3,0,0.7,0,1,0c0.4,0,0.4-0.4,0.5-0.6c0-0.3-0.3-0.1-0.4-0.2c-0.1,0-0.2,0-0.3,0c-0.2,0-0.5,0.1-0.7-0.1c-0.1-0.2,0.1-0.5,0.2-0.7
	c0.1-0.2,0.2-0.3,0.5-0.3c0.3,0,0.6,0,0.9,0c0.4,0,0.4-0.4,0.4-0.6c0-0.3-0.3-0.1-0.4-0.2c-0.2,0-0.4,0-0.6,0
	c-0.3,0-0.3-0.1-0.2-0.3c0.1-0.4,0.3-0.6,0.8-0.5c0.3,0,0.5,0,0.8,0c0.4,0,0.5-0.4,0.5-0.6c0-0.3-0.3-0.2-0.5-0.2
	c-0.5,0-0.9,0-1.4,0c-0.3,0-0.5,0.1-0.6,0.4c-0.4,0.9-0.8,1.7-1.2,2.6C246.7,465.1,246.7,465.1,248,465.1z M260.5,465
	c0.5,0.1,0.8,0.1,1-0.3c0.3-0.6,0.8-0.6,1.3-0.6c0.3,0,0.5,0.1,0.3,0.4c-0.2,0.4,0,0.5,0.4,0.5c0.5,0,0.4-0.4,0.4-0.6
	c0.2-1,0.3-2,0.5-3c0-0.2,0.2-0.5-0.1-0.6c-0.3-0.1-0.7-0.2-0.9,0.1C262.5,462.4,261.6,463.7,260.5,465z M312,464.1
	c0.4-0.1,0.8,0,0.6,0.5c-0.1,0.2,0,0.4,0.3,0.4c0.2,0,0.5,0.1,0.5-0.3c0.2-1.2,0.4-2.4,0.6-3.6c0-0.2,0-0.3-0.3-0.4
	c-0.4,0-0.7,0.1-0.9,0.4c-0.8,1.1-1.6,2.2-2.4,3.3c-0.1,0.1-0.4,0.3-0.2,0.5c0.2,0.1,0.5,0.1,0.7-0.1c0.1-0.1,0.2-0.2,0.2-0.3
	C311.3,464.2,311.6,464,312,464.1z M281.2,462.5c0.3-0.9,0.3-0.9,1.1-0.9c0.2,0,0.3,0,0.5,0c0.4,0,0.4-0.4,0.4-0.6
	c0-0.3-0.3-0.2-0.4-0.2c-0.4,0-0.9,0-1.3,0c-0.3,0-0.5,0.1-0.6,0.4c-0.5,1.1-1,2.2-1.5,3.3c-0.1,0.1-0.3,0.4,0,0.5
	c0.2,0.1,0.5,0.2,0.7-0.2c0.1-0.3,0.3-0.5,0.4-0.8c0.2-0.6,0.5-0.9,1.1-0.7c0.6,0.1,0.8-0.2,0.9-0.8
	C282.1,462.5,281.7,462.5,281.2,462.5z M318.7,464.8c0.6,0.2,0.9,0.1,1-0.5c0.2-0.6,0.5-1.2,0.8-1.8c0.3-0.6,0.4-1.3,1.3-1.1
	c0.3,0.1,0.4-0.3,0.4-0.5c0-0.2-0.3-0.1-0.4-0.1c-0.6,0-1.2,0-1.8,0c-0.5,0-0.8,0.2-0.8,0.7c0.3,0,0.6,0,0.9,0.1
	C319.7,462.7,319.2,463.8,318.7,464.8z M255.1,464.3c0.5-1,0.9-2,1.3-2.9c0.1-0.1,0.3-0.4,0-0.5c-0.2-0.1-0.6-0.2-0.7,0.1
	c-0.6,1.2-1.1,2.5-1.7,3.8c-0.1,0.2,0,0.3,0.2,0.3c0.6,0,1.2,0,1.8,0c0.4,0,0.4-0.3,0.4-0.6c0.1-0.3-0.3-0.2-0.4-0.2
	C255.8,464.3,255.5,464.3,255.1,464.3z M237.3,465.1c0.6,0,1.2,0,1.7,0c0.5,0.1,0.8-0.2,0.8-0.7c-0.5,0-0.9,0-1.4,0
	c0.5-1,0.9-2,1.3-3c0.1-0.1,0.3-0.4,0.1-0.5c-0.2-0.1-0.6-0.2-0.8,0.2C238.5,462.4,237.9,463.7,237.3,465.1z M327.3,460.7
	c-0.3,0-0.4,0-0.6,0.3c-0.5,1.2-1,2.3-1.6,3.5c-0.1,0.1-0.2,0.3,0.1,0.3c0.3,0,0.6,0.1,0.7-0.3c0.5-1.2,1.1-2.4,1.6-3.6
	C327.7,460.8,327.7,460.7,327.3,460.7z M243,462.5c0.2,0.1,0.3-0.1,0.4-0.3c0.1-0.3,0.3-0.5,0.3-0.8c0.1-0.2,0.3-0.4,0-0.5
	c-0.2-0.1-0.5-0.1-0.7,0.2c-0.1,0.3-0.3,0.6-0.4,0.9C242.5,462.5,242.6,462.5,243,462.5z"/>
<path class="st0" d="M336.9,424c-0.1,0.1-0.1,0.2-0.2,0.3c-0.2,0.3-0.2,0.6,0.3,0.6c1.6,0.2,3.2,0.2,4.8,0.1
	c2.7-0.1,5.5-0.3,8.2-0.1c0.5,0,0.7,0.2,0.6,0.7c-0.1,0.8-0.6,1.3-1.1,1.8c-0.6,0.5-1.2,0.9-1.8,1.4c-0.1,0.1-0.3,0.1-0.4,0.1
	c-4-0.6-8.1-0.7-12.1-0.6c-0.3,0-0.6,0.1-0.8,0.4c-0.2,0.3-0.5,0.5-0.8,0.9c0-0.2,0-0.3,0-0.4c-0.1-0.5-0.4-0.7-0.8-0.8
	c-0.4-0.1-0.6,0.3-0.8,0.6c-2.3,4.8-4.2,9.8-6.1,14.7c-0.2,0.6-0.5,1.3-0.7,1.9c1.1,0.1,2.2,0.2,3.3,0.4c2.2,0.2,4.3,0.6,6.5,0.5
	c0.9,0,1.8,0,2.7-0.2c0.1,0,0.2,0,0.3,0c1.6,0.5,3.1,0.1,4.6-0.1c0,0,0.1,0,0.1,0c1.3,0.2,1.9-0.6,2.6-1.6c1.4-2.1,2.9-4.2,4.4-6.2
	c0.2-0.2,0.2-0.4,0-0.6c-0.4-0.6-0.4-1.1,0.1-1.8c0.5-0.6,1.3-1.1,1.4-2c0-0.2,0.2-0.2,0.3-0.2c1.7-0.2,2.8-1.1,3.8-2.4
	c4.3-5.3,8.9-10.4,13.6-15.2c0.6-0.6,1.3-1.2,2-1.9c0.2,0.1,0,0.5,0.2,0.7c0.1,0.1-0.1,0.4,0.2,0.4c0.3,0,0.4-0.2,0.4-0.5
	c0-0.2,0-0.4,0-0.6c-0.1-0.5,0.2-0.8,0.7-0.8c1,0,2,0.1,2.9,0.6c0.8,0.4,1,1,0.7,1.9c-1,3-1.6,6.1-2,9.3c-0.3,2.6-0.6,5.2-0.9,7.8
	c0,0.4,0.1,0.4,0.4,0.4c3,0.3,6,0.2,9,0.2c1,0,2,0.1,3,0.2c0.3,0,0.4,0.2,0.3,0.4c-0.3,0.7-0.9,0.9-1.5,1c-0.2,0-0.5,0-0.8,0
	c-1.1,0.1-1.8,0.2-1.8,1.9c-1-0.4-2-0.6-3-0.7c-1.8-0.1-3.6,0.2-5.3,0.4c-0.4,0-0.2,0.3-0.2,0.5c0.1,1.7,0.2,3.4,0.4,5.1
	c0.1,1.3,0.2,2.7,0.3,4c0,0.3,0.1,0.5,0.5,0.6c0.6,0.2,1,0.7,1.1,1.4c0,0.5-0.1,0.9-0.5,1.1c-0.4,0.2-0.7,0.5-1.1,0.8
	c-0.3,0.2-0.6,0.4-1,0.3c-0.5,0-0.8-0.2-1-0.7c-0.3-1.1-0.4-2.1-0.5-3.2c0-0.2-0.1-0.4-0.1-0.7c0.3,0.2,0.3,0.5,0.3,0.7
	c0.1,0.5,0.3,1,0.6,1.5c0.2,0.3,0.4,0.5,0.7,0c0.2-0.3,0.3-0.6,0.2-0.9c-0.2-1.5-0.1-3-0.1-4.5c0-2,0-4.1-0.9-6.1
	c-0.5,0.5-0.9,0.3-1.4,0c-0.4-0.2-0.7-0.2-1.2-0.2c-1.4,0.1-2.8,0.2-4.1,0.2c-3.3,0.1-6.6,0.3-9.9,0.4c-0.3,0-0.5,0.1-0.7,0.3
	c-2.3,2.4-4.3,4.9-5.8,7.8c-0.2,0.4-0.2,0.6,0.3,0.7c1.2,0.4,2.4,0.4,3.6,0.3c1.6-0.1,3.1-0.5,4.7-0.4c0.4,0,0.8,0.1,1.2,0.1
	c0.6,0.1,0.7,0.5,0.3,1c-0.7,1-1.6,1-2.7,0.8c-1.9-0.3-3.8-0.6-5.7-0.6c-1.1,0-2.1,0.2-3.1,0.6c-0.4,0.2-0.6,0.4-0.4,0.8
	c0.6-0.3,1.1,0,1.6,0.2c0.4,0.1,0.7,0.3,1.1,0.4c0.5,0.2,0.9,0.1,1.2-0.4c0.1-0.3,0.3-0.3,0.5-0.3c2.8,0.3,5.6,0.5,8.4,0.8
	c0.3,0,0.3,0.2,0.3,0.4c-0.1,0.5-0.2,0.9-0.2,1.4c0,0.3-0.2,0.3-0.4,0.2c-1.8-0.6-3.7-1-5.7-1.2c-2.4-0.3-4.7-0.2-7.1-0.2
	c-0.2,0-0.3,0.1-0.4,0.3c-0.3,0.8-0.6,0.9-1.5,0.6c-0.4-0.1-0.7-0.3-1.2-0.4c-0.2,0-0.5,0-0.7,0.1c-0.6,0.4-0.8,0-1-0.4
	c-0.1-0.2-0.3-0.5-0.4-0.7c-0.1-0.2-0.3-0.3-0.5-0.3c-0.3,0-0.1,0.3-0.2,0.4c-0.2-0.1-0.4-0.3-0.5-0.4c-0.1-0.1-0.4-0.2-0.3-0.5
	c0.2-0.3,0.4-0.4,0.8-0.4c0.3,0.1,0.5,0.2,0.8,0.2c0.6,0.1,0.7,0,1.1-0.6c-1.5-0.3-3.1-0.4-4.6-0.5c-2.5-0.1-5,0.1-7.5,0.2
	c-0.1,0-0.4-0.1-0.3,0.2c0,0.2,0.2,0.1,0.3,0c1.4-0.1,2.7,0.2,4.1,0.5c0.8,0.2,1.7,0.3,2.5-0.1c0.1-0.1,0.2,0,0.3,0
	c0.8,0.3,1.7,0.7,2.6,1c-0.9,0.2-1.6,0.1-2.4,0.1c-4.3-0.1-8.6-0.1-12.9,0.1c-2.9,0.1-5.7,0.3-8.6,0.7c-0.2,0-0.4,0.1-0.5-0.1
	c-0.8-0.9-1.9-1.2-3-1.5c-0.4-0.1-1,0-1.2-0.5c-0.3-0.7-0.3-1.4,0-2.2c0.3-0.7,1-1.3,1.6-1.8c0.9-0.7,1.8-1.3,2.6-2.3
	c0.1,1.1,0.2,2.1,0.3,3.2c0,0.3,0.1,0.4,0.4,0.4c1.3,0.1,2.5,0.2,3.8,0.3c0.3,0,0.5-0.1,0.6-0.3c3-5.5,6.1-11,9.2-16.5
	c0.2-0.4,0.1-0.5-0.2-0.6c-1-0.4-1.3-1-0.9-1.8c0.1-0.1,0.1-0.3,0.3-0.2c0.5,0.1,0.7-0.2,0.8-0.6c0-0.1,0.1-0.2,0.1-0.3
	c0.2-0.8,0.3-0.8,1.1-0.7C333.2,425.2,335.1,425.1,336.9,424C336.8,424,336.8,424,336.9,424z M367,420.4c-0.1,0-0.1,0-0.1,0.1
	c0,0-0.1,0.1-0.1,0.1c-2.6,2.6-5.2,5.1-7.5,8c-1,1.3-2.1,2.6-2.9,4.1c-0.1,0-0.1,0.1-0.1,0.2c0.1,0,0.1-0.1,0.2-0.1
	c0.1-0.1,0.2-0.2,0.3-0.3c3.7-3.7,6.9-7.9,10.2-11.9C367,420.6,367,420.5,367,420.4C367.1,420.5,367.2,420.4,367,420.4
	C367.1,420.3,367,420.4,367,420.4z M359,433.3c0.1,0.1,0.1,0.1,0.1,0.1c3.6,0,7.3,0,10.9,0c0.3,0,0.4-0.1,0.5-0.3
	c0.2-0.4,0.4-0.9,0.7-1.4c0.2,0.6,0.3,1.1,0.5,1.7c1-1.5,0.5-2.9,0.3-4.4c-0.2,0.9-0.3,1.8-0.5,2.7c-0.2-0.1-0.2-0.2-0.2-0.3
	c-0.1-1.2-0.2-2.4-0.2-3.6c0-1.9,0.1-3.9,0.1-5.8c0-1.1-0.1-2.2-0.3-3.3C367,423.6,362.2,427.9,359,433.3z M347.4,426.8
	c-0.4,0-0.7-0.1-1.1-0.1c-1.3-0.1-2.6,0-3.9-0.1c-0.1,0-0.2,0-0.2,0.1c0,0.1,0.1,0.2,0.1,0.2c0.1,0,0.2,0,0.3,0c1.3,0,2.6,0,4,0
	C346.9,427,347.1,427,347.4,426.8z M364,435.3c1.2,0.1,2.3-0.1,3.5-0.1C366.3,435.1,365.2,435,364,435.3z M373.5,435.2
	c0.3,0.2,0.7,0.3,1.1-0.1C374.2,435.3,373.9,435.2,373.5,435.2z"/>
<path class="st0" d="M291.2,446.5c1.7-2.3,3.4-4.5,5-6.8c5.6-7.5,10.9-15.2,16.6-22.7c0.5-0.6,0.9-1.2,1.7-1.5
	c0.7-0.3,1.1-1,1.6-1.6c0.6-0.7,1.2-1.5,2-2c0.3-0.2,0.5-0.2,0.5,0.2c0.1,0.7,0.2,1.4,0,2c-0.2,0.7-0.7,1.2-1.5,1.3
	c-0.4,0-0.3,0.2-0.3,0.4c0.2,0.7,0.2,1.4-0.4,1.9c-0.3,0.3-0.2,0.7-0.2,1.1c-0.1,3.6-0.1,7.3-0.2,10.9c0,3.2-0.1,6.4-0.2,9.6
	c0,0.2,0,0.4-0.2,0.6c-1.1,0.9-2.2,1.9-3.4,2.9c0.3-7.2,0.1-14.4,0.2-21.7c-0.8,1-1.5,1.8-2.2,2.7c-5.1,6.5-9.3,13.6-13.5,20.7
	c-1.1,1.8-2.2,3.7-3.2,5.6c-1.1,2-0.9,1.6-2.5,0.7c-0.4-0.2-0.7-0.4-1.1-0.6c-0.8-0.3-1.2-0.1-1.6,0.6c-0.3,0.6-0.6,0.7-1.4,0.5
	c-0.6-0.1-0.8-0.5-0.9-1.1c-0.1-1.1,0-2.2,0-3.3c0.1-2.9,0.2-5.8,0.3-8.7c0.1-2.5,0.1-4.9,0-7.4c-0.1-1.7-0.3-3.3-0.5-5.1
	c-0.6,1-1.2,1.9-1.7,2.8c-3.3,5.3-6.7,10.7-10,16c-0.2,0.3-1.3,0.6-1.6,0.4c-0.2-0.1,0-0.2,0-0.4c0.2-0.7,0.3-1.3,0.5-2.1
	c-0.4,0.3-0.6,0.7-0.8,1c-0.2,0.4-0.4,0.9-0.8,1.2c-0.2,0.2-0.4,0.3-0.7,0.3c-0.2,0-0.5,0.1-0.6-0.1c-0.1-0.2,0.1-0.3,0.2-0.5
	c4-6.9,8.5-13.5,12.8-20.1c2.5-3.8,5-7.7,7.2-11.6c0.1-0.1,0.2-0.3,0.3-0.4c0.8,0.6,0.9,1.1,0.4,1.9c-0.3,0.5-0.7,0.9-1,1.4
	c-0.8,1-0.7,1.8,0.3,2.5c0.3,0.2,0.2,0.5,0.2,0.7c-0.1,0.6-0.4,1-0.8,1.5c-0.5,0.6-0.6,1.3-0.4,2c0.3,1,0.2,2.1,0.2,3.2
	c0.1,3.4,0.1,6.8,0.1,10.2c0.1,3.5,0.3,7,1.1,10.5C291.1,446.3,291.1,446.3,291.2,446.5z M288.3,425.6c0,2.8,0,6,0,9.1
	C288.4,431.6,288.8,428.5,288.3,425.6z"/>
<path class="st0" d="M216.3,443.7C216.3,443.7,216.2,443.7,216.3,443.7C216.2,443.7,216.3,443.7,216.3,443.7L216.3,443.7z"/>
<path class="st0" d="M276.6,449.7c-0.8-0.9-1.7-1-2.7-0.7c-0.7,0.2-1.3,0.4-2,0.4c-0.6,0-1.1-0.1-1.6-0.5c-0.3-0.3-0.6-0.3-0.9-0.2
	c-2.6,0.4-5.3,0.5-8,0.6c-4.1,0.1-8.2,0.1-12.3,0.4c-2.1,0.2-4.2,0.4-6.3,0.9c-0.8,0.2-1.2-0.4-1.6-0.9c-0.3-0.4-0.2-0.8,0.1-1.3
	c0.5-0.8,1.1-0.8,1.9-0.7c0.5,0.1,0.7,0,0.9-0.5c2.7-6.3,5.5-12.6,8.3-18.8c0.2-0.4,0.2-0.6,0-1c-0.4-0.6,0-1.1,0.4-1.5
	c0.8-0.8,1.3-1.7,1.6-2.8c0.1-0.5,0.3-1.1,0.5-1.6c0.2-0.8,0.5-1.6,0.9-2.3c0.9-1.4,2.1-1.1,3.2-0.5c0.2,0.1,0.1,0.3,0.1,0.5
	c-0.1,0.6-0.4,1.1-0.8,1.6c-0.4,0.6-0.9,1.2-1.2,1.9c-0.2,0.4-0.1,0.5,0.3,0.6c2,0.6,4.1,0.7,6.2,0.7c2.7-0.1,5.4-0.4,8.1,0.2
	c0.5,0.1,1,0.3,1.6,0.4c0.3,0.1,0.3,0.2,0.2,0.5c-0.3,0.6-0.8,0.8-1.4,0.8c-0.4,0-0.8,0-1.2,0c-0.4,0-0.9-0.1-1.3,0.2
	c0.3,0.3,0.6,0.2,1,0.3c0.3,0.1,0.6,0.2,0.7,0.5c0.1,0.4-0.3,0.4-0.5,0.5c-1.8,1-3.7,1.2-5.6,0.2c-0.2-0.1-0.3-0.1-0.5-0.1
	c-2.8,0-5.7,0-8.5,0c-0.3,0-0.4,0-0.6,0.3c-1.8,4.6-3.9,9-5.6,13.7c-0.6,1.7-1.2,3.5-1.7,5.2c-0.1,0.5,0.2,0.9,0.7,1
	c3.8,0.5,7.6,0.4,11.4,0.2c2.8-0.2,5.6-0.3,8.3-0.4c2.6-0.1,5.2,0,7.8,0.3c0.2,0,0.5,0.1,0.7,0.1c0.7,0.1,0.8,0.2,0.4,0.8
	C277.3,449,277,449.3,276.6,449.7z M260.5,425.6c2.5,0,4.9,0,7.3,0C265.4,425.1,262.9,425.4,260.5,425.6z"/>
<path class="st0" d="M270.5,415.6c-3.1-0.1-6,0.1-9,0.2c-2.2,0.1-4.5,0.1-6.7-0.1c-0.7-0.1-0.7-0.1-0.5-0.8c0.2-0.8,0.4-1.5,0.6-2.3
	c0.1-0.4,0.2-0.4,0.5-0.4c3,0.5,6.1,0.4,9.1,0.3c2.3-0.1,4.5-0.1,6.8-0.1c1.4,0,2.8,0.2,4.2,0.4c0.3,0,0.4,0.2,0.3,0.5
	c-0.1,0.8-0.6,1.2-1.5,1.3c-0.6,0-1.1-0.1-1.7,0.1c-0.2,0.1-0.5,0.1-0.6,0.3C271.5,415.7,271,415.7,270.5,415.6z"/>
<path class="st0" d="M344.3,413.9c-2.5,2.2-4.9,4.4-7.3,6.6c-0.2-0.3-0.2-0.6-0.2-0.9c-0.4,0.3-0.6,0.8-0.9,1.1
	c-0.4,0.6-0.7,1.2-1.1,1.7c-0.5,0.7-1.1,1.1-1.9,1.4c0-0.3,0.1-0.4,0.2-0.6c0.8-1.5,1.6-2.9,2.2-4.5c0.3-0.7,0-1.1-0.8-1.1
	c-0.4,0-0.7,0.1-1.1,0.2c-0.2,0-0.5,0.1-0.7,0.1c-0.3,0-0.6-0.1-0.7-0.3c-0.1-0.2,0.1-0.4,0.3-0.6c0.6-0.7,0.9-1.6,1.2-2.4
	c0.1-0.3,0.2-0.4,0.6-0.4c2.5,0.2,5-0.2,7.6-0.3C342.5,413.9,343.3,413.9,344.3,413.9z"/>
<path class="st0" d="M347.3,415.3c0.7-1.1,1.6-1.5,2.8-1.6c1.3-0.1,2.6,0.2,3.9,0.4c0.6,0.1,1.2,0.1,1.9,0.1c0.4,0,0.4,0.1,0.3,0.4
	c-0.1,0.3-0.4,0.5-0.6,0.8c-0.3,0.3-0.3,0.6,0,0.9c0.2,0.2,0.1,0.3,0,0.5c-1,1.4-2.4,1.6-3.9,1.4c-1.4-0.2-2.8-0.7-4.3-0.8
	c-0.9-0.1-1.8,0-2.6,0.3c0.2-0.9,0.9-1.4,1.8-1.5c0.8,0,1.6,0.1,2.4,0.2c0.7,0.1,1.4,0,2-0.3c0.3-0.1,0.3-0.3,0.1-0.5
	c-0.4-0.3-0.8-0.4-1.2-0.4C348.9,415.2,348.1,415.4,347.3,415.3z"/>
<path class="st1" d="M367.8,396.5c-3,2.7-5.9,5.3-8.8,7.9c-0.1,0.1-0.3,0.2-0.5,0.2c-1,0-2,0-3.2,0c0.4-0.3,0.6-0.6,0.9-0.8
	c2.6-2.3,5.2-4.7,7.8-7c0.3-0.2,0.5-0.4,0.9-0.4C365.9,396.5,366.8,396.5,367.8,396.5z"/>
<path class="st0" d="M239.2,451.6c2.6-0.1,5.1-0.3,7.6-0.5c1.8-0.1,3.5-0.3,5.3-0.3c0.1,0,0.3-0.1,0.3,0.1c0,0.2-0.1,0.2-0.3,0.3
	c-1.4,0.4-2.8,0.6-4.3,0.8c-3,0.4-6,0.7-8.8,1.9c-0.3,0.1-0.6,0.2-0.9,0.4c-0.6,0.3-0.9,0.2-1.3-0.4c-0.5-0.6-0.5-1.1-0.1-1.5
	c0.4-0.4,0.9-0.6,1.5-0.7C238.6,451.6,239,451.6,239.2,451.6z"/>
<path class="st0" d="M239.4,446.7c0,0.3,0.1,0.6-0.2,0.7c-0.3,0.2-0.6,0-0.9-0.2c-0.7-0.5-1-1.4-0.8-2c0.2-0.4,0.5-0.7,1-0.7
	c0.5,0,0.6,0.4,0.7,0.8C239.2,445.8,239.5,446.2,239.4,446.7z"/>
<path class="st0" d="M371.4,442c0,0.7,0,1.5,0,2.2c0,0-0.1,0-0.1,0c0-0.7,0-1.5,0-2.2C371.3,442,371.3,442,371.4,442z"/>
<path class="st2" d="M253.2,450.6c0.6,0,1.2,0,1.8,0c0,0,0,0.1,0,0.1c-0.6,0-1.2,0-1.8,0C253.2,450.6,253.2,450.6,253.2,450.6z"/>
<path class="st0" d="M336.8,424C336.8,423.9,336.8,423.8,336.8,424C336.9,423.9,336.9,424,336.8,424C336.8,424,336.8,424,336.8,424z
	"/>
<path class="st0" d="M216.3,443.7c0,0-0.1,0-0.1,0C216.2,443.7,216.2,443.7,216.3,443.7C216.2,443.7,216.2,443.7,216.3,443.7
	L216.3,443.7z"/>
<path class="st1" d="M303.5,462.3c0-0.1,0.1-0.1,0.1-0.2C303.6,462.2,303.6,462.3,303.5,462.3C303.5,462.3,303.5,462.3,303.5,462.3z
	"/>
<path class="st1" d="M304.2,463.3c0,0.1-0.1,0.1-0.1,0.2c-0.1-0.1,0-0.2,0-0.3C304.2,463.2,304.2,463.3,304.2,463.3z"/>
<path class="st1" d="M296.9,461.6c0.1,0,0.3-0.1,0.4,0.2c0,0.3-0.5,0.7-0.9,0.7c-0.1,0-0.5,0.1-0.3-0.2
	C296.2,462,296.2,461.5,296.9,461.6z"/>
<path class="st1" d="M332,463.6c0.2-0.7,0.5-1.6,1.3-2.1c0.2-0.2,0.6-0.3,0.8-0.1c0.2,0.2,0.2,0.5,0.1,0.7c-0.3,0.8-0.6,1.6-1.4,2
	C332.4,464.5,332,464.2,332,463.6z"/>
<path class="st1" d="M289.7,462.1c-0.2,0.8-0.5,1.7-1.4,2.2c-0.2,0.1-0.5,0.2-0.7,0c-0.2-0.2-0.2-0.4-0.1-0.7
	c0.2-0.6,0.5-1.2,0.9-1.7c0.2-0.2,0.4-0.4,0.7-0.4C289.6,461.5,289.7,461.6,289.7,462.1z"/>
<path class="st1" d="M262.5,463.5c0.4-0.5,0.7-0.9,1.1-1.4C263.6,463.4,263.5,463.5,262.5,463.5z"/>
<path class="st1" d="M312,463.3c0.4-0.5,0.7-0.9,1-1.4C313.1,463.1,312.9,463.4,312,463.3z"/>
<path class="st0" d="M248.6,419.8c-0.2-0.1-0.4,0.1-0.6,0.2c-0.3,0.2-0.6,0.5-0.7,0.8c-0.1,0.3-0.2,0.7-0.4,1
	c-0.1,0.4-0.3,0.7-0.6,1c-0.1,0.1-0.2,0.2-0.3,0.1c-0.1-0.1-0.1-0.2-0.1-0.3c-0.1-0.4,0.1-0.8,0.3-1.2c0.3-0.8,0.2-1.4-0.3-2
	c-0.7-0.8-1.5-1.6-2.4-2.1c-4.4-2.5-9.1-2.7-13.6-0.6c-5.3,2.4-9.5,6.2-12.4,11.2c-2.2,3.6-3.4,7.5-3.2,11.8c0,0.8,0,1.6,0,2.4
	c0,0.5,0.1,1,0.2,1.4c0.7,2.4,2.2,4.3,4,5.9c1,0.8,2,1.7,3.3,2c2.1,0.6,4.3,0.8,6.5,0.6c3.1-0.3,6-1.2,8.5-3.1
	c0.5-0.3,0.5-0.7,0.3-1.1c-0.3-0.6-0.6-1.2-0.8-1.8c-0.3-0.8-0.1-1.3,0.7-1.7c0.6-0.3,0.9-1.1,0.5-1.7c-0.1-0.2-0.2-0.2-0.4-0.2
	c-0.6,0-1.1,0.3-1.5,0.8c-0.6,0.7-1.2,1.3-2,1.8c-1.5,1-2.8,2.1-4.4,2.9c-1.3,0.7-2.7,1.1-4.1,0.7c-2.6-0.7-4.7-2.1-6.1-4.4
	c-0.9-1.5-1.5-3.1-1.3-4.9c0.5-3.9,2.1-7.4,5.1-10c0.3-0.3,0.2-0.5,0-0.7c-0.3-0.3-0.7-0.2-1,0c-0.3,0.2-0.5,0.5-0.8,0.8
	c-0.2,0.2-0.4,0.3-0.7,0.2c0.1-0.3,0.3-0.5,0.4-0.8c2.2-3.5,5.3-6,8.9-7.8c2.9-1.4,6-2.2,9.3-1.4c2,0.5,3.9,1.2,5.5,2.7
	c0.2,0.2,0.4,0.3,0.4,0.7c-0.1,0.4,0.1,0.8,0.4,1c0.5,0.4,0.7,0.8,0.3,1.5c1.9-1.2,2.9-3,3.2-5.1
	C248.7,420.2,248.8,419.9,248.6,419.8z M234.1,446.9c0.1,1.1-1.1,1.9-2.7,1.8C232.1,447.8,233.2,447.5,234.1,446.9z M221.7,449.2
	c0.4,0.3,0.8,0.5,1.4,0.9c-0.9,0-1.6-0.3-2.3-0.6c-2.4-1.2-3.8-3.2-4.6-5.6c0,0,0,0,0,0c0,0-0.1,0-0.1,0c0,0,0,0,0,0
	c0,0,0.1,0,0.1,0.1c0,0,0,0,0,0c0,0,0,0,0,0c0,0,0,0,0,0C217.8,445.8,219.5,447.7,221.7,449.2z M239.4,417.5
	c0.7,0.3,1.5,0.6,2.2,0.8C240.7,418.4,239.8,418.6,239.4,417.5z"/>
</svg>
