<svg xmlns="http://www.w3.org/2000/svg" viewBox="4420.562 3276 30 30">
  <defs>
    <style>
      .cls-1 {
        fill: #fff;
      }
    </style>
  </defs>
  <path id="Tracé_384" data-name="Tracé 384" class="cls-1" d="M28.24,0H1.76A1.767,1.767,0,0,0,0,1.76V28.24A1.767,1.767,0,0,0,1.76,30H28.24A1.767,1.767,0,0,0,30,28.24V1.76A1.767,1.767,0,0,0,28.24,0ZM18.694,10.091H16.909a.794.794,0,0,0-.719.645V12.6h2.5c-.1,1.413-.3,2.727-.3,2.727H16.19v7.413H12.917V15.3H11.331V12.6h1.587V10.388c0-.4-.074-3.124,3.372-3.124h2.43C18.694,8.455,18.694,9.719,18.694,10.091Z" transform="translate(4420.562 3276)"/>
</svg>
