<svg xmlns="http://www.w3.org/2000/svg" viewBox="4420.562 3276 30 30"><defs><style>.cls-1{fill:#fff}</style></defs><path id="Tracé_384" data-name="Tracé 384" class="cls-1" d="M28.24 0H1.76A1.767 1.767 0 0 0 0 1.76v26.48A1.767 1.767 0 0 0 1.76 30h26.48A1.767 1.767 0 0 0 30 28.24V1.76A1.767 1.767 0 0 0 28.24 0zm-9.546 10.091h-1.785a.794.794 0 0 0-.719.645V12.6h2.5c-.1 1.413-.3 2.727-.3 2.727h-2.2v7.413h-3.273V15.3h-1.586v-2.7h1.587v-2.212c0-.4-.074-3.124 3.372-3.124h2.43c-.026 1.191-.026 2.455-.026 2.827z" transform="translate(4420.562 3276)"/></svg>