<?xml version="1.0" encoding="utf-8"?>
<!-- Generator: Adobe Illustrator 21.1.0, SVG Export Plug-In . SVG Version: 6.00 Build 0)  -->
<svg version="1.1" id="Calque_1" xmlns="http://www.w3.org/2000/svg" xmlns:xlink="http://www.w3.org/1999/xlink" x="0px" y="0px"
	 viewBox="0 0 595.2 842" style="enable-background:new 0 0 595.2 842;" xml:space="preserve">
<style type="text/css">
	.st0{clip-path:url(#SVGID_2_);fill:url(#SVGID_3_);}
	.st1{clip-path:url(#SVGID_5_);fill:url(#SVGID_6_);}
	.st2{clip-path:url(#SVGID_8_);fill:url(#SVGID_9_);}
	.st3{clip-path:url(#SVGID_11_);fill:url(#SVGID_12_);}
	.st4{fill:#004373;}
	.st5{fill:#1C5789;}
</style>
<g>
	<defs>
		<path id="SVGID_1_" d="M287.7,451.1c-2.3,0.6-4.7,1.1-6.9,1.5c24,2.3,47.3-2.8,57.2-12.7c3.4-9.7-3.6-15.1-6.1-17.4
			C329.1,435.1,306.7,446.1,287.7,451.1"/>
	</defs>
	<clipPath id="SVGID_2_">
		<use xlink:href="#SVGID_1_"  style="overflow:visible;"/>
	</clipPath>
	
		<linearGradient id="SVGID_3_" gradientUnits="userSpaceOnUse" x1="-120.9085" y1="718.8503" x2="-120.3619" y2="718.8503" gradientTransform="matrix(-96.6325 37.4813 37.4813 96.6325 -38291.3125 -64503.4297)">
		<stop  offset="0" style="stop-color:#FCDB31"/>
		<stop  offset="8.427430e-02" style="stop-color:#FCDB31"/>
		<stop  offset="0.3652" style="stop-color:#FBB236"/>
		<stop  offset="0.9101" style="stop-color:#F59039"/>
		<stop  offset="1" style="stop-color:#F59039"/>
	</linearGradient>
	<polygon class="st0" points="352.2,450.6 288.7,475.3 269.8,426.7 333.4,402.1 	"/>
</g>
<g>
	<defs>
		<path id="SVGID_4_" d="M300.4,415.2c21.2,1,37.5,9.6,37.5,20.5c0,2-0.6,3.9-1.6,5.7c4.2-3.5,8.1-7.7,9-12.3
			c1.6-17.4-27.5-35.2-62.8-39.7c-1.6-0.2-3.2-0.4-4.8-0.5L300.4,415.2z"/>
	</defs>
	<clipPath id="SVGID_5_">
		<use xlink:href="#SVGID_4_"  style="overflow:visible;"/>
	</clipPath>
	
		<linearGradient id="SVGID_6_" gradientUnits="userSpaceOnUse" x1="-120.6942" y1="718.9678" x2="-120.1476" y2="718.9678" gradientTransform="matrix(110.9739 74.8528 74.8528 -110.9739 -40143.3047 89213.8828)">
		<stop  offset="0" style="stop-color:#6EBC4C"/>
		<stop  offset="9.550480e-02" style="stop-color:#6EBC4C"/>
		<stop  offset="0.4719" style="stop-color:#03AF51"/>
		<stop  offset="0.7723" style="stop-color:#008145"/>
		<stop  offset="0.927" style="stop-color:#007240"/>
		<stop  offset="1" style="stop-color:#007240"/>
	</linearGradient>
	<polygon class="st1" points="299.4,356.7 371.3,405.2 325.3,473.4 253.4,424.9 	"/>
</g>
<g>
	<defs>
		<path id="SVGID_7_" d="M245.6,352.5l25.4,29.9c39.4,4.8,72.9,21.5,76,41.1c0.4-2.1,0.9-5.6,0.4-10c-3-30.1-36.8-53.8-86.1-59.9
			C256,353,250.7,352.7,245.6,352.5L245.6,352.5z"/>
	</defs>
	<clipPath id="SVGID_8_">
		<use xlink:href="#SVGID_7_"  style="overflow:visible;"/>
	</clipPath>
	
		<linearGradient id="SVGID_9_" gradientUnits="userSpaceOnUse" x1="-120.6245" y1="718.9151" x2="-120.0779" y2="718.9151" gradientTransform="matrix(177.5766 110.5317 110.5317 -177.5766 -57795.0625 141352.875)">
		<stop  offset="0" style="stop-color:#0F5199"/>
		<stop  offset="0.243" style="stop-color:#0F5199"/>
		<stop  offset="0.2847" style="stop-color:#134E91"/>
		<stop  offset="0.6778" style="stop-color:#1D3660"/>
		<stop  offset="0.7721" style="stop-color:#13274A"/>
		<stop  offset="0.9174" style="stop-color:#000E2B"/>
		<stop  offset="0.986" style="stop-color:#00001D"/>
		<stop  offset="1" style="stop-color:#00001D"/>
	</linearGradient>
	<polygon class="st2" points="274.2,306.7 379.7,372.4 319.3,469.4 213.8,403.7 	"/>
</g>
<g>
	<defs>
		<path id="SVGID_10_" d="M302.8,424.8L302.8,424.8l-0.1,2.2c0,0.3-0.9,1-0.9,1.9v2.7c0,0-1.2-0.1-1.5,0.1c-0.6,0.3-2.2,1.6-2.5,1.7
			c-0.1,0.1,0.1,1.9-0.9,1.9h-2.1c-0.1-0.4-0.2-1.4-0.2-1.4l-0.2,1.4c0,0-4.2,9.4-14.1,15.5c4,0.6,28.9-7.4,35.5-13.6
			c-0.1-0.1-0.3,0-0.6,0.1c-0.8,0.1-2.1,0.2-3.8-0.8c-0.9-0.6-1.5-1.7-1.5-1.7h-0.8c0,0,0-2,0-2.4c0-0.3-0.4-0.3-0.4-0.3l-3.9,0
			v-3.1c0-0.9-0.9-1.6-0.9-1.9v-2.3h-0.1c0,0-0.3-5.5-0.5-5.5C303.1,419.3,302.8,424.8,302.8,424.8"/>
	</defs>
	<clipPath id="SVGID_11_">
		<use xlink:href="#SVGID_10_"  style="overflow:visible;"/>
	</clipPath>
	
		<linearGradient id="SVGID_12_" gradientUnits="userSpaceOnUse" x1="-120.9085" y1="718.7755" x2="-120.3619" y2="718.7755" gradientTransform="matrix(-96.6325 37.4813 37.4813 96.6325 -38291.3125 -64503.4297)">
		<stop  offset="0" style="stop-color:#FCDB31"/>
		<stop  offset="8.427430e-02" style="stop-color:#FCDB31"/>
		<stop  offset="0.3652" style="stop-color:#FBB236"/>
		<stop  offset="0.9101" style="stop-color:#F59039"/>
		<stop  offset="1" style="stop-color:#F59039"/>
	</linearGradient>
	<polygon class="st3" points="326.7,447.2 285,463.4 269.6,423.5 311.2,407.3 	"/>
</g>
<g>
	<path class="st4" d="M367.5,461.8c0.6,0,1.1,0,1.5-0.1c0.4-0.1,0.8-0.3,1.1-0.5c0.3-0.2,0.5-0.6,0.7-1c0.1-0.4,0.2-0.9,0.2-1.6
		h-3.8c-0.4,0-0.8,0.2-1.1,0.5c-0.3,0.3-0.5,0.8-0.5,1.4v1.3H367.5z M365.5,472v1.1c0,0.6-0.1,1.1-0.3,1.5c-0.2,0.4-0.4,0.6-0.6,0.7
		h6.4c0-0.6,0-1.2-0.2-1.6c-0.1-0.4-0.4-0.7-0.7-1c-0.3-0.2-0.7-0.4-1.1-0.5c-0.4-0.1-0.9-0.1-1.5-0.1H365.5z M365,465.2v-4.5
		c0-0.5,0.1-0.9,0.2-1.3c0.1-0.4,0.4-0.7,0.8-0.8h-2.3c-0.2,0-0.5,0.1-0.8,0.2s-0.5,0.3-0.7,0.5c-0.2,0.2-0.4,0.4-0.5,0.7
		c-0.1,0.3-0.2,0.5-0.2,0.8v14.3h2c0.3,0,0.6-0.1,0.8-0.3c0.2-0.2,0.4-0.4,0.5-0.7c0.1-0.3,0.2-0.6,0.2-0.9c0-0.3,0-0.6,0-0.8v-4
		h3.8c0.6,0,1-0.2,1.3-0.5c0.3-0.3,0.4-0.7,0.4-1.1c0-0.4-0.1-0.8-0.4-1.1c-0.3-0.3-0.7-0.5-1.3-0.5H365z M354.3,468.9v4.2
		c0,0.3,0.1,0.6,0.2,0.8c0.1,0.3,0.3,0.5,0.5,0.7c0.2,0.2,0.4,0.3,0.7,0.5c0.3,0.1,0.5,0.2,0.8,0.2h1.3v-2.5c0-0.8-0.1-1.5-0.3-2
		c-0.2-0.5-0.5-0.9-0.8-1.2c-0.3-0.3-0.7-0.5-1-0.6c-0.4-0.1-0.7-0.2-1.1-0.2H354.3z M356.4,458.5c-0.2,0-0.5,0.1-0.8,0.2
		c-0.3,0.1-0.5,0.3-0.7,0.5c-0.2,0.2-0.4,0.4-0.5,0.7c-0.1,0.3-0.2,0.5-0.2,0.8v4.6h-6.6v3.2h7c0.3,0,0.6,0,0.9,0.1
		c0.3,0.1,0.6,0.2,0.9,0.3c0.3,0.1,0.5,0.3,0.8,0.6c0.2,0.2,0.4,0.5,0.6,0.8v-11.8H356.4z M343.7,471.4v0.9c0,0.3,0,0.6,0.1,0.9
		c0.1,0.3,0.2,0.6,0.3,0.9c0.2,0.3,0.4,0.5,0.7,0.8c0.2,0.1,0.3,0.2,0.6,0.2s0.4,0.1,0.7,0.1c0.2,0,0.4,0,0.6,0h0.5v-14.6
		c0-0.3-0.1-0.6-0.2-0.8c-0.1-0.3-0.3-0.5-0.5-0.7c-0.2-0.2-0.4-0.4-0.7-0.5c-0.3-0.1-0.5-0.2-0.8-0.2h-1.4V471.4z M337,471.9
		c-0.3,0.1-0.6,0.2-0.9,0.2c-0.4,0.1-0.8,0.1-1.2,0.1c-0.9,0-1.7-0.1-2.6-0.3c-0.8-0.2-1.6-0.5-2.2-1c-0.7-0.4-1.3-1-1.8-1.7
		c-0.5-0.7-0.9-1.5-1.1-2.4c0,0,0,0.1,0,0.2c0,0.1,0,0.1,0,0.2c0,1.2,0.2,2.3,0.6,3.4c0.4,1,1,1.9,1.7,2.7c0.7,0.7,1.6,1.3,2.5,1.7
		c1,0.4,2,0.6,3.2,0.6c1,0,1.9-0.1,2.6-0.4c0.7-0.3,1.4-0.6,1.9-1c0.6-0.4,1-0.9,1.4-1.4c-0.3-0.4-0.6-0.8-0.9-1
		c-0.3-0.2-0.6-0.4-1-0.5c-0.4-0.1-0.8,0-1.3,0.2C337.6,471.6,337.2,471.8,337,471.9 M331.4,469.6c-0.4-0.8-0.6-1.7-0.5-2.7
		c0-0.7,0.1-1.4,0.3-2c0.2-0.6,0.5-1.2,0.8-1.7c0.4-0.5,0.8-0.8,1.4-1.1c0.5-0.3,1.2-0.4,1.9-0.4c0.3,0,0.6,0,0.8,0
		c0.2,0,0.4,0.1,0.6,0.1c0.2,0.1,0.4,0.1,0.6,0.2c0.2,0.1,0.4,0.2,0.7,0.3c0.4,0.3,0.9,0.3,1.3,0.2c0.4-0.1,0.7-0.3,1-0.5
		c0.3-0.3,0.7-0.6,0.9-1c-0.4-0.5-0.8-1-1.4-1.4c-0.5-0.4-1.1-0.7-1.9-1c-0.7-0.3-1.6-0.4-2.6-0.4c-0.4,0-0.8,0-1.3,0.1
		c-0.5,0.1-1,0.2-1.5,0.4c-0.5,0.2-1,0.4-1.6,0.7c-0.5,0.3-1,0.7-1.5,1.2c-0.5,0.5-0.9,1.1-1.2,1.8c-0.3,0.7-0.6,1.5-0.8,2.4
		c0,0.5,0.1,1.1,0.3,1.8c0.2,0.7,0.6,1.4,1,2c0.5,0.7,1.1,1.2,1.8,1.7c0.7,0.5,1.6,0.8,2.5,0.9C332.3,471,331.8,470.4,331.4,469.6
		 M313.5,463.3c0-0.2,0-0.4,0-0.7c0-0.3,0-0.6,0.1-1c0-0.3,0.1-0.7,0.2-1c0.1-0.3,0.3-0.5,0.5-0.6c-0.2-0.4-0.6-0.8-1.1-1
		c-0.5-0.3-0.9-0.4-1.4-0.4c-0.5,0-0.9,0.2-1.3,0.5c-0.4,0.3-0.5,0.9-0.5,1.7v14.5h1.3c0.3,0,0.5-0.1,0.8-0.2
		c0.3-0.1,0.5-0.3,0.7-0.5c0.2-0.2,0.4-0.4,0.5-0.7c0.1-0.3,0.2-0.5,0.2-0.8V463.3z M313.9,463.2c0-1,0.1-1.7,0.3-2.1
		c0.2-0.4,0.4-0.6,0.6-0.7c0.1,0.1,0.3,0.4,0.6,0.9c0.3,0.5,0.8,1.2,1.3,1.9c0.5,0.8,1,1.6,1.6,2.4s1.1,1.7,1.7,2.4
		c0.5,0.8,1,1.4,1.5,2c0.4,0.6,0.8,0.9,1,1.1c0.2,0.2,0.5,0.3,0.8,0.4c0.3,0.1,0.6,0.2,0.9,0.2v1.4c0,0.3,0,0.6-0.1,0.8
		c-0.1,0.3-0.2,0.5-0.3,0.7c-0.2,0.2-0.4,0.4-0.7,0.5c-0.3,0.1-0.6,0.2-1.1,0.2c-0.3,0-0.5,0-0.7-0.1c-0.2-0.1-0.4-0.2-0.6-0.3
		c-0.2-0.1-0.3-0.3-0.4-0.4c-0.1-0.1-0.2-0.3-0.3-0.4c-0.1-0.1-0.3-0.4-0.5-0.8c-0.3-0.4-0.6-1-1-1.6c-0.4-0.6-0.8-1.3-1.3-2
		c-0.5-0.7-0.9-1.3-1.3-2c-0.4-0.6-0.8-1.1-1.1-1.6c-0.3-0.4-0.5-0.7-0.6-0.8V463.2z M321.8,469.8c-0.2-0.3-0.4-0.5-0.6-0.8
		c-0.2-0.3-0.4-0.6-0.6-0.9v-7.3c0-0.3,0.1-0.6,0.2-0.9c0.1-0.3,0.3-0.5,0.5-0.7s0.5-0.3,0.7-0.4c0.3-0.1,0.5-0.1,0.8-0.1h1.3
		l0,12.5c-0.3,0-0.6-0.1-0.9-0.2c-0.3-0.1-0.6-0.3-0.8-0.5C322.2,470.3,322,470,321.8,469.8 M299.6,462.2c0.1-0.2,0.2-0.5,0.3-0.8
		c0.1-0.3,0.3-0.5,0.5-0.8c0.2-0.3,0.5-0.5,0.8-0.7c0.3-0.2,0.7-0.3,1.1-0.4c-0.2-0.3-0.3-0.5-0.6-0.7c-0.2-0.2-0.5-0.3-0.9-0.4
		c-0.3-0.1-0.7-0.2-1.2-0.2c-0.2,0-0.4,0-0.6,0c-0.2,0-0.4,0.1-0.5,0.1c-0.4,0.1-0.7,0.3-1,0.5c-0.2,0.2-0.5,0.5-0.6,0.7
		c-0.2,0.3-0.3,0.6-0.4,0.8s-0.2,0.6-0.3,0.8l-4.4,13.7h1.3c0.7,0,1.2-0.1,1.6-0.3c0.4-0.2,0.7-0.5,1-0.8c0.2-0.3,0.4-0.6,0.6-1
		c0.1-0.4,0.3-0.7,0.4-1L299.6,462.2z M305.1,469.2c-0.4-0.3-1.1-0.5-1.8-0.5h-5.1l-1,3.2h5.6c0.1,0.4,0.3,0.8,0.4,1.1
		c0.1,0.4,0.3,0.7,0.6,1.1c0.2,0.3,0.6,0.6,1,0.8c0.4,0.2,0.9,0.3,1.6,0.3h1.3c-0.3-0.8-0.5-1.5-0.7-2.2c-0.1-0.3-0.2-0.5-0.3-0.8
		c-0.1-0.3-0.2-0.5-0.2-0.7c-0.1-0.2-0.1-0.4-0.2-0.5c0-0.1-0.1-0.2-0.1-0.2C305.9,470,305.5,469.5,305.1,469.2 M300.5,461.6
		c-0.1,0.2-0.2,0.5-0.3,0.7c-0.1,0.3-0.2,0.5-0.3,0.8l1.6,5.2c0.3,0,0.7,0,1,0c0.4,0,0.7,0,1.1,0c0.4,0,0.7,0.1,1,0.2
		c0.3,0.1,0.6,0.3,0.8,0.5l-2.4-7.5c-0.1-0.2-0.2-0.4-0.2-0.7c-0.1-0.2-0.2-0.5-0.3-0.7c-0.4,0.1-0.8,0.2-1,0.4
		c-0.3,0.2-0.5,0.4-0.7,0.6C300.7,461.2,300.6,461.3,300.5,461.6 M284.4,463.1c0.1-0.5,0.2-1,0.3-1.4s0.3-0.7,0.6-1
		c0.2-0.3,0.5-0.5,0.9-0.7c0.3-0.2,0.8-0.3,1.3-0.4c-0.4-0.5-0.8-0.8-1.2-1c-0.4-0.2-0.9-0.3-1.5-0.3c-0.6,0-1,0.1-1.4,0.2
		c-0.4,0.1-0.7,0.4-0.9,0.6c-0.2,0.3-0.4,0.6-0.6,1c-0.1,0.4-0.3,0.8-0.3,1.3l-3.3,13.1c0,0.1,0.2,0.2,0.5,0.4
		c0.3,0.2,0.7,0.3,1.1,0.3c0.5,0,0.9-0.1,1.2-0.2c0.3-0.1,0.5-0.3,0.7-0.6c0.2-0.3,0.3-0.6,0.4-1s0.2-0.8,0.3-1.4L284.4,463.1z
		 M288,461.5c-0.1-0.4-0.1-0.7-0.2-0.9c0-0.2-0.1-0.3-0.1-0.4c0-0.1-0.1-0.1-0.1-0.1c-0.4,0-0.8,0.2-1.2,0.4
		c-0.3,0.2-0.6,0.4-0.8,0.7c-0.1,0.2-0.3,0.4-0.4,0.6c-0.1,0.2-0.2,0.4-0.2,0.6c-0.1,0.2-0.1,0.4-0.1,0.6c0,0.2,0,0.3,0,0.4l1.4,8.6
		c0,0.3,0.1,0.7,0.3,1.1c0.1,0.4,0.3,0.7,0.6,1c0.3,0.3,0.6,0.6,1,0.8c0.4,0.2,1,0.3,1.6,0.3h0.6L288,461.5z M275,463.1
		c0-0.3,0.1-0.7,0.2-1.1c0.1-0.4,0.2-0.8,0.5-1.2c0.2-0.3,0.5-0.5,0.8-0.7c0.4-0.2,0.8-0.3,1.2-0.4c-0.4-0.5-0.8-0.8-1.2-1
		c-0.4-0.2-0.9-0.3-1.5-0.3c-0.6,0-1,0.1-1.4,0.2c-0.4,0.1-0.7,0.4-0.9,0.6c-0.2,0.3-0.4,0.6-0.6,1s-0.3,0.8-0.3,1.3l-2.4,13.7h1.3
		c0.7,0,1.2-0.1,1.5-0.3c0.4-0.2,0.6-0.5,0.8-0.8c0.2-0.3,0.3-0.7,0.4-1c0.1-0.4,0.1-0.7,0.2-1.1L275,463.1z M278.4,461.5
		c-0.1-0.5-0.2-0.9-0.3-1.1c-0.1-0.1-0.1-0.2-0.2-0.3c-0.4,0-0.8,0.2-1.1,0.3c-0.3,0.2-0.5,0.4-0.7,0.7c-0.1,0.2-0.3,0.4-0.3,0.7
		c-0.1,0.2-0.1,0.4-0.2,0.6c0,0.2-0.1,0.4-0.1,0.5c0,0.2,0,0.3,0,0.4c0.4,1.5,0.7,2.8,1,3.9c0.3,1.1,0.5,2,0.6,2.8
		c0.2,0.8,0.3,1.4,0.4,1.9c0.1,0.5,0.2,0.9,0.2,1.2c0.1,0.3,0.1,0.5,0.1,0.7c0,0.2,0.1,0.3,0.1,0.4l1.7-7.3L278.4,461.5z
		 M253.6,462.2c0.1-0.2,0.2-0.5,0.3-0.8c0.1-0.3,0.3-0.5,0.5-0.8c0.2-0.3,0.5-0.5,0.8-0.7c0.3-0.2,0.7-0.3,1.1-0.4
		c-0.2-0.3-0.3-0.5-0.6-0.7c-0.2-0.2-0.5-0.3-0.9-0.4c-0.3-0.1-0.7-0.2-1.2-0.2c-0.2,0-0.4,0-0.6,0c-0.2,0-0.4,0.1-0.5,0.1
		c-0.4,0.1-0.7,0.3-1,0.5c-0.2,0.2-0.5,0.5-0.6,0.7c-0.2,0.3-0.3,0.6-0.4,0.8c-0.1,0.3-0.2,0.6-0.3,0.8l-4.4,13.7h1.3
		c0.7,0,1.2-0.1,1.6-0.3c0.4-0.2,0.7-0.5,1-0.8c0.2-0.3,0.4-0.6,0.6-1c0.1-0.4,0.3-0.7,0.4-1L253.6,462.2z M259.1,469.2
		c-0.4-0.3-1.1-0.5-1.8-0.5h-5.1l-1,3.2h5.6c0.1,0.4,0.3,0.8,0.4,1.1c0.1,0.4,0.3,0.7,0.6,1.1c0.2,0.3,0.6,0.6,1,0.8
		c0.4,0.2,0.9,0.3,1.6,0.3h1.3c-0.3-0.8-0.5-1.5-0.7-2.2c-0.1-0.3-0.2-0.5-0.3-0.8c-0.1-0.3-0.2-0.5-0.2-0.7
		c-0.1-0.2-0.1-0.4-0.2-0.5c0-0.1-0.1-0.2-0.1-0.2C259.8,470,259.5,469.5,259.1,469.2 M254.4,461.6c-0.1,0.2-0.2,0.5-0.3,0.7
		c-0.1,0.3-0.2,0.5-0.3,0.8l1.6,5.2c0.3,0,0.7,0,1,0c0.4,0,0.7,0,1.1,0c0.4,0,0.7,0.1,1,0.2c0.3,0.1,0.6,0.3,0.8,0.5l-2.4-7.5
		c-0.1-0.2-0.2-0.4-0.2-0.7c-0.1-0.2-0.2-0.5-0.3-0.7c-0.4,0.1-0.8,0.2-1,0.4c-0.3,0.2-0.5,0.4-0.7,0.6
		C254.6,461.2,254.5,461.3,254.4,461.6 M238.9,462c0-0.3,0-0.5,0-0.8c0-0.3,0-0.5-0.1-0.8c-0.1-0.2-0.2-0.5-0.3-0.7
		c-0.2-0.2-0.4-0.5-0.7-0.7c-0.2-0.1-0.4-0.2-0.6-0.3c-0.2-0.1-0.4-0.1-0.6-0.1c-0.2,0-0.4,0-0.6,0h-0.5h0l0,10c0,1,0.3,1.7,0.9,2.2
		c0.6,0.5,1.5,0.7,2.6,0.7V462z M244.7,475.2c0-0.6,0-1.2-0.2-1.6c-0.1-0.4-0.4-0.7-0.7-1c-0.3-0.2-0.7-0.4-1.1-0.5
		c-0.4-0.1-0.9-0.1-1.5-0.1h-2.8c-0.6,0-1.2-0.1-1.7-0.3c-0.5-0.2-1-0.6-1.4-1.3v1.4c0,0.2,0,0.5,0.1,0.9c0.1,0.4,0.2,0.7,0.4,1.1
		c0.2,0.4,0.5,0.7,0.8,1c0.4,0.3,0.8,0.4,1.5,0.4H244.7z"/>
	<path class="st5" d="M371.5,489.3v-1H368v-6.9h-1.2v7.9H371.5z M363.3,486.3H361l0.8-1.9c0.1-0.3,0.2-0.6,0.3-1h0
		c0.1,0.3,0.2,0.7,0.3,1L363.3,486.3z M365.7,489.3l-3.4-8h-0.4l-3.4,8h1.2l0.9-2h3.1l0.9,2H365.7z M359.2,482.4v-1h-6.3v1h2.5v6.9
		h1.2v-6.9H359.2z M352,489.5v-8.1h-1.2v3.7c0,0.6,0,1.3,0,1.9l0,0c-0.5-0.6-1.2-1.4-1.7-1.9l-3.4-3.7h-0.8v7.9h1.2v-4
		c0-0.6,0-1.3,0-2l0,0c0.5,0.6,1.2,1.4,1.8,2.1l3.7,4.1H352z M343.9,489.3v-1h-3.5v-2.4h2.6v-1h-2.6v-2.4h3.1v-1h-4.3v7.9H343.9z
		 M337.8,489.3l-0.7-7.9h-0.7l-2.1,4.1c-0.3,0.7-0.7,1.4-1,2h0c-0.3-0.6-0.7-1.4-1-2l-2.1-4.1h-0.7l-0.7,7.9h1.1l0.3-3.6
		c0-0.5,0.1-1.2,0.1-1.8h0c0.3,0.6,0.6,1.3,0.9,1.8l1.9,3.6h0.4l1.8-3.6c0.3-0.5,0.6-1.3,0.9-1.8h0c0,0.6,0.1,1.3,0.1,1.8l0.3,3.6
		H337.8z M327.8,489.3v-1h-3.5v-2.4h2.6v-1h-2.6v-2.4h3.1v-1h-4.3v7.9H327.8z M322.2,482.4v-1H316v1h2.5v6.9h1.2v-6.9H322.2z
		 M314.2,483.6c0,0.8-0.7,1.2-1.4,1.2h-1.1v-2.4h1.1C313.5,482.4,314.2,482.8,314.2,483.6 M316.7,489.3l-2.7-3.7
		c0.8-0.3,1.4-1,1.4-2c0-1.5-1.3-2.2-2.4-2.2h-2.5v7.9h1.2v-3.5h1.1l2.5,3.5H316.7z M307,486.3h-2.3l0.8-1.9c0.1-0.3,0.2-0.6,0.3-1
		h0c0.1,0.3,0.2,0.7,0.3,1L307,486.3z M309.5,489.3l-3.4-8h-0.4l-3.4,8h1.2l0.9-2h3.1l0.9,2H309.5z M301.4,483.6
		c0,0.8-0.7,1.2-1.4,1.2h-1v-2.4h1C300.8,482.4,301.4,482.8,301.4,483.6 M302.7,483.6c0-1.5-1.3-2.2-2.4-2.2h-2.4v7.9h1.2v-3.5h1.2
		C301.4,485.8,302.7,485.1,302.7,483.6 M296.8,489.3v-1h-3.5v-2.4h2.6v-1h-2.6v-2.4h3.1v-1h-4.3v7.9H296.8z M296.1,479.5l-0.2-1
		c-0.7,0.6-1.7,1.1-2.5,1.3l0.6,0.6C294.9,480.2,295.4,480,296.1,479.5 M289.6,485.3c0,2-1.5,2.9-3.3,2.9h-1v-5.9h1
		C288.1,482.4,289.6,483.3,289.6,485.3 M290.8,485.3c0-2.6-2.1-4-4.3-4h-2.4v7.9h2.4C288.8,489.3,290.8,487.9,290.8,485.3
		 M279.2,489.3v-1h-3.5v-6.9h-1.2v7.9H279.2z M272.7,481.4h-1.2v7.9h1.2V481.4z M270.2,489.3v-1h-3.5v-2.4h2.6v-1h-2.6v-2.4h3.1v-1
		h-4.3v7.9H270.2z M264.3,487.1c0-1.3-0.9-2.1-2.3-2.5c-0.8-0.3-1.3-0.7-1.3-1.2c0-0.6,0.5-1.1,1.3-1.1c0.6,0,1.3,0.3,1.5,0.5l0.2-1
		c-0.3-0.2-0.9-0.5-1.7-0.5c-1.7,0-2.5,1.1-2.5,2.2c0,1.1,0.7,1.9,2.2,2.3c1,0.3,1.4,0.8,1.4,1.5c0,0.7-0.6,1.2-1.5,1.2
		c-0.9,0-1.6-0.3-2.4-0.8l0.3,1.3c0.4,0.3,1.2,0.5,2,0.5C263.3,489.4,264.3,488.5,264.3,487.1 M258,489.5v-8.1h-1.2v3.7
		c0,0.6,0,1.3,0,1.9l0,0c-0.5-0.6-1.2-1.4-1.7-1.9l-3.4-3.7h-0.8v7.9h1.2v-4c0-0.6,0-1.3,0-2l0,0c0.5,0.6,1.2,1.4,1.8,2.1l3.7,4.1
		H258z M248.4,485.3c0,2-1.5,3.1-3,3.1c-1.5,0-3-1.1-3-3.1c0-2,1.5-3.1,3-3.1C246.9,482.3,248.4,483.4,248.4,485.3 M249.6,485.3
		c0-2.5-2.1-4.1-4.2-4.1c-2.1,0-4.2,1.6-4.2,4.1c0,2.6,2.1,4.1,4.2,4.1C247.5,489.4,249.6,487.9,249.6,485.3 M240.6,481.7
		c-0.5-0.3-1.2-0.5-2.3-0.5c-2,0-4.3,1.4-4.3,4.1c0,2.7,2.3,4.1,4.3,4.1c1,0,1.6-0.1,2.1-0.4l0.2-1.2c-0.5,0.3-1.2,0.5-2.2,0.5
		c-1.6,0-3.2-1-3.2-3.1c0-2.1,1.6-3.1,3.2-3.1c0.8,0,1.6,0.3,2,0.5L240.6,481.7z"/>
</g>
</svg>
