<?xml version="1.0" encoding="utf-8"?>
<!-- Generator: Adobe Illustrator 21.1.0, SVG Export Plug-In . SVG Version: 6.00 Build 0)  -->
<svg version="1.1" id="Calque_1" xmlns="http://www.w3.org/2000/svg" xmlns:xlink="http://www.w3.org/1999/xlink" x="0px" y="0px"
	 viewBox="0 0 137.5 136.8" style="enable-background:new 0 0 137.5 136.8;" xml:space="preserve">
<style type="text/css">
	.st0{clip-path:url(#SVGID_2_);fill:url(#SVGID_3_);}
	.st1{clip-path:url(#SVGID_5_);fill:url(#SVGID_6_);}
	.st2{clip-path:url(#SVGID_8_);fill:url(#SVGID_9_);}
	.st3{clip-path:url(#SVGID_11_);fill:url(#SVGID_12_);}
	.st4{fill:#004373;}
	.st5{fill:#1C5789;}
</style>
<g>
	<g>
		<defs>
			<path id="SVGID_1_" d="M53.7,98.6c-2.3,0.6-4.7,1.1-6.9,1.5c24,2.3,47.3-2.8,57.2-12.7c3.4-9.7-3.6-15.1-6.1-17.4
				C95.1,82.6,72.7,93.6,53.7,98.6"/>
		</defs>
		<clipPath id="SVGID_2_">
			<use xlink:href="#SVGID_1_"  style="overflow:visible;"/>
		</clipPath>
		
			<linearGradient id="SVGID_3_" gradientUnits="userSpaceOnUse" x1="-654.5801" y1="-230.4965" x2="-654.0334" y2="-230.4965" gradientTransform="matrix(-96.6325 37.4813 -37.4813 -96.6325 -71791.1953 2337.6213)">
			<stop  offset="0" style="stop-color:#FCDB31"/>
			<stop  offset="8.427430e-02" style="stop-color:#FCDB31"/>
			<stop  offset="0.3652" style="stop-color:#FBB236"/>
			<stop  offset="0.9101" style="stop-color:#F59039"/>
			<stop  offset="1" style="stop-color:#F59039"/>
		</linearGradient>
		<polygon class="st0" points="118.2,98.1 54.7,122.8 35.8,74.2 99.4,49.6 		"/>
	</g>
</g>
<g>
	<g>
		<defs>
			<path id="SVGID_4_" d="M66.4,62.7c21.2,1,37.5,9.6,37.5,20.5c0,2-0.6,3.9-1.6,5.7c4.2-3.5,8.1-7.7,9-12.3
				c1.6-17.4-27.5-35.2-62.8-39.7c-1.6-0.2-3.2-0.4-4.8-0.5L66.4,62.7z"/>
		</defs>
		<clipPath id="SVGID_5_">
			<use xlink:href="#SVGID_4_"  style="overflow:visible;"/>
		</clipPath>
		
			<linearGradient id="SVGID_6_" gradientUnits="userSpaceOnUse" x1="-649.8547" y1="-230.8185" x2="-649.3082" y2="-230.8185" gradientTransform="matrix(110.9739 74.8528 -74.8528 110.9739 54885.0469 74298.7031)">
			<stop  offset="0" style="stop-color:#6EBC4C"/>
			<stop  offset="9.550480e-02" style="stop-color:#6EBC4C"/>
			<stop  offset="0.4719" style="stop-color:#03AF51"/>
			<stop  offset="0.7723" style="stop-color:#008145"/>
			<stop  offset="0.927" style="stop-color:#007240"/>
			<stop  offset="1" style="stop-color:#007240"/>
		</linearGradient>
		<polygon class="st1" points="65.4,4.2 137.3,52.7 91.3,120.9 19.4,72.4 		"/>
	</g>
</g>
<g>
	<g>
		<defs>
			<path id="SVGID_7_" d="M11.6,0L37,29.9c39.4,4.8,72.9,21.5,76,41.1c0.4-2.1,0.9-5.6,0.4-10c-3-30.1-36.8-53.8-86.1-59.9
				C22,0.5,16.7,0.2,11.6,0L11.6,0z"/>
		</defs>
		<clipPath id="SVGID_8_">
			<use xlink:href="#SVGID_7_"  style="overflow:visible;"/>
		</clipPath>
		
			<linearGradient id="SVGID_9_" gradientUnits="userSpaceOnUse" x1="-650.419" y1="-230.2754" x2="-649.8724" y2="-230.2754" gradientTransform="matrix(177.5766 110.5317 -110.5317 177.5766 90060.2188 112788.4922)">
			<stop  offset="0" style="stop-color:#0F5199"/>
			<stop  offset="0.243" style="stop-color:#0F5199"/>
			<stop  offset="0.2847" style="stop-color:#134E91"/>
			<stop  offset="0.6778" style="stop-color:#1D3660"/>
			<stop  offset="0.7721" style="stop-color:#13274A"/>
			<stop  offset="0.9174" style="stop-color:#000E2B"/>
			<stop  offset="0.986" style="stop-color:#00001D"/>
			<stop  offset="1" style="stop-color:#00001D"/>
		</linearGradient>
		<polygon class="st2" points="40.2,-45.8 145.7,19.9 85.3,116.9 -20.2,51.2 		"/>
	</g>
</g>
<g>
	<g>
		<defs>
			<path id="SVGID_10_" d="M68.8,72.3L68.8,72.3l-0.1,2.2c0,0.3-0.9,1-0.9,1.9v2.7c0,0-1.2-0.1-1.5,0.1c-0.6,0.3-2.2,1.6-2.5,1.7
				c-0.1,0.1,0.1,1.9-0.9,1.9h-2.1c-0.1-0.4-0.2-1.4-0.2-1.4l-0.2,1.4c0,0-4.2,9.4-14.1,15.5c4,0.6,28.9-7.4,35.5-13.6
				c-0.1-0.1-0.3,0-0.6,0.1c-0.8,0.1-2.1,0.2-3.8-0.8c-0.9-0.6-1.5-1.7-1.5-1.7h-0.8c0,0,0-2,0-2.4c0-0.3-0.4-0.3-0.4-0.3h-3.9v-3.1
				c0-0.9-0.9-1.6-0.9-1.9v-2.3h-0.1c0,0-0.3-5.5-0.5-5.5C69.1,66.8,68.8,72.3,68.8,72.3"/>
		</defs>
		<clipPath id="SVGID_11_">
			<use xlink:href="#SVGID_10_"  style="overflow:visible;"/>
		</clipPath>
		
			<linearGradient id="SVGID_12_" gradientUnits="userSpaceOnUse" x1="-654.5801" y1="-230.4214" x2="-654.0334" y2="-230.4214" gradientTransform="matrix(-96.6325 37.4813 -37.4813 -96.6325 -71791.1953 2337.6213)">
			<stop  offset="0" style="stop-color:#FCDB31"/>
			<stop  offset="8.427430e-02" style="stop-color:#FCDB31"/>
			<stop  offset="0.3652" style="stop-color:#FBB236"/>
			<stop  offset="0.9101" style="stop-color:#F59039"/>
			<stop  offset="1" style="stop-color:#F59039"/>
		</linearGradient>
		<polygon class="st3" points="92.7,94.7 51,110.9 35.6,71 77.2,54.8 		"/>
	</g>
</g>
<g>
	<path class="st4" d="M133.5,109.3c0.6,0,1.1,0,1.5-0.1s0.8-0.3,1.1-0.5c0.3-0.2,0.5-0.6,0.7-1c0.1-0.4,0.2-0.9,0.2-1.6h-3.8
		c-0.4,0-0.8,0.2-1.1,0.5c-0.3,0.3-0.5,0.8-0.5,1.4v1.3L133.5,109.3L133.5,109.3z M131.5,119.5v1.1c0,0.6-0.1,1.1-0.3,1.5
		c-0.2,0.4-0.4,0.6-0.6,0.7h6.4c0-0.6,0-1.2-0.2-1.6c-0.1-0.4-0.4-0.7-0.7-1c-0.3-0.2-0.7-0.4-1.1-0.5s-0.9-0.1-1.5-0.1h-2V119.5z
		 M131,112.7v-4.5c0-0.5,0.1-0.9,0.2-1.3s0.4-0.7,0.8-0.8h-2.3c-0.2,0-0.5,0.1-0.8,0.2s-0.5,0.3-0.7,0.5s-0.4,0.4-0.5,0.7
		c-0.1,0.3-0.2,0.5-0.2,0.8v14.3h2c0.3,0,0.6-0.1,0.8-0.3c0.2-0.2,0.4-0.4,0.5-0.7c0.1-0.3,0.2-0.6,0.2-0.9s0-0.6,0-0.8v-4h3.8
		c0.6,0,1-0.2,1.3-0.5s0.4-0.7,0.4-1.1s-0.1-0.8-0.4-1.1c-0.3-0.3-0.7-0.5-1.3-0.5L131,112.7L131,112.7z M120.3,116.4v4.2
		c0,0.3,0.1,0.6,0.2,0.8c0.1,0.3,0.3,0.5,0.5,0.7s0.4,0.3,0.7,0.5c0.3,0.1,0.5,0.2,0.8,0.2h1.3v-2.5c0-0.8-0.1-1.5-0.3-2
		c-0.2-0.5-0.5-0.9-0.8-1.2c-0.3-0.3-0.7-0.5-1-0.6c-0.4-0.1-0.7-0.2-1.1-0.2h-0.3V116.4z M122.4,106c-0.2,0-0.5,0.1-0.8,0.2
		s-0.5,0.3-0.7,0.5s-0.4,0.4-0.5,0.7c-0.1,0.3-0.2,0.5-0.2,0.8v4.6h-6.6v3.2h7c0.3,0,0.6,0,0.9,0.1s0.6,0.2,0.9,0.3
		c0.3,0.1,0.5,0.3,0.8,0.6c0.2,0.2,0.4,0.5,0.6,0.8V106L122.4,106L122.4,106z M109.7,118.9v0.9c0,0.3,0,0.6,0.1,0.9s0.2,0.6,0.3,0.9
		c0.2,0.3,0.4,0.5,0.7,0.8c0.2,0.1,0.3,0.2,0.6,0.2s0.4,0.1,0.7,0.1c0.2,0,0.4,0,0.6,0h0.5v-14.6c0-0.3-0.1-0.6-0.2-0.8
		c-0.1-0.3-0.3-0.5-0.5-0.7s-0.4-0.4-0.7-0.5c-0.3-0.1-0.5-0.2-0.8-0.2h-1.4L109.7,118.9L109.7,118.9z M103,119.4
		c-0.3,0.1-0.6,0.2-0.9,0.2c-0.4,0.1-0.8,0.1-1.2,0.1c-0.9,0-1.7-0.1-2.6-0.3c-0.8-0.2-1.6-0.5-2.2-1c-0.7-0.4-1.3-1-1.8-1.7
		s-0.9-1.5-1.1-2.4c0,0,0,0.1,0,0.2s0,0.1,0,0.2c0,1.2,0.2,2.3,0.6,3.4c0.4,1,1,1.9,1.7,2.7c0.7,0.7,1.6,1.3,2.5,1.7
		c1,0.4,2,0.6,3.2,0.6c1,0,1.9-0.1,2.6-0.4s1.4-0.6,1.9-1c0.6-0.4,1-0.9,1.4-1.4c-0.3-0.4-0.6-0.8-0.9-1s-0.6-0.4-1-0.5
		s-0.8,0-1.3,0.2C103.6,119.1,103.2,119.3,103,119.4 M97.4,117.1c-0.4-0.8-0.6-1.7-0.5-2.7c0-0.7,0.1-1.4,0.3-2
		c0.2-0.6,0.5-1.2,0.8-1.7c0.4-0.5,0.8-0.8,1.4-1.1c0.5-0.3,1.2-0.4,1.9-0.4c0.3,0,0.6,0,0.8,0c0.2,0,0.4,0.1,0.6,0.1
		c0.2,0.1,0.4,0.1,0.6,0.2s0.4,0.2,0.7,0.3c0.4,0.3,0.9,0.3,1.3,0.2c0.4-0.1,0.7-0.3,1-0.5c0.3-0.3,0.7-0.6,0.9-1
		c-0.4-0.5-0.8-1-1.4-1.4c-0.5-0.4-1.1-0.7-1.9-1c-0.7-0.3-1.6-0.4-2.6-0.4c-0.4,0-0.8,0-1.3,0.1s-1,0.2-1.5,0.4
		c-0.5,0.2-1,0.4-1.6,0.7c-0.5,0.3-1,0.7-1.5,1.2s-0.9,1.1-1.2,1.8c-0.3,0.7-0.6,1.5-0.8,2.4c0,0.5,0.1,1.1,0.3,1.8
		c0.2,0.7,0.6,1.4,1,2c0.5,0.7,1.1,1.2,1.8,1.7c0.7,0.5,1.6,0.8,2.5,0.9C98.3,118.5,97.8,117.9,97.4,117.1 M79.5,110.8
		c0-0.2,0-0.4,0-0.7c0-0.3,0-0.6,0.1-1c0-0.3,0.1-0.7,0.2-1s0.3-0.5,0.5-0.6c-0.2-0.4-0.6-0.8-1.1-1c-0.5-0.3-0.9-0.4-1.4-0.4
		s-0.9,0.2-1.3,0.5s-0.5,0.9-0.5,1.7v14.5h1.3c0.3,0,0.5-0.1,0.8-0.2s0.5-0.3,0.7-0.5s0.4-0.4,0.5-0.7c0.1-0.3,0.2-0.5,0.2-0.8
		L79.5,110.8L79.5,110.8z M79.9,110.7c0-1,0.1-1.7,0.3-2.1c0.2-0.4,0.4-0.6,0.6-0.7c0.1,0.1,0.3,0.4,0.6,0.9
		c0.3,0.5,0.8,1.2,1.3,1.9c0.5,0.8,1,1.6,1.6,2.4s1.1,1.7,1.7,2.4c0.5,0.8,1,1.4,1.5,2c0.4,0.6,0.8,0.9,1,1.1s0.5,0.3,0.8,0.4
		s0.6,0.2,0.9,0.2v1.4c0,0.3,0,0.6-0.1,0.8c-0.1,0.3-0.2,0.5-0.3,0.7c-0.2,0.2-0.4,0.4-0.7,0.5c-0.3,0.1-0.6,0.2-1.1,0.2
		c-0.3,0-0.5,0-0.7-0.1s-0.4-0.2-0.6-0.3c-0.2-0.1-0.3-0.3-0.4-0.4s-0.2-0.3-0.3-0.4c-0.1-0.1-0.3-0.4-0.5-0.8c-0.3-0.4-0.6-1-1-1.6
		s-0.8-1.3-1.3-2s-0.9-1.3-1.3-2c-0.4-0.6-0.8-1.1-1.1-1.6c-0.3-0.4-0.5-0.7-0.6-0.8v-2.1H79.9z M87.8,117.3
		c-0.2-0.3-0.4-0.5-0.6-0.8s-0.4-0.6-0.6-0.9v-7.3c0-0.3,0.1-0.6,0.2-0.9s0.3-0.5,0.5-0.7s0.5-0.3,0.7-0.4c0.3-0.1,0.5-0.1,0.8-0.1
		h1.3v12.5c-0.3,0-0.6-0.1-0.9-0.2s-0.6-0.3-0.8-0.5S88,117.5,87.8,117.3 M65.6,109.7c0.1-0.2,0.2-0.5,0.3-0.8
		c0.1-0.3,0.3-0.5,0.5-0.8s0.5-0.5,0.8-0.7s0.7-0.3,1.1-0.4c-0.2-0.3-0.3-0.5-0.6-0.7c-0.2-0.2-0.5-0.3-0.9-0.4
		c-0.3-0.1-0.7-0.2-1.2-0.2c-0.2,0-0.4,0-0.6,0s-0.4,0.1-0.5,0.1c-0.4,0.1-0.7,0.3-1,0.5c-0.2,0.2-0.5,0.5-0.6,0.7
		c-0.2,0.3-0.3,0.6-0.4,0.8s-0.2,0.6-0.3,0.8l-4.4,13.7h1.3c0.7,0,1.2-0.1,1.6-0.3c0.4-0.2,0.7-0.5,1-0.8c0.2-0.3,0.4-0.6,0.6-1
		c0.1-0.4,0.3-0.7,0.4-1L65.6,109.7z M71.1,116.7c-0.4-0.3-1.1-0.5-1.8-0.5h-5.1l-1,3.2h5.6c0.1,0.4,0.3,0.8,0.4,1.1
		c0.1,0.4,0.3,0.7,0.6,1.1c0.2,0.3,0.6,0.6,1,0.8c0.4,0.2,0.9,0.3,1.6,0.3h1.3c-0.3-0.8-0.5-1.5-0.7-2.2c-0.1-0.3-0.2-0.5-0.3-0.8
		c-0.1-0.3-0.2-0.5-0.2-0.7c-0.1-0.2-0.1-0.4-0.2-0.5c0-0.1-0.1-0.2-0.1-0.2C71.9,117.5,71.5,117,71.1,116.7 M66.5,109.1
		c-0.1,0.2-0.2,0.5-0.3,0.7c-0.1,0.3-0.2,0.5-0.3,0.8l1.6,5.2c0.3,0,0.7,0,1,0c0.4,0,0.7,0,1.1,0s0.7,0.1,1,0.2s0.6,0.3,0.8,0.5
		L69,109c-0.1-0.2-0.2-0.4-0.2-0.7c-0.1-0.2-0.2-0.5-0.3-0.7c-0.4,0.1-0.8,0.2-1,0.4c-0.3,0.2-0.5,0.4-0.7,0.6
		C66.7,108.7,66.6,108.8,66.5,109.1 M50.4,110.6c0.1-0.5,0.2-1,0.3-1.4s0.3-0.7,0.6-1c0.2-0.3,0.5-0.5,0.9-0.7
		c0.3-0.2,0.8-0.3,1.3-0.4c-0.4-0.5-0.8-0.8-1.2-1c-0.4-0.2-0.9-0.3-1.5-0.3s-1,0.1-1.4,0.2s-0.7,0.4-0.9,0.6
		c-0.2,0.3-0.4,0.6-0.6,1c-0.1,0.4-0.3,0.8-0.3,1.3L44.3,122c0,0.1,0.2,0.2,0.5,0.4c0.3,0.2,0.7,0.3,1.1,0.3c0.5,0,0.9-0.1,1.2-0.2
		c0.3-0.1,0.5-0.3,0.7-0.6c0.2-0.3,0.3-0.6,0.4-1s0.2-0.8,0.3-1.4L50.4,110.6z M54,109c-0.1-0.4-0.1-0.7-0.2-0.9
		c0-0.2-0.1-0.3-0.1-0.4s-0.1-0.1-0.1-0.1c-0.4,0-0.8,0.2-1.2,0.4c-0.3,0.2-0.6,0.4-0.8,0.7c-0.1,0.2-0.3,0.4-0.4,0.6
		s-0.2,0.4-0.2,0.6c-0.1,0.2-0.1,0.4-0.1,0.6s0,0.3,0,0.4l1.4,8.6c0,0.3,0.1,0.7,0.3,1.1c0.1,0.4,0.3,0.7,0.6,1
		c0.3,0.3,0.6,0.6,1,0.8c0.4,0.2,1,0.3,1.6,0.3h0.6L54,109z M41,110.6c0-0.3,0.1-0.7,0.2-1.1s0.2-0.8,0.5-1.2
		c0.2-0.3,0.5-0.5,0.8-0.7c0.4-0.2,0.8-0.3,1.2-0.4c-0.4-0.5-0.8-0.8-1.2-1c-0.4-0.2-0.9-0.3-1.5-0.3s-1,0.1-1.4,0.2
		s-0.7,0.4-0.9,0.6c-0.2,0.3-0.4,0.6-0.6,1s-0.3,0.8-0.3,1.3l-2.4,13.7h1.3c0.7,0,1.2-0.1,1.5-0.3c0.4-0.2,0.6-0.5,0.8-0.8
		c0.2-0.3,0.3-0.7,0.4-1c0.1-0.4,0.1-0.7,0.2-1.1L41,110.6z M44.4,109c-0.1-0.5-0.2-0.9-0.3-1.1c-0.1-0.1-0.1-0.2-0.2-0.3
		c-0.4,0-0.8,0.2-1.1,0.3c-0.3,0.2-0.5,0.4-0.7,0.7c-0.1,0.2-0.3,0.4-0.3,0.7c-0.1,0.2-0.1,0.4-0.2,0.6c0,0.2-0.1,0.4-0.1,0.5
		c0,0.2,0,0.3,0,0.4c0.4,1.5,0.7,2.8,1,3.9s0.5,2,0.6,2.8c0.2,0.8,0.3,1.4,0.4,1.9s0.2,0.9,0.2,1.2c0.1,0.3,0.1,0.5,0.1,0.7
		s0.1,0.3,0.1,0.4l1.7-7.3L44.4,109z M19.6,109.7c0.1-0.2,0.2-0.5,0.3-0.8s0.3-0.5,0.5-0.8s0.5-0.5,0.8-0.7s0.7-0.3,1.1-0.4
		c-0.2-0.3-0.3-0.5-0.6-0.7c-0.2-0.2-0.5-0.3-0.9-0.4c-0.3-0.1-0.7-0.2-1.2-0.2c-0.2,0-0.4,0-0.6,0c-0.2,0-0.4,0.1-0.5,0.1
		c-0.4,0.1-0.7,0.3-1,0.5c-0.2,0.2-0.5,0.5-0.6,0.7c-0.2,0.3-0.3,0.6-0.4,0.8c-0.1,0.3-0.2,0.6-0.3,0.8l-4.4,13.7h1.3
		c0.7,0,1.2-0.1,1.6-0.3c0.4-0.2,0.7-0.5,1-0.8c0.2-0.3,0.4-0.6,0.6-1c0.1-0.4,0.3-0.7,0.4-1L19.6,109.7z M25.1,116.7
		c-0.4-0.3-1.1-0.5-1.8-0.5h-5.1l-1,3.2h5.6c0.1,0.4,0.3,0.8,0.4,1.1c0.1,0.4,0.3,0.7,0.6,1.1c0.2,0.3,0.6,0.6,1,0.8
		c0.4,0.2,0.9,0.3,1.6,0.3h1.3c-0.3-0.8-0.5-1.5-0.7-2.2c-0.1-0.3-0.2-0.5-0.3-0.8c-0.1-0.3-0.2-0.5-0.2-0.7
		c-0.1-0.2-0.1-0.4-0.2-0.5c0-0.1-0.1-0.2-0.1-0.2C25.8,117.5,25.5,117,25.1,116.7 M20.4,109.1c-0.1,0.2-0.2,0.5-0.3,0.7
		c-0.1,0.3-0.2,0.5-0.3,0.8l1.6,5.2c0.3,0,0.7,0,1,0c0.4,0,0.7,0,1.1,0s0.7,0.1,1,0.2s0.6,0.3,0.8,0.5l-2.4-7.5
		c-0.1-0.2-0.2-0.4-0.2-0.7c-0.1-0.2-0.2-0.5-0.3-0.7c-0.4,0.1-0.8,0.2-1,0.4c-0.3,0.2-0.5,0.4-0.7,0.6
		C20.6,108.7,20.5,108.8,20.4,109.1 M4.9,109.5c0-0.3,0-0.5,0-0.8s0-0.5-0.1-0.8c-0.1-0.2-0.2-0.5-0.3-0.7c-0.2-0.2-0.4-0.5-0.7-0.7
		c-0.2-0.1-0.4-0.2-0.6-0.3c-0.2-0.1-0.4-0.1-0.6-0.1c-0.2,0-0.4,0-0.6,0H1.5l0,0v10c0,1,0.3,1.7,0.9,2.2C3,118.8,3.9,119,5,119
		L4.9,109.5L4.9,109.5z M10.7,122.7c0-0.6,0-1.2-0.2-1.6c-0.1-0.4-0.4-0.7-0.7-1c-0.3-0.2-0.7-0.4-1.1-0.5c-0.4-0.1-0.9-0.1-1.5-0.1
		H4.4c-0.6,0-1.2-0.1-1.7-0.3c-0.5-0.2-1-0.6-1.4-1.3v1.4c0,0.2,0,0.5,0.1,0.9s0.2,0.7,0.4,1.1s0.5,0.7,0.8,1
		c0.4,0.3,0.8,0.4,1.5,0.4H10.7z"/>
	<path class="st5" d="M137.5,136.8v-1H134v-6.9h-1.2v7.9H137.5z M129.3,133.8H127l0.8-1.9c0.1-0.3,0.2-0.6,0.3-1l0,0
		c0.1,0.3,0.2,0.7,0.3,1L129.3,133.8z M131.7,136.8l-3.4-8h-0.4l-3.4,8h1.2l0.9-2h3.1l0.9,2H131.7z M125.2,129.9v-1h-6.3v1h2.5v6.9
		h1.2v-6.9H125.2z M118,137v-8.1h-1.2v3.7c0,0.6,0,1.3,0,1.9l0,0c-0.5-0.6-1.2-1.4-1.7-1.9l-3.4-3.7h-0.8v7.9h1.2v-4
		c0-0.6,0-1.3,0-2l0,0c0.5,0.6,1.2,1.4,1.8,2.1l3.7,4.1H118z M109.9,136.8v-1h-3.5v-2.4h2.6v-1h-2.6V130h3.1v-1h-4.3v7.9h4.7V136.8z
		 M103.8,136.8l-0.7-7.9h-0.7l-2.1,4.1c-0.3,0.7-0.7,1.4-1,2l0,0c-0.3-0.6-0.7-1.4-1-2l-2.1-4.1h-0.7l-0.7,7.9h1.1l0.3-3.6
		c0-0.5,0.1-1.2,0.1-1.8l0,0c0.3,0.6,0.6,1.3,0.9,1.8l1.9,3.6h0.4l1.8-3.6c0.3-0.5,0.6-1.3,0.9-1.8l0,0c0,0.6,0.1,1.3,0.1,1.8
		l0.3,3.6H103.8z M93.8,136.8v-1h-3.5v-2.4h2.6v-1h-2.6V130h3.1v-1h-4.3v7.9h4.7V136.8z M88.2,129.9v-1H82v1h2.5v6.9h1.2v-6.9H88.2z
		 M80.2,131.1c0,0.8-0.7,1.2-1.4,1.2h-1.1v-2.4h1.1C79.5,129.9,80.2,130.3,80.2,131.1 M82.7,136.8l-2.7-3.7c0.8-0.3,1.4-1,1.4-2
		c0-1.5-1.3-2.2-2.4-2.2h-2.5v7.9h1.2v-3.5h1.1l2.5,3.5L82.7,136.8L82.7,136.8z M73,133.8h-2.3l0.8-1.9c0.1-0.3,0.2-0.6,0.3-1l0,0
		c0.1,0.3,0.2,0.7,0.3,1L73,133.8z M75.5,136.8l-3.4-8h-0.4l-3.4,8h1.2l0.9-2h3.1l0.9,2H75.5z M67.4,131.1c0,0.8-0.7,1.2-1.4,1.2h-1
		v-2.4h1C66.8,129.9,67.4,130.3,67.4,131.1 M68.7,131.1c0-1.5-1.3-2.2-2.4-2.2h-2.4v7.9h1.2v-3.5h1.2
		C67.4,133.3,68.7,132.6,68.7,131.1 M62.8,136.8v-1h-3.5v-2.4h2.6v-1h-2.6V130h3.1v-1h-4.3v7.9h4.7V136.8z M62.1,127l-0.2-1
		c-0.7,0.6-1.7,1.1-2.5,1.3l0.6,0.6C60.9,127.7,61.4,127.5,62.1,127 M55.6,132.8c0,2-1.5,2.9-3.3,2.9h-1v-5.9h1
		C54.1,129.9,55.6,130.8,55.6,132.8 M56.8,132.8c0-2.6-2.1-4-4.3-4h-2.4v7.9h2.4C54.8,136.8,56.8,135.4,56.8,132.8 M45.2,136.8v-1
		h-3.5v-6.9h-1.2v7.9H45.2z M38.7,128.9h-1.2v7.9h1.2V128.9z M36.2,136.8v-1h-3.5v-2.4h2.6v-1h-2.6V130h3.1v-1h-4.3v7.9h4.7V136.8z
		 M30.3,134.6c0-1.3-0.9-2.1-2.3-2.5c-0.8-0.3-1.3-0.7-1.3-1.2c0-0.6,0.5-1.1,1.3-1.1c0.6,0,1.3,0.3,1.5,0.5l0.2-1
		c-0.3-0.2-0.9-0.5-1.7-0.5c-1.7,0-2.5,1.1-2.5,2.2s0.7,1.9,2.2,2.3c1,0.3,1.4,0.8,1.4,1.5s-0.6,1.2-1.5,1.2s-1.6-0.3-2.4-0.8
		l0.3,1.3c0.4,0.3,1.2,0.5,2,0.5C29.3,136.9,30.3,136,30.3,134.6 M24,137v-8.1h-1.2v3.7c0,0.6,0,1.3,0,1.9l0,0
		c-0.5-0.6-1.2-1.4-1.7-1.9l-3.4-3.7h-0.8v7.9h1.2v-4c0-0.6,0-1.3,0-2l0,0c0.5,0.6,1.2,1.4,1.8,2.1l3.7,4.1H24z M14.4,132.8
		c0,2-1.5,3.1-3,3.1s-3-1.1-3-3.1s1.5-3.1,3-3.1C12.9,129.8,14.4,130.9,14.4,132.8 M15.6,132.8c0-2.5-2.1-4.1-4.2-4.1
		c-2.1,0-4.2,1.6-4.2,4.1c0,2.6,2.1,4.1,4.2,4.1S15.6,135.4,15.6,132.8 M6.6,129.2c-0.5-0.3-1.2-0.5-2.3-0.5c-2,0-4.3,1.4-4.3,4.1
		s2.3,4.1,4.3,4.1c1,0,1.6-0.1,2.1-0.4l0.2-1.2c-0.5,0.3-1.2,0.5-2.2,0.5c-1.6,0-3.2-1-3.2-3.1s1.6-3.1,3.2-3.1c0.8,0,1.6,0.3,2,0.5
		L6.6,129.2z"/>
</g>
</svg>
