<?xml version="1.0" encoding="utf-8"?>
<!-- Generator: Adobe Illustrator 21.1.0, SVG Export Plug-In . SVG Version: 6.00 Build 0)  -->
<svg version="1.1" id="Calque_1" xmlns="http://www.w3.org/2000/svg" xmlns:xlink="http://www.w3.org/1999/xlink" x="0px" y="0px"
	 viewBox="0 0 595.3 841.9" style="enable-background:new 0 0 595.3 841.9;" xml:space="preserve">
<style type="text/css">
	.st0{fill:#145094;}
	.st1{fill:#FAAE31;}
	.st2{fill:#FFFFFF;}
</style>
<g>
	<g>
		<g>
			<g>
				<path class="st0" d="M301.7,394.4c0,1,0.9,1.5,1.8,1.5c0.7,0,1.6-0.3,1.6-1.1c0-0.7-1-1-2.7-1.4c-1.4-0.3-2.8-0.8-2.8-2.3
					c0-2.2,1.9-2.8,3.8-2.8c1.9,0,3.6,0.6,3.8,2.8H305c-0.1-0.9-0.8-1.2-1.6-1.2c-0.5,0-1.3,0.1-1.3,0.8c0,0.9,1.3,1,2.7,1.3
					c1.4,0.3,2.8,0.8,2.8,2.4c0,2.3-2,3-4,3c-2,0-4-0.8-4.1-3.1H301.7"/>
				<path class="st0" d="M315.1,393c-0.4,0.4-1.2,0.4-2,0.5c-0.7,0.2-1.4,0.4-1.4,1.3c0,0.9,0.7,1.1,1.5,1.1c1.9,0,1.9-1.5,1.9-2
					V393 M309.6,391.2c0.1-2.2,2.1-2.9,4.1-2.9c1.7,0,3.8,0.4,3.8,2.5v4.5c0,0.8,0.1,1.6,0.3,1.9h-2.4c-0.1-0.3-0.1-0.6-0.2-0.8
					c-0.8,0.8-1.9,1.1-2.9,1.1c-1.6,0-3-0.8-3-2.6c0-2,1.5-2.4,3-2.6c1.5-0.2,2.8-0.2,2.8-1.1c0-1-0.7-1.2-1.5-1.2
					c-0.9,0-1.5,0.4-1.6,1.3H309.6z"/>
				<path class="st0" d="M320.2,388.6h2.3v1.2h0.1c0.6-1,1.6-1.4,2.7-1.4c2.5,0,3.2,1.4,3.2,3.6v5.3h-2.4v-4.9
					c0-1.4-0.4-2.1-1.5-2.1c-1.3,0-1.8,0.7-1.8,2.5v4.5h-2.4V388.6"/>
				<path class="st0" d="M334,388.6h1.7v1.6H334v4.3c0,0.8,0.2,1,1,1c0.3,0,0.5,0,0.7-0.1v1.9c-0.4,0.1-0.9,0.1-1.4,0.1
					c-1.5,0-2.7-0.3-2.7-2.1v-5.1h-1.4v-1.6h1.4V386h2.4V388.6"/>
				<path class="st0" d="M342,387.5h-1.7l1.6-2.4h2.6L342,387.5 M343.5,392c-0.2-1.2-0.7-1.8-1.9-1.8c-1.5,0-1.9,1.2-2,1.8H343.5z
					 M339.7,393.5c0.1,1.5,0.8,2.2,2.1,2.2c1,0,1.7-0.6,1.9-1.1h2.1c-0.7,2-2.1,2.9-4.1,2.9c-2.7,0-4.4-1.9-4.4-4.6
					c0-2.6,1.8-4.6,4.4-4.6c3,0,4.4,2.5,4.2,5.2H339.7z"/>
				<path class="st0" d="M300.4,411.5h-1.4v-1.6h1.4v-0.7c0-1.5,1-2.6,2.9-2.6c0.4,0,0.9,0.1,1.3,0.1v1.8c-0.3,0-0.6-0.1-0.9-0.1
					c-0.6,0-0.9,0.3-0.9,1v0.5h1.6v1.6h-1.6v7.1h-2.4V411.5"/>
				<path class="st0" d="M311.7,414.3c-0.4,0.4-1.2,0.4-2,0.5c-0.7,0.1-1.4,0.4-1.4,1.3c0,0.9,0.7,1.1,1.5,1.1c1.9,0,1.9-1.5,1.9-2
					V414.3 M306.2,412.6c0.1-2.2,2.1-2.9,4.1-2.9c1.7,0,3.8,0.4,3.8,2.5v4.5c0,0.8,0.1,1.6,0.3,1.9h-2.4c-0.1-0.3-0.2-0.6-0.2-0.8
					c-0.8,0.8-1.9,1.1-2.9,1.1c-1.6,0-3-0.8-3-2.6c0-2,1.5-2.4,3-2.6c1.5-0.2,2.8-0.2,2.8-1.1c0-1-0.7-1.2-1.5-1.2
					c-0.9,0-1.5,0.4-1.6,1.3H306.2z"/>
				<path class="st0" d="M316.8,409.9h2.2v1.2h0c0.6-0.9,1.5-1.4,2.7-1.4c1.1,0,2.1,0.4,2.5,1.4c0.5-0.8,1.4-1.4,2.6-1.4
					c1.8,0,3.2,0.9,3.2,3.1v5.8h-2.4v-4.9c0-1.2-0.1-2.1-1.5-2.1c-1.3,0-1.6,1.1-1.6,2.2v4.8h-2.4v-4.9c0-1,0.1-2.2-1.4-2.2
					c-0.5,0-1.6,0.3-1.6,2v5h-2.4V409.9"/>
				<path class="st0" d="M332.8,409.9h2.4v8.7h-2.4V409.9z M332.8,409.9 M335.2,408.5h-2.4v-2h2.4V408.5z M335.2,408.5"/>
				<rect x="338" y="406.6" class="st0" width="2.4" height="12"/>
				<rect x="343.2" y="406.6" class="st0" width="2.4" height="12"/>
				<path class="st0" d="M354.1,413.3c-0.2-1.2-0.7-1.9-1.9-1.9c-1.5,0-1.9,1.2-2,1.9H354.1 M350.3,414.8c0.1,1.5,0.8,2.2,2.1,2.2
					c1,0,1.7-0.6,1.9-1.1h2.1c-0.7,2-2.1,2.9-4.1,2.9c-2.7,0-4.4-1.9-4.4-4.6c0-2.6,1.8-4.6,4.4-4.6c3,0,4.4,2.5,4.2,5.2H350.3z"/>
				<path class="st0" d="M299.8,431.2h2.3v1.6h0c0.4-1.1,1.6-1.8,2.8-1.8c0.2,0,0.4,0,0.5,0.1v2.2c-0.2-0.1-0.6-0.1-0.9-0.1
					c-1.7,0-2.3,1.3-2.3,2.8v3.9h-2.4V431.2"/>
				<path class="st0" d="M312.7,434.6c-0.2-1.2-0.7-1.8-1.9-1.8c-1.5,0-1.9,1.2-2,1.8H312.7 M308.9,436.1c0.1,1.5,0.8,2.2,2.1,2.2
					c1,0,1.7-0.6,1.9-1.1h2.1c-0.7,2-2.1,2.9-4.1,2.9c-2.7,0-4.4-1.9-4.4-4.6c0-2.6,1.8-4.6,4.4-4.6c3,0,4.4,2.5,4.2,5.1H308.9z"/>
				<path class="st0" d="M320.4,431.2h1.7v1.6h-1.7v4.3c0,0.8,0.2,1,1,1c0.3,0,0.5,0,0.7-0.1v1.9c-0.4,0.1-0.9,0.1-1.4,0.1
					c-1.5,0-2.7-0.3-2.7-2.1v-5.1h-1.4v-1.6h1.4v-2.6h2.4V431.2"/>
				<path class="st0" d="M324.1,431.2h2.3v1.6h0c0.4-1.1,1.6-1.8,2.8-1.8c0.2,0,0.4,0,0.5,0.1v2.2c-0.2-0.1-0.6-0.1-0.9-0.1
					c-1.7,0-2.4,1.3-2.4,2.8v3.9h-2.4V431.2"/>
				<path class="st0" d="M336.9,435.7c-0.4,0.4-1.2,0.4-2,0.5c-0.7,0.1-1.4,0.4-1.4,1.3c0,0.9,0.7,1.1,1.5,1.1c1.9,0,1.9-1.5,1.9-2
					V435.7 M331.4,433.9c0.1-2.2,2.1-2.9,4.1-2.9c1.7,0,3.8,0.4,3.8,2.5v4.5c0,0.8,0.1,1.6,0.3,1.9h-2.4c-0.1-0.3-0.2-0.6-0.2-0.8
					c-0.8,0.8-1.9,1.1-2.9,1.1c-1.6,0-3-0.8-3-2.6c0-2,1.5-2.4,3-2.6c1.5-0.2,2.8-0.2,2.8-1.1c0-1-0.7-1.2-1.5-1.2
					c-0.9,0-1.5,0.4-1.6,1.3H331.4z"/>
				<path class="st0" d="M342,431.2h2.4v8.7H342V431.2z M342,431.2 M344.4,429.9H342v-2h2.4V429.9z M344.4,429.9"/>
				<path class="st0" d="M350.2,431.2h1.7v1.6h-1.7v4.3c0,0.8,0.2,1,1,1c0.3,0,0.5,0,0.7-0.1v1.9c-0.4,0.1-0.9,0.1-1.4,0.1
					c-1.5,0-2.7-0.3-2.7-2.1v-5.1h-1.4v-1.6h1.4v-2.6h2.4V431.2"/>
				<path class="st0" d="M359.7,434.6c-0.2-1.2-0.7-1.8-1.9-1.8c-1.5,0-1.9,1.2-2,1.8H359.7 M355.8,436.1c0.1,1.5,0.8,2.2,2.1,2.2
					c1,0,1.7-0.6,1.9-1.1h2.1c-0.7,2-2.1,2.9-4.1,2.9c-2.7,0-4.4-1.9-4.4-4.6c0-2.6,1.8-4.6,4.4-4.6c3,0,4.4,2.5,4.2,5.1H355.8z"/>
				<path class="st0" d="M301.7,458.4c0,1,0.9,1.5,1.8,1.5c0.7,0,1.6-0.3,1.6-1.1c0-0.7-1-1-2.7-1.3c-1.4-0.3-2.8-0.8-2.8-2.3
					c0-2.2,1.9-2.8,3.8-2.8c1.9,0,3.6,0.6,3.8,2.8H305c-0.1-0.9-0.8-1.2-1.6-1.2c-0.5,0-1.3,0.1-1.3,0.8c0,0.9,1.3,1,2.7,1.3
					c1.4,0.3,2.8,0.8,2.8,2.4c0,2.3-2,3-4,3c-2,0-4-0.8-4.1-3H301.7"/>
				<path class="st0" d="M315.5,456c-0.2-1.2-0.7-1.8-1.9-1.8c-1.5,0-1.9,1.2-2,1.8H315.5 M311.6,457.5c0.1,1.5,0.8,2.2,2.1,2.2
					c1,0,1.7-0.6,1.9-1.1h2.1c-0.7,2-2.1,2.9-4.1,2.9c-2.7,0-4.4-1.9-4.4-4.6c0-2.6,1.8-4.6,4.4-4.6c3,0,4.4,2.5,4.2,5.2H311.6z"/>
				<path class="st0" d="M320.2,452.6h2.3v1.6h0c0.4-1.1,1.6-1.8,2.8-1.8c0.2,0,0.4,0,0.5,0.1v2.2c-0.2,0-0.6-0.1-0.9-0.1
					c-1.7,0-2.3,1.3-2.3,2.8v3.9h-2.4V452.6"/>
				<polyline class="st0" points="332.3,461.2 329.7,461.2 326.7,452.6 329.2,452.6 331,458.5 331.1,458.5 332.9,452.6 335.3,452.6 
					332.3,461.2 				"/>
				<path class="st0" d="M337.2,452.6h2.4v8.7h-2.4V452.6z M337.2,452.6 M339.5,451.2h-2.4v-2h2.4V451.2z M339.5,451.2"/>
				<path class="st0" d="M348.2,455.6c-0.1-1-0.8-1.5-1.8-1.5c-1.5,0-2,1.5-2,2.8c0,1.2,0.5,2.7,2,2.7c1.1,0,1.7-0.7,1.9-1.8h2.3
					c-0.3,2.3-1.9,3.6-4.2,3.6c-2.6,0-4.4-1.8-4.4-4.4c0-2.7,1.6-4.7,4.4-4.7c2,0,3.9,1.1,4.1,3.3H348.2"/>
				<path class="st0" d="M358.6,456c-0.2-1.2-0.7-1.8-1.9-1.8c-1.5,0-1.9,1.2-2,1.8H358.6 M354.7,457.5c0.1,1.5,0.8,2.2,2.1,2.2
					c1,0,1.7-0.6,1.9-1.1h2.1c-0.7,2-2.1,2.9-4.1,2.9c-2.7,0-4.4-1.9-4.4-4.6c0-2.6,1.8-4.6,4.4-4.6c3,0,4.4,2.5,4.2,5.2H354.7z"/>
				<path class="st0" d="M365.1,458.4c0,1,0.9,1.5,1.8,1.5c0.7,0,1.6-0.3,1.6-1.1c0-0.7-1-1-2.7-1.3c-1.4-0.3-2.8-0.8-2.8-2.3
					c0-2.2,1.9-2.8,3.8-2.8c1.9,0,3.6,0.6,3.8,2.8h-2.3c-0.1-0.9-0.8-1.2-1.6-1.2c-0.5,0-1.3,0.1-1.3,0.8c0,0.9,1.3,1,2.7,1.3
					c1.4,0.3,2.8,0.8,2.8,2.4c0,2.3-2,3-4,3c-2,0-4-0.8-4.1-3H365.1"/>
				<rect x="297.4" y="380.6" class="st1" width="86.3" height="1"/>
				<rect x="297.4" y="402" class="st1" width="86.3" height="1"/>
				<rect x="297.4" y="423.3" class="st1" width="86.3" height="1"/>
				<rect x="297.4" y="444.6" class="st1" width="86.3" height="1"/>
				<rect x="297.4" y="466" class="st1" width="86.3" height="1"/>
				<rect x="199.6" y="380.6" class="st0" width="86.3" height="86.3"/>
				<path class="st2" d="M271.5,445.8v6.8l-18,0c-2,0-3.6-1.6-3.6-3.6c0-2,1.6-3.5,3.6-3.5l15.4,0c0.9,0,1.7-0.1,2.5-0.4
					L271.5,445.8 M278.7,452.6v-17c0-5.5-4.3-9.9-9.7-9.9h-22.6l0-18c0-6.9,5.4-12.6,12.4-12.6c7,0,12.7,5.7,12.7,12.6v17.9h7.2
					l0-17.8c0-10.9-8.9-19.9-19.8-19.9c-7,0-12.3,2.9-16.2,8.4c-3.6-5.1-9.5-8.4-16.2-8.4c-4.8,0-9.3,1.7-12.7,4.6l0-4.5l-7.2,0
					l0,37.7h7.2l0-18.2c0.2-6.9,5.7-12.3,12.6-12.3c6.9,0,12.6,5.6,12.6,12.6l0,18h-22.5c-5.5,0-9.9,4.4-9.9,9.9s4.4,9.9,9.9,9.9
					l15.5,0c2,0,3.5,1.7,3.5,3.7c0,2-1.5,3.4-3.5,3.4h-25.4v7.2h25.8c6.1,0,10.2-4.9,10.2-10.9c0-5.9-4.7-10.6-10.7-10.6l-15.3,0
					c-1.5,0-2.8-1.2-2.8-2.7c0-1.5,1.3-2.7,2.8-2.7h52.1c1.5,0,2.7,1.2,2.7,2.7c0,1.5-1.2,2.7-2.7,2.7l-10.9,0h-4.5
					c-6,0-10.7,4.7-10.7,10.6c0,6,4.8,10.9,10.7,10.9h32.1C278.5,459.8,278.7,452.6,278.7,452.6z"/>
			</g>
		</g>
	</g>
</g>
</svg>
