<?xml version="1.0" encoding="utf-8"?>
<!-- Generator: Adobe Illustrator 21.1.0, SVG Export Plug-In . SVG Version: 6.00 Build 0)  -->
<svg version="1.1" id="Calque_1" xmlns="http://www.w3.org/2000/svg" xmlns:xlink="http://www.w3.org/1999/xlink" x="0px" y="0px"
	 viewBox="0 0 184.1 86.4" style="enable-background:new 0 0 184.1 86.4;" xml:space="preserve">
<style type="text/css">
	.st0{fill:#145094;}
	.st1{fill:#FAAE31;}
	.st2{fill:#FFFFFF;}
</style>
<g>
	<g>
		<g>
			<g>
				<path class="st0" d="M102.1,13.8c0,1,0.9,1.5,1.8,1.5c0.7,0,1.6-0.3,1.6-1.1c0-0.7-1-1-2.7-1.4c-1.4-0.3-2.8-0.8-2.8-2.3
					c0-2.2,1.9-2.8,3.8-2.8s3.6,0.6,3.8,2.8h-2.2c-0.1-0.9-0.8-1.2-1.6-1.2c-0.5,0-1.3,0.1-1.3,0.8c0,0.9,1.3,1,2.7,1.3
					c1.4,0.3,2.8,0.8,2.8,2.4c0,2.3-2,3-4,3s-4-0.8-4.1-3.1h2.2"/>
				<path class="st0" d="M115.5,12.4c-0.4,0.4-1.2,0.4-2,0.5c-0.7,0.2-1.4,0.4-1.4,1.3s0.7,1.1,1.5,1.1c1.9,0,1.9-1.5,1.9-2V12.4
					 M110,10.6c0.1-2.2,2.1-2.9,4.1-2.9c1.7,0,3.8,0.4,3.8,2.5v4.5c0,0.8,0.1,1.6,0.3,1.9h-2.4c-0.1-0.3-0.1-0.6-0.2-0.8
					c-0.8,0.8-1.9,1.1-2.9,1.1c-1.6,0-3-0.8-3-2.6c0-2,1.5-2.4,3-2.6s2.8-0.2,2.8-1.1c0-1-0.7-1.2-1.5-1.2c-0.9,0-1.5,0.4-1.6,1.3
					L110,10.6L110,10.6z"/>
				<path class="st0" d="M120.6,8h2.3v1.2h0.1c0.6-1,1.6-1.4,2.7-1.4c2.5,0,3.2,1.4,3.2,3.6v5.3h-2.4v-4.9c0-1.4-0.4-2.1-1.5-2.1
					c-1.3,0-1.8,0.7-1.8,2.5v4.5h-2.4V8"/>
				<path class="st0" d="M134.4,8h1.7v1.6h-1.7v4.3c0,0.8,0.2,1,1,1c0.3,0,0.5,0,0.7-0.1v1.9c-0.4,0.1-0.9,0.1-1.4,0.1
					c-1.5,0-2.7-0.3-2.7-2.1V9.6h-1.4V8h1.4V5.4h2.4V8"/>
				<path class="st0" d="M142.4,6.9h-1.7l1.6-2.4h2.6L142.4,6.9 M143.9,11.4c-0.2-1.2-0.7-1.8-1.9-1.8c-1.5,0-1.9,1.2-2,1.8H143.9z
					 M140.1,12.9c0.1,1.5,0.8,2.2,2.1,2.2c1,0,1.7-0.6,1.9-1.1h2.1c-0.7,2-2.1,2.9-4.1,2.9c-2.7,0-4.4-1.9-4.4-4.6
					c0-2.6,1.8-4.6,4.4-4.6c3,0,4.4,2.5,4.2,5.2H140.1z"/>
				<path class="st0" d="M100.8,30.9h-1.4v-1.6h1.4v-0.7c0-1.5,1-2.6,2.9-2.6c0.4,0,0.9,0.1,1.3,0.1v1.8c-0.3,0-0.6-0.1-0.9-0.1
					c-0.6,0-0.9,0.3-0.9,1v0.5h1.6v1.6h-1.6V38h-2.4V30.9"/>
				<path class="st0" d="M112.1,33.7c-0.4,0.4-1.2,0.4-2,0.5c-0.7,0.1-1.4,0.4-1.4,1.3s0.7,1.1,1.5,1.1c1.9,0,1.9-1.5,1.9-2V33.7
					 M106.6,32c0.1-2.2,2.1-2.9,4.1-2.9c1.7,0,3.8,0.4,3.8,2.5v4.5c0,0.8,0.1,1.6,0.3,1.9h-2.4c-0.1-0.3-0.2-0.6-0.2-0.8
					c-0.8,0.8-1.9,1.1-2.9,1.1c-1.6,0-3-0.8-3-2.6c0-2,1.5-2.4,3-2.6s2.8-0.2,2.8-1.1c0-1-0.7-1.2-1.5-1.2c-0.9,0-1.5,0.4-1.6,1.3
					L106.6,32L106.6,32z"/>
				<path class="st0" d="M117.2,29.3h2.2v1.2l0,0c0.6-0.9,1.5-1.4,2.7-1.4c1.1,0,2.1,0.4,2.5,1.4c0.5-0.8,1.4-1.4,2.6-1.4
					c1.8,0,3.2,0.9,3.2,3.1V38H128v-4.9c0-1.2-0.1-2.1-1.5-2.1c-1.3,0-1.6,1.1-1.6,2.2V38h-2.4v-4.9c0-1,0.1-2.2-1.4-2.2
					c-0.5,0-1.6,0.3-1.6,2v5h-2.4L117.2,29.3"/>
				<path class="st0" d="M133.2,29.3h2.4V38h-2.4V29.3z M135.6,27.9h-2.4v-2h2.4V27.9z"/>
				<rect x="138.4" y="26" class="st0" width="2.4" height="12"/>
				<rect x="143.6" y="26" class="st0" width="2.4" height="12"/>
				<path class="st0" d="M154.5,32.7c-0.2-1.2-0.7-1.9-1.9-1.9c-1.5,0-1.9,1.2-2,1.9H154.5 M150.7,34.2c0.1,1.5,0.8,2.2,2.1,2.2
					c1,0,1.7-0.6,1.9-1.1h2.1c-0.7,2-2.1,2.9-4.1,2.9c-2.7,0-4.4-1.9-4.4-4.6c0-2.6,1.8-4.6,4.4-4.6c3,0,4.4,2.5,4.2,5.2H150.7z"/>
				<path class="st0" d="M100.2,50.6h2.3v1.6l0,0c0.4-1.1,1.6-1.8,2.8-1.8c0.2,0,0.4,0,0.5,0.1v2.2c-0.2-0.1-0.6-0.1-0.9-0.1
					c-1.7,0-2.3,1.3-2.3,2.8v3.9h-2.4V50.6"/>
				<path class="st0" d="M113.1,54c-0.2-1.2-0.7-1.8-1.9-1.8c-1.5,0-1.9,1.2-2,1.8H113.1 M109.3,55.5c0.1,1.5,0.8,2.2,2.1,2.2
					c1,0,1.7-0.6,1.9-1.1h2.1c-0.7,2-2.1,2.9-4.1,2.9c-2.7,0-4.4-1.9-4.4-4.6c0-2.6,1.8-4.6,4.4-4.6c3,0,4.4,2.5,4.2,5.1h-6.2V55.5z
					"/>
				<path class="st0" d="M120.8,50.6h1.7v1.6h-1.7v4.3c0,0.8,0.2,1,1,1c0.3,0,0.5,0,0.7-0.1v1.9c-0.4,0.1-0.9,0.1-1.4,0.1
					c-1.5,0-2.7-0.3-2.7-2.1v-5.1H117v-1.6h1.4V48h2.4V50.6"/>
				<path class="st0" d="M124.5,50.6h2.3v1.6l0,0c0.4-1.1,1.6-1.8,2.8-1.8c0.2,0,0.4,0,0.5,0.1v2.2c-0.2-0.1-0.6-0.1-0.9-0.1
					c-1.7,0-2.4,1.3-2.4,2.8v3.9h-2.4v-8.7"/>
				<path class="st0" d="M137.3,55.1c-0.4,0.4-1.2,0.4-2,0.5c-0.7,0.1-1.4,0.4-1.4,1.3s0.7,1.1,1.5,1.1c1.9,0,1.9-1.5,1.9-2V55.1
					 M131.8,53.3c0.1-2.2,2.1-2.9,4.1-2.9c1.7,0,3.8,0.4,3.8,2.5v4.5c0,0.8,0.1,1.6,0.3,1.9h-2.4c-0.1-0.3-0.2-0.6-0.2-0.8
					c-0.8,0.8-1.9,1.1-2.9,1.1c-1.6,0-3-0.8-3-2.6c0-2,1.5-2.4,3-2.6s2.8-0.2,2.8-1.1c0-1-0.7-1.2-1.5-1.2c-0.9,0-1.5,0.4-1.6,1.3
					L131.8,53.3L131.8,53.3z"/>
				<path class="st0" d="M142.4,50.6h2.4v8.7h-2.4V50.6z M144.8,49.3h-2.4v-2h2.4V49.3z"/>
				<path class="st0" d="M150.6,50.6h1.7v1.6h-1.7v4.3c0,0.8,0.2,1,1,1c0.3,0,0.5,0,0.7-0.1v1.9c-0.4,0.1-0.9,0.1-1.4,0.1
					c-1.5,0-2.7-0.3-2.7-2.1v-5.1h-1.4v-1.6h1.4V48h2.4V50.6"/>
				<path class="st0" d="M160.1,54c-0.2-1.2-0.7-1.8-1.9-1.8c-1.5,0-1.9,1.2-2,1.8H160.1 M156.2,55.5c0.1,1.5,0.8,2.2,2.1,2.2
					c1,0,1.7-0.6,1.9-1.1h2.1c-0.7,2-2.1,2.9-4.1,2.9c-2.7,0-4.4-1.9-4.4-4.6c0-2.6,1.8-4.6,4.4-4.6c3,0,4.4,2.5,4.2,5.1h-6.2V55.5z
					"/>
				<path class="st0" d="M102.1,77.8c0,1,0.9,1.5,1.8,1.5c0.7,0,1.6-0.3,1.6-1.1c0-0.7-1-1-2.7-1.3c-1.4-0.3-2.8-0.8-2.8-2.3
					c0-2.2,1.9-2.8,3.8-2.8s3.6,0.6,3.8,2.8h-2.2c-0.1-0.9-0.8-1.2-1.6-1.2c-0.5,0-1.3,0.1-1.3,0.8c0,0.9,1.3,1,2.7,1.3
					c1.4,0.3,2.8,0.8,2.8,2.4c0,2.3-2,3-4,3s-4-0.8-4.1-3L102.1,77.8"/>
				<path class="st0" d="M115.9,75.4c-0.2-1.2-0.7-1.8-1.9-1.8c-1.5,0-1.9,1.2-2,1.8H115.9 M112,76.9c0.1,1.5,0.8,2.2,2.1,2.2
					c1,0,1.7-0.6,1.9-1.1h2.1c-0.7,2-2.1,2.9-4.1,2.9c-2.7,0-4.4-1.9-4.4-4.6c0-2.6,1.8-4.6,4.4-4.6c3,0,4.4,2.5,4.2,5.2H112z"/>
				<path class="st0" d="M120.6,72h2.3v1.6l0,0c0.4-1.1,1.6-1.8,2.8-1.8c0.2,0,0.4,0,0.5,0.1v2.2c-0.2,0-0.6-0.1-0.9-0.1
					c-1.7,0-2.3,1.3-2.3,2.8v3.9h-2.4V72"/>
				<polyline class="st0" points="132.7,80.6 130.1,80.6 127.1,72 129.6,72 131.4,77.9 131.5,77.9 133.3,72 135.7,72 132.7,80.6 
									"/>
				<path class="st0" d="M137.6,72h2.4v8.7h-2.4V72z M139.9,70.6h-2.4v-2h2.4V70.6z"/>
				<path class="st0" d="M148.6,75c-0.1-1-0.8-1.5-1.8-1.5c-1.5,0-2,1.5-2,2.8c0,1.2,0.5,2.7,2,2.7c1.1,0,1.7-0.7,1.9-1.8h2.3
					c-0.3,2.3-1.9,3.6-4.2,3.6c-2.6,0-4.4-1.8-4.4-4.4c0-2.7,1.6-4.7,4.4-4.7c2,0,3.9,1.1,4.1,3.3H148.6"/>
				<path class="st0" d="M159,75.4c-0.2-1.2-0.7-1.8-1.9-1.8c-1.5,0-1.9,1.2-2,1.8H159 M155.1,76.9c0.1,1.5,0.8,2.2,2.1,2.2
					c1,0,1.7-0.6,1.9-1.1h2.1c-0.7,2-2.1,2.9-4.1,2.9c-2.7,0-4.4-1.9-4.4-4.6c0-2.6,1.8-4.6,4.4-4.6c3,0,4.4,2.5,4.2,5.2H155.1z"/>
				<path class="st0" d="M165.5,77.8c0,1,0.9,1.5,1.8,1.5c0.7,0,1.6-0.3,1.6-1.1c0-0.7-1-1-2.7-1.3c-1.4-0.3-2.8-0.8-2.8-2.3
					c0-2.2,1.9-2.8,3.8-2.8s3.6,0.6,3.8,2.8h-2.3c-0.1-0.9-0.8-1.2-1.6-1.2c-0.5,0-1.3,0.1-1.3,0.8c0,0.9,1.3,1,2.7,1.3
					c1.4,0.3,2.8,0.8,2.8,2.4c0,2.3-2,3-4,3s-4-0.8-4.1-3L165.5,77.8"/>
				<rect x="97.8" class="st1" width="86.3" height="1"/>
				<rect x="97.8" y="21.4" class="st1" width="86.3" height="1"/>
				<rect x="97.8" y="42.7" class="st1" width="86.3" height="1"/>
				<rect x="97.8" y="64" class="st1" width="86.3" height="1"/>
				<rect x="97.8" y="85.4" class="st1" width="86.3" height="1"/>
				<rect class="st0" width="86.3" height="86.3"/>
				<path class="st2" d="M71.9,65.2V72h-18c-2,0-3.6-1.6-3.6-3.6s1.6-3.5,3.6-3.5h15.4c0.9,0,1.7-0.1,2.5-0.4L71.9,65.2 M79.1,72V55
					c0-5.5-4.3-9.9-9.7-9.9H46.8v-18c0-6.9,5.4-12.6,12.4-12.6s12.7,5.7,12.7,12.6V45h7.2V27.2c0-10.9-8.9-19.9-19.8-19.9
					c-7,0-12.3,2.9-16.2,8.4c-3.6-5.1-9.5-8.4-16.2-8.4c-4.8,0-9.3,1.7-12.7,4.6V7.4H7v37.7h7.2V26.9c0.2-6.9,5.7-12.3,12.6-12.3
					c6.9,0,12.6,5.6,12.6,12.6v18H16.9c-5.5,0-9.9,4.4-9.9,9.9s4.4,9.9,9.9,9.9h15.5c2,0,3.5,1.7,3.5,3.7s-1.5,3.4-3.5,3.4H7v7.2
					h25.8c6.1,0,10.2-4.9,10.2-10.9c0-5.9-4.7-10.6-10.7-10.6H17c-1.5,0-2.8-1.2-2.8-2.7s1.3-2.7,2.8-2.7h52.1
					c1.5,0,2.7,1.2,2.7,2.7s-1.2,2.7-2.7,2.7H58.2h-4.5c-6,0-10.7,4.7-10.7,10.6c0,6,4.8,10.9,10.7,10.9h32.1
					C78.9,79.2,79.1,72,79.1,72z"/>
			</g>
		</g>
	</g>
</g>
</svg>
