<?xml version="1.0" encoding="utf-8"?>
<!-- Generator: Adobe Illustrator 21.1.0, SVG Export Plug-In . SVG Version: 6.00 Build 0)  -->
<svg version="1.1" id="Calque_1" xmlns="http://www.w3.org/2000/svg" xmlns:xlink="http://www.w3.org/1999/xlink" x="0px" y="0px"
	 viewBox="0 0 595.2 842" style="enable-background:new 0 0 595.2 842;" xml:space="preserve">
<style type="text/css">
	.st0{fill:#FFFFFF;}
	.st1{fill:none;}
	.st2{clip-path:url(#SVGID_2_);fill:#0C509F;}
	.st3{clip-path:url(#SVGID_2_);fill:#FFFFFF;}
	.st4{clip-path:url(#SVGID_2_);fill:#EB212E;}
	.st5{clip-path:url(#SVGID_2_);fill:#808080;}
</style>
<g>
	<rect x="221" y="353.6" class="st0" width="166.4" height="55.9"/>
	<g>
		<g>
			<g>
				<path d="M229.5,449.5c-0.6,0-1-0.1-1.3-0.3c-0.5-0.4-1.1-1.4-1.5-1.9c-0.6-1-1.2-2-1.8-2.9c-0.1,0-0.2,0-0.2,0
					c-0.2,0-0.3,0-0.5,0v0.9c0,0.4,0,0.9,0,1.3c0,0.9,0,1.3,0.2,1.6c0.2,0.4,0.5,0.6,1,0.7v0.5l-0.4,0c-0.4,0-1,0-1.8,0
					c-0.8,0-1.4,0-1.8,0l-0.4,0v-0.5c0.4,0,0.6-0.1,0.8-0.3c0.2-0.2,0.3-0.5,0.3-0.9c0-0.5,0.1-0.8,0.1-2.4v-2.8c0-2-0.1-2.5-0.2-3
					c-0.1-0.4-0.5-0.6-1-0.7v-0.5c0.3,0,0.7,0,1,0c0.9,0,1.1,0,2.2,0c0.9,0,1.4,0,1.8,0c1.1,0,1.8,0.2,2.4,0.6c0.6,0.4,1,1.3,1,2.2
					c0,1.4-0.9,2.5-2.4,3c0.6,0.8,1.1,1.6,1.7,2.5c0.5,0.8,1.1,1.6,1.5,2c0.2,0.2,0.4,0.3,0.7,0.4v0.5
					C230.5,449.4,230,449.5,229.5,449.5L229.5,449.5z M225.3,439.1c-0.3,0-0.6,0-1,0.1c0,1,0,2.8,0,4.1c0.2,0,0.5,0,0.7,0
					c1.4,0,2.3-0.8,2.3-2.1C227.3,440,226.4,439.1,225.3,439.1L225.3,439.1z"/>
				<path d="M235,439.3l-0.6-0.4l1.4-2l1.6,0.3L235,439.3L235,439.3z M238,449.1c-0.1,0.2-0.3,0.2-1,0.2c-0.5,0-0.9,0-1.4,0
					c-0.7,0-1.3,0-2,0c-0.7,0-1.3,0-2,0V449c0.6-0.1,0.9-0.4,0.9-1c0-0.4,0-0.8,0-1.6v-3.9c0-0.7,0-1.1-0.2-1.3
					c-0.1-0.4-0.4-0.5-0.8-0.6v-0.4h6.4c0,0.4,0,0.8,0,1.2c0,0.3,0,0.6,0,1h-0.5c-0.1-1.1-0.5-1.3-2.2-1.3c-0.3,0-0.7,0-1,0
					c0,0.5,0,0.7,0,1.5v1.6c0.2,0,0.4,0,0.6,0c1.4,0,1.9-0.2,1.9-0.9h0.5c0,0.2,0,0.7,0,1.4c0,0.7,0,1.1,0,1.3h-0.5
					c0-0.8-0.4-1-1.8-1c-0.2,0-0.5,0-0.7,0c0,0.9,0,1.7,0,2.6c0,0.6,0.1,0.8,0.4,0.8c0.2,0.1,0.5,0.1,0.9,0.1c1.5,0,2-0.3,2.3-1.5
					l0.5,0.1C238.4,448.1,238.2,448.9,238,449.1L238,449.1z"/>
				<path d="M243.7,445.3c-0.1,0-0.2,0-0.4,0l-0.3-0.7c1.3-0.1,2-0.7,2-1.8c0-1.1-0.8-1.9-1.8-1.9c-0.2,0-0.3,0-0.5,0.1
					c0,0.8,0,1.7,0,2.5v2.4c0,1.8,0,2.1,0.2,2.5c0.1,0.4,0.4,0.5,0.8,0.6v0.4l-0.3,0c-0.4,0-0.8,0-1.5,0c-0.6,0-1.2,0-1.5,0l-0.3,0
					V449c0.6-0.1,0.9-0.4,0.9-1c0-0.4,0-0.7,0-2v-3.4c0-0.7,0-1.1-0.2-1.3c-0.1-0.4-0.4-0.5-0.8-0.6v-0.4c0.2,0,0,0,0.6,0
					c0.2,0,0.6,0,1,0c0.7,0,1.4-0.1,2.1-0.1c1.9,0,3.1,1,3.1,2.5C246.9,444.2,245.6,445.3,243.7,445.3L243.7,445.3z"/>
				<path d="M256.2,440.9c-0.2,0.2-0.2,0.5-0.2,1c0,0.6,0,1,0,1.9c0,0.3,0,1.3,0,2.2c0,1-0.2,1.5-0.5,2.1c-0.6,0.9-1.7,1.4-3,1.4
					c-0.9,0-1.5-0.2-2.1-0.6c-1-0.6-1.3-1.4-1.3-2.9c0-1.5,0-2.1,0-2.6c0-0.7,0-1.4-0.1-2.1c-0.1-0.5-0.3-0.7-0.9-0.8v-0.4l0.3,0
					c0.4,0,0.9,0,1.5,0c0.7,0,1.2,0,1.5,0l0.3,0v0.4c-0.4,0.1-0.6,0.2-0.8,0.4c-0.1,0.2-0.2,0.5-0.2,1.1c0,0.9,0,1.7,0,2.6
					c0,2.4,0.1,2.8,0.5,3.3c0.3,0.4,0.9,0.6,1.5,0.6c0.9,0,1.8-0.5,2.1-1.4c0.2-0.6,0.2-1,0.2-2.6v-1.4c0-1.6,0-2-0.2-2.3
					c-0.2-0.2-0.4-0.4-0.7-0.4v-0.4c0.5,0,0.7,0,1.4,0c0.7,0,0.9,0,1.4,0v0.4C256.5,440.6,256.3,440.7,256.2,440.9L256.2,440.9z"/>
				<path d="M264.6,448.7c-0.6,0.5-1.4,0.7-2.8,0.7c-0.7,0-1.5-0.1-2.2-0.1c-0.3,0-0.9,0-1.2,0l-0.2,0V449c0.6-0.1,0.9-0.4,0.9-1
					c0-0.4,0.1-0.7,0.1-2v-2.6c0-1.3,0-1.8-0.2-2.2c-0.1-0.4-0.4-0.5-0.8-0.6v-0.4c0.6,0,1,0,1.9,0c0.8,0,2,0,2.8,0
					c1.3,0,2.4,0.6,2.4,2c0,1.1-0.7,1.8-2,2.1c1.5,0.3,2.2,1.1,2.2,2.5C265.5,447.6,265.2,448.2,264.6,448.7L264.6,448.7z
					 M261.6,440.9c-0.2,0-0.5,0-0.7,0c0,0.9,0,2.4-0.1,3c0.2,0,0.3,0,0.6,0c1.3,0,2.1-0.6,2.1-1.5
					C263.5,441.5,262.8,440.9,261.6,440.9L261.6,440.9z M261.7,444.7c-0.2,0-0.5,0-0.8,0c0,0.4,0,0.4,0,1.1v0.8c0,0.8,0,1.2,0.1,1.5
					c0.1,0.3,0.4,0.5,1,0.5c1.2,0,1.8-0.6,1.8-1.8C263.8,445.5,263,444.7,261.7,444.7L261.7,444.7z"/>
				<path d="M273.3,449.1c-0.1,0.2-0.3,0.2-1,0.2c-0.3,0-0.7,0-1,0c-0.8,0-1.6-0.1-2.5-0.1c-0.7,0-1.2,0-1.6,0V449
					c0.3,0,0.5-0.1,0.7-0.3c0.2-0.3,0.3-0.6,0.3-1.6c0-0.7,0-1.2,0-1.9v-1.5c0-1.8,0-2.1-0.2-2.5c-0.1-0.4-0.4-0.5-0.8-0.6v-0.4
					l0.3,0c0.4,0,0.9,0,1.6,0c0.7,0,1.2,0,1.5,0l0.3,0v0.4c-0.7,0-1,0.4-1.1,1c0,0.2,0,0.5,0,2v2.3c0,1.9,0,2.1,0.2,2.3
					c0.2,0.2,0.4,0.2,1,0.2c0.8,0,1.2-0.1,1.5-0.3c0.4-0.2,0.7-0.6,0.8-1.2l0.5,0.1C273.7,447.9,273.4,448.9,273.3,449.1
					L273.3,449.1z"/>
				<path d="M278,449.3c-0.3,0-0.8,0-1.5,0c-0.7,0-1.2,0-1.5,0l-0.3,0V449c0.6-0.1,0.9-0.4,0.9-1c0-0.4,0.1-0.7,0.1-2v-2.3
					c0-0.4,0-0.7,0-1.1c0-0.7,0-1.1-0.1-1.3c-0.1-0.4-0.4-0.5-0.8-0.6v-0.4l0.3,0c0.4,0,0.8,0,1.5,0c0.6,0,1.2,0,1.5,0l0.3,0v0.4
					c-0.6,0-0.9,0.4-0.9,1c0,0.4,0,0.8,0,2v2.3c0,1.8,0,2.1,0.2,2.5c0.1,0.4,0.4,0.5,0.8,0.6v0.4L278,449.3L278,449.3z"/>
				<path d="M290.8,451.8c-1.1,0-2.2-0.3-3.3-0.9c-0.6-0.3-1.5-0.9-2.1-1.5c-0.5,0.1-0.6,0.1-1.1,0.1c-2.8,0-4.6-1.8-4.6-4.5
					c0-2.9,2-4.9,4.9-4.9c2.8,0,4.7,1.8,4.7,4.5c0,1.9-1,3.6-2.5,4.4c0.5,0.2,1,0.5,1.5,0.8c1.4,0.8,2.4,1.2,3.3,1.2
					c0.6,0,1-0.1,1.6-0.4l0.2,0.5C292.6,451.6,291.8,451.8,290.8,451.8L290.8,451.8z M284.4,441c-1.7,0-2.9,1.4-2.9,3.4
					c0,2.4,1.4,4.3,3.2,4.3c1.7,0,2.9-1.4,2.9-3.4C287.6,442.8,286.2,441,284.4,441L284.4,441z"/>
				<path d="M298.8,440.9c-0.2,0.2-0.2,0.5-0.2,1c0,0.6,0,1,0,1.9c0,0.3,0,1.3,0,2.2c0,1-0.2,1.5-0.5,2.1c-0.6,0.9-1.7,1.4-3,1.4
					c-0.9,0-1.5-0.2-2.1-0.6c-1-0.6-1.3-1.4-1.3-2.9c0-1.5,0-2.1,0-2.6c0-0.7,0-1.4-0.1-2.1c-0.1-0.5-0.3-0.7-0.9-0.8v-0.4l0.3,0
					c0.4,0,0.9,0,1.5,0c0.7,0,1.2,0,1.5,0l0.3,0v0.4c-0.4,0.1-0.6,0.2-0.8,0.4c-0.1,0.2-0.2,0.5-0.2,1.1c0,0.9,0,1.7,0,2.6
					c0,2.4,0.1,2.8,0.5,3.3c0.3,0.4,0.9,0.6,1.5,0.6c0.9,0,1.8-0.5,2.1-1.4c0.2-0.6,0.2-1,0.2-2.6v-1.4c0-1.6,0-2-0.2-2.3
					c-0.2-0.2-0.4-0.4-0.7-0.4v-0.4c0.5,0,0.7,0,1.4,0c0.7,0,0.9,0,1.4,0v0.4C299.2,440.6,299,440.7,298.8,440.9L298.8,440.9z"/>
				<path d="M307.2,449.1c-0.1,0.2-0.3,0.2-1,0.2c-0.5,0-0.9,0-1.4,0c-0.7,0-1.3,0-2,0c-0.7,0-1.3,0-2,0V449c0.6-0.1,0.9-0.4,0.9-1
					c0-0.4,0-0.8,0-1.6v-3.9c0-0.7,0-1.1-0.2-1.3c-0.1-0.4-0.4-0.5-0.8-0.6v-0.4h6.4c0,0.4,0,0.8,0,1.2c0,0.3,0,0.6,0,1h-0.5
					c-0.1-1.1-0.5-1.3-2.2-1.3c-0.3,0-0.7,0-1,0c0,0.5,0,0.7,0,1.5v1.6c0.2,0,0.4,0,0.6,0c1.4,0,1.9-0.2,1.9-0.9h0.5
					c0,0.2,0,0.7,0,1.4c0,0.7,0,1.1,0,1.3h-0.5c0-0.8-0.4-1-1.8-1c-0.2,0-0.5,0-0.7,0c0,0.9,0,1.7,0,2.6c0,0.6,0.1,0.8,0.4,0.8
					c0.2,0.1,0.5,0.1,0.9,0.1c1.5,0,2-0.3,2.3-1.5l0.5,0.1C307.5,448.1,307.3,448.9,307.2,449.1L307.2,449.1z"/>
				<path d="M319.8,440.9c0-1.2-0.7-1.7-2.6-1.7c-0.4,0-0.7,0-1.2,0c0,1.1,0,1.9,0,3.7c0.4,0,0.6,0,0.9,0c1.5,0,2-0.3,2.1-1.2h0.6
					c0,0.5,0,0.9,0,1.4c0,0.6,0,1.2,0,1.9H319c-0.1-1-0.5-1.2-2.2-1.2c-0.3,0-0.4,0-0.7,0v1.9c0,0.4,0,0.8,0,1.2
					c0,0.9,0.1,1.7,1.2,1.8v0.5l-0.4,0c-0.4,0-1,0-1.8,0c-0.8,0-1.4,0-1.8,0l-0.4,0v-0.5c0.7-0.1,1.1-0.5,1.1-1.2c0-0.5,0-0.8,0-2.4
					v-4.1c0-0.9,0-1.3-0.2-1.6c-0.1-0.4-0.4-0.6-1-0.7v-0.5h7.6c0,0.3,0,0.8,0,1.5c0,0.7,0,0.8,0,1.1H319.8L319.8,440.9z"/>
				<path d="M329,449.4c-0.5,0-0.8-0.1-1.1-0.3c-0.5-0.3-0.9-1.1-1.2-1.6c-0.5-0.8-1-1.7-1.5-2.4c-0.1,0-0.2,0-0.2,0
					c-0.1,0-0.2,0-0.4,0v0.7c0,0.4,0,0.7,0,1.1c0,0.7,0,1.1,0.1,1.3c0.1,0.4,0.4,0.5,0.8,0.6v0.4l-0.3,0c-0.4,0-0.8,0-1.5,0
					c-0.6,0-1.1,0-1.5,0l-0.3,0V449c0.3,0,0.5-0.1,0.7-0.3c0.2-0.2,0.2-0.4,0.3-0.7c0-0.4,0.1-0.7,0.1-2v-2.3c0-1.7-0.1-2.1-0.2-2.5
					c-0.1-0.4-0.4-0.5-0.8-0.6v-0.4c0.3,0,0.5,0,0.8,0c0.7,0,0.9,0,1.8,0c0.7,0,1.2,0,1.5,0c0.9,0,1.5,0.1,2,0.5
					c0.5,0.4,0.9,1.1,0.9,1.8c0,1.1-0.7,2-2,2.5c0.5,0.7,0.9,1.3,1.4,2.1c0.4,0.7,0.9,1.3,1.2,1.6c0.2,0.2,0.3,0.3,0.6,0.3v0.4
					C329.8,449.4,329.4,449.4,329,449.4L329,449.4z M325.5,440.9c-0.3,0-0.5,0-0.8,0.1c0,0.8,0,2.3,0,3.4c0.2,0,0.4,0,0.6,0
					c1.1,0,1.9-0.7,1.9-1.8C327.1,441.6,326.4,440.9,325.5,440.9L325.5,440.9z"/>
				<path d="M338.9,449.3c-0.3,0-0.8,0-1.5,0c-0.6,0-1.1,0-1.5,0l-0.3,0V449c0.4,0,0.7-0.3,0.7-0.6c0-0.1,0-0.3-0.2-0.7
					c-0.2-0.5-0.3-0.8-0.4-1.3h-2.6l-0.3,0.8c-0.2,0.6-0.3,1.1-0.3,1.3c0,0.4,0.2,0.6,0.6,0.6v0.4c-0.5,0-0.7,0-1.4,0
					c-0.6,0-0.8,0-1.4,0V449c0.2,0,0.3-0.1,0.4-0.2c0.3-0.2,0.5-0.7,0.9-1.8l1.3-3.3c0.4-0.9,0.9-2.3,1.3-3.5h0.9
					c0.1,0.4,0.4,1.1,0.6,1.6l1.9,4.9c0.3,0.8,0.6,1.3,0.7,1.6c0.2,0.3,0.4,0.5,0.7,0.6v0.4L338.9,449.3L338.9,449.3z M334.5,442.6
					c-0.4,0.9-0.8,2.1-1.1,2.8h2L334.5,442.6L334.5,442.6z"/>
				<path d="M348.6,441c-0.2,0.2-0.2,0.5-0.2,1.2c0,1.2-0.1,3.1-0.1,4.1v2.1c0,0.3,0,0.8,0,1h-0.9c-0.9-1.2-2.7-3.4-2.7-3.4
					c-0.2-0.3-1.9-2.4-2.8-3.4c0,0.3,0,0.1,0,1v0.9c0,1,0,2,0.1,3.1c0,0.6,0.1,0.9,0.2,1.1c0.1,0.3,0.3,0.4,0.7,0.4v0.4
					c-0.5,0-1,0-1.5,0c-0.5,0-1,0-1.5,0V449c0.9,0,0.9-0.8,1-1.5c0-0.6,0-1.1,0-1.9v-2.9c0-1.1-0.1-1.4-0.3-1.7
					c-0.1-0.2-0.3-0.3-0.7-0.3v-0.4c0.5,0,0.6,0,1.2,0c0.6,0,0.7,0,1.2,0c0.2,0.3,0.4,0.6,1.4,1.7c1.3,1.6,2.5,3,3.7,4.4v-3
					c0-1.4,0-1.7-0.1-2.1c-0.1-0.4-0.4-0.7-0.9-0.7v-0.4c0.6,0,0.8,0,1.5,0c0.7,0,0.9,0,1.5,0v0.4C349,440.6,348.8,440.7,348.6,441
					L348.6,441z"/>
				<path d="M358.2,449c-0.9,0.4-1.7,0.5-2.8,0.5l-0.1,0.5c0.1,0,0.2,0,0.3,0c0.5,0,0.9,0.4,0.9,0.8c0,0.7-0.6,1.3-1.5,1.3
					c-0.3,0-0.5-0.1-0.8-0.2l0.2-0.5c0.2,0.1,0.3,0.1,0.5,0.1c0.4,0,0.6-0.2,0.6-0.5c0-0.3-0.1-0.4-0.3-0.4c-0.1,0-0.2,0-0.3,0.1
					l-0.3-0.1l0.3-1.1c-1.2-0.1-2.1-0.5-2.8-1.3c-0.8-0.9-1.3-2-1.3-3.4c0-3,1.9-4.7,5-4.7c0.9,0,1.9,0.1,2.7,0.4c0,0.3,0,0.6,0,0.9
					c0,0.2,0,0.7,0,1h-0.5c-0.2-1-1-1.5-2.2-1.5c-1.9,0-3.1,1.3-3.1,3.4c0,2.5,1.4,4.3,3.3,4.3c1.2,0,1.9-0.6,2.2-1.7l0.5,0.1
					C358.4,447.5,358.2,448.3,358.2,449L358.2,449z"/>
				<path d="M367.7,449.3c-0.3,0-0.8,0-1.5,0c-0.6,0-1.1,0-1.5,0l-0.3,0V449c0.4,0,0.7-0.3,0.7-0.6c0-0.1,0-0.3-0.2-0.7
					c-0.2-0.5-0.3-0.8-0.4-1.3h-2.6l-0.3,0.8c-0.2,0.6-0.3,1.1-0.3,1.3c0,0.4,0.2,0.6,0.6,0.6v0.4c-0.5,0-0.7,0-1.4,0
					c-0.6,0-0.8,0-1.4,0V449c0.2,0,0.3-0.1,0.4-0.2c0.3-0.2,0.5-0.7,0.9-1.8l1.3-3.3c0.4-0.9,0.9-2.3,1.3-3.5h0.9
					c0.1,0.4,0.4,1.1,0.6,1.6l1.9,4.9c0.3,0.8,0.6,1.3,0.7,1.6c0.2,0.3,0.4,0.5,0.7,0.6v0.4L367.7,449.3L367.7,449.3z M363.3,442.6
					c-0.4,0.9-0.8,2.1-1.1,2.8h2L363.3,442.6L363.3,442.6z"/>
				<path d="M372.2,449.3c-0.3,0-0.8,0-1.5,0c-0.7,0-1.2,0-1.5,0l-0.3,0V449c0.6-0.1,0.9-0.4,0.9-1c0-0.4,0.1-0.7,0.1-2v-2.3
					c0-0.4,0-0.7,0-1.1c0-0.7,0-1.1-0.1-1.3c-0.1-0.4-0.4-0.5-0.8-0.6v-0.4l0.3,0c0.4,0,0.8,0,1.5,0c0.6,0,1.1,0,1.5,0l0.3,0v0.4
					c-0.6,0-0.9,0.4-0.9,1c0,0.4,0,0.8,0,2v2.3c0,1.8,0,2.1,0.2,2.5c0.1,0.4,0.4,0.5,0.8,0.6v0.4L372.2,449.3L372.2,449.3z"/>
				<path d="M376.4,449.5c-0.8,0-1.4-0.1-2.3-0.5c0-0.5-0.1-1.3-0.2-2l0.5-0.1c0.3,1.1,1.1,1.7,2.1,1.7c1,0,1.6-0.5,1.6-1.3
					c0-0.6-0.4-1-1-1.4l-1.4-0.9c-1-0.6-1.6-1.3-1.6-2.5c0-1.5,1.2-2.5,3-2.5c0.9,0,1.6,0.2,2.2,0.5c0,0.3,0,0.4,0,0.9
					c0,0.5,0,0.6,0,1h-0.5c-0.2-1-0.8-1.5-1.8-1.5c-0.8,0-1.5,0.5-1.5,1.3c0,0.7,0.5,1.1,1.2,1.6l1.2,0.8c1.1,0.7,1.7,1.4,1.7,2.5
					C379.7,448.5,378.3,449.5,376.4,449.5L376.4,449.5z"/>
				<path d="M387.4,449.1c-0.1,0.2-0.3,0.2-1,0.2c-0.5,0-0.9,0-1.4,0c-0.7,0-1.3,0-2,0c-0.7,0-1.3,0-2,0V449c0.6-0.1,0.9-0.4,0.9-1
					c0-0.4,0-0.8,0-1.6v-3.9c0-0.7,0-1.1-0.2-1.3c-0.1-0.4-0.4-0.5-0.8-0.6v-0.4h6.4c0,0.4,0,0.8,0,1.2c0,0.3,0,0.6,0,1H387
					c-0.1-1.1-0.5-1.3-2.2-1.3c-0.3,0-0.7,0-1,0c0,0.5,0,0.7,0,1.5v1.6c0.2,0,0.4,0,0.6,0c1.4,0,1.9-0.2,1.9-0.9h0.5
					c0,0.2,0,0.7,0,1.4c0,0.7,0,1.1,0,1.3h-0.5c0-0.8-0.4-1-1.8-1c-0.2,0-0.5,0-0.7,0c0,0.9,0,1.7,0,2.6c0,0.6,0.1,0.8,0.4,0.8
					c0.2,0.1,0.5,0.1,0.9,0.1c1.5,0,2-0.3,2.3-1.5l0.5,0.1C387.8,448.1,387.6,448.9,387.4,449.1L387.4,449.1z"/>
				<path d="M225.8,425.9c-0.1,0.2-0.3,0.2-0.8,0.2c-0.7,0-1.3,0-1.9-0.1c-0.6,0-1,0-1.3,0c-0.4,0-1.4,0-1.7,0l-0.2,0l0.1-0.3
					c0.4,0,0.6-0.2,0.8-0.4c0.2-0.3,0.3-0.6,0.5-1.4c0.2-0.7,0.3-1.2,0.5-2.5l0.2-1.1c0.2-1.1,0.3-1.7,0.3-2c0-0.6-0.2-0.8-0.8-0.9
					l0.1-0.3c0.1,0,0.1,0,0.2,0c0.5,0,1,0,1.5,0c0.8,0,1.3,0,1.5,0c0,0,0.1,0,0.2,0l-0.1,0.3c-0.4,0-0.6,0.1-0.8,0.4
					c-0.3,0.4-0.5,1-1,3.6l-0.2,0.9c-0.2,1.1-0.3,1.5-0.4,2c0,0.2,0,0.3,0,0.4c0,0.5,0.3,0.7,1.1,0.7c1.5,0,2.1-0.3,2.6-1.4l0.4,0.1
					C226.2,425,225.9,425.7,225.8,425.9L225.8,425.9z"/>
				<path d="M229.7,419.4c-0.4,0-0.7-0.3-0.7-0.6c0-0.5,0.3-0.8,0.8-0.8c0.4,0,0.7,0.2,0.7,0.6C230.5,419.1,230.2,419.4,229.7,419.4
					L229.7,419.4z M228.3,426.2c-0.3,0-0.4-0.1-0.4-0.4c0-0.1,0-0.3,0.1-0.6c0.2-0.7,0.4-1.7,0.5-2.2c0.2-0.7,0.3-1.2,0.3-1.4
					c0-0.2-0.1-0.3-0.2-0.3c-0.1,0-0.2,0-0.5,0.1l-0.1,0l0-0.4c0.7-0.3,1.5-0.5,1.8-0.5c0.2,0,0.3,0.1,0.3,0.2
					c0,0.2-0.1,0.6-0.3,1.5l-0.2,0.8c-0.3,1.3-0.4,1.7-0.4,2c0,0.2,0.1,0.3,0.3,0.3c0.1,0,0.4-0.1,0.7-0.2l0,0.4
					C229.4,426,228.6,426.2,228.3,426.2L228.3,426.2z"/>
				<path d="M235.6,425.6c-0.5,0.5-1.1,0.6-2.1,0.6c-1,0-1.7-0.2-1.7-0.4c0-0.1,0-0.2,0.1-0.8l0.7-3c0.2-1,0.4-1.7,0.6-2.8
					c0.1-0.6,0.2-1,0.2-1.2c0-0.2-0.1-0.3-0.2-0.3c-0.1,0-0.4,0.1-0.6,0.1l0-0.4l0.2-0.1c0.7-0.2,1.3-0.4,1.6-0.4
					c0.2,0,0.3,0.1,0.3,0.2c0,0.1-0.1,0.5-0.3,1.5l-0.4,1.8c-0.1,0.6-0.2,0.8-0.2,1c0.8-0.5,1.6-0.7,2.2-0.7c0.8,0,1.2,0.4,1.2,1.3
					C237.3,423.2,236.6,424.7,235.6,425.6L235.6,425.6z M235.6,421.3c-0.2,0-0.5,0.1-0.9,0.3c-0.4,0.2-0.7,0.4-0.8,0.6
					c-0.2,0.2-0.3,0.7-0.5,1.5c-0.2,0.8-0.3,1.3-0.3,1.5c0,0.3,0.3,0.4,0.8,0.4c0.5,0,1-0.3,1.4-0.7c0.5-0.8,0.9-2,0.9-2.8
					C236.2,421.6,236,421.3,235.6,421.3L235.6,421.3z"/>
				<path d="M240.2,423.9c-0.1,0-0.2,0-0.4,0c0,0.2-0.1,0.4-0.1,0.6c0,0.7,0.2,1,0.7,1c0.4,0,1-0.2,1.7-0.7l0.1,0.5
					c-1,0.6-1.7,0.9-2.4,0.9c-0.8,0-1.3-0.5-1.3-1.4c0-2.2,1.5-4.1,3.2-4.1c0.8,0,1.3,0.4,1.3,1.1
					C243.2,423,241.9,423.9,240.2,423.9L240.2,423.9z M241.6,421.3c-0.6,0-1.3,0.9-1.7,2.2h0.1c1.2,0,2.2-0.7,2.2-1.5
					C242.2,421.6,241.9,421.3,241.6,421.3L241.6,421.3z"/>
				<path d="M248.6,422.5l-0.4,0c0-0.2,0-0.3,0-0.5c0-0.2-0.2-0.4-0.5-0.4c-0.2,0-0.4,0.1-0.6,0.3c-0.5,0.6-0.7,1.5-1,3l-0.3,1.3
					c-0.5,0-0.6,0-1.2,0.1c0.1-0.5,0.2-0.9,0.3-1.4l0.3-1.2c0.2-0.8,0.3-1.4,0.3-1.6c0-0.3-0.1-0.5-0.2-0.5c-0.1,0-0.2,0-0.3,0.1
					l-0.3,0.1l0-0.4c0.7-0.3,1.4-0.5,1.7-0.5c0.1,0,0.2,0.1,0.2,0.2c0,0.2,0.1,0.3,0.1,0.6c0.6-0.5,1.1-0.8,1.5-0.8
					c0.3,0,0.6,0.1,0.9,0.4C248.8,421.6,248.7,422,248.6,422.5L248.6,422.5z"/>
				<path d="M253.1,421.5l-1.1,0l-0.6,2.7c-0.1,0.7-0.2,0.9-0.2,1c0,0.2,0.1,0.3,0.3,0.3c0.1,0,0.3-0.1,0.6-0.1l0.1,0l0,0.4
					c-0.7,0.3-1.4,0.5-1.8,0.5c-0.3,0-0.5-0.1-0.5-0.4c0-0.2,0.1-0.6,0.2-1c0.1-0.5,0.2-0.9,0.3-1.4l0.4-2l-0.7,0l0.1-0.4
					c0.9-0.2,1.2-0.9,1.5-1.7l0.6-0.1l-0.3,1.6l1.1,0L253.1,421.5L253.1,421.5z"/>
				<path d="M257.2,419.9l-0.4-0.3l1.6-1.8l1.2,0.3L257.2,419.9L257.2,419.9z M255.7,423.9c-0.1,0-0.2,0-0.4,0
					c0,0.2-0.1,0.4-0.1,0.6c0,0.7,0.2,1,0.7,1c0.4,0,1-0.2,1.7-0.7l0.1,0.5c-1,0.6-1.7,0.9-2.4,0.9c-0.8,0-1.3-0.5-1.3-1.4
					c0-2.2,1.5-4.1,3.2-4.1c0.8,0,1.3,0.4,1.3,1.1C258.7,423,257.4,423.9,255.7,423.9L255.7,423.9z M257.1,421.3
					c-0.6,0-1.3,0.9-1.7,2.2h0.1c1.2,0,2.2-0.7,2.2-1.5C257.7,421.6,257.4,421.3,257.1,421.3L257.1,421.3z"/>
				<path d="M280.1,416.3l-0.4-0.3l1.6-1.8l1.2,0.3L280.1,416.3L280.1,416.3z M282.6,419.1h-0.4c0-0.1,0-0.2,0-0.3
					c0-0.7-0.5-1-1.8-1c-0.4,0-0.9,0-1.3,0c-0.3,1.1-0.5,2.1-0.7,3.3c0.2,0,0.3,0,0.5,0c0.9,0,1.2,0,1.5-0.1
					c0.5-0.1,0.8-0.4,0.9-0.9h0.4c-0.2,0.8-0.4,1.9-0.5,2.6h-0.4c0-0.1,0-0.2,0-0.2c0-0.6-0.4-0.8-1.5-0.8c-0.7,0-0.9,0-1.1,0
					c-0.1,0.3,0,0-0.3,1.6c-0.1,0.7-0.2,1.2-0.2,1.5c0,0.5,0.2,0.6,1.1,0.6c1.7,0,2.2-0.3,2.7-1.4l0.3,0.1c-0.3,0.9-0.6,1.6-0.8,1.8
					c-0.1,0.1-0.3,0.2-0.9,0.2c-0.5,0-0.9,0-1.4,0c-0.6,0-1.2,0-1.9,0c-0.6,0-1.2,0-1.9,0l0.1-0.3c0.4,0,0.6-0.2,0.8-0.4
					c0.2-0.3,0.3-0.6,0.5-1.4c0.2-0.7,0.2-1.1,0.5-2.5l0.2-1.1c0.2-1,0.3-1.7,0.3-2c0-0.6-0.2-0.8-0.8-0.9l0.1-0.3h6.1
					C282.8,417.8,282.7,418.5,282.6,419.1L282.6,419.1z"/>
				<path d="M289.2,421.5l-0.9,0c0.2,0.3,0.2,0.5,0.2,0.8c0,1.2-1,2.2-2.4,2.2c-0.3,0-0.4,0-0.7-0.1c-0.3,0.2-0.4,0.3-0.4,0.4
					c0,0.1,0.1,0.2,0.7,0.4l1.1,0.3c1.1,0.3,1.6,0.7,1.6,1.4c0,1.4-1.4,2.5-3.2,2.5c-1.5,0-2.4-0.7-2.4-1.8c0-1,0.7-1.5,1.8-1.8
					c-0.7-0.2-0.8-0.3-0.8-0.6c0-0.3,0.4-0.7,1.2-1.1c-0.4-0.3-0.6-0.7-0.6-1.2c0-1.3,1-2.2,2.3-2.2c0.3,0,0.6,0,0.9,0.1h1.8
					L289.2,421.5L289.2,421.5z M286.7,421.2c-0.7,0-1.3,0.8-1.3,1.7c0,0.6,0.4,1.1,0.9,1.1c0.7,0,1.3-0.7,1.3-1.6
					C287.5,421.7,287.2,421.2,286.7,421.2L286.7,421.2z M286.9,426.6c-0.5-0.2-1-0.4-1.6-0.5c-0.9,0.2-1.6,0.9-1.6,1.7
					c0,0.7,0.6,1.2,1.6,1.2c1.2,0,2.2-0.8,2.2-1.6C287.5,427,287.3,426.8,286.9,426.6L286.9,426.6z"/>
				<path d="M294.2,426.2c-0.2,0-0.3-0.1-0.4-0.8c-1,0.6-1.7,0.8-2.4,0.8c-0.8,0-1.3-0.4-1.3-1.1c0-0.7,0.3-1.7,0.9-2.5
					c0.7-1.1,1.6-1.8,3-1.8c0.6,0,1.1,0.1,1.7,0.3l-0.1,0.2c-0.5,1.5-0.8,3.2-0.8,3.8c0,0.4,0.1,0.6,0.2,0.6c0.1,0,0.4-0.1,0.7-0.2
					l0,0.4C295.1,426,294.4,426.2,294.2,426.2L294.2,426.2z M293.6,421.3c-0.5,0-1.1,0.4-1.5,1.1c-0.5,0.8-0.9,1.9-0.9,2.6
					c0,0.4,0.2,0.6,0.5,0.6c0.5,0,1.4-0.4,1.7-0.8c0.2-0.2,0.3-0.5,0.4-1c0.2-0.8,0.4-1.6,0.5-2.5
					C294.1,421.4,293.8,421.3,293.6,421.3L293.6,421.3z"/>
				<path d="M300.1,418.4c-0.4,1.8-0.9,3.7-1.3,5.6c-0.1,0.6-0.2,1-0.2,1.2c0,0.2,0.1,0.3,0.3,0.3c0.1,0,0.4-0.1,0.7-0.2l0,0.4
					c-0.7,0.3-1.5,0.5-1.9,0.5c-0.3,0-0.4-0.1-0.4-0.4c0-0.2,0-0.4,0.2-1.3c0.4-1.8,0.9-3.6,1.2-5.3c0.2-0.8,0.2-1.2,0.2-1.3
					c0-0.2-0.1-0.2-0.2-0.2c-0.1,0-0.4,0.1-0.6,0.1l0-0.4c0.7-0.2,1.4-0.4,1.8-0.4c0.2,0,0.3,0.1,0.3,0.2
					C300.3,417.4,300.3,417.7,300.1,418.4L300.1,418.4z"/>
				<path d="M303.4,419.4c-0.4,0-0.7-0.3-0.7-0.6c0-0.5,0.3-0.8,0.8-0.8c0.4,0,0.7,0.2,0.7,0.6C304.2,419.1,303.9,419.4,303.4,419.4
					L303.4,419.4z M302,426.2c-0.3,0-0.4-0.1-0.4-0.4c0-0.1,0-0.3,0.1-0.6c0.2-0.7,0.4-1.7,0.5-2.2c0.2-0.7,0.3-1.2,0.3-1.4
					c0-0.2-0.1-0.3-0.2-0.3c-0.1,0-0.2,0-0.5,0.1l-0.1,0l0-0.4c0.7-0.3,1.5-0.5,1.8-0.5c0.2,0,0.3,0.1,0.3,0.2
					c0,0.2-0.1,0.6-0.3,1.5l-0.2,0.8c-0.3,1.3-0.4,1.7-0.4,2c0,0.2,0.1,0.3,0.3,0.3c0.1,0,0.4-0.1,0.7-0.2l0,0.4
					C303.1,426,302.3,426.2,302,426.2L302,426.2z"/>
				<path d="M308.7,421.5l-1.1,0l-0.6,2.7c-0.1,0.7-0.2,0.9-0.2,1c0,0.2,0.1,0.3,0.3,0.3c0.1,0,0.3-0.1,0.6-0.1l0.1,0l0,0.4
					c-0.7,0.3-1.4,0.5-1.8,0.5c-0.3,0-0.5-0.1-0.5-0.4c0-0.2,0.1-0.6,0.2-1c0.1-0.5,0.2-0.9,0.3-1.4l0.4-2l-0.7,0l0.1-0.4
					c0.9-0.2,1.2-0.9,1.5-1.7l0.6-0.1l-0.3,1.6l1.1,0L308.7,421.5L308.7,421.5z"/>
				<path d="M312.8,419.9l-0.4-0.3l1.6-1.8l1.2,0.3L312.8,419.9L312.8,419.9z M311.3,423.9c-0.1,0-0.2,0-0.4,0
					c0,0.2-0.1,0.4-0.1,0.6c0,0.7,0.2,1,0.7,1c0.4,0,1-0.2,1.7-0.7l0.1,0.5c-1,0.6-1.7,0.9-2.4,0.9c-0.8,0-1.3-0.5-1.3-1.4
					c0-2.2,1.5-4.1,3.2-4.1c0.8,0,1.3,0.4,1.3,1.1C314.3,423,313,423.9,311.3,423.9L311.3,423.9z M312.7,421.3
					c-0.6,0-1.3,0.9-1.7,2.2h0.1c1.2,0,2.2-0.7,2.2-1.5C313.3,421.6,313,421.3,312.7,421.3L312.7,421.3z"/>
				<path d="M338,419.1h-0.4c0-0.1,0-0.2,0-0.3c0-0.3-0.1-0.5-0.3-0.6c-0.3-0.2-0.7-0.3-1.7-0.3c-0.3,0-0.7,0-1,0
					c-0.2,1.1-0.5,2.1-0.7,3.3c0.3,0,0.5,0,0.8,0c1.5,0,1.8-0.1,2.1-1h0.4c-0.2,0.9-0.4,1.7-0.5,2.6h-0.4c0-0.1,0-0.2,0-0.2
					c0-0.2-0.1-0.4-0.3-0.6c-0.2-0.2-0.5-0.2-1.3-0.2c-0.4,0-0.5,0-0.9,0l-0.2,0.9c-0.3,1.3-0.3,1.9-0.3,2.3c0,0.5,0.2,0.8,0.8,0.9
					l-0.1,0.3l-0.2,0c-0.1,0-0.7,0-1.2,0c-0.5,0-1.5,0-1.7,0l-0.2,0l0.1-0.3c0.4,0,0.6-0.2,0.8-0.4c0.2-0.3,0.4-0.6,0.5-1.4
					c0.2-0.8,0.3-1.2,0.5-2.5l0.2-1.1c0.2-1.1,0.3-1.7,0.3-2c0-0.6-0.2-0.8-0.8-0.9l0.1-0.3h5.9C338.3,417.8,338.1,418.5,338,419.1
					L338,419.1z"/>
				<path d="M342.6,422.5l-0.4,0c0-0.2,0-0.3,0-0.5c0-0.2-0.2-0.4-0.5-0.4c-0.2,0-0.4,0.1-0.6,0.3c-0.5,0.6-0.7,1.5-1,3l-0.3,1.3
					c-0.5,0-0.6,0-1.2,0.1c0.1-0.5,0.2-0.9,0.3-1.4l0.3-1.2c0.2-0.8,0.3-1.4,0.3-1.6c0-0.3-0.1-0.5-0.2-0.5c-0.1,0-0.2,0-0.3,0.1
					l-0.3,0.1l0-0.4c0.7-0.3,1.4-0.5,1.7-0.5c0.1,0,0.2,0.1,0.2,0.2c0,0.2,0.1,0.3,0.1,0.6c0.6-0.5,1.1-0.8,1.5-0.8
					c0.3,0,0.6,0.1,0.9,0.4C342.8,421.6,342.7,422,342.6,422.5L342.6,422.5z"/>
				<path d="M347.8,426.2c-0.2,0-0.3-0.1-0.4-0.8c-1,0.6-1.7,0.8-2.4,0.8c-0.8,0-1.3-0.4-1.3-1.1c0-0.7,0.3-1.7,0.9-2.5
					c0.7-1.1,1.6-1.8,3-1.8c0.6,0,1.1,0.1,1.7,0.3l-0.1,0.2c-0.5,1.5-0.8,3.2-0.8,3.8c0,0.4,0.1,0.6,0.2,0.6c0.1,0,0.4-0.1,0.7-0.2
					l0,0.4C348.7,426,348.1,426.2,347.8,426.2L347.8,426.2z M347.2,421.3c-0.5,0-1.1,0.4-1.5,1.1c-0.5,0.8-0.9,1.9-0.9,2.6
					c0,0.4,0.2,0.6,0.5,0.6c0.5,0,1.4-0.4,1.7-0.8c0.2-0.2,0.3-0.5,0.4-1c0.2-0.8,0.4-1.6,0.5-2.5
					C347.7,421.4,347.4,421.3,347.2,421.3L347.2,421.3z"/>
				<path d="M354.2,421.5l-1.1,0l-0.6,2.7c-0.1,0.7-0.2,0.9-0.2,1c0,0.2,0.1,0.3,0.3,0.3c0.1,0,0.3-0.1,0.6-0.1l0.1,0l0,0.4
					c-0.7,0.3-1.4,0.5-1.8,0.5c-0.3,0-0.5-0.1-0.5-0.4c0-0.2,0.1-0.6,0.2-1c0.1-0.5,0.2-0.9,0.3-1.4l0.4-2l-0.7,0l0.1-0.4
					c0.9-0.2,1.2-0.9,1.5-1.7l0.6-0.1l-0.3,1.6l1.1,0L354.2,421.5L354.2,421.5z"/>
				<path d="M356.8,423.9c-0.1,0-0.2,0-0.4,0c0,0.2-0.1,0.4-0.1,0.6c0,0.7,0.2,1,0.7,1c0.4,0,1-0.2,1.7-0.7l0.1,0.5
					c-1,0.6-1.7,0.9-2.4,0.9c-0.8,0-1.3-0.5-1.3-1.4c0-2.2,1.5-4.1,3.2-4.1c0.8,0,1.3,0.4,1.3,1.1
					C359.8,423,358.5,423.9,356.8,423.9L356.8,423.9z M358.2,421.3c-0.6,0-1.3,0.9-1.7,2.2h0.1c1.2,0,2.2-0.7,2.2-1.5
					C358.8,421.6,358.5,421.3,358.2,421.3L358.2,421.3z"/>
				<path d="M365.2,422.5l-0.4,0c0-0.2,0-0.3,0-0.5c0-0.2-0.2-0.4-0.5-0.4c-0.2,0-0.4,0.1-0.6,0.3c-0.5,0.6-0.7,1.5-1,3l-0.3,1.3
					c-0.5,0-0.6,0-1.2,0.1c0.1-0.5,0.2-0.9,0.3-1.4l0.3-1.2c0.2-0.8,0.3-1.4,0.3-1.6c0-0.3-0.1-0.5-0.2-0.5c-0.1,0-0.2,0-0.3,0.1
					l-0.3,0.1l0-0.4c0.7-0.3,1.4-0.5,1.7-0.5c0.1,0,0.2,0.1,0.2,0.2c0,0.2,0.1,0.3,0.1,0.6c0.6-0.5,1.1-0.8,1.5-0.8
					c0.3,0,0.6,0.1,0.9,0.4C365.4,421.6,365.3,422,365.2,422.5L365.2,422.5z"/>
				<path d="M370.5,426.2c-0.3,0-0.4-0.2-0.4-0.4c0-0.2,0.1-0.5,0.2-1.1l0.1-0.6c0.4-1.7,0.5-2.2,0.5-2.5c0-0.2-0.1-0.3-0.3-0.3
					c-0.2,0-0.6,0.1-1,0.4c-0.4,0.2-0.7,0.5-0.9,0.8c-0.1,0.2-0.2,0.5-0.4,1.3c-0.2,1-0.3,1.6-0.5,2.3c-0.5,0-0.7,0.1-1.2,0.1
					c0.3-1,0.5-1.8,0.7-2.7c0.2-0.9,0.3-1.3,0.3-1.6c0-0.3-0.1-0.5-0.3-0.5c-0.1,0-0.3,0.1-0.7,0.2l0-0.4c0.6-0.3,1.3-0.4,1.7-0.4
					c0.3,0,0.4,0.2,0.4,0.8v0.1c1-0.6,2.1-0.9,2.8-0.9c0.4,0,0.6,0.1,0.6,0.4c0,0.3-0.1,0.7-0.4,1.8c-0.2,0.6-0.3,1.3-0.4,1.6
					c-0.1,0.4-0.1,0.6-0.1,0.8c0,0.2,0.1,0.3,0.3,0.3c0.1,0,0.4-0.1,0.7-0.2l0,0.4C371.6,426,370.8,426.2,370.5,426.2L370.5,426.2z"
					/>
				<path d="M376.1,419.4c-0.4,0-0.7-0.3-0.7-0.6c0-0.5,0.3-0.8,0.8-0.8c0.4,0,0.7,0.2,0.7,0.6C376.9,419.1,376.6,419.4,376.1,419.4
					L376.1,419.4z M374.6,426.2c-0.3,0-0.4-0.1-0.4-0.4c0-0.1,0-0.3,0.1-0.6c0.2-0.7,0.4-1.7,0.5-2.2c0.2-0.7,0.3-1.2,0.3-1.4
					c0-0.2-0.1-0.3-0.2-0.3c-0.1,0-0.2,0-0.5,0.1l-0.1,0l0-0.4c0.7-0.3,1.5-0.5,1.8-0.5c0.2,0,0.3,0.1,0.3,0.2
					c0,0.2-0.1,0.6-0.3,1.5l-0.2,0.8c-0.3,1.3-0.4,1.7-0.4,2c0,0.2,0.1,0.3,0.3,0.3c0.1,0,0.4-0.1,0.7-0.2l0,0.4
					C375.8,426,375,426.2,374.6,426.2L374.6,426.2z"/>
				<path d="M381.3,421.5l-1.1,0l-0.6,2.7c-0.1,0.7-0.2,0.9-0.2,1c0,0.2,0.1,0.3,0.3,0.3c0.1,0,0.3-0.1,0.6-0.1l0.1,0l0,0.4
					c-0.7,0.3-1.4,0.5-1.8,0.5c-0.3,0-0.5-0.1-0.5-0.4c0-0.2,0.1-0.6,0.2-1c0.1-0.5,0.2-0.9,0.3-1.4l0.4-2l-0.7,0l0.1-0.4
					c0.9-0.2,1.2-0.9,1.5-1.7l0.6-0.1l-0.3,1.6l1.1,0L381.3,421.5L381.3,421.5z"/>
				<path d="M385.4,419.9l-0.4-0.3l1.6-1.8l1.2,0.3L385.4,419.9L385.4,419.9z M383.9,423.9c-0.1,0-0.2,0-0.4,0
					c0,0.2-0.1,0.4-0.1,0.6c0,0.7,0.2,1,0.7,1c0.4,0,1-0.2,1.7-0.7l0.1,0.5c-1,0.6-1.7,0.9-2.4,0.9c-0.8,0-1.3-0.5-1.3-1.4
					c0-2.2,1.5-4.1,3.2-4.1c0.8,0,1.3,0.4,1.3,1.1C387,423,385.7,423.9,383.9,423.9L383.9,423.9z M385.3,421.3
					c-0.6,0-1.3,0.9-1.7,2.2h0.1c1.2,0,2.2-0.7,2.2-1.5C386,421.6,385.7,421.3,385.3,421.3L385.3,421.3z"/>
				<path d="M322.9,423.7c0.9,0,1.6-0.7,1.6-1.6c0-0.9-0.7-1.6-1.6-1.6c-0.9,0-1.6,0.7-1.6,1.6C321.3,423,322,423.7,322.9,423.7
					L322.9,423.7z"/>
				<path d="M267.4,423.7c0.9,0,1.6-0.7,1.6-1.6c0-0.9-0.7-1.6-1.6-1.6c-0.9,0-1.6,0.7-1.6,1.6C265.7,423,266.5,423.7,267.4,423.7
					L267.4,423.7z"/>
				<line class="st1" x1="220.8" y1="432.1" x2="387" y2="432.1"/>
				<rect x="220.8" y="431.8" width="166.3" height="0.6"/>
				<g>
					<defs>
						<polygon id="SVGID_1_" points="221,409.5 221,353.6 387.4,353.6 387.4,409.5 221,409.5 						"/>
					</defs>
					<clipPath id="SVGID_2_">
						<use xlink:href="#SVGID_1_"  style="overflow:visible;"/>
					</clipPath>
					<path class="st2" d="M220.6,409.8c0.3-13.9,0-27.6,0.4-41.4c0.1-5-0.1-9.9-0.1-14.9c3.4-0.6,6.9-0.3,10.3-0.1
						c22,0,43.9-0.1,65.8,0c-1.5,0.8-3.3,1.4-4.4,2.8c-1,1.3-2,2.5-2.4,4.1c-1.7,1-2.7,2.5-3.6,4.1c-1.1,2.2-2.8,4.1-2.5,6.5
						c0.3,2,0.8,3.9,1.1,6.1c0.1,0.8,0.3,1.4,0.5,2.2c0.3,0.8,0,1.7,0.4,2.3c0.3,0.4,0.1,0.9,0.6,1.1c0,0.1,0,0.4,0,0.5
						c0.1,0.1,0.1,0.3,0.4,0.3c0,0.1,0,0.4,0,0.5c1,1.3,2.3,2.4,2.9,3.8c0.3,0.8-1.3,0.4-1.9,0.1c-1.3-0.6-2-1.7-3.1-2.5
						c0,0-0.1,0.1-0.1,0.3c0.5,0.9,2.4,2,1.4,2.7c-0.5,0.3-1.1-0.4-1.7,0.1c-0.1,0.3,0,0.5,0,0.8c-0.8-0.5-1.5-0.3-2.3-0.5
						c-0.5-0.1-0.6-1.1-1.3-1.1c-1.7-0.4-3.2-0.8-4.8-0.9c-2.3-0.3-4.4-0.6-6.7-0.3c-2,0.1-3.6,1.7-4.8,3.2c0,0.1,0,0.4,0,0.4
						c0.9,0.1,1.3-0.6,2-0.9c1.3-0.3,2.4-0.8,3.7-1c1.9-0.4,3.7-0.9,5.5-0.8c0.4,0,0.9-0.1,1.3,0c-2.3-0.1-4.3,0.6-6.5,1.3l0,0
						c-1.5,0.4-3.1,0.5-4.4,1.3c3.3-0.1,6.6,0.4,9.8,1.4c1.1,0.4,2.2,0.9,3.2,1.5c0.5,0.4,0.8,0.8,1.3,1c0.6,0.4,1.5,0.4,2.2,0.1
						c0.1,0,0.5,0,0.6,0c1.9-0.5,3.9-1,5.2-2.4c0,0.1,0.1,0.1,0.3,0.1c-0.4,1-0.4,2.2-1.1,3.1c0,0.1-0.1,0.4,0.1,0.5
						c0.1,0,0.1,0,0.3,0c-0.1,0-0.3,0-0.3,0.1c0,0.3,0.4,0,0.5,0.3c-0.6,0.1-1.3,0.3-1.7,0.8c0,0.1,0.3,0.1,0.4,0.1
						c-0.3,0.3-0.6,0.1-0.8,0.4c0,0,0.1,0.1,0.3,0.1c-0.1,0-0.3,0-0.3,0.1c0,0.1,0,0.3,0,0.4c-0.4,0-0.5,0.3-0.8,0.4
						c0.5,0.4,0.9,0,1.4,0c-1.4,0.5-2.5,1.3-3.9,1.7c-0.3,0,0,0.4-0.3,0.4c0.4,0.3,0.6-0.1,1-0.1c-1.8,1-3.6,1.9-5.5,3.1
						c0,0-0.3,0.3-0.3,0.5c-0.1,0-0.4,0-0.5,0c-0.3,0.1-0.1,0.5-0.4,0.8c0.6,0.4,1.4-0.5,1.8,0c0.1,0-0.3,0.1-0.5,0.1
						c-0.1,0-0.1,0.3-0.3,0.3c-0.1,0-0.3,0-0.4,0c-0.3,0.3-0.5,0.4-0.5,0.8c-0.3,0-0.5,0-0.6,0.3c2.8-0.4,5.7-0.1,8.4-1.5
						c2-1,3.9-2.4,5.6-4.2c0,0,0.1,0.1,0.1,0.3c-0.4,1.3-1.1,2.2-2.2,2.9c-0.8,0.4-1.3,1-1.9,1.3c-0.4,0.3-0.8,0.5-1.1,0.8
						c-4.7,1.7-10.3,0.9-14.4,4.1c0-0.1-0.1-0.1-0.3-0.1c-0.3,0.3-0.6,0.4-0.8,0.6c0,0.3,0.4,0.1,0.5,0.1c0.8-0.5,1.5-0.9,2.4-1.1
						c-1,0.5-2,1.3-3.1,1.5c-2.2,0.4-4.2,0.3-6.4,0c1.3-0.8,2.5-1.7,3.9-2.4c-0.4-0.3-0.8-0.3-1.1-0.3c-0.6,0.1-1.4-0.3-2,0
						c-1.9,0.9-4.4,0.6-5.5,2.7"/>
					<path class="st3" d="M263.5,394.4c-0.4,0.1-0.8,0.4-0.6,0.6c0.4,0.5,1.1-0.1,1.8-0.1c-0.8,0.3-1.7,0.1-2.3,0.8
						c0.5,0.4,1,0.1,1.5,0.1c0,0.3,0.3,0.3,0.4,0.4c-0.6,0.3-1.1,0.8-1.3,1.1c-0.3,0.6-0.9,0.9-1.3,1.4c0,0.1,0,0.3,0,0.4
						c-1.3,1.1-2.7,1.9-3.7,3.3c0.1,0,0.1,0.1,0.1,0.3c-0.3,0.4-0.8,0.5-0.9,0.9c0,0.1,0,0.3,0.1,0.3c1.5-0.5,2.7-1.7,4.1-2.2
						c1-0.3,1.8-0.9,2.7-1.1c0.6-0.1,1.4-0.4,2-0.5c0,0.1,0,0.3,0.1,0.3c0.4,0,0.6,0,1,0c-0.1,0.3-0.6,0.1-0.5,0.3
						c0.4,0.4,1.1,0.3,1.7,0c0.4-0.3,0.8-0.3,1.3-0.3c0.1,0,0.1-0.3,0.1-0.4c0.4,0.1,0.6,0.1,1,0.1c3.1-0.6,6-1.3,8.8-2.7
						c-3.3-2.5-7.5-3.4-11.4-4.6c0.4,0,0.8,0.4,1.1,0c-0.6-0.5-1.4-0.3-2-0.6c0.1,0,0.4,0.1,0.5-0.1c-1-0.5-2-0.5-3.1-0.8
						c0.6-0.1,1-0.6,1-1.3c0-0.1-0.3-0.1-0.4-0.1c-1.5,0.8-2.5,2.2-3.2,3.8c0.9,0.5,1.9,0.1,2.8,0.3
						C264.7,394.3,264.1,394.3,263.5,394.4L263.5,394.4z"/>
					<path class="st3" d="M258.3,389.4c-1.3,1.4-2.7,2.7-4.3,3.6c-1.1,2.3-2.4,4.3-4.1,6.5c0,0.1,0.1,0.3,0.1,0.3
						c3.1-3.4,5.8-6.4,9.8-8.8c0.3-0.1-0.4,0.4,0.1,0.3c1.7-0.4,2.2-2,2.9-3.3c1-1.7,2.8-2.3,4.1-3.7c0,0.1,0,0.3-0.1,0.4
						c0.1,0.1,0.3,0.1,0.4,0.1c0.5-0.4,1.1-0.3,1.5-0.8c-1-0.4-2.3-0.5-3.3-0.1C262.8,385.1,260.5,387.2,258.3,389.4L258.3,389.4z"
						/>
					<path class="st3" d="M260.2,391.9c0.1-0.2,0.3-0.3,0.4-0.5c0-0.1,0-0.3-0.1-0.3c-0.5,0.1-0.9,0.6-1,1.1c0,0.1,0.1,0.1,0.3,0.1
						C260,392.2,260.1,392.1,260.2,391.9L260.2,391.9z"/>
					<path class="st3" d="M270.4,401.5c-0.5,0.3-1.4,0.3-1.5,0.9c-0.1,0.3,0.4,0.1,0.6,0.1c0.9-0.4,1.9,0,2.7-0.8
						c-0.3-0.3-0.6-0.1-0.9-0.5C271,401.1,270.7,401.4,270.4,401.5L270.4,401.5z"/>
					<path class="st2" d="M284.3,408.4c0.8-0.2,1.5-0.6,2.3-0.9c0,0.1,0,0.1,0,0.3c1.9-0.8,3.3-2.4,5.2-3.1c0.1,0,0.4,0.3,0.6,0.1
						c1.1-1,2.4-2.2,4.1-1.9c0,0.1,0,0.3,0.1,0.3c0.1,0,0.3,0,0.3-0.1c-0.5,0.4-1,0.8-1.5,1.1c-0.1,0.1,0,0.3,0.1,0.3
						c0.6-0.3,1-0.8,1.7-1c-0.1,0.1-0.1,0.4-0.3,0.5c-2.4,1.8-4.2,3.8-6.1,6c-1.3,0-2.7,0-3.9,0c0-0.1,0-0.3-0.1-0.3
						c-4.4,0.4-8.8,0.3-13.2,0.3c2.5-0.4,5.1-1.1,7.6-1.4C282.1,408.5,283.1,408.6,284.3,408.4L284.3,408.4z"/>
					<path class="st4" d="M334.4,401.9c0.3-0.9,0.6-1.9,0.1-2.8c-0.8-1.1,0.8-1.5,1.3-2.3c0.4-0.6-0.3-1-0.4-1.7
						c-0.1-0.3-0.6-0.1-0.9-0.5c0.9-0.4,2.3-1.1,1.7-2.3c-0.4-0.6-1-1.7-0.3-2.3c0.9-0.5,2.3-0.4,2.7-1.3c0.6-1.5-0.8-2.8-1.5-4.1
						c-0.4-0.8-0.9-1.3-1.4-2c-0.5-0.9-1.1-1.7-1.4-2.7c-0.4-1,0.1-1.9,0.1-2.9c0.1-1.9-0.4-3.8-0.9-5.7c-0.4-0.9-0.5-1.9-0.9-2.8
						c-0.1-0.5-0.3-1-0.6-1.5c-0.1-0.3-0.1-0.6,0-0.9c0.5-0.4,1-0.8,1.5-1.3c0.4-0.6,0.1-1.5-0.5-1.9c-0.9-0.4-0.8,0.9-1.4,1.1
						c-0.1,0-0.3,0-0.4,0c-0.1-0.4,0.1-0.5,0.4-0.8c0-0.1,0-0.4-0.1-0.4c-0.5,0-1-0.1-1.1-0.4c-1.3-1.8-3.1-2.7-5-3.4
						c0.5,0.1,1,0.3,1.5,0.3c0.9,0.1,1.9,0.1,2.7-0.3c0.6-0.3,0.8-1.3,1-1.9c0.3-0.5-0.1-1.3-0.4-1.7c-0.6-1-1.7-1.7-2.7-2.2
						c20.1,0,40.2,0,60.3,0c0.1,18.8-0.1,37.6-0.3,56.5c-23.8,0.4-47.5,0-71.3,0c0.8-2.5,2.2-5,4.4-6.6c0.5-0.3,1.1-0.4,1.8-0.5
						c2.2,0,4.3,0.6,6.5,0.9c0.3,0,0.5,0.1,0.8,0.3c0.8,0.1,1.7,0.1,2.4-0.1C333,403.6,334,403.1,334.4,401.9L334.4,401.9z"/>
					<path class="st5" d="M329.5,376.9c-0.7-0.2-1.4,0-2.2,0c-1,0.3-1.9,0.4-2.8,0.8c0.8-0.5,1.5-1,2.4-1.3c0.6-0.1,1.3-0.5,1.9-0.5
						c0.8-0.1,1.5-0.4,2.2-0.1c0.6,0.3,1.7,0.3,1.8,0.6c0.3,0.8-0.4,1.5-1.1,2c-0.1,0.3,0.4,0.4,0.4,0.6c-0.1,0.3-0.5,0.4-0.8,0.4
						c-0.3,0.1-0.5,0.5-0.8,0.8c0.3,0,0,0.4,0.3,0.4c-0.5,0.6,0.3,1.9-0.5,2.2c-0.9,0.3-1.9,0.3-2.9,0c0.5-0.1,1.1,0.1,1.5-0.4
						c0-0.1,0-0.4,0-0.5c0-0.1-0.1-0.1-0.3-0.1c-0.1,0.1-0.3,0.1-0.3,0.1c0-0.3-0.3-0.5-0.4-0.5c-0.8,0.1-1.4-0.3-1.9-0.8
						c0.4-0.1,0.8-0.3,1.1-0.1c0.4,0,0.3-0.6,0.6-0.9c0.1,0,0.3,0,0.4,0c0.8-1,2.3-1.3,2.5-2.3C330.8,377,330,377,329.5,376.9
						L329.5,376.9z"/>
				</g>
			</g>
		</g>
	</g>
</g>
</svg>
