<?xml version="1.0" encoding="utf-8"?>
<!-- Generator: Adobe Illustrator 21.1.0, SVG Export Plug-In . SVG Version: 6.00 Build 0)  -->
<svg version="1.1" id="Calque_1" xmlns="http://www.w3.org/2000/svg" xmlns:xlink="http://www.w3.org/1999/xlink" x="0px" y="0px"
	 viewBox="0 0 168 97.7" style="enable-background:new 0 0 168 97.7;" xml:space="preserve">
<style type="text/css">
	.st0{fill:#FFFFFF;}
	.st1{fill:none;}
	.st2{clip-path:url(#SVGID_2_);fill:#0C509F;}
	.st3{clip-path:url(#SVGID_4_);fill:#FFFFFF;}
	.st4{clip-path:url(#SVGID_6_);fill:#FFFFFF;}
	.st5{clip-path:url(#SVGID_8_);fill:#FFFFFF;}
	.st6{clip-path:url(#SVGID_10_);fill:#FFFFFF;}
	.st7{clip-path:url(#SVGID_12_);fill:#0C509F;}
	.st8{clip-path:url(#SVGID_14_);fill:#EB212E;}
	.st9{clip-path:url(#SVGID_16_);fill:#808080;}
</style>
<g>
	<rect x="1.1" y="0.2" class="st0" width="166.4" height="55.9"/>
	<g>
		<g>
			<g>
				<path d="M9.6,96.1c-0.6,0-1-0.1-1.3-0.3c-0.5-0.4-1.1-1.4-1.5-1.9c-0.6-1-1.2-2-1.8-2.9c-0.1,0-0.2,0-0.2,0c-0.2,0-0.3,0-0.5,0
					v0.9c0,0.4,0,0.9,0,1.3c0,0.9,0,1.3,0.2,1.6c0.2,0.4,0.5,0.6,1,0.7V96H5.1c-0.4,0-1,0-1.8,0s-1.4,0-1.8,0H1.1v-0.5
					c0.4,0,0.6-0.1,0.8-0.3c0.2-0.2,0.3-0.5,0.3-0.9c0-0.5,0.1-0.8,0.1-2.4v-2.8c0-2-0.1-2.5-0.2-3c-0.1-0.4-0.5-0.6-1-0.7v-0.5
					c0.3,0,0.7,0,1,0c0.9,0,1.1,0,2.2,0c0.9,0,1.4,0,1.8,0c1.1,0,1.8,0.2,2.4,0.6c0.6,0.4,1,1.3,1,2.2c0,1.4-0.9,2.5-2.4,3
					c0.6,0.8,1.1,1.6,1.7,2.5c0.5,0.8,1.1,1.6,1.5,2c0.2,0.2,0.4,0.3,0.7,0.4v0.5C10.6,96,10.1,96.1,9.6,96.1L9.6,96.1z M5.4,85.7
					c-0.3,0-0.6,0-1,0.1c0,1,0,2.8,0,4.1c0.2,0,0.5,0,0.7,0c1.4,0,2.3-0.8,2.3-2.1C7.4,86.6,6.5,85.7,5.4,85.7L5.4,85.7z"/>
				<path d="M15.1,85.9l-0.6-0.4l1.4-2l1.6,0.3L15.1,85.9L15.1,85.9z M18.1,95.7c-0.1,0.2-0.3,0.2-1,0.2c-0.5,0-0.9,0-1.4,0
					c-0.7,0-1.3,0-2,0s-1.3,0-2,0v-0.3c0.6-0.1,0.9-0.4,0.9-1c0-0.4,0-0.8,0-1.6v-3.9c0-0.7,0-1.1-0.2-1.3c-0.1-0.4-0.4-0.5-0.8-0.6
					v-0.4H18c0,0.4,0,0.8,0,1.2c0,0.3,0,0.6,0,1h-0.5c-0.1-1.1-0.5-1.3-2.2-1.3c-0.3,0-0.7,0-1,0c0,0.5,0,0.7,0,1.5v1.6
					c0.2,0,0.4,0,0.6,0c1.4,0,1.9-0.2,1.9-0.9h0.5c0,0.2,0,0.7,0,1.4c0,0.7,0,1.1,0,1.3h-0.5c0-0.8-0.4-1-1.8-1c-0.2,0-0.5,0-0.7,0
					c0,0.9,0,1.7,0,2.6c0,0.6,0.1,0.8,0.4,0.8c0.2,0.1,0.5,0.1,0.9,0.1c1.5,0,2-0.3,2.3-1.5l0.5,0.1C18.5,94.7,18.3,95.5,18.1,95.7
					L18.1,95.7z"/>
				<path d="M23.8,91.9c-0.1,0-0.2,0-0.4,0l-0.3-0.7c1.3-0.1,2-0.7,2-1.8c0-1.1-0.8-1.9-1.8-1.9c-0.2,0-0.3,0-0.5,0.1
					c0,0.8,0,1.7,0,2.5v2.4c0,1.8,0,2.1,0.2,2.5c0.1,0.4,0.4,0.5,0.8,0.6V96h-0.3c-0.4,0-0.8,0-1.5,0c-0.6,0-1.2,0-1.5,0h-0.3v-0.4
					c0.6-0.1,0.9-0.4,0.9-1c0-0.4,0-0.7,0-2v-3.4c0-0.7,0-1.1-0.2-1.3c-0.1-0.4-0.4-0.5-0.8-0.6v-0.4c0.2,0,0,0,0.6,0
					c0.2,0,0.6,0,1,0c0.7,0,1.4-0.1,2.1-0.1c1.9,0,3.1,1,3.1,2.5C27,90.8,25.7,91.9,23.8,91.9L23.8,91.9z"/>
				<path d="M36.3,87.5c-0.2,0.2-0.2,0.5-0.2,1c0,0.6,0,1,0,1.9c0,0.3,0,1.3,0,2.2c0,1-0.2,1.5-0.5,2.1c-0.6,0.9-1.7,1.4-3,1.4
					c-0.9,0-1.5-0.2-2.1-0.6c-1-0.6-1.3-1.4-1.3-2.9s0-2.1,0-2.6c0-0.7,0-1.4-0.1-2.1c-0.1-0.5-0.3-0.7-0.9-0.8v-0.4h0.3
					c0.4,0,0.9,0,1.5,0c0.7,0,1.2,0,1.5,0h0.3v0.4c-0.4,0.1-0.6,0.2-0.8,0.4c-0.1,0.2-0.2,0.5-0.2,1.1c0,0.9,0,1.7,0,2.6
					c0,2.4,0.1,2.8,0.5,3.3c0.3,0.4,0.9,0.6,1.5,0.6c0.9,0,1.8-0.5,2.1-1.4c0.2-0.6,0.2-1,0.2-2.6v-1.4c0-1.6,0-2-0.2-2.3
					c-0.2-0.2-0.4-0.4-0.7-0.4v-0.4c0.5,0,0.7,0,1.4,0c0.7,0,0.9,0,1.4,0V87C36.6,87.2,36.4,87.3,36.3,87.5L36.3,87.5z"/>
				<path d="M44.7,95.3c-0.6,0.5-1.4,0.7-2.8,0.7c-0.7,0-1.5-0.1-2.2-0.1c-0.3,0-0.9,0-1.2,0h-0.2v-0.3c0.6-0.1,0.9-0.4,0.9-1
					c0-0.4,0.1-0.7,0.1-2V90c0-1.3,0-1.8-0.2-2.2c-0.1-0.4-0.4-0.5-0.8-0.6v-0.4c0.6,0,1,0,1.9,0c0.8,0,2,0,2.8,0
					c1.3,0,2.4,0.6,2.4,2c0,1.1-0.7,1.8-2,2.1c1.5,0.3,2.2,1.1,2.2,2.5C45.6,94.2,45.3,94.8,44.7,95.3L44.7,95.3z M41.7,87.5
					c-0.2,0-0.5,0-0.7,0c0,0.9,0,2.4-0.1,3c0.2,0,0.3,0,0.6,0c1.3,0,2.1-0.6,2.1-1.5S42.9,87.5,41.7,87.5L41.7,87.5z M41.8,91.3
					c-0.2,0-0.5,0-0.8,0c0,0.4,0,0.4,0,1.1v0.8c0,0.8,0,1.2,0.1,1.5s0.4,0.5,1,0.5c1.2,0,1.8-0.6,1.8-1.8
					C43.9,92.1,43.1,91.3,41.8,91.3L41.8,91.3z"/>
				<path d="M53.4,95.7c-0.1,0.2-0.3,0.2-1,0.2c-0.3,0-0.7,0-1,0c-0.8,0-1.6-0.1-2.5-0.1c-0.7,0-1.2,0-1.6,0v-0.2
					c0.3,0,0.5-0.1,0.7-0.3c0.2-0.3,0.3-0.6,0.3-1.6c0-0.7,0-1.2,0-1.9v-1.5c0-1.8,0-2.1-0.2-2.5c-0.1-0.4-0.4-0.5-0.8-0.6v-0.4h0.3
					c0.4,0,0.9,0,1.6,0s1.2,0,1.5,0H51v0.4c-0.7,0-1,0.4-1.1,1c0,0.2,0,0.5,0,2v2.3c0,1.9,0,2.1,0.2,2.3c0.2,0.2,0.4,0.2,1,0.2
					c0.8,0,1.2-0.1,1.5-0.3c0.4-0.2,0.7-0.6,0.8-1.2l0.5,0.1C53.8,94.5,53.5,95.5,53.4,95.7L53.4,95.7z"/>
				<path d="M58.1,95.9c-0.3,0-0.8,0-1.5,0s-1.2,0-1.5,0h-0.3v-0.3c0.6-0.1,0.9-0.4,0.9-1c0-0.4,0.1-0.7,0.1-2v-2.3
					c0-0.4,0-0.7,0-1.1c0-0.7,0-1.1-0.1-1.3c-0.1-0.4-0.4-0.5-0.8-0.6v-0.4h0.3c0.4,0,0.8,0,1.5,0c0.6,0,1.2,0,1.5,0h0.3v0.4
					c-0.6,0-0.9,0.4-0.9,1c0,0.4,0,0.8,0,2v2.3c0,1.8,0,2.1,0.2,2.5c0.1,0.4,0.4,0.5,0.8,0.6v0.4L58.1,95.9L58.1,95.9z"/>
				<path d="M70.9,98.4c-1.1,0-2.2-0.3-3.3-0.9c-0.6-0.3-1.5-0.9-2.1-1.5c-0.5,0.1-0.6,0.1-1.1,0.1c-2.8,0-4.6-1.8-4.6-4.5
					c0-2.9,2-4.9,4.9-4.9c2.8,0,4.7,1.8,4.7,4.5c0,1.9-1,3.6-2.5,4.4c0.5,0.2,1,0.5,1.5,0.8c1.4,0.8,2.4,1.2,3.3,1.2
					c0.6,0,1-0.1,1.6-0.4l0.2,0.5C72.7,98.2,71.9,98.4,70.9,98.4L70.9,98.4z M64.5,87.6c-1.7,0-2.9,1.4-2.9,3.4
					c0,2.4,1.4,4.3,3.2,4.3c1.7,0,2.9-1.4,2.9-3.4C67.7,89.4,66.3,87.6,64.5,87.6L64.5,87.6z"/>
				<path d="M78.9,87.5c-0.2,0.2-0.2,0.5-0.2,1c0,0.6,0,1,0,1.9c0,0.3,0,1.3,0,2.2c0,1-0.2,1.5-0.5,2.1c-0.6,0.9-1.7,1.4-3,1.4
					c-0.9,0-1.5-0.2-2.1-0.6c-1-0.6-1.3-1.4-1.3-2.9s0-2.1,0-2.6c0-0.7,0-1.4-0.1-2.1c-0.1-0.5-0.3-0.7-0.9-0.8v-0.4h0.3
					c0.4,0,0.9,0,1.5,0c0.7,0,1.2,0,1.5,0h0.3v0.4c-0.4,0.1-0.6,0.2-0.8,0.4c-0.1,0.2-0.2,0.5-0.2,1.1c0,0.9,0,1.7,0,2.6
					c0,2.4,0.1,2.8,0.5,3.3c0.3,0.4,0.9,0.6,1.5,0.6c0.9,0,1.8-0.5,2.1-1.4c0.2-0.6,0.2-1,0.2-2.6v-1.4c0-1.6,0-2-0.2-2.3
					c-0.2-0.2-0.4-0.4-0.7-0.4v-0.4c0.5,0,0.7,0,1.4,0c0.7,0,0.9,0,1.4,0V87C79.3,87.2,79.1,87.3,78.9,87.5L78.9,87.5z"/>
				<path d="M87.3,95.7c-0.1,0.2-0.3,0.2-1,0.2c-0.5,0-0.9,0-1.4,0c-0.7,0-1.3,0-2,0s-1.3,0-2,0v-0.3c0.6-0.1,0.9-0.4,0.9-1
					c0-0.4,0-0.8,0-1.6v-3.9c0-0.7,0-1.1-0.2-1.3c-0.1-0.4-0.4-0.5-0.8-0.6v-0.4h6.4c0,0.4,0,0.8,0,1.2c0,0.3,0,0.6,0,1h-0.5
					c-0.1-1.1-0.5-1.3-2.2-1.3c-0.3,0-0.7,0-1,0c0,0.5,0,0.7,0,1.5v1.6c0.2,0,0.4,0,0.6,0c1.4,0,1.9-0.2,1.9-0.9h0.5
					c0,0.2,0,0.7,0,1.4c0,0.7,0,1.1,0,1.3H86c0-0.8-0.4-1-1.8-1c-0.2,0-0.5,0-0.7,0c0,0.9,0,1.7,0,2.6c0,0.6,0.1,0.8,0.4,0.8
					c0.2,0.1,0.5,0.1,0.9,0.1c1.5,0,2-0.3,2.3-1.5l0.5,0.1C87.6,94.7,87.4,95.5,87.3,95.7L87.3,95.7z"/>
				<path d="M99.9,87.5c0-1.2-0.7-1.7-2.6-1.7c-0.4,0-0.7,0-1.2,0c0,1.1,0,1.9,0,3.7c0.4,0,0.6,0,0.9,0c1.5,0,2-0.3,2.1-1.2h0.6
					c0,0.5,0,0.9,0,1.4c0,0.6,0,1.2,0,1.9h-0.6c-0.1-1-0.5-1.2-2.2-1.2c-0.3,0-0.4,0-0.7,0v1.9c0,0.4,0,0.8,0,1.2
					c0,0.9,0.1,1.7,1.2,1.8v0.5H97c-0.4,0-1,0-1.8,0s-1.4,0-1.8,0H93v-0.5c0.7-0.1,1.1-0.5,1.1-1.2c0-0.5,0-0.8,0-2.4v-4.1
					c0-0.9,0-1.3-0.2-1.6c-0.1-0.4-0.4-0.6-1-0.7v-0.5h7.6c0,0.3,0,0.8,0,1.5s0,0.8,0,1.1h-0.6V87.5z"/>
				<path d="M109.1,96c-0.5,0-0.8-0.1-1.1-0.3c-0.5-0.3-0.9-1.1-1.2-1.6c-0.5-0.8-1-1.7-1.5-2.4c-0.1,0-0.2,0-0.2,0
					c-0.1,0-0.2,0-0.4,0v0.7c0,0.4,0,0.7,0,1.1c0,0.7,0,1.1,0.1,1.3c0.1,0.4,0.4,0.5,0.8,0.6v0.4h-0.3c-0.4,0-0.8,0-1.5,0
					c-0.6,0-1.1,0-1.5,0H102v-0.2c0.3,0,0.5-0.1,0.7-0.3c0.2-0.2,0.2-0.4,0.3-0.7c0-0.4,0.1-0.7,0.1-2v-2.3c0-1.7-0.1-2.1-0.2-2.5
					s-0.4-0.5-0.8-0.6v-0.4c0.3,0,0.5,0,0.8,0c0.7,0,0.9,0,1.8,0c0.7,0,1.2,0,1.5,0c0.9,0,1.5,0.1,2,0.5s0.9,1.1,0.9,1.8
					c0,1.1-0.7,2-2,2.5c0.5,0.7,0.9,1.3,1.4,2.1c0.4,0.7,0.9,1.3,1.2,1.6c0.2,0.2,0.3,0.3,0.6,0.3V96C109.9,96,109.5,96,109.1,96
					L109.1,96z M105.6,87.5c-0.3,0-0.5,0-0.8,0.1c0,0.8,0,2.3,0,3.4c0.2,0,0.4,0,0.6,0c1.1,0,1.9-0.7,1.9-1.8
					C107.2,88.2,106.5,87.5,105.6,87.5L105.6,87.5z"/>
				<path d="M119,95.9c-0.3,0-0.8,0-1.5,0c-0.6,0-1.1,0-1.5,0h-0.3v-0.3c0.4,0,0.7-0.3,0.7-0.6c0-0.1,0-0.3-0.2-0.7
					c-0.2-0.5-0.3-0.8-0.4-1.3h-2.6l-0.3,0.8c-0.2,0.6-0.3,1.1-0.3,1.3c0,0.4,0.2,0.6,0.6,0.6v0.4c-0.5,0-0.7,0-1.4,0
					c-0.6,0-0.8,0-1.4,0v-0.5c0.2,0,0.3-0.1,0.4-0.2c0.3-0.2,0.5-0.7,0.9-1.8l1.3-3.3c0.4-0.9,0.9-2.3,1.3-3.5h0.9
					c0.1,0.4,0.4,1.1,0.6,1.6l1.9,4.9c0.3,0.8,0.6,1.3,0.7,1.6c0.2,0.3,0.4,0.5,0.7,0.6v0.4L119,95.9L119,95.9z M114.6,89.2
					c-0.4,0.9-0.8,2.1-1.1,2.8h2L114.6,89.2L114.6,89.2z"/>
				<path d="M128.7,87.6c-0.2,0.2-0.2,0.5-0.2,1.2c0,1.2-0.1,3.1-0.1,4.1V95c0,0.3,0,0.8,0,1h-0.9c-0.9-1.2-2.7-3.4-2.7-3.4
					c-0.2-0.3-1.9-2.4-2.8-3.4c0,0.3,0,0.1,0,1v0.9c0,1,0,2,0.1,3.1c0,0.6,0.1,0.9,0.2,1.1c0.1,0.3,0.3,0.4,0.7,0.4v0.4
					c-0.5,0-1,0-1.5,0s-1,0-1.5,0v-0.5c0.9,0,0.9-0.8,1-1.5c0-0.6,0-1.1,0-1.9v-2.9c0-1.1-0.1-1.4-0.3-1.7c-0.1-0.2-0.3-0.3-0.7-0.3
					v-0.4c0.5,0,0.6,0,1.2,0s0.7,0,1.2,0c0.2,0.3,0.4,0.6,1.4,1.7c1.3,1.6,2.5,3,3.7,4.4v-3c0-1.4,0-1.7-0.1-2.1s-0.4-0.7-0.9-0.7
					v-0.4c0.6,0,0.8,0,1.5,0s0.9,0,1.5,0v0.4C129.1,87.2,128.9,87.3,128.7,87.6L128.7,87.6z"/>
				<path d="M138.3,95.6c-0.9,0.4-1.7,0.5-2.8,0.5l-0.1,0.5c0.1,0,0.2,0,0.3,0c0.5,0,0.9,0.4,0.9,0.8c0,0.7-0.6,1.3-1.5,1.3
					c-0.3,0-0.5-0.1-0.8-0.2l0.2-0.5c0.2,0.1,0.3,0.1,0.5,0.1c0.4,0,0.6-0.2,0.6-0.5s-0.1-0.4-0.3-0.4c-0.1,0-0.2,0-0.3,0.1
					l-0.3-0.1l0.3-1.1c-1.2-0.1-2.1-0.5-2.8-1.3c-0.8-0.9-1.3-2-1.3-3.4c0-3,1.9-4.7,5-4.7c0.9,0,1.9,0.1,2.7,0.4c0,0.3,0,0.6,0,0.9
					c0,0.2,0,0.7,0,1h-0.5c-0.2-1-1-1.5-2.2-1.5c-1.9,0-3.1,1.3-3.1,3.4c0,2.5,1.4,4.3,3.3,4.3c1.2,0,1.9-0.6,2.2-1.7l0.5,0.1
					C138.5,94.1,138.3,94.9,138.3,95.6L138.3,95.6z"/>
				<path d="M147.8,95.9c-0.3,0-0.8,0-1.5,0c-0.6,0-1.1,0-1.5,0h-0.3v-0.3c0.4,0,0.7-0.3,0.7-0.6c0-0.1,0-0.3-0.2-0.7
					c-0.2-0.5-0.3-0.8-0.4-1.3H142l-0.3,0.8c-0.2,0.6-0.3,1.1-0.3,1.3c0,0.4,0.2,0.6,0.6,0.6v0.4c-0.5,0-0.7,0-1.4,0
					c-0.6,0-0.8,0-1.4,0v-0.5c0.2,0,0.3-0.1,0.4-0.2c0.3-0.2,0.5-0.7,0.9-1.8l1.3-3.3c0.4-0.9,0.9-2.3,1.3-3.5h0.9
					c0.1,0.4,0.4,1.1,0.6,1.6l1.9,4.9c0.3,0.8,0.6,1.3,0.7,1.6c0.2,0.3,0.4,0.5,0.7,0.6v0.4L147.8,95.9L147.8,95.9z M143.4,89.2
					c-0.4,0.9-0.8,2.1-1.1,2.8h2L143.4,89.2L143.4,89.2z"/>
				<path d="M152.3,95.9c-0.3,0-0.8,0-1.5,0s-1.2,0-1.5,0H149v-0.3c0.6-0.1,0.9-0.4,0.9-1c0-0.4,0.1-0.7,0.1-2v-2.3
					c0-0.4,0-0.7,0-1.1c0-0.7,0-1.1-0.1-1.3c-0.1-0.4-0.4-0.5-0.8-0.6v-0.4h0.3c0.4,0,0.8,0,1.5,0c0.6,0,1.1,0,1.5,0h0.3v0.4
					c-0.6,0-0.9,0.4-0.9,1c0,0.4,0,0.8,0,2v2.3c0,1.8,0,2.1,0.2,2.5c0.1,0.4,0.4,0.5,0.8,0.6v0.4L152.3,95.9L152.3,95.9z"/>
				<path d="M156.5,96.1c-0.8,0-1.4-0.1-2.3-0.5c0-0.5-0.1-1.3-0.2-2l0.5-0.1c0.3,1.1,1.1,1.7,2.1,1.7s1.6-0.5,1.6-1.3
					c0-0.6-0.4-1-1-1.4l-1.4-0.9c-1-0.6-1.6-1.3-1.6-2.5c0-1.5,1.2-2.5,3-2.5c0.9,0,1.6,0.2,2.2,0.5c0,0.3,0,0.4,0,0.9s0,0.6,0,1
					h-0.5c-0.2-1-0.8-1.5-1.8-1.5c-0.8,0-1.5,0.5-1.5,1.3c0,0.7,0.5,1.1,1.2,1.6l1.2,0.8c1.1,0.7,1.7,1.4,1.7,2.5
					C159.8,95.1,158.4,96.1,156.5,96.1L156.5,96.1z"/>
				<path d="M167.5,95.7c-0.1,0.2-0.3,0.2-1,0.2c-0.5,0-0.9,0-1.4,0c-0.7,0-1.3,0-2,0s-1.3,0-2,0v-0.3c0.6-0.1,0.9-0.4,0.9-1
					c0-0.4,0-0.8,0-1.6v-3.9c0-0.7,0-1.1-0.2-1.3c-0.1-0.4-0.4-0.5-0.8-0.6v-0.4h6.4c0,0.4,0,0.8,0,1.2c0,0.3,0,0.6,0,1h-0.3
					c-0.1-1.1-0.5-1.3-2.2-1.3c-0.3,0-0.7,0-1,0c0,0.5,0,0.7,0,1.5v1.6c0.2,0,0.4,0,0.6,0c1.4,0,1.9-0.2,1.9-0.9h0.5
					c0,0.2,0,0.7,0,1.4c0,0.7,0,1.1,0,1.3h-0.5c0-0.8-0.4-1-1.8-1c-0.2,0-0.5,0-0.7,0c0,0.9,0,1.7,0,2.6c0,0.6,0.1,0.8,0.4,0.8
					c0.2,0.1,0.5,0.1,0.9,0.1c1.5,0,2-0.3,2.3-1.5l0.5,0.1C167.9,94.7,167.7,95.5,167.5,95.7L167.5,95.7z"/>
				<path d="M5.9,72.5c-0.1,0.2-0.3,0.2-0.8,0.2c-0.7,0-1.3,0-1.9-0.1c-0.6,0-1,0-1.3,0c-0.4,0-1.4,0-1.7,0H0l0.1-0.3
					c0.4,0,0.6-0.2,0.8-0.4c0.2-0.3,0.3-0.6,0.5-1.4c0.2-0.7,0.3-1.2,0.5-2.5l0.2-1.1c0.2-1.1,0.3-1.7,0.3-2c0-0.6-0.2-0.8-0.8-0.9
					l0.1-0.3c0.1,0,0.1,0,0.2,0c0.5,0,1,0,1.5,0c0.8,0,1.3,0,1.5,0c0,0,0.1,0,0.2,0L5,64c-0.4,0-0.6,0.1-0.8,0.4
					c-0.3,0.4-0.5,1-1,3.6L3,68.9c-0.2,1.1-0.3,1.5-0.4,2c0,0.2,0,0.3,0,0.4c0,0.5,0.3,0.7,1.1,0.7c1.5,0,2.1-0.3,2.6-1.4l0.4,0.1
					C6.3,71.6,6,72.3,5.9,72.5L5.9,72.5z"/>
				<path d="M9.8,66c-0.4,0-0.7-0.3-0.7-0.6c0-0.5,0.3-0.8,0.8-0.8c0.4,0,0.7,0.2,0.7,0.6C10.6,65.7,10.3,66,9.8,66L9.8,66z
					 M8.4,72.8c-0.3,0-0.4-0.1-0.4-0.4c0-0.1,0-0.3,0.1-0.6c0.2-0.7,0.4-1.7,0.5-2.2c0.2-0.7,0.3-1.2,0.3-1.4c0-0.2-0.1-0.3-0.2-0.3
					c-0.1,0-0.2,0-0.5,0.1H8.1v-0.4c0.7-0.3,1.5-0.5,1.8-0.5c0.2,0,0.3,0.1,0.3,0.2c0,0.2-0.1,0.6-0.3,1.5l-0.2,0.8
					c-0.3,1.3-0.4,1.7-0.4,2c0,0.2,0.1,0.3,0.3,0.3c0.1,0,0.4-0.1,0.7-0.2v0.4C9.5,72.6,8.7,72.8,8.4,72.8L8.4,72.8z"/>
				<path d="M15.7,72.2c-0.5,0.5-1.1,0.6-2.1,0.6s-1.7-0.2-1.7-0.4c0-0.1,0-0.2,0.1-0.8l0.7-3c0.2-1,0.4-1.7,0.6-2.8
					c0.1-0.6,0.2-1,0.2-1.2s-0.1-0.3-0.2-0.3c-0.1,0-0.4,0.1-0.6,0.1V64l0.2-0.1c0.7-0.2,1.3-0.4,1.6-0.4c0.2,0,0.3,0.1,0.3,0.2
					s-0.1,0.5-0.3,1.5L14.1,67c-0.1,0.6-0.2,0.8-0.2,1c0.8-0.5,1.6-0.7,2.2-0.7c0.8,0,1.2,0.4,1.2,1.3
					C17.4,69.8,16.7,71.3,15.7,72.2L15.7,72.2z M15.7,67.9c-0.2,0-0.5,0.1-0.9,0.3c-0.4,0.2-0.7,0.4-0.8,0.6
					c-0.2,0.2-0.3,0.7-0.5,1.5s-0.3,1.3-0.3,1.5c0,0.3,0.3,0.4,0.8,0.4s1-0.3,1.4-0.7c0.5-0.8,0.9-2,0.9-2.8
					C16.3,68.2,16.1,67.9,15.7,67.9L15.7,67.9z"/>
				<path d="M20.3,70.5c-0.1,0-0.2,0-0.4,0c0,0.2-0.1,0.4-0.1,0.6c0,0.7,0.2,1,0.7,1c0.4,0,1-0.2,1.7-0.7l0.1,0.5
					c-1,0.6-1.7,0.9-2.4,0.9c-0.8,0-1.3-0.5-1.3-1.4c0-2.2,1.5-4.1,3.2-4.1c0.8,0,1.3,0.4,1.3,1.1C23.3,69.6,22,70.5,20.3,70.5
					L20.3,70.5z M21.7,67.9c-0.6,0-1.3,0.9-1.7,2.2h0.1c1.2,0,2.2-0.7,2.2-1.5C22.3,68.2,22,67.9,21.7,67.9L21.7,67.9z"/>
				<path d="M28.7,69.1h-0.4c0-0.2,0-0.3,0-0.5s-0.2-0.4-0.5-0.4c-0.2,0-0.4,0.1-0.6,0.3c-0.5,0.6-0.7,1.5-1,3l-0.3,1.3
					c-0.5,0-0.6,0-1.2,0.1c0.1-0.5,0.2-0.9,0.3-1.4l0.3-1.2c0.2-0.8,0.3-1.4,0.3-1.6c0-0.3-0.1-0.5-0.2-0.5c-0.1,0-0.2,0-0.3,0.1
					l-0.3,0.1V68c0.7-0.3,1.4-0.5,1.7-0.5c0.1,0,0.2,0.1,0.2,0.2c0,0.2,0.1,0.3,0.1,0.6c0.6-0.5,1.1-0.8,1.5-0.8
					c0.3,0,0.6,0.1,0.9,0.4C28.9,68.2,28.8,68.6,28.7,69.1L28.7,69.1z"/>
				<path d="M33.2,68.1h-1.1l-0.6,2.7c-0.1,0.7-0.2,0.9-0.2,1c0,0.2,0.1,0.3,0.3,0.3c0.1,0,0.3-0.1,0.6-0.1h0.1v0.4
					c-0.7,0.3-1.4,0.5-1.8,0.5c-0.3,0-0.5-0.1-0.5-0.4c0-0.2,0.1-0.6,0.2-1c0.1-0.5,0.2-0.9,0.3-1.4l0.4-2h-0.7l0.1-0.4
					c0.9-0.2,1.2-0.9,1.5-1.7l0.6-0.1l-0.3,1.6h1.1L33.2,68.1L33.2,68.1z"/>
				<path d="M37.3,66.5l-0.4-0.3l1.6-1.8l1.2,0.3L37.3,66.5L37.3,66.5z M35.8,70.5c-0.1,0-0.2,0-0.4,0c0,0.2-0.1,0.4-0.1,0.6
					c0,0.7,0.2,1,0.7,1c0.4,0,1-0.2,1.7-0.7l0.1,0.5c-1,0.6-1.7,0.9-2.4,0.9c-0.8,0-1.3-0.5-1.3-1.4c0-2.2,1.5-4.1,3.2-4.1
					c0.8,0,1.3,0.4,1.3,1.1C38.8,69.6,37.5,70.5,35.8,70.5L35.8,70.5z M37.2,67.9c-0.6,0-1.3,0.9-1.7,2.2h0.1c1.2,0,2.2-0.7,2.2-1.5
					C37.8,68.2,37.5,67.9,37.2,67.9L37.2,67.9z"/>
				<path d="M60.2,62.9l-0.4-0.3l1.6-1.8l1.2,0.3L60.2,62.9L60.2,62.9z M62.7,65.7h-0.4c0-0.1,0-0.2,0-0.3c0-0.7-0.5-1-1.8-1
					c-0.4,0-0.9,0-1.3,0c-0.3,1.1-0.5,2.1-0.7,3.3c0.2,0,0.3,0,0.5,0c0.9,0,1.2,0,1.5-0.1c0.5-0.1,0.8-0.4,0.9-0.9h0.4
					c-0.2,0.8-0.4,1.9-0.5,2.6h-0.4c0-0.1,0-0.2,0-0.2c0-0.6-0.4-0.8-1.5-0.8c-0.7,0-0.9,0-1.1,0c-0.1,0.3,0,0-0.3,1.6
					c-0.1,0.7-0.2,1.2-0.2,1.5c0,0.5,0.2,0.6,1.1,0.6c1.7,0,2.2-0.3,2.7-1.4l0.3,0.1c-0.3,0.9-0.6,1.6-0.8,1.8
					c-0.1,0.1-0.3,0.2-0.9,0.2c-0.5,0-0.9,0-1.4,0c-0.6,0-1.2,0-1.9,0c-0.6,0-1.2,0-1.9,0l0.1-0.3c0.4,0,0.6-0.2,0.8-0.4
					c0.2-0.3,0.3-0.6,0.5-1.4c0.2-0.7,0.2-1.1,0.5-2.5l0.2-1.1c0.2-1,0.3-1.7,0.3-2c0-0.6-0.2-0.8-0.8-0.9l0.1-0.3h6.1
					C62.9,64.4,62.8,65.1,62.7,65.7L62.7,65.7z"/>
				<path d="M69.3,68.1h-0.9c0.2,0.3,0.2,0.5,0.2,0.8c0,1.2-1,2.2-2.4,2.2c-0.3,0-0.4,0-0.7-0.1c-0.3,0.2-0.4,0.3-0.4,0.4
					s0.1,0.2,0.7,0.4l1.1,0.3c1.1,0.3,1.6,0.7,1.6,1.4c0,1.4-1.4,2.5-3.2,2.5c-1.5,0-2.4-0.7-2.4-1.8c0-1,0.7-1.5,1.8-1.8
					c-0.7-0.2-0.8-0.3-0.8-0.6c0-0.3,0.4-0.7,1.2-1.1c-0.4-0.3-0.6-0.7-0.6-1.2c0-1.3,1-2.2,2.3-2.2c0.3,0,0.6,0,0.9,0.1h1.8
					L69.3,68.1L69.3,68.1z M66.8,67.8c-0.7,0-1.3,0.8-1.3,1.7c0,0.6,0.4,1.1,0.9,1.1c0.7,0,1.3-0.7,1.3-1.6
					C67.6,68.3,67.3,67.8,66.8,67.8L66.8,67.8z M67,73.2c-0.5-0.2-1-0.4-1.6-0.5c-0.9,0.2-1.6,0.9-1.6,1.7c0,0.7,0.6,1.2,1.6,1.2
					c1.2,0,2.2-0.8,2.2-1.6C67.6,73.6,67.4,73.4,67,73.2L67,73.2z"/>
				<path d="M74.3,72.8c-0.2,0-0.3-0.1-0.4-0.8c-1,0.6-1.7,0.8-2.4,0.8c-0.8,0-1.3-0.4-1.3-1.1s0.3-1.7,0.9-2.5
					c0.7-1.1,1.6-1.8,3-1.8c0.6,0,1.1,0.1,1.7,0.3l-0.1,0.2c-0.5,1.5-0.8,3.2-0.8,3.8c0,0.4,0.1,0.6,0.2,0.6s0.4-0.1,0.7-0.2v0.4
					C75.2,72.6,74.5,72.8,74.3,72.8L74.3,72.8z M73.7,67.9c-0.5,0-1.1,0.4-1.5,1.1c-0.5,0.8-0.9,1.9-0.9,2.6c0,0.4,0.2,0.6,0.5,0.6
					c0.5,0,1.4-0.4,1.7-0.8c0.2-0.2,0.3-0.5,0.4-1c0.2-0.8,0.4-1.6,0.5-2.5C74.2,68,73.9,67.9,73.7,67.9L73.7,67.9z"/>
				<path d="M80.2,65c-0.4,1.8-0.9,3.7-1.3,5.6c-0.1,0.6-0.2,1-0.2,1.2s0.1,0.3,0.3,0.3c0.1,0,0.4-0.1,0.7-0.2v0.4
					c-0.7,0.3-1.5,0.5-1.9,0.5c-0.3,0-0.4-0.1-0.4-0.4c0-0.2,0-0.4,0.2-1.3c0.4-1.8,0.9-3.6,1.2-5.3C79,65,79,64.6,79,64.5
					c0-0.2-0.1-0.2-0.2-0.2s-0.4,0.1-0.6,0.1V64c0.7-0.2,1.4-0.4,1.8-0.4c0.2,0,0.3,0.1,0.3,0.2C80.4,64,80.4,64.3,80.2,65L80.2,65z
					"/>
				<path d="M83.5,66c-0.4,0-0.7-0.3-0.7-0.6c0-0.5,0.3-0.8,0.8-0.8c0.4,0,0.7,0.2,0.7,0.6C84.3,65.7,84,66,83.5,66L83.5,66z
					 M82.1,72.8c-0.3,0-0.4-0.1-0.4-0.4c0-0.1,0-0.3,0.1-0.6c0.2-0.7,0.4-1.7,0.5-2.2c0.2-0.7,0.3-1.2,0.3-1.4
					c0-0.2-0.1-0.3-0.2-0.3s-0.2,0-0.5,0.1h-0.1v-0.4c0.7-0.3,1.5-0.5,1.8-0.5c0.2,0,0.3,0.1,0.3,0.2c0,0.2-0.1,0.6-0.3,1.5
					l-0.2,0.8c-0.3,1.3-0.4,1.7-0.4,2c0,0.2,0.1,0.3,0.3,0.3c0.1,0,0.4-0.1,0.7-0.2v0.4C83.2,72.6,82.4,72.8,82.1,72.8L82.1,72.8z"
					/>
				<path d="M88.8,68.1h-1.1l-0.6,2.7c-0.1,0.7-0.2,0.9-0.2,1c0,0.2,0.1,0.3,0.3,0.3c0.1,0,0.3-0.1,0.6-0.1h0.1v0.4
					c-0.7,0.3-1.4,0.5-1.8,0.5c-0.3,0-0.5-0.1-0.5-0.4c0-0.2,0.1-0.6,0.2-1c0.1-0.5,0.2-0.9,0.3-1.4l0.4-2h-0.7l0.1-0.4
					c0.9-0.2,1.2-0.9,1.5-1.7l0.6-0.1l-0.3,1.6h1.1V68.1L88.8,68.1z"/>
				<path d="M92.9,66.5l-0.4-0.3l1.6-1.8l1.2,0.3L92.9,66.5L92.9,66.5z M91.4,70.5c-0.1,0-0.2,0-0.4,0c0,0.2-0.1,0.4-0.1,0.6
					c0,0.7,0.2,1,0.7,1c0.4,0,1-0.2,1.7-0.7l0.1,0.5c-1,0.6-1.7,0.9-2.4,0.9c-0.8,0-1.3-0.5-1.3-1.4c0-2.2,1.5-4.1,3.2-4.1
					c0.8,0,1.3,0.4,1.3,1.1C94.4,69.6,93.1,70.5,91.4,70.5L91.4,70.5z M92.8,67.9c-0.6,0-1.3,0.9-1.7,2.2h0.1c1.2,0,2.2-0.7,2.2-1.5
					C93.4,68.2,93.1,67.9,92.8,67.9L92.8,67.9z"/>
				<path d="M118.1,65.7h-0.4c0-0.1,0-0.2,0-0.3c0-0.3-0.1-0.5-0.3-0.6c-0.3-0.2-0.7-0.3-1.7-0.3c-0.3,0-0.7,0-1,0
					c-0.2,1.1-0.5,2.1-0.7,3.3c0.3,0,0.5,0,0.8,0c1.5,0,1.8-0.1,2.1-1h0.4c-0.2,0.9-0.4,1.7-0.5,2.6h-0.4c0-0.1,0-0.2,0-0.2
					c0-0.2-0.1-0.4-0.3-0.6c-0.2-0.2-0.5-0.2-1.3-0.2c-0.4,0-0.5,0-0.9,0l-0.2,0.9c-0.3,1.3-0.3,1.9-0.3,2.3c0,0.5,0.2,0.8,0.8,0.9
					l-0.1,0.3h-0.2c-0.1,0-0.7,0-1.2,0s-1.5,0-1.7,0h-0.2l0.1-0.3c0.4,0,0.6-0.2,0.8-0.4c0.2-0.3,0.4-0.6,0.5-1.4
					c0.2-0.8,0.3-1.2,0.5-2.5l0.2-1.1c0.2-1.1,0.3-1.7,0.3-2c0-0.6-0.2-0.8-0.8-0.9l0.1-0.3h5.9C118.4,64.4,118.2,65.1,118.1,65.7
					L118.1,65.7z"/>
				<path d="M122.7,69.1h-0.4c0-0.2,0-0.3,0-0.5s-0.2-0.4-0.5-0.4c-0.2,0-0.4,0.1-0.6,0.3c-0.5,0.6-0.7,1.5-1,3l-0.3,1.3
					c-0.5,0-0.6,0-1.2,0.1c0.1-0.5,0.2-0.9,0.3-1.4l0.3-1.2c0.2-0.8,0.3-1.4,0.3-1.6c0-0.3-0.1-0.5-0.2-0.5s-0.2,0-0.3,0.1l-0.3,0.1
					V68c0.7-0.3,1.4-0.5,1.7-0.5c0.1,0,0.2,0.1,0.2,0.2c0,0.2,0.1,0.3,0.1,0.6c0.6-0.5,1.1-0.8,1.5-0.8c0.3,0,0.6,0.1,0.9,0.4
					C122.9,68.2,122.8,68.6,122.7,69.1L122.7,69.1z"/>
				<path d="M127.9,72.8c-0.2,0-0.3-0.1-0.4-0.8c-1,0.6-1.7,0.8-2.4,0.8c-0.8,0-1.3-0.4-1.3-1.1s0.3-1.7,0.9-2.5
					c0.7-1.1,1.6-1.8,3-1.8c0.6,0,1.1,0.1,1.7,0.3l-0.1,0.2c-0.5,1.5-0.8,3.2-0.8,3.8c0,0.4,0.1,0.6,0.2,0.6s0.4-0.1,0.7-0.2v0.4
					C128.8,72.6,128.2,72.8,127.9,72.8L127.9,72.8z M127.3,67.9c-0.5,0-1.1,0.4-1.5,1.1c-0.5,0.8-0.9,1.9-0.9,2.6
					c0,0.4,0.2,0.6,0.5,0.6c0.5,0,1.4-0.4,1.7-0.8c0.2-0.2,0.3-0.5,0.4-1c0.2-0.8,0.4-1.6,0.5-2.5C127.8,68,127.5,67.9,127.3,67.9
					L127.3,67.9z"/>
				<path d="M134.3,68.1h-1.1l-0.6,2.7c-0.1,0.7-0.2,0.9-0.2,1c0,0.2,0.1,0.3,0.3,0.3c0.1,0,0.3-0.1,0.6-0.1h0.1v0.4
					c-0.7,0.3-1.4,0.5-1.8,0.5c-0.3,0-0.5-0.1-0.5-0.4c0-0.2,0.1-0.6,0.2-1c0.1-0.5,0.2-0.9,0.3-1.4l0.4-2h-0.7l0.1-0.4
					c0.9-0.2,1.2-0.9,1.5-1.7l0.6-0.1l-0.3,1.6h1.1V68.1L134.3,68.1z"/>
				<path d="M136.9,70.5c-0.1,0-0.2,0-0.4,0c0,0.2-0.1,0.4-0.1,0.6c0,0.7,0.2,1,0.7,1c0.4,0,1-0.2,1.7-0.7l0.1,0.5
					c-1,0.6-1.7,0.9-2.4,0.9c-0.8,0-1.3-0.5-1.3-1.4c0-2.2,1.5-4.1,3.2-4.1c0.8,0,1.3,0.4,1.3,1.1C139.9,69.6,138.6,70.5,136.9,70.5
					L136.9,70.5z M138.3,67.9c-0.6,0-1.3,0.9-1.7,2.2h0.1c1.2,0,2.2-0.7,2.2-1.5C138.9,68.2,138.6,67.9,138.3,67.9L138.3,67.9z"/>
				<path d="M145.3,69.1h-0.4c0-0.2,0-0.3,0-0.5s-0.2-0.4-0.5-0.4c-0.2,0-0.4,0.1-0.6,0.3c-0.5,0.6-0.7,1.5-1,3l-0.3,1.3
					c-0.5,0-0.6,0-1.2,0.1c0.1-0.5,0.2-0.9,0.3-1.4l0.3-1.2c0.2-0.8,0.3-1.4,0.3-1.6c0-0.3-0.1-0.5-0.2-0.5s-0.2,0-0.3,0.1l-0.3,0.1
					V68c0.7-0.3,1.4-0.5,1.7-0.5c0.1,0,0.2,0.1,0.2,0.2c0,0.2,0.1,0.3,0.1,0.6c0.6-0.5,1.1-0.8,1.5-0.8c0.3,0,0.6,0.1,0.9,0.4
					C145.5,68.2,145.4,68.6,145.3,69.1L145.3,69.1z"/>
				<path d="M150.6,72.8c-0.3,0-0.4-0.2-0.4-0.4c0-0.2,0.1-0.5,0.2-1.1l0.1-0.6c0.4-1.7,0.5-2.2,0.5-2.5c0-0.2-0.1-0.3-0.3-0.3
					c-0.2,0-0.6,0.1-1,0.4c-0.4,0.2-0.7,0.5-0.9,0.8c-0.1,0.2-0.2,0.5-0.4,1.3c-0.2,1-0.3,1.6-0.5,2.3c-0.5,0-0.7,0.1-1.2,0.1
					c0.3-1,0.5-1.8,0.7-2.7c0.2-0.9,0.3-1.3,0.3-1.6c0-0.3-0.1-0.5-0.3-0.5c-0.1,0-0.3,0.1-0.7,0.2v-0.4c0.6-0.3,1.3-0.4,1.7-0.4
					c0.3,0,0.4,0.2,0.4,0.8v0.1c1-0.6,2.1-0.9,2.8-0.9c0.4,0,0.6,0.1,0.6,0.4s-0.1,0.7-0.4,1.8c-0.2,0.6-0.3,1.3-0.4,1.6
					c-0.1,0.4-0.1,0.6-0.1,0.8c0,0.2,0.1,0.3,0.3,0.3c0.1,0,0.4-0.1,0.7-0.2v0.4C151.7,72.6,150.9,72.8,150.6,72.8L150.6,72.8z"/>
				<path d="M156.2,66c-0.4,0-0.7-0.3-0.7-0.6c0-0.5,0.3-0.8,0.8-0.8c0.4,0,0.7,0.2,0.7,0.6C157,65.7,156.7,66,156.2,66L156.2,66z
					 M154.7,72.8c-0.3,0-0.4-0.1-0.4-0.4c0-0.1,0-0.3,0.1-0.6c0.2-0.7,0.4-1.7,0.5-2.2c0.2-0.7,0.3-1.2,0.3-1.4
					c0-0.2-0.1-0.3-0.2-0.3s-0.2,0-0.5,0.1h-0.1v-0.4c0.7-0.3,1.5-0.5,1.8-0.5c0.2,0,0.3,0.1,0.3,0.2c0,0.2-0.1,0.6-0.3,1.5
					l-0.2,0.8c-0.3,1.3-0.4,1.7-0.4,2c0,0.2,0.1,0.3,0.3,0.3c0.1,0,0.4-0.1,0.7-0.2v0.4C155.9,72.6,155.1,72.8,154.7,72.8
					L154.7,72.8z"/>
				<path d="M161.4,68.1h-1.1l-0.6,2.7c-0.1,0.7-0.2,0.9-0.2,1c0,0.2,0.1,0.3,0.3,0.3c0.1,0,0.3-0.1,0.6-0.1h0.1v0.4
					c-0.7,0.3-1.4,0.5-1.8,0.5c-0.3,0-0.5-0.1-0.5-0.4c0-0.2,0.1-0.6,0.2-1c0.1-0.5,0.2-0.9,0.3-1.4l0.4-2h-0.7l0.1-0.4
					c0.9-0.2,1.2-0.9,1.5-1.7l0.6-0.1l-0.3,1.6h1.1V68.1L161.4,68.1z"/>
				<path d="M165.5,66.5l-0.4-0.3l1.6-1.8l1.2,0.3L165.5,66.5L165.5,66.5z M164,70.5c-0.1,0-0.2,0-0.4,0c0,0.2-0.1,0.4-0.1,0.6
					c0,0.7,0.2,1,0.7,1c0.4,0,1-0.2,1.7-0.7l0.1,0.5c-1,0.6-1.7,0.9-2.4,0.9c-0.8,0-1.3-0.5-1.3-1.4c0-2.2,1.5-4.1,3.2-4.1
					c0.8,0,1.3,0.4,1.3,1.1C167.1,69.6,165.8,70.5,164,70.5L164,70.5z M165.4,67.9c-0.6,0-1.3,0.9-1.7,2.2h0.1
					c1.2,0,2.2-0.7,2.2-1.5C166.1,68.2,165.8,67.9,165.4,67.9L165.4,67.9z"/>
				<path d="M103,70.3c0.9,0,1.6-0.7,1.6-1.6s-0.7-1.6-1.6-1.6s-1.6,0.7-1.6,1.6S102.1,70.3,103,70.3L103,70.3z"/>
				<path d="M47.5,70.3c0.9,0,1.6-0.7,1.6-1.6s-0.7-1.6-1.6-1.6s-1.6,0.7-1.6,1.6C45.8,69.6,46.6,70.3,47.5,70.3L47.5,70.3z"/>
				<line class="st1" x1="0.9" y1="78.7" x2="167.1" y2="78.7"/>
				<rect x="0.9" y="78.4" width="166.3" height="0.6"/>
				<g>
					<g>
						<defs>
							<rect id="SVGID_1_" y="0.2" width="168" height="56.4"/>
						</defs>
						<clipPath id="SVGID_2_">
							<use xlink:href="#SVGID_1_"  style="overflow:visible;"/>
						</clipPath>
						<path class="st2" d="M-0.4,56.9c0.3-14,0-27.9,0.4-41.8c0.1-5-0.1-10-0.1-15c3.4-0.6,7-0.3,10.4-0.1c22.2,0,44.3-0.1,66.4,0
							c-1.5,0.8-3.3,1.4-4.4,2.8c-1,1.3-2,2.5-2.4,4.1c-1.7,1-2.7,2.5-3.6,4.1c-1.1,2.2-2.8,4.1-2.5,6.6c0.3,2,0.8,3.9,1.1,6.2
							c0.1,0.8,0.3,1.4,0.5,2.2c0.3,0.8,0,1.7,0.4,2.3c0.3,0.4,0.1,0.9,0.6,1.1c0,0.1,0,0.4,0,0.5c0.1,0.1,0.1,0.3,0.4,0.3
							c0,0.1,0,0.4,0,0.5c1,1.3,2.3,2.4,2.9,3.8c0.3,0.8-1.3,0.4-1.9,0.1c-1.3-0.6-2-1.7-3.1-2.5c0,0-0.1,0.1-0.1,0.3
							c0.5,0.9,2.4,2,1.4,2.7c-0.5,0.3-1.1-0.4-1.7,0.1c-0.1,0.3,0,0.5,0,0.8c-0.8-0.5-1.5-0.3-2.3-0.5c-0.5-0.1-0.6-1.1-1.3-1.1
							c-1.7-0.4-3.2-0.8-4.8-0.9c-2.3-0.3-4.4-0.6-6.8-0.3c-2,0.1-3.6,1.7-4.8,3.2c0,0.1,0,0.4,0,0.4c0.9,0.1,1.3-0.6,2-0.9
							c1.3-0.3,2.4-0.8,3.7-1c1.9-0.4,3.7-0.9,5.6-0.8c0.4,0,0.9-0.1,1.3,0c-2.3-0.1-4.3,0.6-6.6,1.3l0,0c-1.5,0.4-3.1,0.5-4.4,1.3
							c3.3-0.1,6.7,0.4,9.9,1.4c1.1,0.4,2.2,0.9,3.2,1.5c0.5,0.4,0.8,0.8,1.3,1c0.6,0.4,1.5,0.4,2.2,0.1c0.1,0,0.5,0,0.6,0
							c1.9-0.5,3.9-1,5.3-2.4c0,0.1,0.1,0.1,0.3,0.1c-0.4,1-0.4,2.2-1.1,3.1c0,0.1-0.1,0.4,0.1,0.5c0.1,0,0.1,0,0.3,0
							c-0.1,0-0.3,0-0.3,0.1c0,0.3,0.4,0,0.5,0.3c-0.6,0.1-1.3,0.3-1.7,0.8c0,0.1,0.3,0.1,0.4,0.1c-0.3,0.3-0.6,0.1-0.8,0.4
							c0,0,0.1,0.1,0.3,0.1c-0.1,0-0.3,0-0.3,0.1s0,0.3,0,0.4c-0.4,0-0.5,0.3-0.8,0.4c0.5,0.4,0.9,0,1.4,0c-1.4,0.5-2.5,1.3-3.9,1.7
							c-0.3,0,0,0.4-0.3,0.4c0.4,0.3,0.6-0.1,1-0.1c-1.8,1-3.6,1.9-5.6,3.1c0,0-0.3,0.3-0.3,0.5c-0.1,0-0.4,0-0.5,0
							c-0.3,0.1-0.1,0.5-0.4,0.8c0.6,0.4,1.4-0.5,1.8,0c0.1,0-0.3,0.1-0.5,0.1c-0.1,0-0.1,0.3-0.3,0.3c-0.1,0-0.3,0-0.4,0
							c-0.3,0.3-0.5,0.4-0.5,0.8c-0.3,0-0.5,0-0.6,0.3c2.8-0.4,5.8-0.1,8.5-1.5c2-1,3.9-2.4,5.7-4.2c0,0,0.1,0.1,0.1,0.3
							c-0.4,1.3-1.1,2.2-2.2,2.9c-0.8,0.4-1.3,1-1.9,1.3c-0.4,0.3-0.8,0.5-1.1,0.8c-4.7,1.7-10.4,0.9-14.5,4.1
							c0-0.1-0.1-0.1-0.3-0.1c-0.3,0.3-0.6,0.4-0.8,0.6c0,0.3,0.4,0.1,0.5,0.1c0.8-0.5,1.5-0.9,2.4-1.1c-1,0.5-2,1.3-3.1,1.5
							c-2.2,0.4-4.2,0.3-6.5,0c1.3-0.8,2.5-1.7,3.9-2.4c-0.4-0.3-0.8-0.3-1.1-0.3c-0.6,0.1-1.4-0.3-2,0c-1.9,0.9-4.4,0.6-5.6,2.7"/>
					</g>
					<g>
						<defs>
							<rect id="SVGID_3_" y="0.2" width="168" height="56.4"/>
						</defs>
						<clipPath id="SVGID_4_">
							<use xlink:href="#SVGID_3_"  style="overflow:visible;"/>
						</clipPath>
						<path class="st3" d="M42.9,41.4c-0.4,0.1-0.8,0.4-0.6,0.6c0.4,0.5,1.1-0.1,1.8-0.1c-0.8,0.3-1.7,0.1-2.3,0.8
							c0.5,0.4,1,0.1,1.5,0.1c0,0.3,0.3,0.3,0.4,0.4c-0.6,0.3-1.1,0.8-1.3,1.1c-0.3,0.6-0.9,0.9-1.3,1.4c0,0.1,0,0.3,0,0.4
							c-1.3,1.1-2.7,1.9-3.7,3.3c0.1,0,0.1,0.1,0.1,0.3c-0.3,0.4-0.8,0.5-0.9,0.9c0,0.1,0,0.3,0.1,0.3c1.5-0.5,2.7-1.7,4.1-2.2
							c1-0.3,1.8-0.9,2.7-1.1c0.6-0.1,1.4-0.4,2-0.5c0,0.1,0,0.3,0.1,0.3c0.4,0,0.6,0,1,0c-0.1,0.3-0.6,0.1-0.5,0.3
							c0.4,0.4,1.1,0.3,1.7,0c0.4-0.3,0.8-0.3,1.3-0.3c0.1,0,0.1-0.3,0.1-0.4c0.4,0.1,0.6,0.1,1,0.1c3.1-0.6,6.1-1.3,8.9-2.7
							c-3.3-2.5-7.6-3.4-11.5-4.6c0.4,0,0.8,0.4,1.1,0c-0.6-0.5-1.4-0.3-2-0.6c0.1,0,0.4,0.1,0.5-0.1c-1-0.5-2-0.5-3.1-0.8
							c0.6-0.1,1-0.6,1-1.3c0-0.1-0.3-0.1-0.4-0.1c-1.5,0.8-2.5,2.2-3.2,3.8c0.9,0.5,1.9,0.1,2.8,0.3C44.1,41.3,43.5,41.3,42.9,41.4
							L42.9,41.4z"/>
					</g>
					<g>
						<defs>
							<rect id="SVGID_5_" y="0.2" width="168" height="56.4"/>
						</defs>
						<clipPath id="SVGID_6_">
							<use xlink:href="#SVGID_5_"  style="overflow:visible;"/>
						</clipPath>
						<path class="st4" d="M37.7,36.3c-1.3,1.4-2.7,2.7-4.3,3.6c-1.1,2.3-2.4,4.3-4.1,6.6c0,0.1,0.1,0.3,0.1,0.3
							c3.1-3.4,5.9-6.5,9.9-8.9c0.3-0.1-0.4,0.4,0.1,0.3c1.7-0.4,2.2-2,2.9-3.3c1-1.7,2.8-2.3,4.1-3.7c0,0.1,0,0.3-0.1,0.4
							c0.1,0.1,0.3,0.1,0.4,0.1c0.5-0.4,1.1-0.3,1.5-0.8c-1-0.4-2.3-0.5-3.3-0.1C42.2,32,39.9,34.1,37.7,36.3L37.7,36.3z"/>
					</g>
					<g>
						<defs>
							<rect id="SVGID_7_" y="0.2" width="168" height="56.4"/>
						</defs>
						<clipPath id="SVGID_8_">
							<use xlink:href="#SVGID_7_"  style="overflow:visible;"/>
						</clipPath>
						<path class="st5" d="M39.6,38.9c0.1-0.2,0.3-0.3,0.4-0.5c0-0.1,0-0.3-0.1-0.3c-0.5,0.1-0.9,0.6-1,1.1c0,0.1,0.1,0.1,0.3,0.1
							C39.4,39.2,39.5,39.1,39.6,38.9L39.6,38.9z"/>
					</g>
					<g>
						<defs>
							<rect id="SVGID_9_" y="0.2" width="168" height="56.4"/>
						</defs>
						<clipPath id="SVGID_10_">
							<use xlink:href="#SVGID_9_"  style="overflow:visible;"/>
						</clipPath>
						<path class="st6" d="M49.9,48.6c-0.5,0.3-1.4,0.3-1.5,0.9c-0.1,0.3,0.4,0.1,0.6,0.1c0.9-0.4,1.9,0,2.7-0.8
							c-0.3-0.3-0.6-0.1-0.9-0.5C50.5,48.2,50.2,48.5,49.9,48.6L49.9,48.6z"/>
					</g>
					<g>
						<defs>
							<rect id="SVGID_11_" y="0.2" width="168" height="56.4"/>
						</defs>
						<clipPath id="SVGID_12_">
							<use xlink:href="#SVGID_11_"  style="overflow:visible;"/>
						</clipPath>
						<path class="st7" d="M63.9,55.5c0.8-0.2,1.5-0.6,2.3-0.9c0,0.1,0,0.1,0,0.3c1.9-0.8,3.3-2.4,5.3-3.1c0.1,0,0.4,0.3,0.6,0.1
							c1.1-1,2.4-2.2,4.1-1.9c0,0.1,0,0.3,0.1,0.3s0.3,0,0.3-0.1c-0.5,0.4-1,0.8-1.5,1.1c-0.1,0.1,0,0.3,0.1,0.3
							c0.6-0.3,1-0.8,1.7-1c-0.1,0.1-0.1,0.4-0.3,0.5c-2.4,1.8-4.2,3.8-6.2,6.1c-1.3,0-2.7,0-3.9,0c0-0.1,0-0.3-0.1-0.3
							c-4.4,0.4-8.9,0.3-13.3,0.3c2.5-0.4,5.1-1.1,7.7-1.4C61.7,55.6,62.7,55.7,63.9,55.5L63.9,55.5z"/>
					</g>
					<g>
						<defs>
							<rect id="SVGID_13_" y="0.2" width="168" height="56.4"/>
						</defs>
						<clipPath id="SVGID_14_">
							<use xlink:href="#SVGID_13_"  style="overflow:visible;"/>
						</clipPath>
						<path class="st8" d="M114.5,49c0.3-0.9,0.6-1.9,0.1-2.8c-0.8-1.1,0.8-1.5,1.3-2.3c0.4-0.6-0.3-1-0.4-1.7
							c-0.1-0.3-0.6-0.1-0.9-0.5c0.9-0.4,2.3-1.1,1.7-2.3c-0.4-0.6-1-1.7-0.3-2.3c0.9-0.5,2.3-0.4,2.7-1.3c0.6-1.5-0.8-2.8-1.5-4.1
							c-0.4-0.8-0.9-1.3-1.4-2c-0.5-0.9-1.1-1.7-1.4-2.7c-0.4-1,0.1-1.9,0.1-2.9c0.1-1.9-0.4-3.8-0.9-5.8c-0.4-0.9-0.5-1.9-0.9-2.8
							c-0.1-0.5-0.3-1-0.6-1.5c-0.1-0.3-0.1-0.6,0-0.9c0.5-0.4,1-0.8,1.5-1.3c0.4-0.6,0.1-1.5-0.5-1.9c-0.9-0.4-0.8,0.9-1.4,1.1
							c-0.1,0-0.3,0-0.4,0c-0.1-0.4,0.1-0.5,0.4-0.8c0-0.1,0-0.4-0.1-0.4c-0.5,0-1-0.1-1.1-0.4c-1.3-1.8-3.1-2.7-5-3.4
							c0.5,0.1,1,0.3,1.5,0.3c0.9,0.1,1.9,0.1,2.7-0.3c0.6-0.3,0.8-1.3,1-1.9c0.3-0.5-0.1-1.3-0.4-1.7c-0.6-1-1.7-1.7-2.7-2.2
							c20.3,0,40.6,0,60.9,0c0.1,19-0.1,38-0.3,57c-24,0.4-48,0-72,0c0.8-2.5,2.2-5,4.4-6.7c0.5-0.3,1.1-0.4,1.8-0.5
							c2.2,0,4.3,0.6,6.6,0.9c0.3,0,0.5,0.1,0.8,0.3c0.8,0.1,1.7,0.1,2.4-0.1C113.1,50.7,114.1,50.2,114.5,49L114.5,49z"/>
					</g>
					<g>
						<defs>
							<rect id="SVGID_15_" y="0.2" width="168" height="56.4"/>
						</defs>
						<clipPath id="SVGID_16_">
							<use xlink:href="#SVGID_15_"  style="overflow:visible;"/>
						</clipPath>
						<path class="st9" d="M109.5,23.7c-0.7-0.2-1.4,0-2.2,0c-1,0.3-1.9,0.4-2.8,0.8c0.8-0.5,1.5-1,2.4-1.3c0.6-0.1,1.3-0.5,1.9-0.5
							c0.8-0.1,1.5-0.4,2.2-0.1c0.6,0.3,1.7,0.3,1.8,0.6c0.3,0.8-0.4,1.5-1.1,2c-0.1,0.3,0.4,0.4,0.4,0.6c-0.1,0.3-0.5,0.4-0.8,0.4
							c-0.3,0.1-0.5,0.5-0.8,0.8c0.3,0,0,0.4,0.3,0.4c-0.5,0.6,0.3,1.9-0.5,2.2c-0.9,0.3-1.9,0.3-2.9,0c0.5-0.1,1.1,0.1,1.5-0.4
							c0-0.1,0-0.4,0-0.5s-0.1-0.1-0.3-0.1c-0.1,0.1-0.3,0.1-0.3,0.1c0-0.3-0.3-0.5-0.4-0.5c-0.8,0.1-1.4-0.3-1.9-0.8
							c0.4-0.1,0.8-0.3,1.1-0.1c0.4,0,0.3-0.6,0.6-0.9c0.1,0,0.3,0,0.4,0c0.8-1,2.3-1.3,2.5-2.3C110.9,23.8,110,23.8,109.5,23.7
							L109.5,23.7z"/>
					</g>
				</g>
			</g>
		</g>
	</g>
</g>
</svg>
