<svg xmlns="http://www.w3.org/2000/svg" viewBox="4378 3276 30 30">
  <defs>
    <style>
      .cls-1 {
        fill: #fff;
      }
    </style>
  </defs>
  <path id="Tracé_383" data-name="Tracé 383" class="cls-1" d="M28.24,0H1.76A1.767,1.767,0,0,0,0,1.76V28.24A1.767,1.767,0,0,0,1.76,30H28.24A1.767,1.767,0,0,0,30,28.24V1.76A1.767,1.767,0,0,0,28.24,0Zm-6.3,11.9v.446a9.708,9.708,0,0,1-14.95,8.182c.273.025.545.05.818.05a6.808,6.808,0,0,0,4.24-1.463,3.442,3.442,0,0,1-3.2-2.38,2.7,2.7,0,0,0,.645.074,3.374,3.374,0,0,0,.893-.124,3.429,3.429,0,0,1-2.752-3.347v-.05a3.339,3.339,0,0,0,1.562.421A3.423,3.423,0,0,1,7.686,10.86a3.341,3.341,0,0,1,.471-1.711,9.779,9.779,0,0,0,7.041,3.57,4.08,4.08,0,0,1-.1-.769A3.421,3.421,0,0,1,21.025,9.62,7.471,7.471,0,0,0,23.207,8.8a3.355,3.355,0,0,1-1.512,1.884,6.569,6.569,0,0,0,1.959-.545A6.8,6.8,0,0,1,21.942,11.9Z" transform="translate(4378 3276)"/>
</svg>
